<svg xmlns="http://www.w3.org/2000/svg" width="91.447" height="70" viewBox="0 0 91.447 70">
  <g id="グループ_2994" data-name="グループ 2994" transform="translate(-529.331 -6349.651)" opacity="0.35">
    <g id="グループ_2988" data-name="グループ 2988" transform="translate(542.37 6355.051)">
      <path id="パス_1020" data-name="パス 1020" d="M46.325,46.039c-2.281-15.179-19.268-22.65-19.268-22.65s7.55-12.819,4.4-15.257c-2.517-1.888-6.685,1.022-8.022,2.123-1.337-1.1-5.191-2.2-7.707-.315-3.224,2.438,2.6,13.291,2.6,13.291S2.677,30.86.475,46.039C-1.806,61.217,4.25,67.981,21,67.981h4.876C42.55,67.9,48.606,61.217,46.325,46.039Zm-17.538.629v1.573H24.934v1.416h3.854v1.573H24.934v3.7H21.788v-3.7H18.013V49.656h3.775V48.241H18.013V46.668H21.08l-3.7-7.314h3.3l1.416,3.46c.393,1.1.786,2.123,1.258,3.224h.079c.393-1.1.865-2.2,1.258-3.224l1.416-3.46h3.146l-3.7,7.314Z" transform="translate(-0.012 -3.381)" fill="#0f2437" fill-rule="evenodd"/>
      <g id="グループ_2987" data-name="グループ 2987" transform="translate(42.073)">
        <path id="パス_1021" data-name="パス 1021" d="M60.5,14.4V29.343H94V14.4H60.5ZM77.409,27.691a6.056,6.056,0,1,1,6.056-6.056A6.058,6.058,0,0,1,77.409,27.691Z" transform="translate(-57.669 -3.075)" fill="#0f2437"/>
        <g id="グループ_2985" data-name="グループ 2985" transform="translate(17.145 15.572)">
          <path id="パス_1022" data-name="パス 1022" d="M80.588,24.676H79.015v-.629h1.573V23.5H79.015v-.629h1.258L78.7,19.8h1.337l.629,1.494a9.593,9.593,0,0,0,.551,1.337H81.3c.157-.472.393-.944.551-1.337l.629-1.494h1.337l-1.573,3.067h1.337V23.5H82v.551h1.573v.629H82V26.17H80.666V24.676Z" transform="translate(-78.7 -19.8)" fill="#0f2437"/>
        </g>
        <g id="グループ_2986" data-name="グループ 2986" transform="translate(0)">
          <path id="パス_1023" data-name="パス 1023" d="M74.575,7.314a6.071,6.071,0,0,1,7.629,2.91H93.528L89.439,0,63.8,10.224h7.629A6.006,6.006,0,0,1,74.575,7.314Z" transform="translate(-58.373)" fill="#0f2437"/>
          <path id="パス_1024" data-name="パス 1024" d="M56.9,15.308l1.73,4.326V14.6Z" transform="translate(-56.9 -3.118)" fill="#0f2437"/>
          <path id="パス_1025" data-name="パス 1025" d="M79.7,10.751l.079,1.573V12.4H80.8l.079-2.2Z" transform="translate(-61.769 -2.178)" fill="#0f2437"/>
          <path id="パス_1026" data-name="パス 1026" d="M76.658,12.1l-1.258.551.236.157h1.809Z" transform="translate(-60.85 -2.584)" fill="#0f2437"/>
        </g>
      </g>
    </g>
    <path id="パス_1011" data-name="パス 1011" d="M11,17.535a2.436,2.436,0,0,1-1.262-.351,2.409,2.409,0,0,1-1.114-1.357,2.18,2.18,0,0,1,.167-1.612,3.7,3.7,0,0,1,2.235-1.763,4.984,4.984,0,0,1,2.32-.147,4.068,4.068,0,0,0-.77-2.547,2.619,2.619,0,0,0-.823-.751,8.989,8.989,0,0,1-2.34,2.881,7.154,7.154,0,0,1-3.53,1.675,2.49,2.49,0,0,1-2.5-1.029A2.632,2.632,0,0,1,3.145,10,4.472,4.472,0,0,1,4.817,8.125,8.876,8.876,0,0,1,9.5,6.693a7.461,7.461,0,0,1,1.1.066,3.819,3.819,0,0,0-1.111-3.2A4.462,4.462,0,0,0,4.826,1.98,4.371,4.371,0,0,0,1.759,4.671.9.9,0,1,1,0,4.291,4.945,4.945,0,0,1,1.5,1.836,6.745,6.745,0,0,1,4.354.243a5.946,5.946,0,0,1,3.231.01,7,7,0,0,1,3.235,2.088,5.91,5.91,0,0,1,1.547,3.015,5.465,5.465,0,0,1-.02,1.917,4.505,4.505,0,0,1,1.7,1.445A5.866,5.866,0,0,1,15.107,12.9h0a5.222,5.222,0,0,1,1.773,1.324,4.734,4.734,0,0,1,.888,1.789.9.9,0,1,1-1.73.5A2.635,2.635,0,0,0,14.6,14.667a5.916,5.916,0,0,1-1.045,1.59,4.074,4.074,0,0,1-1.737,1.15A2.808,2.808,0,0,1,11,17.535Zm1.488-3.507a2.99,2.99,0,0,0-.921.141,1.946,1.946,0,0,0-1.167.849c-.072.141-.177.354.265.623.475.285,1.144-.151,1.57-.61a4.067,4.067,0,0,0,.655-.973A2.849,2.849,0,0,0,12.486,14.028ZM9.6,8.486H9.526a7.089,7.089,0,0,0-3.7,1.124c-.57.387-1.452,1.15-.941,1.934.125.19.393.265.8.223A6.748,6.748,0,0,0,9.978,8.5C9.844,8.489,9.716,8.486,9.6,8.486Z" transform="translate(529.355 6349.626)" fill="#0f2437"/>
  </g>
</svg>
