<svg xmlns="http://www.w3.org/2000/svg" width="75.628" height="65.822" viewBox="0 0 75.628 65.822">
  <g id="グループ_3138" data-name="グループ 3138" transform="translate(-1342.289 -1301.002)">
    <g id="電話発信中のフリーアイコン" transform="translate(1360 1308.91)" opacity="0.35">
      <path id="パス_966" data-name="パス 966" d="M35.768,155.979a1.875,1.875,0,0,0-2.5-.133l-3.523,2.84a1.872,1.872,0,0,1-2.383-.026A49.148,49.148,0,0,1,15.72,147.017a1.872,1.872,0,0,1-.025-2.382l2.839-3.523a1.872,1.872,0,0,0-.133-2.5l-6.744-6.744a1.877,1.877,0,0,0-2.53-.11l-8.459,7.1a1.869,1.869,0,0,0-.445,2.319s1.137,2.322,2.194,4.1A83.9,83.9,0,0,0,29.1,171.966c1.777,1.055,4.1,2.195,4.1,2.195a1.874,1.874,0,0,0,2.318-.448l7.106-8.459a1.876,1.876,0,0,0-.11-2.529Z" transform="translate(0.001 -116.467)" fill="#0f2437"/>
      <path id="パス_967" data-name="パス 967" d="M252.622,169.059l2.808-.445a14.893,14.893,0,0,0-12.346-12.346l-.446,2.807a12.053,12.053,0,0,1,9.985,9.985Z" transform="translate(-215.19 -138.592)" fill="#0f2437"/>
      <path id="パス_968" data-name="パス 968" d="M285.839,9.2A32.639,32.639,0,0,0,267.8.012l-.441,2.808a29.926,29.926,0,0,1,24.863,24.865l2.81-.443A32.647,32.647,0,0,0,285.839,9.2Z" transform="translate(-237.116 -0.012)" fill="#0f2437"/>
      <path id="パス_969" data-name="パス 969" d="M255.452,78.054l-.441,2.811A20.945,20.945,0,0,1,272.44,98.294l2.809-.443a23.79,23.79,0,0,0-19.8-19.8Z" transform="translate(-226.164 -69.226)" fill="#0f2437"/>
    </g>
    <g id="グループ_3136" data-name="グループ 3136" transform="translate(432.848 -5948.648)" opacity="0.35">
      <path id="パス_1011" data-name="パス 1011" d="M11.364,18.117a2.517,2.517,0,0,1-1.3-.362,2.489,2.489,0,0,1-1.151-1.4,2.252,2.252,0,0,1,.173-1.666,3.819,3.819,0,0,1,2.309-1.822,5.149,5.149,0,0,1,2.4-.152,4.2,4.2,0,0,0-.8-2.631,2.706,2.706,0,0,0-.85-.775,9.288,9.288,0,0,1-2.418,2.977,7.392,7.392,0,0,1-3.647,1.73,2.572,2.572,0,0,1-2.587-1.063,2.72,2.72,0,0,1-.24-2.618A4.621,4.621,0,0,1,4.978,8.394,9.171,9.171,0,0,1,9.82,6.915a7.709,7.709,0,0,1,1.134.068,3.946,3.946,0,0,0-1.148-3.3A4.61,4.61,0,0,0,4.988,2.045a4.516,4.516,0,0,0-3.17,2.78A.932.932,0,1,1,0,4.432,5.109,5.109,0,0,1,1.554,1.9,6.97,6.97,0,0,1,4.5.25,6.144,6.144,0,0,1,7.839.26a7.235,7.235,0,0,1,3.342,2.157,6.106,6.106,0,0,1,1.6,3.115,5.647,5.647,0,0,1-.02,1.981A4.655,4.655,0,0,1,14.52,9.007a6.061,6.061,0,0,1,1.09,4.318h0a5.4,5.4,0,0,1,1.832,1.368,4.891,4.891,0,0,1,.918,1.849.931.931,0,1,1-1.788.521,2.723,2.723,0,0,0-1.483-1.91,6.112,6.112,0,0,1-1.08,1.642,4.209,4.209,0,0,1-1.795,1.189A2.9,2.9,0,0,1,11.364,18.117ZM12.9,14.493a3.089,3.089,0,0,0-.952.146,2.01,2.01,0,0,0-1.206.877c-.074.146-.183.366.274.643.491.295,1.182-.156,1.622-.63a4.2,4.2,0,0,0,.677-1.006A2.944,2.944,0,0,0,12.9,14.493ZM9.918,8.767H9.844a7.325,7.325,0,0,0-3.82,1.162c-.589.4-1.5,1.189-.972,2,.129.2.406.274.823.23a6.972,6.972,0,0,0,4.436-3.373C10.172,8.77,10.04,8.767,9.918,8.767Z" transform="translate(909.466 7249.626)" fill="#0f2437"/>
    </g>
  </g>
</svg>
