<svg xmlns="http://www.w3.org/2000/svg" width="95.443" height="67.002" viewBox="0 0 95.443 67.002">
  <g id="グループ_3141" data-name="グループ 3141" transform="translate(-761.43 -1301.001)">
    <path id="パス_1010" data-name="パス 1010" d="M11.39,18.158a2.522,2.522,0,0,1-1.307-.363,2.5,2.5,0,0,1-1.154-1.405A2.257,2.257,0,0,1,9.1,14.72a3.828,3.828,0,0,1,2.315-1.826,5.161,5.161,0,0,1,2.4-.153,4.213,4.213,0,0,0-.8-2.637,2.712,2.712,0,0,0-.852-.777A9.309,9.309,0,0,1,9.747,12.31a7.409,7.409,0,0,1-3.655,1.734A2.578,2.578,0,0,1,3.5,12.978a2.726,2.726,0,0,1-.241-2.624A4.631,4.631,0,0,1,4.989,8.413,9.192,9.192,0,0,1,9.842,6.93,7.726,7.726,0,0,1,10.979,7,3.955,3.955,0,0,0,9.829,3.689,4.621,4.621,0,0,0,5,2.05,4.527,4.527,0,0,0,1.822,4.836.934.934,0,1,1,0,4.442,5.121,5.121,0,0,1,1.558,1.9,6.985,6.985,0,0,1,4.51.251a6.158,6.158,0,0,1,3.346.01,7.251,7.251,0,0,1,3.35,2.162,6.12,6.12,0,0,1,1.6,3.123,5.66,5.66,0,0,1-.02,1.986,4.666,4.666,0,0,1,1.765,1.5,6.075,6.075,0,0,1,1.093,4.327h0a5.408,5.408,0,0,1,1.836,1.371,4.9,4.9,0,0,1,.92,1.853.933.933,0,1,1-1.792.523,2.729,2.729,0,0,0-1.487-1.914,6.126,6.126,0,0,1-1.083,1.646,4.219,4.219,0,0,1-1.8,1.191A2.908,2.908,0,0,1,11.39,18.158Zm1.541-3.632a3.1,3.1,0,0,0-.954.146,2.015,2.015,0,0,0-1.208.879c-.075.146-.183.367.275.645.492.3,1.185-.156,1.626-.631a4.212,4.212,0,0,0,.679-1.008A2.951,2.951,0,0,0,12.931,14.526ZM9.941,8.787H9.866A7.342,7.342,0,0,0,6.038,9.951c-.591.4-1.5,1.191-.974,2,.129.2.407.275.825.231A6.988,6.988,0,0,0,10.334,8.8C10.2,8.79,10.063,8.787,9.941,8.787Z" transform="translate(761.455 1300.977)" fill="#0f2437" opacity="0.35"/>
    <g id="グループ_3133" data-name="グループ 3133" transform="translate(250.152 -5944.646)" opacity="0.35">
      <g id="グループ_2977" data-name="グループ 2977" transform="translate(527.845 7263.78)">
        <g id="グループ_2976" data-name="グループ 2976" transform="translate(0)">
          <path id="パス_744" data-name="パス 744" d="M0,0H78.876l-.857,5.144H.857Z" transform="translate(0 43.725)" fill="#0f2437"/>
          <path id="長方形_3497" data-name="長方形 3497" d="M5,5H5V43.869s0,0,0,0H55.014V5s0,0,0,0H5M5,0H55.014a5,5,0,0,1,5,5V43.869a5,5,0,0,1-5,5H5a5,5,0,0,1-5-5V5A5,5,0,0,1,5,0Z" transform="translate(9.431)" fill="#0f2437"/>
          <rect id="長方形_3498" data-name="長方形 3498" width="12.003" height="1.715" transform="translate(33.436 45.439)" fill="#fff"/>
        </g>
      </g>
    </g>
  </g>
</svg>
