<svg xmlns="http://www.w3.org/2000/svg" width="83.873" height="61.121" viewBox="0 0 83.873 61.121">
  <g id="グループ_3142" data-name="グループ 3142" transform="translate(-773 -1613.097)">
    <g id="気づく_ちょんちょん" data-name="気づく ちょんちょん" transform="translate(773 1613.097)">
      <path id="パス_1027" data-name="パス 1027" d="M58.95,5.428a.851.851,0,0,1-.85-.85V.85A.863.863,0,0,1,58.95,0a.851.851,0,0,1,.85.85V4.6A.848.848,0,0,1,58.95,5.428Z" transform="translate(-48.024)" fill="#0f2437"/>
      <path id="パス_1028" data-name="パス 1028" d="M20.548,21.315a.856.856,0,0,1-.59-.243l-2.636-2.653a.846.846,0,1,1,1.2-1.2l2.653,2.653a.848.848,0,0,1,0,1.2A.975.975,0,0,1,20.548,21.315Z" transform="translate(-14.114 -14.031)" fill="#0f2437"/>
      <path id="パス_1029" data-name="パス 1029" d="M4.578,59.8H.85a.85.85,0,1,1,0-1.7H4.6a.851.851,0,0,1,.85.85A.866.866,0,0,1,4.578,59.8Z" transform="translate(0 -48.024)" fill="#0f2437"/>
      <path id="パス_1030" data-name="パス 1030" d="M17.912,88.315a.856.856,0,0,1-.59-.243.848.848,0,0,1,0-1.2l2.653-2.653a.846.846,0,0,1,1.2,1.2l-2.653,2.653A.932.932,0,0,1,17.912,88.315Z" transform="translate(-14.114 -69.412)" fill="#0f2437"/>
      <path id="パス_1031" data-name="パス 1031" d="M84.912,21.315a.856.856,0,0,1-.59-.243.848.848,0,0,1,0-1.2l2.653-2.653a.846.846,0,0,1,1.2,1.2L85.5,21.072A.856.856,0,0,1,84.912,21.315Z" transform="translate(-69.494 -14.031)" fill="#0f2437"/>
    </g>
    <g id="グループ_3134" data-name="グループ 3134">
      <path id="パス_1043" data-name="パス 1043" d="M2.99-3.965l.286-1.053c.286-1,.572-2.093.819-3.146h.052c.286,1.04.546,2.145.845,3.146l.286,1.053ZM6.37,0H8.385L5.291-9.62H3.029L-.052,0H1.9l.676-2.47h3.12Zm5.109.182A2.926,2.926,0,0,0,13.806-1.04h.052L14,0h1.56V-7.28H13.65v4.914a1.754,1.754,0,0,1-1.482.91c-.7,0-1.014-.39-1.014-1.521v-4.3H9.243v4.55C9.243-.91,9.919.182,11.479.182Zm8.788,0A4.7,4.7,0,0,0,21.8-.091l-.312-1.391a2.127,2.127,0,0,1-.715.156c-.65,0-.988-.39-.988-1.222V-5.772H21.58V-7.28H19.786V-9.23h-1.6l-.221,1.95-1.118.091v1.417h1.027v3.224C17.875-.91,18.538.182,20.267.182Zm5.59,0a3.547,3.547,0,0,0,3.5-3.809,3.555,3.555,0,0,0-3.5-3.835,3.555,3.555,0,0,0-3.5,3.835A3.547,3.547,0,0,0,25.857.182Zm0-1.56c-.988,0-1.547-.884-1.547-2.249S24.869-5.9,25.857-5.9s1.547.9,1.547,2.275S26.845-1.378,25.857-1.378Z" transform="translate(803 1654)" fill="#0f2437"/>
      <g id="グループ_3132" data-name="グループ 3132" transform="translate(250.152 -5638.432)">
        <g id="グループ_2977" data-name="グループ 2977" transform="translate(527.845 7263.78)">
          <g id="グループ_2976" data-name="グループ 2976" transform="translate(0)">
            <path id="パス_744" data-name="パス 744" d="M0,0H78.876l-.857,5.144H.857Z" transform="translate(0 43.725)" fill="#0f2437"/>
            <path id="長方形_3497" data-name="長方形 3497" d="M5,5H5V43.869s0,0,0,0H55.014V5s0,0,0,0H5M5,0H55.014a5,5,0,0,1,5,5V43.869a5,5,0,0,1-5,5H5a5,5,0,0,1-5-5V5A5,5,0,0,1,5,0Z" transform="translate(9.431)" fill="#0f2437"/>
            <rect id="長方形_3498" data-name="長方形 3498" width="12.003" height="1.715" transform="translate(33.436 45.439)" fill="#fff"/>
          </g>
        </g>
      </g>
    </g>
  </g>
</svg>
