<svg xmlns="http://www.w3.org/2000/svg" width="72.376" height="57.914" viewBox="0 0 72.376 57.914">
  <g id="グループ_3139" data-name="グループ 3139" transform="translate(-1345.539 -1612.911)">
    <g id="気づく_ちょんちょん" data-name="気づく ちょんちょん" transform="translate(1345.539 1613.097)">
      <path id="パス_1027" data-name="パス 1027" d="M58.95,5.428a.851.851,0,0,1-.85-.85V.85A.863.863,0,0,1,58.95,0a.851.851,0,0,1,.85.85V4.6A.848.848,0,0,1,58.95,5.428Z" transform="translate(-48.024)" fill="#0f2437"/>
      <path id="パス_1028" data-name="パス 1028" d="M20.548,21.315a.856.856,0,0,1-.59-.243l-2.636-2.653a.846.846,0,1,1,1.2-1.2l2.653,2.653a.848.848,0,0,1,0,1.2A.975.975,0,0,1,20.548,21.315Z" transform="translate(-14.114 -14.031)" fill="#0f2437"/>
      <path id="パス_1029" data-name="パス 1029" d="M4.578,59.8H.85a.85.85,0,1,1,0-1.7H4.6a.851.851,0,0,1,.85.85A.866.866,0,0,1,4.578,59.8Z" transform="translate(0 -48.024)" fill="#0f2437"/>
      <path id="パス_1030" data-name="パス 1030" d="M17.912,88.315a.856.856,0,0,1-.59-.243.848.848,0,0,1,0-1.2l2.653-2.653a.846.846,0,0,1,1.2,1.2l-2.653,2.653A.932.932,0,0,1,17.912,88.315Z" transform="translate(-14.114 -69.412)" fill="#0f2437"/>
      <path id="パス_1031" data-name="パス 1031" d="M84.912,21.315a.856.856,0,0,1-.59-.243.848.848,0,0,1,0-1.2l2.653-2.653a.846.846,0,0,1,1.2,1.2L85.5,21.072A.856.856,0,0,1,84.912,21.315Z" transform="translate(-69.494 -14.031)" fill="#0f2437"/>
    </g>
    <g id="グループ_2830" data-name="グループ 2830" transform="translate(136.729 -5587.523)">
      <g id="電話発信中のフリーアイコン" transform="translate(1223.27 7200.434)">
        <path id="パス_966" data-name="パス 966" d="M35.768,155.979a1.875,1.875,0,0,0-2.5-.133l-3.523,2.84a1.872,1.872,0,0,1-2.383-.026A49.148,49.148,0,0,1,15.72,147.017a1.872,1.872,0,0,1-.025-2.382l2.839-3.523a1.872,1.872,0,0,0-.133-2.5l-6.744-6.744a1.877,1.877,0,0,0-2.53-.11l-8.459,7.1a1.869,1.869,0,0,0-.445,2.319s1.137,2.322,2.194,4.1A83.9,83.9,0,0,0,29.1,171.966c1.777,1.055,4.1,2.195,4.1,2.195a1.874,1.874,0,0,0,2.318-.448l7.106-8.459a1.876,1.876,0,0,0-.11-2.529Z" transform="translate(0.001 -116.467)" fill="#0f2437"/>
        <path id="パス_967" data-name="パス 967" d="M252.622,169.059l2.808-.445a14.893,14.893,0,0,0-12.346-12.346l-.446,2.807a12.053,12.053,0,0,1,9.985,9.985Z" transform="translate(-215.19 -138.592)" fill="#0f2437"/>
        <path id="パス_968" data-name="パス 968" d="M285.839,9.2A32.639,32.639,0,0,0,267.8.012l-.441,2.808a29.926,29.926,0,0,1,24.863,24.865l2.81-.443A32.647,32.647,0,0,0,285.839,9.2Z" transform="translate(-237.116 -0.012)" fill="#0f2437"/>
        <path id="パス_969" data-name="パス 969" d="M255.452,78.054l-.441,2.811A20.945,20.945,0,0,1,272.44,98.294l2.809-.443a23.79,23.79,0,0,0-19.8-19.8Z" transform="translate(-226.164 -69.226)" fill="#0f2437"/>
      </g>
    </g>
  </g>
</svg>
