<svg xmlns="http://www.w3.org/2000/svg" width="59.199" height="61.267" viewBox="0 0 59.199 61.267">
  <g id="グループ_3140" data-name="グループ 3140" transform="translate(-1062.076 -1613.097)">
    <g id="気づく_ちょんちょん" data-name="気づく ちょんちょん" transform="translate(1062.076 1613.097)">
      <path id="パス_1027" data-name="パス 1027" d="M58.95,5.428a.851.851,0,0,1-.85-.85V.85A.863.863,0,0,1,58.95,0a.851.851,0,0,1,.85.85V4.6A.848.848,0,0,1,58.95,5.428Z" transform="translate(-48.024)" fill="#0f2437"/>
      <path id="パス_1028" data-name="パス 1028" d="M20.548,21.315a.856.856,0,0,1-.59-.243l-2.636-2.653a.846.846,0,1,1,1.2-1.2l2.653,2.653a.848.848,0,0,1,0,1.2A.975.975,0,0,1,20.548,21.315Z" transform="translate(-14.114 -14.031)" fill="#0f2437"/>
      <path id="パス_1029" data-name="パス 1029" d="M4.578,59.8H.85a.85.85,0,1,1,0-1.7H4.6a.851.851,0,0,1,.85.85A.866.866,0,0,1,4.578,59.8Z" transform="translate(0 -48.024)" fill="#0f2437"/>
      <path id="パス_1030" data-name="パス 1030" d="M17.912,88.315a.856.856,0,0,1-.59-.243.848.848,0,0,1,0-1.2l2.653-2.653a.846.846,0,0,1,1.2,1.2l-2.653,2.653A.932.932,0,0,1,17.912,88.315Z" transform="translate(-14.114 -69.412)" fill="#0f2437"/>
      <path id="パス_1031" data-name="パス 1031" d="M84.912,21.315a.856.856,0,0,1-.59-.243.848.848,0,0,1,0-1.2l2.653-2.653a.846.846,0,0,1,1.2,1.2L85.5,21.072A.856.856,0,0,1,84.912,21.315Z" transform="translate(-69.494 -14.031)" fill="#0f2437"/>
    </g>
    <g id="key_close__AdobeStock_142170516_更新済み_" data-name="key(close)_AdobeStock_142170516 [更新済み]" transform="translate(1079.23 1616)">
      <path id="パス_1044" data-name="パス 1044" d="M37.154,30.7H4.513A4.733,4.733,0,0,0,0,35.514V61.687a4.251,4.251,0,0,0,4.513,4.287H37.079c2.708,0,4.964-1.955,4.964-4.287V35.514A4.963,4.963,0,0,0,37.154,30.7ZM20.683,54.768H16.4L18.5,51.233l.6-.827a4.125,4.125,0,0,1-2.557-3.836,4.173,4.173,0,0,1,4.137-4.137,4.126,4.126,0,0,1,1.5,7.972l.6.827,2.106,3.46H20.683Z" transform="translate(0 -7.61)" fill="#0f2437"/>
      <path id="パス_1045" data-name="パス 1045" d="M14.017,14.892a8.541,8.541,0,0,1,8.5-8.725h.827a8.9,8.9,0,0,1,8.8,8.725v7.446H38.16V14.892A14.873,14.873,0,0,0,23.794,0h-1.88C14.017.15,8,6.844,8,14.892v7.446h6.017Z" transform="translate(-1.983)" fill="#0f2437"/>
    </g>
  </g>
</svg>
