<svg xmlns="http://www.w3.org/2000/svg" width="61.552" height="67" viewBox="0 0 61.552 67">
  <g id="グループ_3137" data-name="グループ 3137" transform="translate(-1059.428 -1301.001)">
    <g id="key_open__AdobeStock_142170516_更新済み_" data-name="key(open)_AdobeStock_142170516 [更新済み]" transform="translate(1079.23 1310.047)" opacity="0.35">
      <path id="パス_1008" data-name="パス 1008" d="M11.987,18a3.013,3.013,0,0,0,2.987-3.062v-.149a8.589,8.589,0,1,1,17.177,0v7.394h5.975V14.787A14.529,14.529,0,0,0,24.086,0h-.9A14.705,14.705,0,0,0,9,14.787v.149A3.061,3.061,0,0,0,11.987,18Z" transform="translate(-2.279)" fill="#0f2437"/>
      <path id="パス_1009" data-name="パス 1009" d="M37.192,30.7H4.78A4.965,4.965,0,0,0,0,35.48v25.99a4.486,4.486,0,0,0,4.78,4.257H37.117a4.4,4.4,0,0,0,4.63-4.257V35.48A4.666,4.666,0,0,0,37.192,30.7ZM20.836,54.6H16.58l2.091-3.51.6-.822a4.1,4.1,0,0,1-2.539-3.809,4.144,4.144,0,0,1,4.108-4.108,4.1,4.1,0,0,1,1.494,7.916l.6.822,2.091,3.435H20.836Z" transform="translate(0 -7.772)" fill="#0f2437"/>
    </g>
    <path id="パス_1011" data-name="パス 1011" d="M11.364,18.117a2.517,2.517,0,0,1-1.3-.362,2.489,2.489,0,0,1-1.151-1.4,2.252,2.252,0,0,1,.173-1.666,3.819,3.819,0,0,1,2.309-1.822,5.149,5.149,0,0,1,2.4-.152,4.2,4.2,0,0,0-.8-2.631,2.706,2.706,0,0,0-.85-.775,9.288,9.288,0,0,1-2.418,2.977,7.392,7.392,0,0,1-3.647,1.73,2.572,2.572,0,0,1-2.587-1.063,2.72,2.72,0,0,1-.24-2.618A4.621,4.621,0,0,1,4.978,8.394,9.171,9.171,0,0,1,9.82,6.915a7.709,7.709,0,0,1,1.134.068,3.946,3.946,0,0,0-1.148-3.3A4.61,4.61,0,0,0,4.988,2.045a4.516,4.516,0,0,0-3.17,2.78A.932.932,0,1,1,0,4.432,5.109,5.109,0,0,1,1.554,1.9,6.97,6.97,0,0,1,4.5.25,6.144,6.144,0,0,1,7.839.26a7.235,7.235,0,0,1,3.342,2.157,6.106,6.106,0,0,1,1.6,3.115,5.647,5.647,0,0,1-.02,1.981A4.655,4.655,0,0,1,14.52,9.007a6.061,6.061,0,0,1,1.09,4.318h0a5.4,5.4,0,0,1,1.832,1.368,4.891,4.891,0,0,1,.918,1.849.931.931,0,1,1-1.788.521,2.723,2.723,0,0,0-1.483-1.91,6.112,6.112,0,0,1-1.08,1.642,4.209,4.209,0,0,1-1.795,1.189A2.9,2.9,0,0,1,11.364,18.117ZM12.9,14.493a3.089,3.089,0,0,0-.952.146,2.01,2.01,0,0,0-1.206.877c-.074.146-.183.366.274.643.491.295,1.182-.156,1.622-.63a4.2,4.2,0,0,0,.677-1.006A2.944,2.944,0,0,0,12.9,14.493ZM9.918,8.767H9.844a7.325,7.325,0,0,0-3.82,1.162c-.589.4-1.5,1.189-.972,2,.129.2.406.274.823.23a6.972,6.972,0,0,0,4.436-3.373C10.172,8.77,10.04,8.767,9.918,8.767Z" transform="translate(1059.453 1300.977)" fill="#0f2437" opacity="0.35"/>
  </g>
</svg>
