<svg xmlns="http://www.w3.org/2000/svg" width="70.736" height="64.903" viewBox="0 0 70.736 64.903">
  <g id="グループ_3144" data-name="グループ 3144" transform="translate(-498.264 -1613.097)">
    <g id="グループ_3143" data-name="グループ 3143">
      <g id="グループ_2261" data-name="グループ 2261" transform="translate(0.762 78.762)">
        <rect id="長方形_3350" data-name="長方形 3350" width="10" height="11" transform="translate(553.238 1540.238)" fill="#0f2437"/>
        <path id="多角形_19" data-name="多角形 19" d="M10,0,20,11H0Z" transform="translate(568.238 1560.238) rotate(180)" fill="#0f2437"/>
      </g>
      <g id="グループ_3130" data-name="グループ 3130" transform="translate(-70.283 -4741.65)">
        <g id="グループ_2988" data-name="グループ 2988" transform="translate(580.37 6355.051)">
          <path id="パス_1020" data-name="パス 1020" d="M46.325,46.039c-2.281-15.179-19.268-22.65-19.268-22.65s7.55-12.819,4.4-15.257c-2.517-1.888-6.685,1.022-8.022,2.123-1.337-1.1-5.191-2.2-7.707-.315-3.224,2.438,2.6,13.291,2.6,13.291S2.677,30.86.475,46.039C-1.806,61.217,4.25,67.981,21,67.981h4.876C42.55,67.9,48.606,61.217,46.325,46.039Zm-17.538.629v1.573H24.934v1.416h3.854v1.573H24.934v3.7H21.788v-3.7H18.013V49.656h3.775V48.241H18.013V46.668H21.08l-3.7-7.314h3.3l1.416,3.46c.393,1.1.786,2.123,1.258,3.224h.079c.393-1.1.865-2.2,1.258-3.224l1.416-3.46h3.146l-3.7,7.314Z" transform="translate(-0.012 -3.381)" fill="#0f2437" fill-rule="evenodd"/>
        </g>
      </g>
    </g>
    <g id="気づく_ちょんちょん" data-name="気づく ちょんちょん" transform="translate(498.264 1613.097)">
      <path id="パス_1027" data-name="パス 1027" d="M58.95,5.428a.851.851,0,0,1-.85-.85V.85A.863.863,0,0,1,58.95,0a.851.851,0,0,1,.85.85V4.6A.848.848,0,0,1,58.95,5.428Z" transform="translate(-48.024)" fill="#0f2437"/>
      <path id="パス_1028" data-name="パス 1028" d="M20.548,21.315a.856.856,0,0,1-.59-.243l-2.636-2.653a.846.846,0,1,1,1.2-1.2l2.653,2.653a.848.848,0,0,1,0,1.2A.975.975,0,0,1,20.548,21.315Z" transform="translate(-14.114 -14.031)" fill="#0f2437"/>
      <path id="パス_1029" data-name="パス 1029" d="M4.578,59.8H.85a.85.85,0,1,1,0-1.7H4.6a.851.851,0,0,1,.85.85A.866.866,0,0,1,4.578,59.8Z" transform="translate(0 -48.024)" fill="#0f2437"/>
      <path id="パス_1030" data-name="パス 1030" d="M17.912,88.315a.856.856,0,0,1-.59-.243.848.848,0,0,1,0-1.2l2.653-2.653a.846.846,0,0,1,1.2,1.2l-2.653,2.653A.932.932,0,0,1,17.912,88.315Z" transform="translate(-14.114 -69.412)" fill="#0f2437"/>
      <path id="パス_1031" data-name="パス 1031" d="M84.912,21.315a.856.856,0,0,1-.59-.243.848.848,0,0,1,0-1.2l2.653-2.653a.846.846,0,0,1,1.2,1.2L85.5,21.072A.856.856,0,0,1,84.912,21.315Z" transform="translate(-69.494 -14.031)" fill="#0f2437"/>
    </g>
  </g>
</svg>
