<svg xmlns="http://www.w3.org/2000/svg" width="558" height="329"><g data-name="グループ 2700"><g data-name="グループ 2699"><g data-name="グループ 2537"><path data-name="長方形 3532" fill="#f8ece9" d="M279 23h279v306H279z"/><path data-name="長方形 3533" fill="#e5f7f1" d="M0 23h279v306H0z"/></g><text transform="translate(106 15)" fill="#00b176" font-size="14" font-family="YuGothicUI-Bold, Yu Gothic UI" font-weight="700"><tspan x="0" y="0">お客様環境</tspan></text><text data-name="Wave PC Mate" transform="translate(373 13)" fill="#bc4328" font-size="14" font-family="Roboto-Bold, Roboto" font-weight="700"><tspan x="0" y="0">Wave PC Mate</tspan></text></g><g data-name="グループ 2556"><text data-name="ソフトウェア 配布サーバ" transform="translate(455 284)" font-size="14" font-family="YuGothicUI-Regular, Yu Gothic UI"><tspan x="0" y="0">ソフトウェア</tspan><tspan x="0" y="18">配布サーバ</tspan></text><text transform="translate(192 189)" fill="#d76b00" font-size="16" font-family="YuGothicUI-Bold, Yu Gothic UI" font-weight="700"><tspan x="0" y="0">自動アップデート</tspan></text><text data-name="自動アップデート" transform="translate(141 276)" fill="#d76b00" font-size="16" font-family="YuGothicUI-Bold, Yu Gothic UI" font-weight="700"><tspan x="0" y="0">自動アップデート</tspan></text><path data-name="パス 729" d="M487.437 258.721v-4.35h-4.875v4.35a4.013 4.013 0 00-.729.729h-11v4.871h11a3.971 3.971 0 006.332 0h11v-4.875h-11a4.012 4.012 0 00-.728-.725z"/><path data-name="パス 730" d="M459 220.449v14.625h52v-14.625zm44.281 7.313a2.438 2.438 0 11-2.437-2.437 2.438 2.438 0 012.437 2.437zm-39.401 3.237l3.245-6.489h2.249l1 .011-3.249 6.491h-2.254zm6.5 0l3.245-6.489h2.249l1 .011-3.245 6.489h-2.258zm6.5 0l3.245-6.489h2.249l1 .011-3.245 6.489h-2.258z"/><path data-name="パス 731" d="M487.438 236.496h-4.875v1.828H459v14.622h52v-14.622h-23.562zm-23.558 12.38l3.245-6.489h2.249l1 .011-3.245 6.489h-2.258zm6.5 0l3.245-6.489h2.249l1 .011-3.245 6.489h-2.258zm6.5 0l3.245-6.489h2.249l1 .011-3.245 6.489h-2.258zm21.526-3.239a2.438 2.438 0 112.438 2.438 2.437 2.437 0 01-2.438-2.438z"/><text transform="translate(292.324 92)" font-size="14" font-family="YuGothicUI-Regular, Yu Gothic UI"><tspan x="2.557" y="15">インベントリ情報</tspan><tspan x="17.617" y="33">収集サーバ</tspan></text><text transform="translate(292.324 208.083)" font-size="14" font-family="Roboto-Regular, Roboto"><tspan x="3.47" y="15">Virus</tspan><tspan y="15" font-family="YuGothicUI-Regular, Yu Gothic UI">定義ファイ</tspan><tspan x="11.833" y="33" font-family="YuGothicUI-Regular, Yu Gothic UI">ル配布サーバ</tspan></text><text transform="translate(73 194.449)" font-size="14" font-family="YuGothicUI-Regular, Yu Gothic UI"><tspan x="4.885" y="15">お客様</tspan><tspan y="15" font-family="Roboto-Regular, Roboto">PC</tspan></text><path data-name="パス 732" d="M300.158 285.023l-193.488-.022v-1l193.488.022z" fill="#d76b00"/><path data-name="パス 770" d="M301.148 72H161.324v-1h136.528l-7.13-4.766.556-.831z" fill="#d76b00"/><path data-name="パス 784" d="M378.853 199.392l9.871-6.6.556.831-7.13 4.766h78.326v1z" fill="#d76b00"/><path data-name="パス 786" d="M298.5 199.392v-1h82.974v1z" fill="#d76b00" opacity=".4"/><path data-name="パス 788" d="M459.497 180.427V76.367h1v104.06z" fill="#d76b00" opacity=".4"/><path data-name="パス 787" d="M298.5 72.117v-1h82.974v1z" fill="#d76b00" opacity=".4"/><path data-name="パス 768" d="M459.5 93.824V71h1v19.528l4.766-7.13.831.556z" fill="#d76b00"/><path data-name="パス 782" d="M460.5 177.716v21.176h-1v-21.176z" fill="#d76b00"/><path data-name="パス 766" d="M299.148 199.392H172.325l9.871-6.6.556.831-7.13 4.766H299.15z" fill="#d76b00"/><path data-name="パス 785" d="M106.171 285.11v-61.824l6.6 9.871-.831.556-4.766-7.13v58.528z" fill="#d76b00"/><path data-name="長方形 3534" fill="#fff" d="M44 52h124v40H44z"/><path data-name="長方形 3534 - アウトライン" d="M45 53v38h122V53H45m-1-1h124v40H44z" fill="#00b176"/><text transform="translate(61 78)" font-size="14" font-family="YuGothicUI-Bold, Yu Gothic UI" font-weight="700"><tspan x="0" y="0">アップデート情報</tspan></text><path data-name="長方形 3535" fill="#fff" d="M298 265h141v40H298z"/><path data-name="長方形 3535 - アウトライン" d="M299 266v38h139v-38H299m-1-1h141v40H298z" fill="#bc4328"/><text data-name="ファイル配布 (PUSH)" transform="translate(370 290)" font-size="14" font-family="YuGothicUI-Bold, Yu Gothic UI" font-weight="700"><tspan x="-59.503" y="0">ファイル配布</tspan><tspan y="0" font-family="Roboto-Bold, Roboto"> (PUSH)</tspan></text><path data-name="パス 769" d="M459.75 72.116h-79v-1h79z" fill="#d76b00"/><g data-name="1000_F_375195713_UvwkTpKVrPXwjjdi6hKEya9OrJUE8RIT"><path data-name="パス 726" d="M61.502 114.78v60.332h-6.911v-13.725q0-23.627-.02-47.233c0-4.942 1.728-6.73 6.59-6.73q44.6-.03 89.222 0c4.42 0 6.529 1.848 6.55 5.887q.06 30.2 0 60.412a11.984 11.984 0 01-.181 1.386h-6.75V114.78z"/><path data-name="パス 727" d="M162.317 189.055H49.046a5.662 5.662 0 01-5.625-4.942l-.4-3.094a2.273 2.273 0 012.248-2.572h120.8a2.271 2.271 0 012.25 2.531l-.342 3.034a5.711 5.711 0 01-5.66 5.043z"/><path data-name="パス 728" d="M114.622 184.917H97.304a.381.381 0 01-.382-.382v-1.446a.381.381 0 01.382-.382h17.318a.382.382 0 01.382.382v1.446a.4.4 0 01-.382.382z" fill="#e5f7f1"/></g><g data-name="サーバーのフリーアイコン素材"><path data-name="パス 729" d="M341.793 83.201v-3.514h-3.938v3.514a3.242 3.242 0 00-.589.589h-8.888v3.938h8.888a3.208 3.208 0 005.115 0h8.888V83.79h-8.891a3.241 3.241 0 00-.585-.589z"/><path data-name="パス 729 - アウトライン" d="M337.854 79.687v3.514a3.242 3.242 0 00-.589.589h-8.887v3.938h8.888a3.208 3.208 0 005.115 0h8.888V83.79h-8.891a3.241 3.241 0 00-.589-.589v-3.514h-3.938m-1.2-1.2h6.338v4.1h9.476v6.338h-9.547a4.4 4.4 0 01-6.189 0h-9.551v-6.338h9.476z" fill="#f8ece9"/><path data-name="パス 730" d="M318.82 52.284v11.815h42.008V52.284zm35.772 5.907a1.969 1.969 0 11-1.972-1.969 1.969 1.969 0 011.972 1.969zm-31.829 2.617l2.621-5.242h1.817l.8.009-2.617 5.242h-1.821zm5.251 0l2.621-5.242h1.817l.8.009-2.621 5.242h-1.817zm5.251 0l2.621-5.242h1.817l.8.009-2.621 5.242h-1.817z"/><path data-name="パス 730 - アウトライン" d="M318.82 52.284v11.815h42.008V52.284H318.82m6.564 8.533h-1.821l-.8-.009 2.621-5.242h1.817l.8.009-2.617 5.242m5.251 0h-1.821l-.8-.009 2.621-5.242h1.817l.8.009-2.621 5.242m5.251 0h-1.817l-.8-.009 2.621-5.242h1.817l.8.009-2.621 5.242m16.738-.657a1.969 1.969 0 111.969-1.969 1.969 1.969 0 01-1.969 1.969m-35-9.076h44.408v14.215H317.62zm35 7.876a.769.769 0 10-.769-.769.77.77 0 00.769.769z" fill="#f8ece9"/><path data-name="パス 731" d="M341.793 65.247h-3.938v1.477H318.82v11.815h42.008V66.724h-19.035zm-19.03 10l2.621-5.242h1.817l.8.009-2.617 5.243h-1.821zm5.251 0l2.621-5.242h1.817l.8.009-2.621 5.242h-1.817zm5.251 0l2.621-5.242h1.817l.8.009-2.621 5.242h-1.817zm17.39-2.617a1.969 1.969 0 111.965 1.967 1.969 1.969 0 01-1.966-1.966z"/><path data-name="パス 731 - アウトライン" d="M337.855 65.247v1.477H318.82v11.815h42.008V66.724h-19.035v-1.477h-3.938m-12.471 10.01h-1.821l-.8-.009 2.621-5.242h1.817l.8.009-2.617 5.242m5.251 0h-1.821l-.8-.009 2.621-5.242h1.817l.8.009-2.621 5.242m5.251 0h-1.817l-.8-.009 2.621-5.242h1.817l.8.009-2.621 5.242m16.738-.66a1.969 1.969 0 111.969-1.969 1.969 1.969 0 01-1.969 1.969m-15.965-10.55h6.338v1.477h19.035v14.215H317.62V65.524h19.035zm15.965 9.35a.769.769 0 10-.769-.769.77.77 0 00.769.769z" fill="#f8ece9"/></g><g data-name="サーバーのフリーアイコン素材"><path data-name="パス 729" d="M461.719 129.182v-3.514h-3.938v3.514a3.242 3.242 0 00-.589.589h-8.888v3.938h8.888a3.208 3.208 0 005.115 0h8.888v-3.938h-8.891a3.241 3.241 0 00-.585-.589z"/><path data-name="パス 729 - アウトライン" d="M457.78 125.668v3.514a3.242 3.242 0 00-.589.589h-8.887v3.938h8.888a3.208 3.208 0 005.115 0h8.888v-3.938h-8.891a3.241 3.241 0 00-.589-.589v-3.514h-3.938m-1.2-1.2h6.338v4.1h9.476v6.338h-9.547a4.4 4.4 0 01-6.189 0h-9.551v-6.338h9.476z" fill="#f8ece9"/><path data-name="パス 730" d="M438.746 98.265v11.815h42.008V98.265zm35.772 5.907a1.969 1.969 0 11-1.972-1.969 1.969 1.969 0 011.972 1.969zm-31.829 2.617l2.621-5.242h1.817l.8.009-2.617 5.242h-1.821zm5.251 0l2.621-5.242h1.817l.8.009-2.621 5.242h-1.817zm5.251 0l2.621-5.242h1.817l.8.009-2.621 5.242h-1.817z"/><path data-name="パス 730 - アウトライン" d="M438.746 98.265v11.815h42.008V98.265h-42.008m6.564 8.533h-1.821l-.8-.009 2.621-5.242h1.817l.8.009-2.617 5.242m5.251 0h-1.821l-.8-.009 2.621-5.242h1.817l.8.009-2.621 5.242m5.251 0h-1.817l-.8-.009 2.621-5.242h1.817l.8.009-2.621 5.242m16.738-.657a1.969 1.969 0 111.969-1.969 1.969 1.969 0 01-1.969 1.969m-35-9.076h44.408v14.215h-44.408zm35 7.876a.769.769 0 10-.769-.769.77.77 0 00.769.769z" fill="#f8ece9"/><path data-name="パス 731" d="M461.719 111.228h-3.938v1.477h-19.035v11.815h42.008v-11.815h-19.035zm-19.03 10l2.621-5.242h1.817l.8.009-2.617 5.243h-1.821zm5.251 0l2.621-5.242h1.817l.8.009-2.621 5.242h-1.817zm5.251 0l2.621-5.242h1.817l.8.009-2.621 5.242h-1.817zm17.39-2.617a1.969 1.969 0 111.965 1.967 1.969 1.969 0 01-1.966-1.966z"/><path data-name="パス 731 - アウトライン" d="M457.781 111.228v1.477h-19.035v11.815h42.008v-11.815h-19.035v-1.477h-3.938m-12.471 10.01h-1.821l-.8-.009 2.621-5.242h1.817l.8.009-2.617 5.242m5.251 0h-1.821l-.8-.009 2.621-5.242h1.817l.8.009-2.621 5.242m5.251 0h-1.817l-.8-.009 2.621-5.242h1.817l.8.009-2.621 5.242m16.738-.66a1.969 1.969 0 111.969-1.969 1.969 1.969 0 01-1.969 1.969m-15.965-10.55h6.338v1.477h19.035v14.215h-44.408v-14.215h19.035zm15.965 9.35a.769.769 0 10-.769-.769.77.77 0 00.769.769z" fill="#f8ece9"/></g><g data-name="サーバーのフリーアイコン素材"><path data-name="パス 729" d="M341.965 200.008v-3.514h-3.938v3.514a3.242 3.242 0 00-.589.589h-8.888v3.938h8.888a3.208 3.208 0 005.115 0h8.888v-3.938h-8.891a3.241 3.241 0 00-.585-.589z"/><path data-name="パス 729 - アウトライン" d="M338.026 196.494v3.514a3.242 3.242 0 00-.589.589h-8.887v3.938h8.888a3.208 3.208 0 005.115 0h8.888v-3.938h-8.891a3.241 3.241 0 00-.589-.589v-3.514h-3.938m-1.2-1.2h6.338v4.1h9.476v6.338h-9.547a4.4 4.4 0 01-6.189 0h-9.551v-6.338h9.476z" fill="#f8ece9"/><path data-name="パス 730" d="M318.992 169.091v11.815H361v-11.815zm35.772 5.907a1.969 1.969 0 11-1.972-1.969 1.969 1.969 0 011.972 1.969zm-31.829 2.617l2.621-5.242h1.817l.8.009-2.617 5.242h-1.821zm5.251 0l2.621-5.242h1.817l.8.009-2.621 5.242h-1.817zm5.251 0l2.621-5.242h1.817l.8.009-2.621 5.242h-1.817z"/><path data-name="パス 730 - アウトライン" d="M318.992 169.091v11.815H361v-11.815h-42.008m6.564 8.533h-1.821l-.8-.009 2.621-5.242h1.817l.8.009-2.617 5.242m5.251 0h-1.821l-.8-.009 2.621-5.242h1.817l.8.009-2.621 5.242m5.251 0h-1.817l-.8-.009 2.621-5.242h1.817l.8.009-2.621 5.242m16.738-.657a1.969 1.969 0 111.969-1.969 1.969 1.969 0 01-1.969 1.969m-35-9.076H362.2v14.215h-44.408zm35 7.876a.769.769 0 10-.769-.769.77.77 0 00.769.769z" fill="#f8ece9"/><path data-name="パス 731" d="M341.965 182.054h-3.938v1.477h-19.035v11.815H361v-11.815h-19.035zm-19.03 10l2.621-5.242h1.817l.8.009-2.617 5.243h-1.821zm5.251 0l2.621-5.242h1.817l.8.009-2.621 5.242h-1.817zm5.251 0l2.621-5.242h1.817l.8.009-2.621 5.242h-1.817zm17.39-2.617a1.969 1.969 0 111.965 1.967 1.969 1.969 0 01-1.966-1.966z"/><path data-name="パス 731 - アウトライン" d="M338.027 182.054v1.477h-19.035v11.815H361v-11.815h-19.035v-1.477h-3.938m-12.471 10.01h-1.821l-.8-.009 2.621-5.242h1.817l.8.009-2.617 5.242m5.251 0h-1.821l-.8-.009 2.621-5.242h1.817l.8.009-2.621 5.242m5.251 0h-1.817l-.8-.009 2.621-5.242h1.817l.8.009-2.621 5.242m16.738-.66a1.969 1.969 0 111.969-1.969 1.969 1.969 0 01-1.969 1.969m-15.965-10.55h6.338v1.477H362.2v14.215h-44.408v-14.215h19.035zm15.965 9.35a.769.769 0 10-.769-.769.77.77 0 00.769.769z" fill="#f8ece9"/></g><path data-name="長方形 3544" fill="#f8ece9" d="M458 140h4v13h-4z"/><path data-name="長方形 3545" fill="#f8ece9" d="M458 159h4v13h-4z"/><text data-name="Microsoft Windows Server Update Services" transform="translate(380.75 138.083)" font-size="14" font-family="Roboto-Regular, Roboto"><tspan x="18.851" y="13">Microsoft Windows</tspan><tspan x="7.49" y="31">Server Update Services</tspan></text></g></g></svg>