<svg xmlns="http://www.w3.org/2000/svg" width="559" height="237"><g data-name="グループ 2554"><path data-name="長方形 3539" fill="#f2ecf7" d="M135 0h424v237H135z"/><path data-name="パス 776" d="M348.326 119.001L226.954 71.01v95.981l121.372-47.99m2.72 0l-125.092 49.461V69.539z"/><path data-name="長方形 3541" fill="#f2ecf7" d="M197 142h58v58h-58z"/><path data-name="長方形 3542" fill="#f2ecf7" d="M188 11h76v82h-76z"/><path data-name="長方形 3543" fill="#f2ecf7" d="M326 57h73v102h-73z"/><text transform="translate(253 124)" font-size="14" font-family="YuGothicUI-Bold, Yu Gothic UI" font-weight="700"><tspan x="0" y="0">連携</tspan></text><text data-name="テクニカル エンジニア" transform="translate(364 131.917)" font-size="14" font-family="YuGothicUI-Regular, Yu Gothic UI"><tspan x="-26.65" y="0">テクニカル</tspan><tspan x="-26.811" y="18">エンジニア</tspan></text><path data-name="パス 771" d="M382.671 107.229a7.8 7.8 0 00-.778-1.909 7.7 7.7 0 00-2.17-2.383 11.914 11.914 0 00-1.987-1.164c-1.027-.487-2.08-.86-3.053-1.219a17.692 17.692 0 01-2.575-1.111l-.077-.044a5.033 5.033 0 01-.678-.47 2.953 2.953 0 01-.694-.8 2.6 2.6 0 01-.322-1.038 3.468 3.468 0 01-.043-.567 12.259 12.259 0 01.263-2.426 9.319 9.319 0 001.214-1.788 19.413 19.413 0 001.1-2.515 4.865 4.865 0 00.69-.384 4.941 4.941 0 001.41-1.472 7.692 7.692 0 00.96-2.437 3.7 3.7 0 00.092-.817 3.739 3.739 0 00-.355-1.576 4.283 4.283 0 00-.581-.911c.117-.431.26-1.012.386-1.691a18.2 18.2 0 00.319-3.269 12.124 12.124 0 00-.216-2.349 8.715 8.715 0 00-.533-1.731 6.451 6.451 0 00-1.632-2.284 6.724 6.724 0 00-2.569-1.394 8.91 8.91 0 00-1.109-1.126 6.218 6.218 0 00-.994-.688 5.679 5.679 0 00-1.579-.587 8.075 8.075 0 00-1.668-.156c-.79 0-1.622.08-2.539.17-.347.035-.64.078-.891.123-.377.068-.659.139-.885.183a2.728 2.728 0 01-.31.05 1.955 1.955 0 01-.3.021 3.512 3.512 0 01-.529-.045 11.849 11.849 0 01-1.761-.4 8.897 8.897 0 01-.82-.29 2.246 2.246 0 01-.124-.056.817.817 0 00-.375-.084.9.9 0 00-.233.03 1.36 1.36 0 00-.14.049 1.258 1.258 0 00-.2.1 3.289 3.289 0 00-.314.221 7.715 7.715 0 00-.623.547 10.376 10.376 0 00-1.016 1.136 7.192 7.192 0 00-.461.662 4.753 4.753 0 00-.352.712 18.967 18.967 0 00-.968 3.383 15.569 15.569 0 00-.268 2.86 19.365 19.365 0 00.39 3.662c0 .049 0 .1.007.145 0 .1.015.2.025.3l.047.445.018.171v.166l.189.836a4.3 4.3 0 00-.687.988 3.662 3.662 0 00-.312 2.494 8.36 8.36 0 00.579 1.739 5.428 5.428 0 001.291 1.782 4.7 4.7 0 001.2.777 19.356 19.356 0 001.1 2.508 9.2 9.2 0 001.214 1.787 12.31 12.31 0 01.263 2.43 3.465 3.465 0 01-.044.566 2.754 2.754 0 01-.182.75 2.583 2.583 0 01-.6.879 4.678 4.678 0 01-1.006.737l-.313.168c-.335.171-.7.334-1.095.493-.9.366-1.932.711-2.978 1.127a16.883 16.883 0 00-2.331 1.114 9.5 9.5 0 00-1.613 1.18 7.43 7.43 0 00-1.848 2.607 9.678 9.678 0 00-.7 3.8 1.627 1.627 0 00.115.594 2.211 2.211 0 00.27.482 3.68 3.68 0 00.8.774 9.715 9.715 0 002.318 1.191 28.8 28.8 0 006.017 1.421 68.012 68.012 0 009.479.591 71.257 71.257 0 008.427-.452 39.485 39.485 0 004.569-.8 21.5 21.5 0 002.52-.768 11.847 11.847 0 001.42-.635 6.805 6.805 0 00.823-.505 3.825 3.825 0 00.87-.833 2.175 2.175 0 00.266-.492 1.6 1.6 0 00.1-.566 10.593 10.593 0 00-.32-2.719zm-25.564-32.394c4.275.95 12.633-.866 12.633-.866a7.882 7.882 0 001.516 3.975 13.331 13.331 0 011.685 4.126c-.012 0-.025 0-.038-.006a.294.294 0 01-.273-.275c-.053-.256-.293-.332-.675-.384a17.722 17.722 0 00-3.047-.1c-3.641.177-3.371.508-4.8.508s-1.16-.331-4.8-.508a17.731 17.731 0 00-3.049.1c-.381.052-.62.128-.674.384a.294.294 0 01-.275.275h-.009c.122-1.62 1.634-3.644 1.806-7.229zm14.793 9.16c0 .019-.016 2.108-1.436 2.823a3.874 3.874 0 01-1.7.377 3.407 3.407 0 01-1.72-.425 2.256 2.256 0 01-1.05-1.353c-.041-.136-.08-.275-.115-.408-.114-.408-.417-1.533.226-2.031a6.241 6.241 0 012.928-.527 4.637 4.637 0 012.593.5 1.41 1.41 0 01.274 1.044zm-9.564 1.013c-.037.133-.077.272-.117.408a2.259 2.259 0 01-1.048 1.352 3.415 3.415 0 01-1.721.425 3.875 3.875 0 01-1.7-.377c-1.42-.715-1.436-2.8-1.436-2.823a1.408 1.408 0 01.278-1.043 4.637 4.637 0 012.593-.5 6.241 6.241 0 012.928.527c.639.497.336 1.618.224 2.03zm.1 22.3l-5.045-6.951c.064-.046.128-.095.192-.145a4.984 4.984 0 00.758-.75l4.067 1.886-.869 1.447 1.344 1.425zm-3.517-8.8a4.323 4.323 0 00.322-1.256 4.923 4.923 0 00.052-.728 14.175 14.175 0 00-.343-2.972l-.049-.216-.149-.16a7.378 7.378 0 01-1.126-1.616 19.1 19.1 0 01-1.121-2.622l-.123-.352-.352-.127a3.23 3.23 0 01-1.667-1.364 6.116 6.116 0 01-.753-1.94 2.091 2.091 0 01.183-1.434 2.848 2.848 0 01.521-.715 11.908 11.908 0 00.773 1.095c.118.118.2.1.256 0a4.117 4.117 0 001.91 3.334c1.917 1.018 4.776.637 5.746-1.629.44-1.022.446-2.022 1.106-2.022s.668 1 1.106 2.022c.972 2.266 3.832 2.647 5.746 1.629s1.93-3.536 1.93-3.713c0-.1.108-.179.256-.179a.242.242 0 00.14-.046c.064.3.1.482.1.482s.185-.349.456-.815a2.738 2.738 0 01.4.615 2.158 2.158 0 01.205.907 2.078 2.078 0 01-.053.468 6.863 6.863 0 01-.47 1.415 3.873 3.873 0 01-.91 1.273 3.2 3.2 0 01-1.04.616l-.35.127-.124.35a19.1 19.1 0 01-1.121 2.626 7.454 7.454 0 01-1.126 1.615l-.152.161-.046.214a14.036 14.036 0 00-.344 2.969 5.161 5.161 0 00.052.73 4.344 4.344 0 00.278 1.151l.022.05-4.813 2.527zm7.048 9.135l-.5-3.421 1.346-1.427-.872-1.452 3.678-1.934a4.126 4.126 0 00.325.372 5.483 5.483 0 00.68.588z"/><text transform="translate(191 83)" font-size="14" font-family="YuGothicUI-Regular, Yu Gothic UI"><tspan x="0" y="0">ヘルプデスク</tspan></text><g data-name="コールセンターの人物アイコン素材 その3"><path data-name="パス 772" d="M244.152 57.415l-.327-1.893a5.212 5.212 0 00-3.033-3.79l-6.889-3.169c-.846-.388-1.088-1.614-1.112-1.68a.441.441 0 00-.395-.177h-.017a.408.408 0 00-.345.286l-.795 2.79-4.967 9.013-4.954-8.983-.808-2.82a.429.429 0 00-.405-.29.422.422 0 00-.373.235 2.468 2.468 0 01-1.09 1.627l-6.89 3.165a5.213 5.213 0 00-3.032 3.79l-.327 1.893a2.44 2.44 0 00.76 2.3c.083.062.187.154.319.272 1.268 1.125 5.127 4.549 16.8 4.549s15.533-3.424 16.8-4.549c.132-.117.236-.21.32-.272a2.439 2.439 0 00.76-2.297z"/><path data-name="パス 773" d="M229.555 29.741c1.669 3.133 3.956 7.425 4.953 8.048l.189.118.694-5.419a8.269 8.269 0 00-2.155-6.345 9.713 9.713 0 00-13.93 0 8.271 8.271 0 00-2.155 6.351l.628 5.364.211-.231a12.046 12.046 0 012.214-1.6 24.8 24.8 0 008.466-7.931c.256.465.556 1.026.885 1.645z"/><path data-name="パス 774" d="M212.423 40.301a1.069 1.069 0 001.042.822 1.088 1.088 0 00.251-.03l1.807-.434a1.067 1.067 0 00.749-.664h.074l-.034-.134a1.062 1.062 0 000-.5l-.942-3.9a21.773 21.773 0 01-.34-3.455 11.24 11.24 0 1122.479 0 21.1 21.1 0 01-.357 3.5l-.925 3.855a.983.983 0 00-.025.176l-.037.082a7.066 7.066 0 01-5.127 3.48 1.154 1.154 0 00-1.017-.605h-2.331a1.158 1.158 0 00-1.157 1.157v.912a1.158 1.158 0 001.157 1.157h2.331a1.157 1.157 0 001.083-.762 9.914 9.914 0 004.759-2.125 8.168 8.168 0 001.753-2.036l1.21.29a1.086 1.086 0 00.251.03 1.069 1.069 0 001.042-.822l.925-3.855a1.074 1.074 0 00-.792-1.293l-.668-.16a21.834 21.834 0 00.239-2.979 13.553 13.553 0 00-27.106 0 21.815 21.815 0 00.239 2.979l-.669.161a1.074 1.074 0 00-.792 1.293z"/></g><text transform="translate(229 215)" font-size="14" font-family="YuGothicUI-Regular, Yu Gothic UI"><tspan x="-51.037" y="0">サービスマネージャー</tspan></text><path data-name="パス 775" d="M244.665 189.86a7.564 7.564 0 00-2.987-4.3 12.239 12.239 0 00-2.006-1.16c-1.036-.485-2.1-.859-3.073-1.22a16.253 16.253 0 01-2.566-1.13 5.331 5.331 0 01-.682-.469 2.964 2.964 0 01-.691-.805 2.578 2.578 0 01-.323-1.039 7.983 7.983 0 01-.044-.838 10.067 10.067 0 01.262-2.154 9.323 9.323 0 001.216-1.784 19.372 19.372 0 001.1-2.51 4.732 4.732 0 002.1-1.859 7.682 7.682 0 00.964-2.442 3.673 3.673 0 00-.263-2.392 4.236 4.236 0 00-.58-.912c.117-.431.259-1.012.385-1.692a18.155 18.155 0 00.32-3.271 12.013 12.013 0 00-.216-2.347 8.528 8.528 0 00-.533-1.73 6.432 6.432 0 00-1.633-2.282 6.764 6.764 0 00-2.57-1.4 9.415 9.415 0 00-1.354-1.329 7.261 7.261 0 00-2.453-1.3 8.778 8.778 0 00-2.546-.345c-.448 0-.9.025-1.345.065-.42.038-.77.081-1.082.135a7.394 7.394 0 00-1.226.311c-.374.129-.734.28-1.206.465a9.292 9.292 0 00-.7.318 12.276 12.276 0 00-1.812 1.127 11.634 11.634 0 00-3.034 3.3 10.221 10.221 0 00-1.082 2.479 11 11 0 00-.42 3.058 13.454 13.454 0 00.189 2.2c0 .053 0 .107.006.157.006.095.016.2.027.3.016.152.034.311.047.444l.018.172v.164l.188.836a4.378 4.378 0 00-.685.989 3.721 3.721 0 00-.4 1.677 3.681 3.681 0 00.09.814 8.461 8.461 0 00.58 1.739 5.434 5.434 0 001.291 1.782 4.716 4.716 0 001.2.777 19.318 19.318 0 001.1 2.509 9.236 9.236 0 001.209 1.782 10.155 10.155 0 01.262 2.155 7.943 7.943 0 01-.043.838 2.717 2.717 0 01-.184.752 2.623 2.623 0 01-.6.879 4.855 4.855 0 01-1.011.739 11.957 11.957 0 01-1.4.657c-.9.366-1.933.712-2.978 1.126a16.884 16.884 0 00-2.333 1.116 9.473 9.473 0 00-1.615 1.18 7.377 7.377 0 00-1.847 2.608 9.632 9.632 0 00-.7 3.8 1.62 1.62 0 00.117.594 2.131 2.131 0 00.269.481 3.731 3.731 0 00.8.774 9.655 9.655 0 002.319 1.192 28.963 28.963 0 006.017 1.421 68.09 68.09 0 009.479.591 71.052 71.052 0 008.425-.454 38.7 38.7 0 004.569-.8 21.725 21.725 0 002.519-.768 11.989 11.989 0 001.422-.634 7.268 7.268 0 00.82-.506 3.765 3.765 0 00.87-.835 2.217 2.217 0 00.268-.49 1.637 1.637 0 00.105-.565 10.582 10.582 0 00-.33-2.741zm-20.319.715l-5.592-7.149a6.824 6.824 0 00.827-.563 4.859 4.859 0 00.759-.752l4.066 1.887-.867 1.452 1.344 1.425zm-3.429-9.418a4.219 4.219 0 00.321-1.255 9.492 9.492 0 00.053-1 12.355 12.355 0 00-.342-2.7l-.049-.215-.151-.16a7.476 7.476 0 01-1.125-1.615 19.237 19.237 0 01-1.12-2.623l-.124-.351-.349-.129a3.25 3.25 0 01-.7-.355 3.368 3.368 0 01-.962-1.009 6.116 6.116 0 01-.755-1.939 2.109 2.109 0 01.185-1.436 2.771 2.771 0 01.521-.713 11.228 11.228 0 00.774 1.094c.355.357.244.247.363.071 0 0 .4-.568 2.541-4.726 4.273.954 11.743-5.473 11.743-5.473a7.888 7.888 0 001.516 3.974c1.351 1.8 2.123 6.035 2.123 6.035s.184-.348.457-.816a2.657 2.657 0 01.4.613 2.105 2.105 0 01.155 1.375 6.913 6.913 0 01-.471 1.416 3.834 3.834 0 01-.91 1.271 3.172 3.172 0 01-1.039.617l-.349.127-.124.351a19.114 19.114 0 01-1.12 2.624 7.418 7.418 0 01-1.126 1.616l-.151.16-.047.216a12.213 12.213 0 00-.343 2.7 9.906 9.906 0 00.052 1 4.287 4.287 0 00.278 1.152.469.469 0 00.021.047l-4.812 2.531zm7.125 9.677l-.571-3.962 1.341-1.422-.87-1.454 3.678-1.933a4.123 4.123 0 00.324.374 6.02 6.02 0 001.237.953z"/><g data-name="グループ 2549" font-size="14" font-family="YuGothicUI-Bold, Yu Gothic UI" font-weight="700"><text transform="translate(430 97)"><tspan x="0" y="0">整</tspan></text><text transform="translate(430 111)"><tspan x="0" y="0">備</tspan></text></g><g data-name="グループ 2550" font-size="14" font-family="YuGothicUI-Bold, Yu Gothic UI" font-weight="700"><text transform="translate(430 136)"><tspan x="0" y="0">保</tspan></text><text transform="translate(430 150)"><tspan x="0" y="0">全</tspan></text></g><text data-name="サービス 提供環境" transform="translate(509 132)" font-size="14" font-family="YuGothicUI-Regular, Yu Gothic UI"><tspan x="-20.474" y="0">サービス</tspan><tspan x="-28" y="18">提供環境</tspan></text><path data-name="パス 777" d="M476.773 119h-75.582v-1h72.287l-7.131-4.766.556-.831z" fill="#070f26"/><path data-name="パス 778" d="M496.954 73.727v38.547h9.637v-6.023h4.818v6.023h9.637V73.727zm6.625 24.493h-3.614v-4.818h3.614zm0-8.432h-3.614v-4.819h3.614zm0-8.432h-3.614v-4.819h3.614zm7.228 16.864h-3.614v-4.818h3.614zm0-8.432h-3.614v-4.819h3.614zm0-8.432h-3.614v-4.819h3.614zm7.228 16.864h-3.614v-4.818h3.614zm0-8.432h-3.614v-4.819h3.614zm0-8.432h-3.614v-4.819h3.614z"/><text transform="translate(31 63)" fill="#00b176" font-size="14" font-family="YuGothicUI-Bold, Yu Gothic UI" font-weight="700"><tspan x="0" y="0">ユーザー</tspan></text><text data-name="情報システム 部門" transform="translate(73 167.15)" fill="#00b176" font-size="14" font-family="YuGothicUI-Bold, Yu Gothic UI" font-weight="700"><tspan x="-72.276" y="0">情報システム</tspan><tspan x="-28" y="20">部門</tspan></text><g data-name="グループ 2551" fill="#8246af" font-size="16" font-family="YuGothicUI-Bold, Yu Gothic UI" font-weight="700"><text transform="translate(128.5 96)"><tspan x="0" y="0">サ</tspan></text><text transform="translate(128.5 113)"><tspan x="0" y="0">ポ</tspan></text><text data-name="ー" transform="rotate(90 5.75 122.75)"><tspan x="0" y="0">ー</tspan></text><text transform="translate(129.5 143)"><tspan x="0" y="0">ト</tspan></text></g><path data-name="パス 780" d="M171.809 172.656H90.226l9.87-6.6.556.831-7.13 4.769h78.287z" fill="#8246af"/><path data-name="パス 781" d="M171.809 58.001H90.226l9.87-6.6.556.831-7.13 4.769h78.287z" fill="#8246af"/></g></svg>