<svg xmlns="http://www.w3.org/2000/svg" width="558" height="329"><g data-name="グループ 2698"><g data-name="グループ 2537"><path data-name="長方形 3532" fill="#f8ece9" d="M279 23h279v306H279z"/><path data-name="長方形 3533" fill="#e5f7f1" d="M0 23h279v306H0z"/></g><g data-name="グループ 2536" fill="#d76b00" font-size="16" font-family="YuGothicUI-Bold, Yu Gothic UI" font-weight="700"><text transform="translate(272 57)"><tspan x="0" y="0">イ</tspan></text><text transform="translate(272 74)"><tspan x="0" y="0">ン</tspan></text><text transform="translate(272 91)"><tspan x="0" y="0">べ</tspan></text><text data-name="ン" transform="translate(272 108)"><tspan x="0" y="0">ン</tspan></text><text transform="translate(273 125)"><tspan x="0" y="0">ト</tspan></text><text transform="translate(273 142)"><tspan x="0" y="0">リ</tspan></text><text transform="translate(270 159)"><tspan x="0" y="0">情</tspan></text><text transform="translate(270 176)"><tspan x="0" y="0">報</tspan></text></g><text transform="translate(429 286)" font-size="14" font-family="YuGothicUI-Regular, Yu Gothic UI"><tspan x="0" y="0">資産管理サーバ</tspan></text><text data-name="情報登録・更新" transform="translate(421 196)" fill="#d76b00" font-size="16" font-family="YuGothicUI-Bold, Yu Gothic UI" font-weight="700"><tspan x="0" y="0">情報登録・更新</tspan></text><text transform="translate(106 15)" fill="#00b176" font-size="14" font-family="YuGothicUI-Bold, Yu Gothic UI" font-weight="700"><tspan x="0" y="0">お客様環境</tspan></text><text data-name="Wave PC Mate" transform="translate(373 13)" fill="#bc4328" font-size="14" font-family="Roboto-Bold, Roboto" font-weight="700"><tspan x="0" y="0">Wave PC Mate</tspan></text><path data-name="パス 729" d="M373.838 98.556v-4.172h-4.676v4.172a3.849 3.849 0 00-.7.7h-10.553v4.678h10.554a3.809 3.809 0 006.074 0h10.554v-4.677h-10.554a3.848 3.848 0 00-.699-.701z"/><path data-name="パス 730" d="M346.559 61.843v14.029h49.883V61.843zm42.478 7.015a2.338 2.338 0 11-2.338-2.338 2.338 2.338 0 012.338 2.338zm-37.8 3.107l3.113-6.225h2.161l.955.01-3.113 6.225h-2.162zm6.235 0l3.113-6.225h2.158l.955.01-3.109 6.225h-2.163zm6.235 0l3.113-6.225h2.158l.955.01-3.113 6.225h-2.161z"/><path data-name="パス 731" d="M373.839 77.236h-4.68v1.75h-22.6v14.03h49.883v-14.03h-22.603zm-22.6 11.876l3.114-6.226h2.158l.955.01-3.113 6.225h-2.162zm6.235 0l3.115-6.226h2.158l.955.01-3.113 6.225h-2.163zm6.235 0l3.113-6.225h2.158l.955.01-3.113 6.225h-2.163zm20.65-3.108a2.338 2.338 0 112.338 2.338 2.338 2.338 0 01-2.338-2.338z"/><g data-name="サーバーのフリーアイコン素材"><path data-name="パス 729" d="M475.279 257.914v-4.172h-4.676v4.172a3.849 3.849 0 00-.7.7H459.35v4.678h10.554a3.809 3.809 0 006.074 0h10.554v-4.677h-10.554a3.848 3.848 0 00-.699-.701z"/><path data-name="パス 730" d="M448 221.201v14.029h49.883v-14.029zm42.478 7.015a2.338 2.338 0 11-2.338-2.338 2.338 2.338 0 012.338 2.338zm-37.8 3.107l3.113-6.225h2.161l.955.01-3.113 6.225h-2.162zm6.235 0l3.113-6.225h2.158l.955.01-3.109 6.225h-2.163zm6.235 0l3.113-6.225h2.158l.955.01-3.113 6.225H466.1z"/><path data-name="パス 731" d="M475.28 236.594h-4.68v1.75H448v14.03h49.883v-14.03H475.28zm-22.6 11.876l3.114-6.226h2.158l.955.01-3.113 6.225h-2.162zm6.235 0l3.115-6.226h2.158l.955.01-3.113 6.225h-2.163zm6.235 0l3.113-6.225h2.158l.955.01-3.113 6.225H466.1zm20.65-3.108a2.338 2.338 0 112.338 2.338 2.338 2.338 0 01-2.338-2.338z"/></g><g data-name="1000_F_375195713_UvwkTpKVrPXwjjdi6hKEya9OrJUE8RIT"><path data-name="パス 726" d="M165.727 64.929v32.907h-3.77v-7.484q0-12.887-.011-25.763c0-2.7.942-3.671 3.594-3.671q24.327-.016 48.665 0c2.411 0 3.561 1.008 3.572 3.211q.033 16.47 0 32.951a6.536 6.536 0 01-.1.756h-3.682V64.929z"/><path data-name="パス 727" d="M220.715 105.441h-61.781a3.088 3.088 0 01-3.068-2.7l-.221-1.686a1.24 1.24 0 011.227-1.4h65.892a1.239 1.239 0 011.227 1.381l-.186 1.655a3.115 3.115 0 01-3.09 2.75z"/><path data-name="パス 728" d="M194.7 103.184h-9.446a.208.208 0 01-.208-.208v-.789a.208.208 0 01.208-.208h9.446a.208.208 0 01.208.208v.789a.216.216 0 01-.208.208z" fill="#e5f7f1"/></g><path data-name="パス 764" d="M61.887 160.699H34.11a3.2 3.2 0 00-3.2 3.2v27.777a3.2 3.2 0 003.2 3.2h27.777a3.2 3.2 0 003.2-3.2v-27.777a3.2 3.2 0 00-3.2-3.2zm-1.291 2.337a1.268 1.268 0 11-1.268 1.268 1.269 1.269 0 011.268-1.268zm-4.707 0a1.268 1.268 0 11-1.268 1.268 1.269 1.269 0 011.268-1.268zm-4.707 0a1.268 1.268 0 11-1.272 1.268 1.269 1.269 0 011.273-1.268zm11.238 28.64a.535.535 0 01-.534.534H34.11a.535.535 0 01-.534-.534v-24.034h28.845z"/><path data-name="長方形 3527" d="M37.311 173.514H47.39v2.138H37.311z"/><path data-name="長方形 3528" d="M37.311 184.204h21.991v2.138H37.311z"/><path data-name="長方形 3529" d="M51.055 173.514h8.246v7.941h-8.246z"/><path data-name="パス 765" d="M46.201 180.994h1.266v-2.136H37.319v2.136h8.882z"/><text transform="translate(324 113)" font-size="14" font-family="YuGothicUI-Regular, Yu Gothic UI"><tspan x="2.557" y="15">インベントリ情報</tspan><tspan x="17.617" y="33">収集サーバ</tspan></text><text transform="translate(157 113)" font-size="14" font-family="YuGothicUI-Regular, Yu Gothic UI"><tspan x="4.885" y="15">お客様</tspan><tspan y="15" font-family="Roboto-Regular, Roboto">PC</tspan></text><text transform="translate(79.402 157.881)" fill="#d76b00" font-size="14" font-family="Roboto-Bold, Roboto" font-weight="700"><tspan x="0" y="15">Web</tspan><tspan y="15" font-family="YuGothicUI-Bold, Yu Gothic UI">での資産管</tspan><tspan x="0" y="33" font-family="YuGothicUI-Bold, Yu Gothic UI">理情報の提供</tspan></text><path data-name="長方形 3537" d="M13 146h5v1h-5zm8 0h5v1h-5zm8 0h5v1h-5zm8 0h5v1h-5zm8 0h5v1h-5zm8 0h5v1h-5zm8 0h5v1h-5zm8 0h5v1h-5zm8 0h5v1h-5zm8 0h5v1h-5zm8 0h5v1h-5zm8 0h5v1h-5zm8 0h5v1h-5zm8 0h5v1h-5zm8 0h5v1h-5zm8 0h5v1h-5zm8 0h5v1h-5zm8 0h5v1h-5zm8 0h5v1h-5zm8 0h5v1h-5zm8 0h5v1h-5zm8 0h5v1h-5zm8 0h1v4h-1zm0 7h1v5h-1zm0 8h1v5h-1zm0 8h1v5h-1zm0 8h1v5h-1zm0 8h1v5h-1zm0 8h1v5h-1zm0 8h1v5h-1zm-4 7h5v1h-5zm-8 0h5v1h-5zm-8 0h5v1h-5zm-8 0h5v1h-5zm-8 0h5v1h-5zm-8 0h5v1h-5zm-8 0h5v1h-5zm-8 0h5v1h-5zm-8 0h5v1h-5zm-8 0h5v1h-5zm-8 0h5v1h-5zm-8 0h5v1h-5zm-8 0h5v1h-5zm-8 0h5v1h-5zm-8 0h5v1h-5zm-8 0h5v1h-5zm-8 0h5v1h-5zm-8 0h5v1h-5zm-8 0h5v1h-5zm-8 0h5v1h-5zm-8 0h5v1h-5zm-8 0h5v1h-5zm-4-3h1v4h-1zm0-8h1v5h-1zm0-8h1v5h-1zm0-8h1v5h-1zm0-8h1v5h-1zm0-8h1v5h-1zm0-8h1v5h-1zm0-8h1v5h-1z" fill="#bc4328"/><path data-name="長方形 3536" fill="#fff" d="M13 54h127v56H13z"/><path data-name="長方形 3536 - アウトライン" d="M14 55v54h125V55H14m-1-1h127v56H13z" fill="#00b176"/><text data-name="・ソフトフェア情報 ・ハードウェア情報" transform="translate(28 78)" font-size="14" font-family="YuGothicUI-Bold, Yu Gothic UI" font-weight="700"><tspan x="0" y="0">・ソフトフェア情報</tspan><tspan x="0" y="18">・ハードウェア情報</tspan></text><text transform="translate(99 290)" font-size="14" font-family="YuGothicUI-Regular, Yu Gothic UI"><tspan x="0" y="0">管理者</tspan></text><path data-name="パス 763" d="M125.749 250.798a12.538 12.538 0 01.3-3.865 12.887 12.887 0 002.5-4.632c1.207-.438 2.435-1.454 3.013-3.967a3.185 3.185 0 00-.968-3c.572-1.913 2.851-10.761-3.876-12.582-2.229-2.811-4.189-2.703-7.552-2.38-1.672.161-1.911.515-3.192.324a11.647 11.647 0 01-3.018-.855 6.947 6.947 0 00-2.7 3.013 16.35 16.35 0 00-.854 9.812c-.015.236-.036.472-.037.711l.393 1.693v.051a3.223 3.223 0 00-1.127 3.123c.559 2.518 1.78 3.543 2.984 3.989a12.889 12.889 0 002.464 4.649 12.523 12.523 0 01.27 3.868c-.634 5.886-13.011 2.738-13.05 13.076-.006 1.594 5.326 4.4 18.683 4.445s18.71-2.71 18.716-4.3c.041-10.337-12.36-7.283-12.949-13.173zm-7.927 15.759l-3.339-13.786 4.165 1.752-.232 2.018.663-.012zm4.144-10.006l-.217-2.016 4.178-1.72-3.443 13.76-1.181-10.04z"/><path data-name="パス 732" d="M415.148 221.182H229.324v-1h182.528l-7.13-4.766.556-.831z" fill="#d76b00"/><path data-name="パス 767" d="M264.324 79.5H236.5v-1h24.528l-7.13-4.766.556-.831z" fill="#d76b00"/><path data-name="パス 770" d="M321.148 79.5h-27.824v-1h24.528l-7.13-4.766.556-.831z" fill="#d76b00"/><path data-name="パス 768" d="M472.5 171.708V78.884h1v89.528l4.766-7.13.831.556z" fill="#d76b00"/><path data-name="パス 766" d="M325.676 276.5H155.853l9.871-6.6.556.831-7.13 4.766h166.528z" fill="#d76b00"/><path data-name="長方形 3534" fill="#fff" d="M157 202h130v40H157z"/><path data-name="長方形 3534 - アウトライン" d="M158 203v38h128v-38H158m-1-1h130v40H157z" fill="#00b176"/><text transform="translate(174 227)" font-size="14" font-family="YuGothicUI-Bold, Yu Gothic UI" font-weight="700"><tspan x="0" y="0">資産情報の検索</tspan></text><path data-name="長方形 3535" fill="#fff" d="M270 247h145v56H270z"/><path data-name="長方形 3535 - アウトライン" d="M271 248v54h143v-54H271m-1-1h145v56H270z" fill="#bc4328"/><text data-name="・資産管理情報 ・資産レポート" transform="translate(294 272)" font-size="14" font-family="YuGothicUI-Bold, Yu Gothic UI" font-weight="700"><tspan x="0" y="0">・資産管理情報</tspan><tspan x="0" y="18">・資産レポート</tspan></text><path data-name="パス 769" d="M473.182 80h-46v-1h46z" fill="#d76b00"/></g></svg>