<svg xmlns="http://www.w3.org/2000/svg" width="1124.364" height="281"><g data-name="グループ 2952"><g data-name="グループ 2951"><g data-name="グループ 2729"><g data-name="グループ 2728"><path data-name="パス 815" d="M829 1h275l19 20.333L1104 42H829z" fill="#a0a9c1"/><path data-name="パス 815 - アウトライン" d="M829 1v41h275l19-20.667L1104 1H829m-1-1h276.434l19.929 21.328L1104.439 43H828z" fill="#fff"/><text transform="translate(944 5)" fill="#fff" font-size="22" font-family="YuGothicUI-Bold, Yu Gothic UI" font-weight="700"><tspan x="7.5" y="24">撤去</tspan></text></g><g data-name="グループ 2727"><path data-name="パス 815" d="M553 1h275l19 20.333L828 42H553z" fill="#667493"/><path data-name="パス 815 - アウトライン" d="M553 1v41h275l19-20.667L828 1H553m-1-1h276.434l19.929 21.328L828.439 43H552z" fill="#fff"/><text transform="translate(661 5)" fill="#fff" font-size="22" font-family="YuGothicUI-Bold, Yu Gothic UI" font-weight="700"><tspan x="14.5" y="24">運用</tspan></text></g><g data-name="グループ 2726"><path data-name="パス 815" d="M277 1h275l19 20.333L552 42H277z" fill="#3b486f"/><path data-name="パス 815 - アウトライン" d="M277 1v41h275l19-20.667L552 1H277m-1-1h276.434l19.929 21.328L552.439 43H276z" fill="#fff"/><text transform="translate(390 5)" fill="#fff" font-size="22" font-family="YuGothicUI-Bold, Yu Gothic UI" font-weight="700"><tspan x="9.5" y="24">導入</tspan></text></g><g data-name="グループ 2725"><path data-name="パス 815" d="M1 1h275l19 20.333L276 42H1z" fill="#1d264d"/><path data-name="パス 815 - アウトライン" d="M1 1v41h275l19-20.667L276 1H1M0 0h276.434l19.929 21.328L276.439 43H0z" fill="#fff"/><text transform="translate(114 5)" fill="#fff" font-size="22" font-family="YuGothicUI-Bold, Yu Gothic UI" font-weight="700"><tspan x="9.5" y="24">調達</tspan></text></g></g><text transform="translate(44.5 207)" fill="#333" font-size="16" font-family="NotoSansCJKjp-Regular, Noto Sans CJK JP"><tspan x="0" y="19">ベンダーに縛られない最適な</tspan><tspan x="0" y="44">PCの調達</tspan></text><text transform="translate(321 207)" fill="#333" font-size="16" font-family="NotoSansCJKjp-Regular, Noto Sans CJK JP"><tspan x="0" y="19">お客様固有の環境にセット</tspan><tspan x="0" y="44">アップした状態でPCをお届け</tspan></text><text data-name="ヘルプデスク、セキュリティ対策、資産管理などトータルでサポート" transform="translate(596.5 207)" fill="#333" font-size="16" font-family="NotoSansCJKjp-Regular, Noto Sans CJK JP"><tspan x="0" y="19">ヘルプデスク、セキュリティ</tspan><tspan x="0" y="44">対策、資産管理などトータル</tspan><tspan x="0" y="69">でサポート</tspan></text><text data-name="撤去時の回収スケジュール調整、回収業者を手配" transform="translate(872.5 207)" fill="#333" font-size="16" font-family="NotoSansCJKjp-Regular, Noto Sans CJK JP"><tspan x="0" y="19">撤去時の回収スケジュール調</tspan><tspan x="0" y="44">整、回収業者を手配</tspan></text><g fill="#3b486f"><path data-name="長方形 3546" d="M359.352 165.241h114.905v11.962H359.352z"/><path data-name="パス 789" d="M387.946 162.094h48.532v-9.446h-22.7l-9.561-25.971h-44.603l13.9 35.417z"/><path data-name="パス 798" d="M430.439 106.788c.7 3.511 1.866 6.612 3.4 8.137v4.236a1.214 1.214 0 01-.055.336l7.935 3.406 7.929-3.406a1.278 1.278 0 01-.055-.336v-4.236c1.543-1.525 2.709-4.626 3.4-8.137 1.623-.516 2.554-1.345 3.71-4.959 1.229-3.849-1.853-3.722-1.853-3.722 2.492-7.36-.79-14.281-6.292-13.775-3.8-5.919-16.505 1.354-20.491.844a7.351 7.351 0 00.948 3.553c-1.385 2.343-.851 7.013-.461 9.378-.224 0-3.016.024-1.83 3.722 1.165 3.615 2.091 4.443 3.715 4.959z"/><path data-name="長方形 3547" d="M438.73 124.631h5.981v4.62h-5.981z"/><path data-name="パス 799" d="M440.538 148.59v13.5h33.456c-1.777-16.6-9.783-32.126-15.295-33.963a16.284 16.284 0 01-1.93-.812l-11.259 13.862-.8-9.086h-5.98l-.8 9.086-11.242-13.859a13.412 13.412 0 01-1.952.812c-2.93.916-6.752 7.972-9.742 16.067l1.607 4.393z"/></g><g data-name="キラキラ 2"><path data-name="パス 802" d="M403.003 106.632a10.343 10.343 0 01-2.285 4.9 10.349 10.349 0 01-4.9 2.286 10.342 10.342 0 014.9 2.286 10.337 10.337 0 012.286 4.9 10.336 10.336 0 012.285-4.9 10.345 10.345 0 014.9-2.286 10.336 10.336 0 01-4.9-2.285 10.337 10.337 0 01-2.286-4.901z" fill="#3b486f"/></g><g data-name="キラキラ 2"><path data-name="パス 802" d="M393.204 91.014a14.114 14.114 0 01-3.118 6.683 14.121 14.121 0 01-6.681 3.117 14.112 14.112 0 016.681 3.119 14.106 14.106 0 013.12 6.682 14.1 14.1 0 013.118-6.683 14.117 14.117 0 016.68-3.12 14.1 14.1 0 01-6.681-3.118 14.106 14.106 0 01-3.119-6.68z" fill="#3b486f"/></g><g data-name="グループ 2601"><g data-name="グループ 2600" fill="#1d264d"><path data-name="パス 726" d="M106.034 106.917v57.171h-6.549v-13q0-22.389-.019-44.758c0-4.683 1.637-6.378 6.244-6.378q42.264-.029 84.547 0c4.188 0 6.187 1.751 6.206 5.578q.057 28.614 0 57.247a11.356 11.356 0 01-.171 1.314h-6.4v-57.174z"/><path data-name="パス 727" d="M201.565 177.3H94.23a5.365 5.365 0 01-5.331-4.683l-.381-2.932a2.154 2.154 0 012.132-2.437h114.475a2.152 2.152 0 012.132 2.4l-.324 2.875a5.412 5.412 0 01-5.368 4.777z"/></g><path data-name="パス 728" d="M156.37 173.378h-16.41a.361.361 0 01-.362-.362v-1.371a.361.361 0 01.362-.362h16.411a.362.362 0 01.362.362v1.371a.374.374 0 01-.363.362z" fill="#fff"/></g><g fill="#a0a9c1"><path data-name="パス 804" d="M926.43 100.35h60.587a2.786 2.786 0 012.7 2.862v42.7a2.783 2.783 0 01-2.7 2.858H926.43a2.783 2.783 0 01-2.7-2.858v-42.7a2.786 2.786 0 012.7-2.862z"/><path data-name="パス 805" d="M1010.795 158.265a8.04 8.04 0 11-7.588 8.026 7.819 7.819 0 017.588-8.026z"/><path data-name="パス 806" d="M925.979 152.133h64.673a2.325 2.325 0 002.255-2.385v-35.599a2.321 2.321 0 012.255-2.385h20.543a2.206 2.206 0 011.729.857l14.709 18.667a2.459 2.459 0 01.522 1.524v24.937a2.321 2.321 0 01-2.253 2.383h-11.334a9.8 9.8 0 00-16.562 0h-46.258a9.8 9.8 0 00-16.56 0h-13.719a2.321 2.321 0 01-2.253-2.383v-3.229a2.322 2.322 0 012.253-2.387zm98.45-17.426v-1.65a2.562 2.562 0 00-.519-1.552l-9.384-12.227a2.281 2.281 0 00-1.8-.907h-9.2a2.393 2.393 0 00-2.326 2.456v13.88a2.394 2.394 0 002.326 2.456h18.581a2.393 2.393 0 002.319-2.456z"/><path data-name="パス 807" d="M947.978 158.265a8.04 8.04 0 11-7.59 8.026 7.816 7.816 0 017.59-8.026z"/></g><text transform="translate(939.5 112)" fill="#fff" font-size="20" font-family="DIN2014-Demi, 'DIN \32 014'" font-weight="300" letter-spacing=".03em"><tspan x="4.44" y="19">PC</tspan></text><path data-name="パス 809" d="M147.466 119.712a15.969 15.969 0 1015.97 15.969 15.967 15.967 0 00-15.97-15.969zm-.906 23.429l-7.634-6.113 2.9-3.621 3.962 3.17 6.672-8.582 3.664 2.847z" fill="#1d264d"/><g data-name="グループ 2575" fill="#667493"><g data-name="時間経過のアイコン 2"><path data-name="パス 811" d="M720.925 93.745a26.888 26.888 0 00-19.067-7.9v6.536a20.438 20.438 0 11-19.714 15.093l2.649 1.65a1.262 1.262 0 001.128.12.968.968 0 00.611-.834l1.141-14.939a1.279 1.279 0 00-1.867-1.162l-12.905 7.61a.966.966 0 00-.482.914 1.252 1.252 0 00.606.961l3.384 2.107a26.964 26.964 0 1044.516-10.156z"/><path data-name="パス 811 - アウトライン" d="M701.858 85.348h.007a27.463 27.463 0 110 54.926h-.014a27.464 27.464 0 01-26.044-36.159l-3.044-1.896a1.747 1.747 0 01-.844-1.353 1.472 1.472 0 01.73-1.378l12.9-7.608a1.609 1.609 0 01.822-.22 1.832 1.832 0 01.957.275 1.726 1.726 0 01.835 1.569l-1.133 14.944a1.473 1.473 0 01-.919 1.258 1.628 1.628 0 01-.621.12 1.825 1.825 0 01-.961-.278l-2.068-1.288a19.925 19.925 0 1019.4-15.377h-.5v-7.535zm.007 53.926a26.464 26.464 0 0018.707-45.175 26.252 26.252 0 00-18.213-7.746v5.537a20.927 20.927 0 11-21.427 20.919 21.036 21.036 0 01.729-5.467l.175-.65 3.221 2.006a.778.778 0 00.674.082.468.468 0 00.3-.407l1.141-14.942a.739.739 0 00-.368-.647.832.832 0 00-.432-.126.611.611 0 00-.312.081l-12.905 7.611a.467.467 0 00-.234.45.758.758 0 00.37.57l3.722 2.319-.132.378a26.463 26.463 0 0024.97 35.208z"/></g><path data-name="パス 813" d="M736.355 126.994v-16.868a4.993 4.993 0 014.962-5.126 4.832 4.832 0 014.881 5.044v29.877a6.046 6.046 0 01-1.879 4.472c-6.208 6.188-12.375 12.4-18.6 18.563a3.892 3.892 0 00-1.246 2.961c.041 5.105.02-2.057.02 3.048 0 2-.96 2.941-2.961 2.941h-11.378c-1.96 0-2.92-.96-2.92-2.92v-8.031a9.049 9.049 0 012.675-6.576l23.913-23.913a4.708 4.708 0 014.881-1.287 4.615 4.615 0 013.41 3.615 4.794 4.794 0 01-1.368 4.656c-1.9 1.9-3.8 3.778-5.657 5.677a1.8 1.8 0 00-.551.939 1.085 1.085 0 00.531.878 1.463 1.463 0 001.164-.2c.756-.633 1.409-1.368 2.1-2.063l3.758-3.758a6.947 6.947 0 00-5.065-11.987 2.1 2.1 0 01-.67.058z"/><path data-name="パス 814" d="M663.646 127.014a7.562 7.562 0 00-4.636 1.021 6.923 6.923 0 00-1.389 10.64c1.96 2.042 4 4.023 6 6.024.572.572 1.123.613 1.572.143.429-.449.388-1-.163-1.572-1.9-1.92-3.819-3.819-5.738-5.738a4.822 4.822 0 01-1.307-5.187 4.664 4.664 0 014.084-3.308 4.828 4.828 0 014.207 1.552q11.185 11.18 22.345 22.361l1.041 1.042a9.711 9.711 0 013.084 7.556c-.041 6.6-.02.945-.02 7.541a2.524 2.524 0 01-2.777 2.8 1157 1157 0 01-11.783 0 2.511 2.511 0 01-2.7-2.736c0-5.248-.02 1.791 0-3.457a3.414 3.414 0 00-1.1-2.614q-9.282-9.251-18.543-18.5a6.774 6.774 0 01-2.02-5.029c.041-9.761.02-19.543.02-29.3 0-3.088 2.043-5.253 4.942-5.253a5 5 0 014.881 5.269v16.745z"/></g><g data-name="グループ 2605"><g data-name="グループ 2600" fill="#1d264d"><path data-name="パス 726" d="M106.034 106.917v57.171h-6.549v-13q0-22.389-.019-44.758c0-4.683 1.637-6.378 6.244-6.378q42.264-.029 84.547 0c4.188 0 6.187 1.751 6.206 5.578q.057 28.614 0 57.247a11.356 11.356 0 01-.171 1.314h-6.4v-57.174z"/><path data-name="パス 727" d="M201.565 177.3H94.23a5.365 5.365 0 01-5.331-4.683l-.381-2.932a2.154 2.154 0 012.132-2.437h114.475a2.152 2.152 0 012.132 2.4l-.324 2.875a5.412 5.412 0 01-5.368 4.777z"/></g><path data-name="パス 728" d="M156.37 173.378h-16.41a.361.361 0 01-.362-.362v-1.371a.361.361 0 01.362-.362h16.411a.362.362 0 01.362.362v1.371a.374.374 0 01-.363.362z" fill="#fff"/></g></g></g></svg>