<svg xmlns="http://www.w3.org/2000/svg" width="158.38" height="79.415" viewBox="0 0 158.38 79.415">
  <g id="継続改善" transform="translate(-1141.564 -2684.607)">
    <text id="継続改善-2" data-name="継続改善" transform="translate(1211.944 2742)" fill="#d76b00" font-size="22" font-family="YuGothicUI-Semibold, Yu Gothic UI" font-weight="600"><tspan x="0" y="0">継続改善</tspan></text>
    <g id="指数関数的にアップするグラフのアイコン" transform="translate(1141.564 2657.638)" opacity="0.14">
      <rect id="長方形_3448" data-name="長方形 3448" width="88.766" height="1.387" transform="translate(0 104.997)" fill="#d76b00"/>
      <path id="パス_710" data-name="パス 710" d="M112.688,371.232v10.532h13.631V367.922A121.438,121.438,0,0,1,112.688,371.232Z" transform="translate(-93.151 -281.841)" fill="#d76b00"/>
      <path id="パス_711" data-name="パス 711" d="M8.688,392.223v8.644H22.319v-9.836A124.862,124.862,0,0,1,8.688,392.223Z" transform="translate(-7.182 -300.944)" fill="#d76b00"/>
      <path id="パス_712" data-name="パス 712" d="M216.438,332.259v15.265h13.718V326.5A116.44,116.44,0,0,1,216.438,332.259Z" transform="translate(-178.914 -247.601)" fill="#d76b00"/>
      <path id="パス_713" data-name="パス 713" d="M320.313,270.554v23.278h13.761V261.547A110.12,110.12,0,0,1,320.313,270.554Z" transform="translate(-264.78 -193.909)" fill="#d76b00"/>
      <path id="パス_714" data-name="パス 714" d="M424.25,173.294v35.731h13.783V158.953A100.2,100.2,0,0,1,424.25,173.294Z" transform="translate(-350.697 -109.102)" fill="#d76b00"/>
      <path id="パス_715" data-name="パス 715" d="M71.616,32.295l4.795,4.017C61.192,55.3,32.141,79.354,0,82.933v3.839c31.879-1.127,66.073-22.964,83.833-44.24l4.933,4.131V26.969Z" fill="#d76b00"/>
    </g>
  </g>
</svg>
