<svg xmlns="http://www.w3.org/2000/svg" width="168.151" height="85.38" viewBox="0 0 168.151 85.38">
  <g id="自律的行動" transform="translate(-479.849 -2690.065)">
    <g id="発明アイコン" transform="translate(479.849 2690.065)" opacity="0.14">
      <path id="パス_709" data-name="パス 709" d="M35.03,49.28l6.9-14.638c-.018-.438-.034-.875-.034-1.316A33.322,33.322,0,1,1,96.429,59.033V70.811a2.867,2.867,0,0,1-1.743,2.637l-27.6,11.707a2.859,2.859,0,0,1-3.982-2.632V72.541a2.865,2.865,0,0,0-2.861-2.864H46.109a2.863,2.863,0,0,1-2.864-2.861V58.21a2.863,2.863,0,0,0-1.613-2.577l-5.266-2.556A2.864,2.864,0,0,1,35.03,49.28ZM74.982,61.813A3.771,3.771,0,0,0,78.3,59.83H71.662A3.767,3.767,0,0,0,74.982,61.813Zm-6.728-7.337A1.476,1.476,0,0,0,68.9,55.7a1.476,1.476,0,0,0,.831,2.7H80.3a1.476,1.476,0,0,0,.831-2.7,1.474,1.474,0,0,0,.008-2.434,1.474,1.474,0,0,0-.839-2.689H69.731a1.474,1.474,0,0,0-.839,2.689A1.48,1.48,0,0,0,68.254,54.476ZM66.438,42.313c2.457,1.629,2.679,2.84,2.679,5.878h11.8c0-3.038.219-4.25,2.679-5.878a15.584,15.584,0,1,0-17.161,0Z" transform="translate(-34.755 -0.003)" fill="#00b176"/>
    </g>
    <text id="自律的行動-2" data-name="自律的行動" transform="translate(538 2742)" fill="#00b176" font-size="22" font-family="YuGothicUI-Semibold, Yu Gothic UI" font-weight="600"><tspan x="0" y="0">自律的行動</tspan></text>
  </g>
</svg>
