<svg xmlns="http://www.w3.org/2000/svg" width="173" height="69.054" viewBox="0 0 173 69.054">
  <g id="業務支援" transform="translate(-831 -2698.18)">
    <g id="握手のフリーアイコン" transform="translate(831 2602.886)" opacity="0.14">
      <path id="パス_706" data-name="パス 706" d="M129.417,161.505a44.876,44.876,0,0,0-14.165.643c-.336-.222-.672-.451-1-.655a20.1,20.1,0,0,0-2.993-1.54,9.133,9.133,0,0,0-2.908-.7v0c-1.494-.121-2.945-.175-4.279-.175a32.536,32.536,0,0,0-5.047.33h.005a3.865,3.865,0,0,1-.584.044,9.2,9.2,0,0,1-4.038-1.275,2.128,2.128,0,0,0-2.73.626L76.383,179.891a2.136,2.136,0,0,0-.049,2.43,8.24,8.24,0,0,1,.927,1.789,10.64,10.64,0,0,0,1.268,2.381,22.913,22.913,0,0,0,1.717,2.174l.241.231,2.855,2.352a4.047,4.047,0,0,0,5.488,5.729,4.043,4.043,0,0,0,5.754,5.507,4.039,4.039,0,0,0,3.153,6.572h0a4.04,4.04,0,0,0,2.842-1.163l.75-.745a4.047,4.047,0,0,0,6.395,4.82l.456-.463c.228.18.437.342.607.474.139.1.258.195.366.273l.161.114.228.141a8.442,8.442,0,0,0,2.33.818c.325.067.6.114.81.142l.252.033.079.008.03,0,.019,0h.047c.025,0,.013,0,.143.006l.154-.006a7.266,7.266,0,0,0,3.892-1.444,6.5,6.5,0,0,0,1.175-1.2,6.994,6.994,0,0,0,2.162.353,7.068,7.068,0,0,0,6.626-4.662,1.769,1.769,0,0,0,.33-.04,6.617,6.617,0,0,0,1.189.121,7.079,7.079,0,0,0,6.613-4.59.207.207,0,0,1,.02-.014l.238.023a7.091,7.091,0,0,0,7.092-7.091,11.158,11.158,0,0,0-.562-3.542c2.689-2.376,6.63-6.047,7.342-8.039a29.224,29.224,0,0,1,2.832-4.042l-15.172-20.924C135.248,159.525,131.492,161.853,129.417,161.505Zm9.07,33.47a2.839,2.839,0,0,1-2.835,2.836,2.8,2.8,0,0,1-1.088-.219.877.877,0,0,0-.1-.029l-2.629-3.2a1.844,1.844,0,1,0-2.792,2.411l2.543,3.1a2.813,2.813,0,0,1-4.607,1.856l-2.524-3.077a1.845,1.845,0,0,0-2.793,2.411l1.758,2.191a2.083,2.083,0,0,0,.008.409,2.683,2.683,0,0,1,.045.472,2.838,2.838,0,0,1-2.834,2.836,2.792,2.792,0,0,1-1.133-.247l-3.076-3.233a1.845,1.845,0,0,0-2.529,2.687l1.443,1.693a2.146,2.146,0,0,1-.63.818,2.989,2.989,0,0,1-1.479.551c-.171-.025-.4-.064-.682-.13a4.193,4.193,0,0,1-.894-.3c-.065-.048-.231-.171-.472-.36-.136-.1-.291-.225-.464-.362a4.042,4.042,0,0,0-3.934-5,4.006,4.006,0,0,0-1.757.418l-.016-.014.019-.021a4.048,4.048,0,0,0-5.2-6.178,4.046,4.046,0,0,0-6.007-5.4l-.684.68a4.046,4.046,0,0,0-6.375-4.851l-.452.454-.915-.754c-1.047-.86-1.769-1.456-2.058-1.7a17.562,17.562,0,0,1-1.3-1.642,6.571,6.571,0,0,1-.771-1.408,11.374,11.374,0,0,0-.622-1.417L94.09,162.723a11.458,11.458,0,0,0,4.352.984,7.822,7.822,0,0,0,1.279-.1h.005a28.605,28.605,0,0,1,4.341-.27c1.22,0,2.563.048,3.935.159l.094.006a4.99,4.99,0,0,1,1.58.4l.154.07c-5.742,2.593-13.88,7.582-16.555,8.475-3.054,1.017-3.309,5.091,3.562,5.853s12.981-3.564,14.507-4.325c1.1-.548,8.058.121,11.915.544,1.7,1.679,3.191,3.237,4.278,4.415l8.47,10.355.037.042a10.72,10.72,0,0,1,2.008,3.152A6.685,6.685,0,0,1,138.486,194.975Z" transform="translate(-59.655 -49.174)" fill="#8246af"/>
      <path id="パス_707" data-name="パス 707" d="M392.609,124.154,372.142,95.926a1.526,1.526,0,0,0-2.133-.34l-9.066,6.574a1.527,1.527,0,0,0-.339,2.133l20.468,28.228a1.527,1.527,0,0,0,2.133.342l9.067-6.575A1.527,1.527,0,0,0,392.609,124.154Zm-6.964,2.536a2.545,2.545,0,1,1,.567-3.557A2.548,2.548,0,0,1,385.645,126.691Z" transform="translate(-282.901 -0.001)" fill="#8246af"/>
      <path id="パス_708" data-name="パス 708" d="M31.96,102.159l-9.068-6.574a1.526,1.526,0,0,0-2.133.34L.291,124.154a1.528,1.528,0,0,0,.34,2.133L9.7,132.862a1.526,1.526,0,0,0,2.132-.342L32.3,104.293A1.528,1.528,0,0,0,31.96,102.159ZM25.9,105.311a2.545,2.545,0,1,1-.567-3.555A2.545,2.545,0,0,1,25.9,105.311Z" transform="translate(0)" fill="#8246af"/>
    </g>
    <text id="業務支援-2" data-name="業務支援" transform="translate(916 2742)" fill="#8246af" font-size="22" font-family="YuGothicUI-Semibold, Yu Gothic UI" font-weight="600"><tspan x="0" y="0">業務支援</tspan></text>
  </g>
</svg>
