<svg xmlns="http://www.w3.org/2000/svg" width="59.199" height="61.267"><g data-name="グループ 3140" fill="#0f2437"><g data-name="気づく ちょんちょん"><path data-name="パス 1027" d="M10.926 5.428a.851.851 0 01-.85-.85V.85a.863.863 0 01.85-.85.851.851 0 01.85.85V4.6a.848.848 0 01-.85.828z"/><path data-name="パス 1028" d="M6.434 7.284a.856.856 0 01-.59-.243L3.208 4.388a.849.849 0 111.2-1.2l2.653 2.653a.848.848 0 010 1.2.975.975 0 01-.627.243z"/><path data-name="パス 1029" d="M4.578 11.776H.85a.85.85 0 110-1.7H4.6a.851.851 0 01.85.85.866.866 0 01-.872.85z"/><path data-name="パス 1030" d="M3.798 18.903a.856.856 0 01-.59-.243.848.848 0 010-1.2l2.653-2.653a.849.849 0 011.2 1.2L4.408 18.66a.932.932 0 01-.61.243z"/><path data-name="パス 1031" d="M15.418 7.284a.856.856 0 01-.59-.243.848.848 0 010-1.2l2.653-2.653a.849.849 0 011.2 1.2l-2.675 2.653a.856.856 0 01-.588.243z"/></g><g data-name="key(close)_AdobeStock_142170516 [更新済み]"><path data-name="パス 1044" d="M54.308 25.993H21.667a4.733 4.733 0 00-4.513 4.814V56.98a4.251 4.251 0 004.513 4.287h32.566c2.708 0 4.964-1.955 4.964-4.287V30.807a4.963 4.963 0 00-4.889-4.814zM37.837 50.061h-4.283l2.1-3.535.6-.827a4.125 4.125 0 01-2.557-3.836 4.173 4.173 0 014.137-4.137 4.126 4.126 0 011.5 7.972l.6.827 2.106 3.46h-4.203z"/><path data-name="パス 1045" d="M29.188 17.795a8.541 8.541 0 018.5-8.725h.827a8.9 8.9 0 018.8 8.725v7.446h6.016v-7.446A14.873 14.873 0 0038.965 2.903h-1.88c-7.897.15-13.914 6.844-13.914 14.892v7.446h6.017z"/></g></g></svg>