<svg xmlns="http://www.w3.org/2000/svg" width="70.736" height="64.903"><g data-name="グループ 3144"><g data-name="グループ 3143"><g data-name="グループ 2261" fill="#0f2437"><path data-name="長方形 3350" d="M55.736 5.903h10v11h-10z"/><path data-name="多角形 19" d="M60.736 25.903l-10-11h20z"/></g><g data-name="グループ 3130"><g data-name="グループ 2988"><path data-name="パス 1020" d="M58.136 42.962c-2.281-15.179-19.268-22.65-19.268-22.65s7.55-12.819 4.4-15.257c-2.517-1.888-6.685 1.022-8.022 2.123-1.337-1.1-5.191-2.2-7.707-.315-3.224 2.438 2.6 13.291 2.6 13.291s-15.651 7.629-17.853 22.808c-2.281 15.178 3.775 21.942 20.525 21.942h4.876c16.674-.081 22.73-6.764 20.449-21.942zm-17.538.629v1.573h-3.853v1.416h3.854v1.573h-3.854v3.7h-3.146v-3.7h-3.775v-1.574h3.775v-1.415h-3.775v-1.573h3.067l-3.7-7.314h3.3l1.416 3.46c.393 1.1.786 2.123 1.258 3.224h.079c.393-1.1.865-2.2 1.258-3.224l1.416-3.46h3.146l-3.7 7.314z" fill="#0f2437" fill-rule="evenodd"/></g></g></g><g data-name="気づく ちょんちょん" fill="#0f2437"><path data-name="パス 1027" d="M10.926 5.428a.851.851 0 01-.85-.85V.85a.863.863 0 01.85-.85.851.851 0 01.85.85V4.6a.848.848 0 01-.85.828z"/><path data-name="パス 1028" d="M6.434 7.284a.856.856 0 01-.59-.243L3.208 4.388a.849.849 0 111.2-1.2l2.653 2.653a.848.848 0 010 1.2.975.975 0 01-.627.243z"/><path data-name="パス 1029" d="M4.578 11.776H.85a.85.85 0 110-1.7H4.6a.851.851 0 01.85.85.866.866 0 01-.872.85z"/><path data-name="パス 1030" d="M3.798 18.903a.856.856 0 01-.59-.243.848.848 0 010-1.2l2.653-2.653a.849.849 0 011.2 1.2L4.408 18.66a.932.932 0 01-.61.243z"/><path data-name="パス 1031" d="M15.418 7.284a.856.856 0 01-.59-.243.848.848 0 010-1.2l2.653-2.653a.849.849 0 011.2 1.2l-2.675 2.653a.856.856 0 01-.588.243z"/></g></g></svg>