<svg xmlns="http://www.w3.org/2000/svg" width="72.376" height="57.914"><g data-name="グループ 3139" fill="#0f2437"><g data-name="気づく ちょんちょん"><path data-name="パス 1027" d="M10.926 5.614a.851.851 0 01-.85-.85V1.036a.863.863 0 01.85-.85.851.851 0 01.85.85v3.75a.848.848 0 01-.85.828z"/><path data-name="パス 1028" d="M6.434 7.47a.856.856 0 01-.59-.243L3.208 4.574a.849.849 0 111.2-1.2l2.653 2.653a.848.848 0 010 1.2.975.975 0 01-.627.243z"/><path data-name="パス 1029" d="M4.578 11.962H.85a.85.85 0 110-1.7H4.6a.851.851 0 01.85.85.866.866 0 01-.872.85z"/><path data-name="パス 1030" d="M3.798 19.089a.856.856 0 01-.59-.243.848.848 0 010-1.2l2.653-2.653a.849.849 0 011.2 1.2l-2.653 2.653a.932.932 0 01-.61.243z"/><path data-name="パス 1031" d="M15.418 7.47a.856.856 0 01-.59-.243.848.848 0 010-1.2l2.653-2.653a.849.849 0 011.2 1.2l-2.675 2.653a.856.856 0 01-.588.243z"/></g><g data-name="グループ 2830"><path data-name="パス 966" d="M50.229 39.512a1.875 1.875 0 00-2.5-.133l-3.523 2.84a1.872 1.872 0 01-2.383-.026A49.148 49.148 0 0130.181 30.55a1.872 1.872 0 01-.025-2.382l2.839-3.523a1.872 1.872 0 00-.133-2.5l-6.744-6.744a1.877 1.877 0 00-2.53-.11l-8.459 7.1a1.869 1.869 0 00-.445 2.319s1.137 2.322 2.194 4.1a83.9 83.9 0 0026.683 26.689c1.777 1.055 4.1 2.195 4.1 2.195a1.874 1.874 0 002.318-.448l7.106-8.459a1.876 1.876 0 00-.11-2.529z"/><path data-name="パス 967" d="M51.892 30.467l2.808-.445a14.893 14.893 0 00-12.346-12.346l-.446 2.807a12.053 12.053 0 019.985 9.985z"/><path data-name="パス 968" d="M63.183 9.188A32.639 32.639 0 0045.144 0l-.441 2.808a29.926 29.926 0 0124.863 24.865l2.81-.443a32.647 32.647 0 00-9.193-18.042z"/><path data-name="パス 969" d="M43.748 8.828l-.441 2.811a20.945 20.945 0 0117.429 17.429l2.809-.443a23.79 23.79 0 00-19.8-19.8z"/></g></g></svg>