<svg xmlns="http://www.w3.org/2000/svg" width="95.443" height="67.002"><g data-name="グループ 3141"><path data-name="パス 1010" d="M11.415 18.134a2.522 2.522 0 01-1.307-.363 2.5 2.5 0 01-1.154-1.405 2.257 2.257 0 01.171-1.67 3.828 3.828 0 012.315-1.826 5.161 5.161 0 012.4-.153 4.213 4.213 0 00-.8-2.637 2.712 2.712 0 00-.852-.777 9.309 9.309 0 01-2.416 2.983 7.409 7.409 0 01-3.655 1.734 2.578 2.578 0 01-2.592-1.066 2.726 2.726 0 01-.241-2.624 4.631 4.631 0 011.73-1.941 9.192 9.192 0 014.853-1.483 7.726 7.726 0 011.137.07 3.955 3.955 0 00-1.15-3.311 4.621 4.621 0 00-4.829-1.639 4.527 4.527 0 00-3.178 2.786.934.934 0 11-1.822-.394 5.121 5.121 0 011.558-2.542A6.985 6.985 0 014.535.227a6.158 6.158 0 013.346.01 7.251 7.251 0 013.35 2.162 6.12 6.12 0 011.6 3.123 5.66 5.66 0 01-.02 1.986 4.666 4.666 0 011.765 1.5 6.075 6.075 0 011.093 4.327 5.408 5.408 0 011.836 1.371 4.9 4.9 0 01.92 1.853.933.933 0 11-1.792.523 2.729 2.729 0 00-1.487-1.914 6.126 6.126 0 01-1.083 1.646 4.219 4.219 0 01-1.8 1.191 2.908 2.908 0 01-.848.129zm1.541-3.632a3.1 3.1 0 00-.954.146 2.015 2.015 0 00-1.208.879c-.075.146-.183.367.275.645.492.3 1.185-.156 1.626-.631a4.212 4.212 0 00.679-1.008 2.951 2.951 0 00-.418-.031zm-2.99-5.739h-.075a7.342 7.342 0 00-3.828 1.164c-.591.4-1.5 1.191-.974 2 .129.2.407.275.825.231a6.988 6.988 0 004.445-3.382 5.369 5.369 0 00-.393-.013z" fill="#0f2437" opacity=".35"/><g data-name="グループ 3133"><g data-name="グループ 2977"><g data-name="グループ 2976" opacity=".35"><path data-name="パス 744" d="M16.567 61.858h78.876l-.857 5.144H17.424z" fill="#0f2437"/><path data-name="長方形 3497" d="M30.998 23.133v38.869h50.014V23.133H30.998m0-5h50.014a5 5 0 015 5v38.869a5 5 0 01-5 5H30.998a5 5 0 01-5-5V23.133a5 5 0 015-5z" fill="#0f2437"/><path data-name="長方形 3498" fill="#fff" d="M50.003 63.572h12.003v1.715H50.003z"/></g></g></g></g></svg>