<svg xmlns="http://www.w3.org/2000/svg" width="91.447" height="70"><g data-name="グループ 2994" opacity=".35"><g data-name="グループ 2988"><path data-name="パス 1020" d="M59.352 48.058c-2.281-15.179-19.268-22.65-19.268-22.65s7.55-12.819 4.4-15.257c-2.517-1.888-6.685 1.022-8.022 2.123-1.337-1.1-5.191-2.2-7.707-.315-3.224 2.438 2.6 13.291 2.6 13.291s-15.651 7.629-17.853 22.808C11.221 63.236 17.277 70 34.027 70h4.876c16.674-.081 22.73-6.764 20.449-21.942zm-17.538.629v1.573h-3.853v1.416h3.854v1.573h-3.854v3.7h-3.146v-3.7H31.04v-1.574h3.775V50.26H31.04v-1.573h3.067l-3.7-7.314h3.3l1.416 3.46c.393 1.1.786 2.123 1.258 3.224h.079c.393-1.1.865-2.2 1.258-3.224l1.416-3.46h3.146l-3.7 7.314z" fill="#0f2437" fill-rule="evenodd"/><g data-name="グループ 2987"><path data-name="パス 1021" d="M57.943 16.725v14.943h33.5V16.725h-33.5zm16.909 13.291a6.056 6.056 0 116.056-6.056 6.058 6.058 0 01-6.056 6.056z" fill="#0f2437"/><g data-name="グループ 2985"><path data-name="パス 1022" d="M74.145 25.848h-1.573v-.629h1.573v-.547h-1.573v-.629h1.258l-1.573-3.071h1.337l.629 1.494a9.593 9.593 0 00.551 1.337h.083c.157-.472.393-.944.551-1.337l.629-1.494h1.337l-1.573 3.067h1.337v.633h-1.581v.551h1.573v.629h-1.573v1.49h-1.334v-1.494z" fill="#0f2437"/></g><g data-name="グループ 2986" fill="#0f2437"><path data-name="パス 1023" d="M71.314 12.714a6.071 6.071 0 017.629 2.91h11.324L86.178 5.4 60.539 15.624h7.629a6.006 6.006 0 013.146-2.91z"/><path data-name="パス 1024" d="M55.112 17.59l1.73 4.326v-5.034z"/><path data-name="パス 1025" d="M73.043 13.973l.079 1.573v.076h1.021l.079-2.2z"/><path data-name="パス 1026" d="M70.92 14.916l-1.258.551.236.157h1.809z"/></g></g></g><path data-name="パス 1011" d="M11.024 17.51a2.436 2.436 0 01-1.262-.351 2.409 2.409 0 01-1.114-1.357 2.18 2.18 0 01.167-1.612 3.7 3.7 0 012.235-1.763 4.984 4.984 0 012.32-.147 4.068 4.068 0 00-.77-2.547 2.619 2.619 0 00-.823-.751 8.989 8.989 0 01-2.34 2.881 7.154 7.154 0 01-3.53 1.675 2.49 2.49 0 01-2.5-1.029 2.632 2.632 0 01-.238-2.534A4.472 4.472 0 014.841 8.1a8.876 8.876 0 014.683-1.432 7.461 7.461 0 011.1.066 3.819 3.819 0 00-1.111-3.2A4.462 4.462 0 004.85 1.955a4.371 4.371 0 00-3.067 2.691.9.9 0 11-1.759-.38 4.945 4.945 0 011.5-2.455A6.745 6.745 0 014.378.218a5.946 5.946 0 013.231.01 7 7 0 013.235 2.088 5.91 5.91 0 011.547 3.015 5.465 5.465 0 01-.02 1.917 4.505 4.505 0 011.7 1.445 5.866 5.866 0 011.06 4.182 5.222 5.222 0 011.773 1.324 4.734 4.734 0 01.888 1.789.9.9 0 11-1.73.5 2.635 2.635 0 00-1.438-1.846 5.916 5.916 0 01-1.045 1.59 4.074 4.074 0 01-1.737 1.15 2.808 2.808 0 01-.818.128zm1.488-3.507a2.99 2.99 0 00-.921.141 1.946 1.946 0 00-1.167.849c-.072.141-.177.354.265.623.475.285 1.144-.151 1.57-.61a4.067 4.067 0 00.655-.973 2.849 2.849 0 00-.404-.03zM9.624 8.461H9.55a7.089 7.089 0 00-3.7 1.124c-.57.387-1.452 1.15-.941 1.934.125.19.393.265.8.223a6.748 6.748 0 004.293-3.267 4.614 4.614 0 00-.378-.014z" fill="#0f2437"/></g></svg>