<svg xmlns="http://www.w3.org/2000/svg" width="61.552" height="67"><g data-name="グループ 3137" fill="#0f2437"><g data-name="key(open)_AdobeStock_142170516 [更新済み]" opacity=".35"><path data-name="パス 1008" d="M29.51 27.046a3.013 3.013 0 002.987-3.062v-.149a8.589 8.589 0 1117.177 0v7.394h5.975v-7.396a14.529 14.529 0 00-14.04-14.787h-.9a14.705 14.705 0 00-14.186 14.787v.149a3.061 3.061 0 002.987 3.064z"/><path data-name="パス 1009" d="M56.994 31.974H24.582a4.965 4.965 0 00-4.78 4.78v25.99a4.486 4.486 0 004.78 4.257h32.337a4.4 4.4 0 004.63-4.257v-25.99a4.666 4.666 0 00-4.555-4.78zm-16.356 23.9h-4.256l2.091-3.51.6-.822a4.1 4.1 0 01-2.539-3.809 4.144 4.144 0 014.108-4.108 4.1 4.1 0 011.494 7.916l.6.822 2.091 3.435h-4.189z"/></g><path data-name="パス 1011" d="M11.389 18.093a2.517 2.517 0 01-1.3-.362 2.489 2.489 0 01-1.151-1.4 2.252 2.252 0 01.173-1.666 3.819 3.819 0 012.309-1.822 5.149 5.149 0 012.4-.152 4.2 4.2 0 00-.8-2.631 2.706 2.706 0 00-.85-.775 9.288 9.288 0 01-2.418 2.977 7.392 7.392 0 01-3.647 1.73 2.572 2.572 0 01-2.587-1.063 2.72 2.72 0 01-.24-2.618A4.621 4.621 0 015.003 8.37a9.171 9.171 0 014.842-1.479 7.709 7.709 0 011.134.068 3.946 3.946 0 00-1.148-3.3 4.61 4.61 0 00-4.818-1.638 4.516 4.516 0 00-3.17 2.78.932.932 0 11-1.818-.393 5.109 5.109 0 011.554-2.532A6.97 6.97 0 014.525.226a6.144 6.144 0 013.339.01 7.235 7.235 0 013.342 2.157 6.106 6.106 0 011.6 3.115 5.647 5.647 0 01-.02 1.981 4.655 4.655 0 011.759 1.494 6.061 6.061 0 011.09 4.318 5.4 5.4 0 011.832 1.368 4.891 4.891 0 01.918 1.849.931.931 0 11-1.788.521 2.723 2.723 0 00-1.483-1.91 6.112 6.112 0 01-1.08 1.642 4.209 4.209 0 01-1.795 1.189 2.9 2.9 0 01-.85.133zm1.536-3.624a3.089 3.089 0 00-.952.146 2.01 2.01 0 00-1.206.877c-.074.146-.183.366.274.643.491.295 1.182-.156 1.622-.63a4.2 4.2 0 00.677-1.006 2.944 2.944 0 00-.415-.03zM9.943 8.743h-.074a7.325 7.325 0 00-3.82 1.162c-.589.4-1.5 1.189-.972 2 .129.2.406.274.823.23a6.972 6.972 0 004.436-3.373 3.403 3.403 0 00-.393-.019z" opacity=".35"/></g></svg>