<svg xmlns="http://www.w3.org/2000/svg" width="75.628" height="65.822"><g data-name="グループ 3138"><g opacity=".35" fill="#0f2437"><path data-name="パス 966" d="M53.48 47.42a1.875 1.875 0 00-2.5-.133l-3.523 2.84a1.872 1.872 0 01-2.383-.026 49.148 49.148 0 01-11.642-11.643 1.872 1.872 0 01-.025-2.382l2.839-3.523a1.872 1.872 0 00-.133-2.5l-6.744-6.744a1.877 1.877 0 00-2.53-.11l-8.459 7.1a1.869 1.869 0 00-.445 2.319s1.137 2.322 2.194 4.1a83.9 83.9 0 0026.683 26.689c1.777 1.055 4.1 2.195 4.1 2.195a1.874 1.874 0 002.318-.448l7.106-8.459a1.876 1.876 0 00-.11-2.529z"/><path data-name="パス 967" d="M55.143 38.375l2.808-.445a14.893 14.893 0 00-12.346-12.346l-.446 2.807a12.053 12.053 0 019.985 9.985z"/><path data-name="パス 968" d="M66.434 17.096a32.639 32.639 0 00-18.039-9.188l-.441 2.808a29.926 29.926 0 0124.863 24.865l2.81-.443a32.647 32.647 0 00-9.193-18.042z"/><path data-name="パス 969" d="M46.999 16.736l-.441 2.811a20.945 20.945 0 0117.429 17.429l2.809-.443a23.79 23.79 0 00-19.8-19.8z"/></g><g data-name="グループ 3136"><path data-name="パス 1011" d="M11.389 18.093a2.517 2.517 0 01-1.3-.362 2.489 2.489 0 01-1.151-1.4 2.252 2.252 0 01.173-1.666 3.819 3.819 0 012.309-1.822 5.149 5.149 0 012.4-.152 4.2 4.2 0 00-.8-2.631 2.706 2.706 0 00-.85-.775 9.288 9.288 0 01-2.418 2.977 7.392 7.392 0 01-3.647 1.73 2.572 2.572 0 01-2.587-1.063 2.72 2.72 0 01-.24-2.618A4.621 4.621 0 015.003 8.37a9.171 9.171 0 014.842-1.479 7.709 7.709 0 011.134.068 3.946 3.946 0 00-1.148-3.3 4.61 4.61 0 00-4.818-1.638 4.516 4.516 0 00-3.17 2.78.932.932 0 11-1.818-.393 5.109 5.109 0 011.554-2.532A6.97 6.97 0 014.525.226a6.144 6.144 0 013.339.01 7.235 7.235 0 013.342 2.157 6.106 6.106 0 011.6 3.115 5.647 5.647 0 01-.02 1.981 4.655 4.655 0 011.759 1.494 6.061 6.061 0 011.09 4.318 5.4 5.4 0 011.832 1.368 4.891 4.891 0 01.918 1.849.931.931 0 11-1.788.521 2.723 2.723 0 00-1.483-1.91 6.112 6.112 0 01-1.08 1.642 4.209 4.209 0 01-1.795 1.189 2.9 2.9 0 01-.85.133zm1.536-3.624a3.089 3.089 0 00-.952.146 2.01 2.01 0 00-1.206.877c-.074.146-.183.366.274.643.491.295 1.182-.156 1.622-.63a4.2 4.2 0 00.677-1.006 2.944 2.944 0 00-.415-.03zM9.943 8.743h-.074a7.325 7.325 0 00-3.82 1.162c-.589.4-1.5 1.189-.972 2 .129.2.406.274.823.23a6.972 6.972 0 004.436-3.373 3.403 3.403 0 00-.393-.019z" fill="#0f2437" opacity=".35"/></g></g></svg>