<svg xmlns="http://www.w3.org/2000/svg" width="83.873" height="61.121"><g data-name="グループ 3142"><g data-name="気づく ちょんちょん" fill="#0f2437"><path data-name="パス 1027" d="M10.926 5.428a.851.851 0 01-.85-.85V.85a.863.863 0 01.85-.85.851.851 0 01.85.85V4.6a.848.848 0 01-.85.828z"/><path data-name="パス 1028" d="M6.434 7.284a.856.856 0 01-.59-.243L3.208 4.388a.849.849 0 111.2-1.2l2.653 2.653a.848.848 0 010 1.2.975.975 0 01-.627.243z"/><path data-name="パス 1029" d="M4.578 11.776H.85a.85.85 0 110-1.7H4.6a.851.851 0 01.85.85.866.866 0 01-.872.85z"/><path data-name="パス 1030" d="M3.798 18.903a.856.856 0 01-.59-.243.848.848 0 010-1.2l2.653-2.653a.849.849 0 011.2 1.2L4.408 18.66a.932.932 0 01-.61.243z"/><path data-name="パス 1031" d="M15.418 7.284a.856.856 0 01-.59-.243.848.848 0 010-1.2l2.653-2.653a.849.849 0 011.2 1.2l-2.675 2.653a.856.856 0 01-.588.243z"/></g><g data-name="グループ 3134"><path data-name="パス 1043" d="M32.99 36.938l.286-1.053c.286-1 .572-2.093.819-3.146h.052c.286 1.04.546 2.145.845 3.146l.286 1.053zm3.38 3.965h2.015l-3.094-9.62h-2.262l-3.081 9.62H31.9l.676-2.47h3.12zm5.109.182a2.926 2.926 0 002.327-1.222h.052l.142 1.04h1.56v-7.28h-1.91v4.914a1.754 1.754 0 01-1.482.91c-.7 0-1.014-.39-1.014-1.521v-4.3h-1.911v4.55c0 1.817.676 2.909 2.236 2.909zm8.788 0a4.7 4.7 0 001.533-.273l-.312-1.391a2.127 2.127 0 01-.715.156c-.65 0-.988-.39-.988-1.222v-3.224h1.795v-1.508h-1.794v-1.95h-1.6l-.221 1.95-1.118.091v1.417h1.027v3.224c.001 1.638.664 2.73 2.393 2.73zm5.59 0a3.547 3.547 0 003.5-3.809 3.555 3.555 0 00-3.5-3.835 3.555 3.555 0 00-3.5 3.835 3.547 3.547 0 003.5 3.809zm0-1.56c-.988 0-1.547-.884-1.547-2.249s.559-2.273 1.547-2.273 1.547.9 1.547 2.275-.559 2.247-1.547 2.247z" fill="#0f2437"/><g data-name="グループ 3132"><g data-name="グループ 2977"><g data-name="グループ 2976"><path data-name="パス 744" d="M4.997 55.976h78.876l-.857 5.144H5.854z" fill="#0f2437"/><path data-name="長方形 3497" d="M19.428 17.251V56.12h50.014V17.251H19.428m0-5h50.014a5 5 0 015 5V56.12a5 5 0 01-5 5H19.428a5 5 0 01-5-5V17.251a5 5 0 015-5z" fill="#0f2437"/><path data-name="長方形 3498" fill="#fff" d="M38.433 57.69h12.003v1.715H38.433z"/></g></g></g></g></g></svg>