<svg xmlns="http://www.w3.org/2000/svg" width="112.647" height="66.921"><g data-name="グループ 2743"><g data-name="グループ 2624"><path data-name="長方形 3585" d="M11.169 30.269h16v28h-16z"/><path data-name="長方形 3586" d="M31.169 30.269h16v28h-16z"/><path data-name="長方形 3587" d="M51.169 30.269h16v28h-16z"/><path data-name="パス 863" d="M4.183 62.739V0H0v66.921h71.921v-4.182z"/><path data-name="パス 864" d="M72.169 27.269h-3v-3h3zm-6 0h-3v-3h3zm-6 0h-3v-3h3zm-6 0h-3v-3h3zm-6 0h-3v-3h3zm-6 0h-3v-3h3zm-6 0h-3v-3h3zm-6 0h-3v-3h3zm-6 0h-3v-3h3zm-6 0h-3v-3h3zm-6 0h-3v-3h3z"/></g><path data-name="パス 865" d="M95.271 26.891a17.378 17.378 0 1017.377 17.378 17.379 17.379 0 00-17.377-17.378zm6.906 15.954h-4.758l-.513.8v1.905h5.271v2.7h-5.271v4.082h-3.271V48.25h-5.274v-2.7h5.274v-1.9l-.516-.8h-4.758v-2.311h3.274l-2.781-4.327h2.775l3.642 5.667 3.642-5.667h2.777l-2.782 4.327h3.271z"/></g></svg>