<svg xmlns="http://www.w3.org/2000/svg" width="118.773" height="77.365"><g data-name="グループ 2621"><path data-name="パス 809" d="M58.966 19.777a15.969 15.969 0 1015.97 15.969 15.967 15.967 0 00-15.97-15.969zm-.906 23.429l-7.634-6.113 2.9-3.621 3.962 3.17 6.672-8.582 3.664 2.847z"/><g data-name="グループ 2620"><g data-name="グループ 2600"><path data-name="パス 726" d="M17.534 6.982v57.171h-6.549v-13q0-22.389-.019-44.758c0-4.683 1.637-6.378 6.244-6.378q42.264-.029 84.547 0c4.188 0 6.187 1.751 6.206 5.578q.057 28.614 0 57.247a11.356 11.356 0 01-.171 1.314h-6.4V6.982z"/><path data-name="パス 727" d="M113.065 77.365H5.73a5.365 5.365 0 01-5.331-4.683L.018 69.75a2.154 2.154 0 012.132-2.437h114.475a2.152 2.152 0 012.132 2.4l-.324 2.875a5.412 5.412 0 01-5.368 4.777z"/></g><path data-name="パス 728" d="M67.87 73.443H51.46a.361.361 0 01-.362-.362V71.71a.361.361 0 01.362-.362h16.411a.362.362 0 01.362.362v1.371a.374.374 0 01-.363.362z" fill="#f1f1f1"/></g></g></svg>