<svg xmlns="http://www.w3.org/2000/svg" width="123.127" height="79.039"><g data-name="グループ 2742"><g data-name="カレンダーの無料アイコン10 (1)"><path data-name="パス 848" d="M71.844 24.447a3.745 3.745 0 103.745 3.745 3.746 3.746 0 00-3.745-3.745z"/><path data-name="パス 848 - アウトライン" d="M71.844 24.447a3.745 3.745 0 103.745 3.745 3.746 3.746 0 00-3.745-3.745m0-1a4.745 4.745 0 11-4.745 4.745 4.714 4.714 0 014.745-4.745z" fill="#f8ece9"/><path data-name="パス 849" d="M89.846 24.447a3.745 3.745 0 103.745 3.745 3.745 3.745 0 00-3.745-3.745z"/><path data-name="パス 849 - アウトライン" d="M89.846 24.447a3.745 3.745 0 103.745 3.745 3.745 3.745 0 00-3.745-3.745m0-1a4.745 4.745 0 11-4.745 4.745 4.714 4.714 0 014.745-4.745z" fill="#f8ece9"/><path data-name="パス 850" d="M107.848 31.938a3.745 3.745 0 10-3.745-3.745 3.745 3.745 0 003.745 3.745z"/><path data-name="パス 850 - アウトライン" d="M107.848 31.938a3.745 3.745 0 10-3.745-3.745 3.745 3.745 0 003.745 3.745m0 1a4.745 4.745 0 114.745-4.745 4.715 4.715 0 01-4.745 4.745z" fill="#f8ece9"/><path data-name="パス 851" d="M71.844 39.345a3.745 3.745 0 103.745 3.745 3.746 3.746 0 00-3.745-3.745z"/><path data-name="パス 851 - アウトライン" d="M71.844 39.345a3.745 3.745 0 103.745 3.745 3.746 3.746 0 00-3.745-3.745m0-1a4.745 4.745 0 11-4.745 4.745 4.714 4.714 0 014.745-4.745z" fill="#f8ece9"/><path data-name="パス 852" d="M89.846 39.345a3.745 3.745 0 103.745 3.745 3.745 3.745 0 00-3.745-3.745z"/><path data-name="パス 852 - アウトライン" d="M89.846 39.345a3.745 3.745 0 103.745 3.745 3.745 3.745 0 00-3.745-3.745m0-1a4.745 4.745 0 11-4.745 4.745 4.714 4.714 0 014.745-4.745z" fill="#f8ece9"/><path data-name="パス 853" d="M107.848 46.836a3.745 3.745 0 10-3.745-3.745 3.746 3.746 0 003.745 3.745z"/><path data-name="パス 853 - アウトライン" d="M107.848 46.836a3.745 3.745 0 10-3.745-3.745 3.746 3.746 0 003.745 3.745m0 1a4.745 4.745 0 114.745-4.745 4.714 4.714 0 01-4.745 4.745z" fill="#f8ece9"/><path data-name="パス 854" d="M71.844 54.244a3.745 3.745 0 103.745 3.745 3.746 3.746 0 00-3.745-3.745z"/><path data-name="パス 854 - アウトライン" d="M71.844 54.244a3.745 3.745 0 103.745 3.745 3.746 3.746 0 00-3.745-3.745m0-1a4.745 4.745 0 11-4.745 4.745 4.714 4.714 0 014.745-4.745z" fill="#f8ece9"/><path data-name="パス 855" d="M89.846 54.244a3.745 3.745 0 103.745 3.745 3.745 3.745 0 00-3.745-3.745z"/><path data-name="パス 855 - アウトライン" d="M89.846 54.244a3.745 3.745 0 103.745 3.745 3.745 3.745 0 00-3.745-3.745m0-1a4.745 4.745 0 11-4.745 4.745 4.714 4.714 0 014.745-4.745z" fill="#f8ece9"/><path data-name="パス 856" d="M107.848 61.735a3.745 3.745 0 10-3.745-3.745 3.746 3.746 0 003.745 3.745z"/><path data-name="パス 856 - アウトライン" d="M107.848 61.735a3.745 3.745 0 10-3.745-3.745 3.746 3.746 0 003.745 3.745m0 1a4.745 4.745 0 114.745-4.745 4.714 4.714 0 01-4.745 4.745z" fill="#f8ece9"/><path data-name="パス 857" d="M71.223 13.1a2.327 2.327 0 002.332-2.322V3.327a2.328 2.328 0 00-4.656 0v7.45a2.327 2.327 0 002.324 2.323z"/><path data-name="パス 857 - アウトライン" d="M71.223 13.1a2.327 2.327 0 002.332-2.322V3.327a2.328 2.328 0 00-4.656 0v7.45a2.327 2.327 0 002.328 2.327m0 1a3.332 3.332 0 01-3.328-3.327v-7.45a3.328 3.328 0 016.656 0v7.45a3.331 3.331 0 01-3.332 3.323z" fill="#f8ece9"/><path data-name="パス 858" d="M89.846 13.1a2.327 2.327 0 002.327-2.327V3.327a2.328 2.328 0 00-4.656 0v7.45a2.327 2.327 0 002.329 2.323z"/><path data-name="パス 858 - アウトライン" d="M89.846 13.1a2.327 2.327 0 002.327-2.327V3.327a2.328 2.328 0 00-4.656 0v7.45a2.327 2.327 0 002.328 2.327m0 1a3.332 3.332 0 01-3.328-3.327v-7.45a3.328 3.328 0 016.656 0v7.45a3.331 3.331 0 01-3.327 3.323z" fill="#f8ece9"/><path data-name="パス 859" d="M112.659 7.087v3.69a4.19 4.19 0 01-8.38 0v-3.69H94.036v3.69a4.19 4.19 0 01-8.38 0v-3.69H75.414v3.69a4.19 4.19 0 01-8.38 0v-3.69h-9.467v63.318h64.56V7.087zm5.738 28.555V66.68H61.292V18.26h57.105z"/><path data-name="パス 859 - アウトライン" d="M57.567 7.087v63.318h64.56V7.087h-9.468v3.69a4.19 4.19 0 01-8.38 0v-3.69H94.036v3.69a4.19 4.19 0 01-8.38 0v-3.69H75.414v3.69a4.19 4.19 0 01-8.38 0v-3.69h-9.467m60.83 59.593H61.292V18.26h57.105v48.42M56.567 6.087h11.466v4.69a3.19 3.19 0 006.38 0v-4.69h12.243v4.69a3.19 3.19 0 006.38 0v-4.69h12.243v4.69a3.19 3.19 0 006.38 0v-4.69h11.468v65.318h-66.56zm60.83 13.173H62.292v46.42h55.105z" fill="#f8ece9"/><path data-name="パス 860" d="M108.468 13.1a2.327 2.327 0 002.328-2.327V3.327a2.328 2.328 0 00-4.656 0v7.45a2.327 2.327 0 002.328 2.323z"/><path data-name="パス 860 - アウトライン" d="M108.468 13.1a2.327 2.327 0 002.328-2.327V3.327a2.328 2.328 0 00-4.656 0v7.45a2.327 2.327 0 002.327 2.327m0 1a3.331 3.331 0 01-3.326-3.326V3.327A3.331 3.331 0 01108.468 0a3.327 3.327 0 013.328 3.327v7.45a3.332 3.332 0 01-3.328 3.323z" fill="#f8ece9"/></g><g data-name="グループ 2623"><path data-name="パス 665" d="M50.675 45.081l-3.914-.735a1.745 1.745 0 01-1.33-1.118c-.073-.207-.169-.4-.251-.606a9.713 9.713 0 01-8.412-8.618c-.317-.136-.631-.281-.957-.4a1.748 1.748 0 01-1.119-1.331l-.734-3.915a1.771 1.771 0 00-1.739-1.438h-3.378a1.771 1.771 0 00-1.739 1.444l-.734 3.913a1.748 1.748 0 01-1.118 1.332 15.661 15.661 0 00-1.526.63 1.747 1.747 0 01-1.73-.153l-3.285-2.247a1.773 1.773 0 00-2.25.21l-2.389 2.388a1.77 1.77 0 00-.21 2.25l2.248 3.286a1.748 1.748 0 01.152 1.731 15.667 15.667 0 00-.63 1.525 1.747 1.747 0 01-1.332 1.118l-3.913.735a1.769 1.769 0 00-1.443 1.738v3.378a1.771 1.771 0 001.444 1.739l3.913.734a1.749 1.749 0 011.332 1.118 15.761 15.761 0 00.63 1.526 1.745 1.745 0 01-.152 1.73l-2.248 3.284a1.77 1.77 0 00.21 2.25l2.389 2.389a1.769 1.769 0 002.25.21l3.285-2.248a1.75 1.75 0 011.731-.151 15.6 15.6 0 001.526.63 1.745 1.745 0 011.118 1.331l.734 3.915a1.771 1.771 0 001.739 1.442h3.378a1.771 1.771 0 001.739-1.443l.734-3.914a1.746 1.746 0 011.118-1.331 15.654 15.654 0 001.526-.63 1.75 1.75 0 011.73.152l3.286 2.247a1.768 1.768 0 002.25-.21l2.389-2.389a1.77 1.77 0 00.21-2.25l-2.252-3.285a1.748 1.748 0 01-.152-1.73 15.8 15.8 0 00.632-1.526 1.745 1.745 0 011.331-1.118l3.915-.734a1.771 1.771 0 001.442-1.739V46.82a1.769 1.769 0 00-1.442-1.738zM30.531 56.367a7.859 7.859 0 117.859-7.859 7.859 7.859 0 01-7.859 7.859z"/><path data-name="パス 861" d="M47.2 60.33l-2.248-3.287a1.745 1.745 0 01-.15-1.732c.094-.198.162-.402.25-.606a9.713 9.713 0 01.146-12.042c-.128-.32-.248-.645-.394-.96a1.748 1.748 0 01.146-1.728l2.25-3.288a1.771 1.771 0 00-.21-2.25l-2.388-2.388a1.771 1.771 0 00-2.251-.209l-3.286 2.248a1.748 1.748 0 01-1.732.151 15.661 15.661 0 00-1.525-.633 1.747 1.747 0 01-1.115-1.332l-.734-3.911a1.773 1.773 0 00-1.74-1.443h-3.377a1.77 1.77 0 00-1.74 1.443l-.733 3.913a1.748 1.748 0 01-1.117 1.331 15.667 15.667 0 00-1.523.633 1.747 1.747 0 01-1.733-.151l-3.286-2.247a1.769 1.769 0 00-2.25.207l-2.389 2.389a1.771 1.771 0 00-.209 2.25l2.248 3.287a1.749 1.749 0 01.152 1.732 15.761 15.761 0 00-.634 1.525 1.745 1.745 0 01-1.33 1.115l-3.912.733a1.77 1.77 0 00-1.443 1.74v3.378a1.769 1.769 0 001.443 1.74l3.912.733a1.75 1.75 0 011.33 1.117 15.6 15.6 0 00.634 1.525 1.745 1.745 0 01-.15 1.731l-2.25 3.288a1.771 1.771 0 00.21 2.248l2.388 2.389a1.771 1.771 0 002.25.21l3.287-2.25a1.746 1.746 0 011.732-.15 15.653 15.653 0 001.524.633 1.75 1.75 0 011.116 1.331l.735 3.913a1.768 1.768 0 001.74 1.442h3.378a1.77 1.77 0 001.74-1.442l.733-3.913a1.748 1.748 0 011.116-1.331 15.8 15.8 0 001.525-.633 1.745 1.745 0 011.732.15l3.287 2.25a1.771 1.771 0 002.25-.21l2.387-2.387a1.769 1.769 0 00.209-2.249zm-22.226-6.265a7.859 7.859 0 1111.114 0 7.859 7.859 0 01-11.114 0z"/></g></g></svg>