<svg xmlns="http://www.w3.org/2000/svg" width="558" height="196"><defs><clipPath id="a"><path data-name="長方形 3591" transform="translate(-8598.831 -1160.5)" fill="none" stroke="#000" d="M0 0h16v36.282H0z"/></clipPath><clipPath id="b"><path fill="none" d="M0 0h59v54.5H0z"/></clipPath></defs><g data-name="グループ 2701"><text data-name="購入・リース" transform="translate(107 15)" fill="#00b176" font-size="14" font-family="YuGothicUI-Bold, Yu Gothic UI" font-weight="700"><tspan x="0" y="0">購入・リース</tspan></text><text data-name="Wave PC Mate" transform="translate(373 13)" fill="#bc4328" font-size="14" font-family="Roboto-Bold, Roboto" font-weight="700"><tspan x="0" y="0">Wave PC Mate</tspan></text><path data-name="長方形 3532" fill="#f8ece9" d="M279 23h279v173H279z"/><path data-name="長方形 3533" fill="#e5f7f1" d="M0 23h279v173H0z"/><text transform="translate(358 159)" font-size="14" font-family="YuGothicUI-Regular, Yu Gothic UI"><tspan x="0" y="0">月額サービス料金のみ</tspan></text><text data-name="購入費用、セットアップ費用 etc…" transform="translate(46 159)" font-size="14" font-family="YuGothicUI-Regular, Yu Gothic UI"><tspan x="0" y="0">購入費用、セットアップ費用</tspan><tspan y="0" font-family="Roboto-Regular, Roboto"> etc…</tspan></text><g data-name="グループ 2631"><g data-name="グループ 2628"><path data-name="長方形 3585" d="M376.17 87.769h16v28h-16z"/><path data-name="長方形 3586" d="M396.17 87.769h16v28h-16z"/><path data-name="長方形 3587" d="M416.17 87.769h16v28h-16z"/><path data-name="パス 863" d="M369.184 120.239V57.5h-4.183v66.921h71.921v-4.182z"/><path data-name="パス 864" d="M437.17 84.769h-3v-3h3zm-6 0h-3v-3h3zm-6 0h-3v-3h3zm-6 0h-3v-3h3zm-6 0h-3v-3h3zm-6 0h-3v-3h3zm-6 0h-3v-3h3zm-6 0h-3v-3h3zm-6 0h-3v-3h3zm-6 0h-3v-3h3zm-6 0h-3v-3h3z"/></g><path data-name="パス 865" d="M460.272 84.391a17.378 17.378 0 1017.377 17.378 17.379 17.379 0 00-17.377-17.378zm6.906 15.954h-4.758l-.513.8v1.905h5.271v2.7h-5.271v4.082h-3.271v-4.082h-5.274v-2.7h5.274v-1.9l-.516-.8h-4.758v-2.311h3.274l-2.781-4.327h2.775l3.642 5.667 3.642-5.667h2.777l-2.782 4.327h3.271z"/></g><g data-name="グループ 2630"><path data-name="長方形 3585" d="M97.169 96h16v19.769h-16z"/><path data-name="長方形 3590" d="M98.169 58.5v34.282h14V58.5h-14m-1-1h16v36.282h-16z"/><path data-name="長方形 3586" d="M117.169 96h16v19.769h-16z"/><path data-name="長方形 3587" d="M137.169 96h16v19.769h-16z"/><path data-name="パス 863" d="M90.183 120.239V57.5H86v66.921h71.921v-4.182z"/><g data-name="ユーロを積み上げたお金アイコン2"><path data-name="パス 865" d="M181.27 84.391a17.378 17.378 0 1017.377 17.378 17.379 17.379 0 00-17.377-17.378zm6.906 15.954h-4.758l-.513.8v1.905h5.271v2.7h-5.271v4.082h-3.271v-4.082h-5.274v-2.7h5.274v-1.9l-.516-.8h-4.758v-2.311h3.274l-2.781-4.327h2.775l3.642 5.667 3.642-5.667h2.777l-2.782 4.327h3.271z"/></g><g data-name="マスクグループ 81" clip-path="url(#a)" transform="translate(8696 1218)"><g data-name="リピートグリッド 2" transform="rotate(-45 -5689.657 9841.222)" clip-path="url(#b)"><path data-name="線 360" fill="none" stroke="#000" d="M0 .5h59m-59 3h59m-59 3h59m-59 3h59m-59 3h59m-59 3h59m-59 3h59m-59 3h59m-59 3h59m-59 3h59m-59 3h59m-59 3h59m-59 3h59m-59 3h59m-59 3h59m-59 3h59m-59 3h59m-59 3h59m-59 3h59"/></g></g></g><path data-name="パス 754" d="M124.746 64.773a2.023 2.023 0 001.048-.291 2 2 0 00.922-1.128 1.811 1.811 0 00-.139-1.339 3.07 3.07 0 00-1.857-1.465 4.14 4.14 0 00-1.927-.123 3.38 3.38 0 01.64-2.115 2.175 2.175 0 01.683-.623 7.467 7.467 0 001.948 2.393 5.943 5.943 0 002.932 1.391 2.068 2.068 0 002.08-.855 2.186 2.186 0 00.193-2.1 3.715 3.715 0 00-1.388-1.557 7.373 7.373 0 00-3.893-1.19 6.2 6.2 0 00-.912.054 3.173 3.173 0 01.923-2.654 3.706 3.706 0 013.874-1.315 3.631 3.631 0 012.543 2.231.75.75 0 101.465-.316 4.107 4.107 0 00-1.252-2.039 5.6 5.6 0 00-2.364-1.323 4.939 4.939 0 00-2.685.008 5.817 5.817 0 00-2.687 1.734 4.909 4.909 0 00-1.285 2.5 4.54 4.54 0 00.016 1.593 3.742 3.742 0 00-1.416 1.2 4.873 4.873 0 00-.877 3.471 4.338 4.338 0 00-1.473 1.1 3.932 3.932 0 00-.736 1.488.749.749 0 101.437.419 2.189 2.189 0 011.192-1.535 4.914 4.914 0 00.868 1.32 3.384 3.384 0 001.443.956 2.333 2.333 0 00.684.11zm-1.236-2.913a2.484 2.484 0 01.765.117 1.616 1.616 0 01.969.705c.06.117.147.294-.221.517-.395.237-.95-.125-1.3-.506a3.379 3.379 0 01-.544-.809 2.367 2.367 0 01.331-.024zm2.4-4.6h.06a5.889 5.889 0 013.071.934c.474.321 1.206.956.781 1.606-.1.158-.327.221-.662.185a5.605 5.605 0 01-3.567-2.715c.112-.011.218-.014.316-.014z"/></g></svg>