<svg xmlns="http://www.w3.org/2000/svg" width="558" height="82.11"><g data-name="グループ 2731"><path data-name="パス 846" d="M0 38.11h532l26 44H0z" fill="#f1f1f1"/><path data-name="パス 804" d="M335.671 13.971h36.975a1.7 1.7 0 011.65 1.747v26.056a1.7 1.7 0 01-1.65 1.744h-36.975a1.7 1.7 0 01-1.65-1.744V15.718a1.7 1.7 0 011.65-1.747z"/><path data-name="パス 805" d="M387.154 49.313a4.906 4.906 0 11-4.631 4.9 4.771 4.771 0 014.631-4.9z"/><path data-name="パス 806" d="M335.396 45.571h39.466a1.419 1.419 0 001.376-1.455V22.391a1.416 1.416 0 011.376-1.455h12.536a1.346 1.346 0 011.055.523l8.976 11.391a1.5 1.5 0 01.319.93v15.217a1.417 1.417 0 01-1.375 1.454h-6.917a5.982 5.982 0 00-10.107 0h-28.228a5.981 5.981 0 00-10.106 0h-8.371a1.417 1.417 0 01-1.375-1.454v-1.975a1.417 1.417 0 011.375-1.451zm60.078-10.634V33.93a1.563 1.563 0 00-.317-.947l-5.729-7.461a1.392 1.392 0 00-1.1-.554h-5.614a1.46 1.46 0 00-1.42 1.5v8.47a1.461 1.461 0 001.42 1.5h11.343a1.46 1.46 0 001.417-1.501z"/><path data-name="パス 807" d="M348.821 49.313a4.906 4.906 0 11-4.632 4.9 4.769 4.769 0 014.632-4.9z"/><g data-name="グループ 2615"><g data-name="グループ 2602"><g data-name="グループ 2600"><path data-name="パス 726" d="M33.824 13.016v32.638h-3.739v-7.423q0-12.781-.011-25.552c0-2.674.935-3.641 3.565-3.641q24.128-.016 48.267 0c2.391 0 3.532 1 3.543 3.184q.033 16.335 0 32.681a6.484 6.484 0 01-.1.75h-3.652V13.016z"/><path data-name="パス 727" d="M88.362 53.197H27.086a3.063 3.063 0 01-3.043-2.674l-.217-1.674a1.23 1.23 0 011.216-1.391h65.352a1.229 1.229 0 011.217 1.369l-.185 1.641a3.089 3.089 0 01-3.064 2.729z"/></g><path data-name="パス 728" d="M62.56 50.962h-9.369a.206.206 0 01-.206-.207v-.782a.206.206 0 01.206-.206h9.369a.206.206 0 01.206.206v.782a.214.214 0 01-.206.207z" fill="#fff"/></g><g data-name="レンチ＆ドライバーの設定アイコン。"><path data-name="パス 839" d="M69.285 34.398l5.773 5.788 2.495-2.4-5.819-5.835-.712-3.158-5.2-3.158-1.426 1.427-1.426 1.426 3.158 5.2z"/><path data-name="パス 839 - アウトライン" d="M75.063 40.186l2.495-2.4-5.824-5.835-.712-3.158-5.2-3.158-2.852 2.853 3.158 5.2 3.158.712 5.773 5.788m-.015 1.4l-6.259-6.279-3.289-.742-3.787-6.23 3.962-3.964 6.23 3.787.742 3.291 6.342 6.354-.734.706-2.5 2.4z" fill="#fff"/><path data-name="パス 840" d="M86.833 43.829l8.536 8.509a4.03 4.03 0 01-5.7 5.7l-8.533-8.509z"/><path data-name="パス 840 - アウトライン" d="M86.833 43.829l-5.7 5.7 8.536 8.509a4.03 4.03 0 005.7-5.7l-8.536-8.509m0-1.413l9.243 9.214a5.029 5.029 0 11-7.11 7.113l-9.245-9.214z" fill="#fff"/><path data-name="パス 841" d="M93.851 38.792c2.939-2.667 3.43-5.7 2.773-8.254a.626.626 0 00-.245-.5l-.592-.485a.486.486 0 00-.726.069l-3.397 4.419a.486.486 0 01-.409.2l-1.235.091a.489.489 0 01-.291-.108l-2.391-2.019a.487.487 0 01-.177-.315l-.148-1.119a.482.482 0 01.087-.35l3.185-4.327a.486.486 0 00-.063-.641l-.773-.6c-.151-.14-.323-.121-.557-.076-2.2.434-5.956 2.565-6.91 5.509a10.376 10.376 0 00-.547 4.419 5.381 5.381 0 01-1.071 3.455l-16.6 15.935a2.019 2.019 0 00-.095.091 3.5 3.5 0 00-.044 4.92 3.54 3.54 0 004.954-.012c.064-.064.125-.13.182-.2l16-17.3c1.978-1.753 5.876.115 9.09-2.802z"/><path data-name="パス 841 - アウトライン" d="M89.158 24.741a1.439 1.439 0 00-.265.033c-2.2.434-5.956 2.565-6.91 5.509a10.376 10.376 0 00-.547 4.419 5.381 5.381 0 01-1.072 3.458l-16.6 15.935a2.019 2.019 0 00-.095.091 3.5 3.5 0 00-.044 4.92 3.54 3.54 0 004.954-.012c.064-.064.125-.13.182-.2l16-17.3c1.969-1.753 5.867.114 9.081-2.8 2.939-2.667 3.43-5.7 2.773-8.254a.626.626 0 00-.245-.5l-.592-.485a.486.486 0 00-.726.069l-3.388 4.417a.485.485 0 01-.409.2l-1.235.091a.489.489 0 01-.291-.108l-2.391-2.019a.487.487 0 01-.177-.315l-.148-1.119a.482.482 0 01.087-.35l3.185-4.327a.486.486 0 00-.063-.641l-.773-.6a.4.4 0 00-.291-.112m0-1a1.4 1.4 0 01.932.34l.784.613.032.03a1.488 1.488 0 01.188 1.961l-3.063 4.156.095.718 2.072 1.756.8-.059 3.266-4.236a1.49 1.49 0 011.047-.593h.007c.046 0 .093-.007.139-.007a1.482 1.482 0 01.986.374l.554.454a1.592 1.592 0 01.617 1.114 9.079 9.079 0 01-3.088 9.171c-2.071 1.88-4.376 2.022-6.228 2.136a5.077 5.077 0 00-2.834.645L69.514 59.56c-.068.08-.141.159-.224.241a4.54 4.54 0 01-6.368.012 4.387 4.387 0 01-1.282-3.156 4.505 4.505 0 011.324-3.178 3.09 3.09 0 01.12-.115l16.58-15.917a4.516 4.516 0 00.772-2.683 11.686 11.686 0 01.6-4.791c1.1-3.4 5.226-5.7 7.667-6.182a2.375 2.375 0 01.455-.05z" fill="#fff"/></g></g><path data-name="パス 842" d="M155.192 11.971a22.57 22.57 0 1022.57 22.57 22.57 22.57 0 00-22.57-22.57zm-14.07 13.215l-.127.191-1.8-1.2.128-.193a19.149 19.149 0 0112.518-8.2l.227-.04.38 2.134-.227.039a16.97 16.97 0 00-11.099 7.269zm4.347 3.244l-1.827-1.23.16-.238a14.044 14.044 0 018.965-5.921l.282-.057.412 2.164-.281.052a11.859 11.859 0 00-7.546 4.989zm1.216 6.111a8.5 8.5 0 118.5 8.5 8.5 8.5 0 01-8.494-8.5zm10.7 14.04l-.355-2.174.285-.047a11.794 11.794 0 007.918-5.13l.158-.24 1.84 1.209-.16.242a14.008 14.008 0 01-9.4 6.091zm13.671-3.484a19.153 19.153 0 01-12.52 8.2l-.227.039-.377-2.134.226-.04a16.957 16.957 0 0011.095-7.272l.127-.193 1.8 1.2z"/><path data-name="パス 843" d="M159.808 29.924a6.531 6.531 0 101.911 4.616 6.506 6.506 0 00-1.911-4.616zm-4.616 8.089a3.472 3.472 0 113.471-3.473 3.472 3.472 0 01-3.467 3.473z"/><g data-name="グループ 2612"><g data-name="グループ 2608"><g data-name="グループ 2603"><g data-name="グループ 2600"><path data-name="パス 726" d="M239.879 2.364v19.357h-2.218v-4.4q0-7.581-.006-15.155c0-1.591.554-2.161 2.114-2.161q14.31-.01 28.627 0c1.418 0 2.095.593 2.1 1.889q.019 9.688 0 19.383a3.843 3.843 0 01-.058.445h-2.165V2.364z"/><path data-name="パス 727" d="M272.225 26.192h-36.343a1.817 1.817 0 01-1.8-1.586l-.129-.993a.729.729 0 01.722-.825h38.76a.729.729 0 01.722.812l-.11.973a1.832 1.832 0 01-1.822 1.619z"/></g><path data-name="パス 728" d="M256.922 24.867h-5.556a.122.122 0 01-.122-.122v-.464a.122.122 0 01.122-.122h5.556a.122.122 0 01.122.122v.464a.127.127 0 01-.122.122z" fill="#fff"/></g><path data-name="パス 845" d="M260.467 12.889v5.793a.262.262 0 01-.294.225l-5.718-.757a.262.262 0 01-.25-.26v-5.008a.262.262 0 01.26-.263l5.718.009h.022a.262.262 0 01.262.261zm-6.884-.009v4.9a.262.262 0 01-.294.226l-5.391-.671a.262.262 0 01-.238-.26v-4.188a.262.262 0 01.263-.26l5.375-.012h.024a.262.262 0 01.261.265zm0-5.907v4.775a.261.261 0 01-.26.26h-5.427a.262.262 0 01-.263-.26V7.656a.263.263 0 01.229-.26l5.4-.68a.293.293 0 01.058-.006.262.262 0 01.263.263zm6.621 5.035h-5.74a.262.262 0 01-.263-.26V6.837a.263.263 0 01.226-.26l5.718-.748a.338.338 0 01.056-.006.263.263 0 01.263.263v5.662a.262.262 0 01-.26.26z"/></g><g data-name="グループ 2609"><g data-name="グループ 2603"><g data-name="グループ 2600"><path data-name="パス 726" d="M216.857 33.279v19.357h-2.218v-4.4q0-7.581-.006-15.155c0-1.591.554-2.161 2.114-2.161q14.31-.01 28.627 0c1.418 0 2.095.593 2.1 1.889q.019 9.688 0 19.383a3.843 3.843 0 01-.058.445h-2.165V33.279z"/><path data-name="パス 727" d="M249.203 57.107H212.86a1.817 1.817 0 01-1.8-1.586l-.129-.993a.729.729 0 01.722-.825h38.76a.729.729 0 01.722.812l-.11.973a1.832 1.832 0 01-1.822 1.619z"/></g><path data-name="パス 728" d="M233.9 55.782h-5.556a.122.122 0 01-.122-.122v-.464a.122.122 0 01.122-.122h5.556a.122.122 0 01.122.122v.464a.127.127 0 01-.122.122z" fill="#fff"/></g><g data-name="Camada_x0020_1"><path data-name="パス 845" d="M237.445 43.804v5.793a.262.262 0 01-.294.225l-5.718-.757a.262.262 0 01-.25-.26v-5.008a.262.262 0 01.26-.263l5.718.009h.022a.262.262 0 01.262.261zm-6.884-.009v4.9a.262.262 0 01-.294.226l-5.391-.671a.262.262 0 01-.238-.26v-4.188a.262.262 0 01.263-.26l5.375-.012h.024a.262.262 0 01.261.265zm0-5.907v4.775a.261.261 0 01-.26.26h-5.427a.262.262 0 01-.263-.26v-4.092a.263.263 0 01.229-.26l5.4-.68a.293.293 0 01.058-.006.262.262 0 01.263.263zm6.621 5.035h-5.74a.262.262 0 01-.263-.26v-4.911a.263.263 0 01.226-.26l5.718-.748a.338.338 0 01.056-.006.263.263 0 01.263.263v5.662a.262.262 0 01-.26.26z"/></g></g><g data-name="グループ 2610"><g data-name="グループ 2603"><g data-name="グループ 2600"><path data-name="パス 726" d="M262.47 33.279v19.357h-2.218v-4.4q0-7.581-.006-15.155c0-1.591.554-2.161 2.114-2.161q14.31-.01 28.627 0c1.418 0 2.095.593 2.1 1.889q.019 9.688 0 19.383a3.843 3.843 0 01-.058.445h-2.165V33.279z"/><path data-name="パス 727" d="M294.816 57.107h-36.343a1.817 1.817 0 01-1.8-1.586l-.129-.993a.729.729 0 01.722-.825h38.76a.729.729 0 01.722.812l-.11.973a1.832 1.832 0 01-1.822 1.619z"/></g><path data-name="パス 728" d="M279.513 55.782h-5.556a.122.122 0 01-.122-.122v-.464a.122.122 0 01.122-.122h5.556a.122.122 0 01.122.122v.464a.127.127 0 01-.122.122z" fill="#fff"/></g><g data-name="Camada_x0020_1"><path data-name="パス 845" d="M283.058 43.804v5.793a.262.262 0 01-.294.225l-5.718-.757a.262.262 0 01-.25-.26v-5.008a.262.262 0 01.26-.263l5.718.009h.022a.262.262 0 01.262.261zm-6.884-.009v4.9a.262.262 0 01-.294.226l-5.391-.671a.262.262 0 01-.238-.26v-4.188a.262.262 0 01.263-.26l5.375-.012h.024a.262.262 0 01.261.265zm0-5.907v4.775a.261.261 0 01-.26.26h-5.427a.262.262 0 01-.263-.26v-4.092a.263.263 0 01.229-.26l5.4-.68a.293.293 0 01.058-.006.262.262 0 01.263.263zm6.621 5.035h-5.74a.262.262 0 01-.263-.26v-4.911a.263.263 0 01.226-.26l5.718-.748a.338.338 0 01.056-.006.263.263 0 01.263.263v5.662a.262.262 0 01-.26.26z"/></g></g></g><g data-name="グループ 2614"><g data-name="グループ 2606"><path data-name="長方形 3546" d="M441.807 50.952h66.04v6.875h-66.04z"/><path data-name="パス 789" d="M458.242 49.142h27.892v-5.429h-13.049l-5.495-14.926h-25.632l7.99 20.355z"/><path data-name="パス 798" d="M482.663 17.357a9.67 9.67 0 001.956 4.676v2.435a.7.7 0 01-.031.193l4.561 1.958 4.557-1.958a.736.736 0 01-.032-.193v-2.434a9.638 9.638 0 001.956-4.676c.933-.3 1.468-.773 2.132-2.85.707-2.212-1.065-2.139-1.065-2.139 1.432-4.23-.454-8.208-3.616-7.917-2.181-3.4-9.486.778-11.777.485a4.225 4.225 0 00.545 2.042c-.8 1.347-.489 4.03-.265 5.39-.129 0-1.733.014-1.052 2.139.665 2.077 1.197 2.552 2.131 2.849z"/><path data-name="長方形 3547" d="M487.428 27.612h3.438v2.655h-3.438z"/><path data-name="パス 799" d="M488.466 41.382v7.761h19.228c-1.022-9.538-5.623-18.464-8.79-19.52a9.361 9.361 0 01-1.109-.467l-6.471 7.965-.459-5.222h-3.438l-.459 5.222-6.461-7.965a7.705 7.705 0 01-1.122.467c-1.684.526-3.881 4.582-5.6 9.234l.924 2.525z"/></g><text transform="translate(431.836 11.255)" font-size="10" font-family="DIN2014-Demi, 'DIN \32 014'" font-weight="300" letter-spacing=".03em"><tspan x="7.827" y="10">SETUP</tspan></text><g data-name="キラキラ 2"><path data-name="パス 802" d="M435.02 20.659a5.745 5.745 0 01-1.269 2.72 5.747 5.747 0 01-2.719 1.269 5.744 5.744 0 012.719 1.27 5.741 5.741 0 011.27 2.72 4.393 4.393 0 013.988-3.99 4.392 4.392 0 01-3.989-3.989z"/></g></g></g></svg>