<svg xmlns="http://www.w3.org/2000/svg" width="558" height="208" viewBox="0 0 558 208">
  <g id="グループ_2951" data-name="グループ 2951" transform="translate(-452 -2586.5)">
    <rect id="長方形_3441" data-name="長方形 3441" width="277" height="208" transform="translate(733 2586.5)" fill="#f8ece9"/>
    <rect id="長方形_3610" data-name="長方形 3610" width="251" height="208" transform="translate(452 2586.5)" fill="#f7f7f7"/>
    <text id="セキュリティ対策方針を徹底できる仕組みを創る" transform="translate(778 2724.303)" font-size="14" font-family="YuGothicUI-Regular, Yu Gothic UI"><tspan x="0" y="15">セキュリティ対策方針を徹底できる</tspan><tspan x="0" y="35">仕組みを創る</tspan></text>
    <text id="セキュリティ対策方針を定めても徹底されない" transform="translate(492 2724.303)" font-size="14" font-family="YuGothicUI-Regular, Yu Gothic UI"><tspan x="0" y="15">セキュリティ対策方針を定めて</tspan><tspan x="0" y="35">も徹底されない</tspan></text>
    <text id="適応状況_の確認" data-name="適応状況
の確認" transform="translate(815.981 2641.303)" fill="#d76b00" font-size="12" font-family="YuGothicUI-Regular, Yu Gothic UI"><tspan x="-48" y="0">適応状況</tspan><tspan y="0" font-family="Roboto-Regular, Roboto"></tspan><tspan x="-33.791" y="14">の確認</tspan></text>
    <text id="強制配布" transform="translate(957.5 2641.303)" fill="#d76b00" font-size="12" font-family="YuGothicUI-Regular, Yu Gothic UI"><tspan x="-24" y="0">強制配布</tspan></text>
    <path id="パス_746" data-name="パス 746" d="M8.849,4A4.854,4.854,0,0,0,4,8.849v9.132a13.948,13.948,0,0,0,4.849.723,13.948,13.948,0,0,0,4.849-.723V8.849A4.854,4.854,0,0,0,8.849,4m0-4A8.849,8.849,0,0,1,17.7,8.849v10.19c0,4.887-17.7,4.887-17.7,0V8.849A8.849,8.849,0,0,1,8.849,0Z" transform="translate(569.653 2653.582)"/>
    <path id="パス_747" data-name="パス 747" d="M0,0,3.016,1.642,5.969,0V5.946H0Z" transform="translate(569.117 2662.163)" fill="#f1f1f1"/>
    <ellipse id="楕円形_76" data-name="楕円形 76" cx="2.011" cy="2.011" rx="2.011" ry="2.011" transform="translate(569.653 2660.554)"/>
    <g id="レイヤー_2_00000066502127103154531750000000459312246520423307_" transform="translate(512.331 2617.697)">
      <path id="パス_754" data-name="パス 754" d="M11.938,19.027a2.643,2.643,0,0,1-1.369-.381,2.614,2.614,0,0,1-1.209-1.473,2.366,2.366,0,0,1,.181-1.75,4.011,4.011,0,0,1,2.426-1.914,5.409,5.409,0,0,1,2.518-.16,4.415,4.415,0,0,0-.836-2.764,2.842,2.842,0,0,0-.893-.815,9.755,9.755,0,0,1-2.54,3.126,7.765,7.765,0,0,1-3.831,1.818A2.7,2.7,0,0,1,3.668,13.6a2.856,2.856,0,0,1-.253-2.749A4.853,4.853,0,0,1,5.229,8.816a9.633,9.633,0,0,1,5.086-1.554,8.1,8.1,0,0,1,1.192.071A4.145,4.145,0,0,0,10.3,3.865,4.842,4.842,0,0,0,5.24,2.147a4.744,4.744,0,0,0-3.329,2.92A.979.979,0,0,1,0,4.654,5.366,5.366,0,0,1,1.633,1.99,7.321,7.321,0,0,1,4.728.262,6.453,6.453,0,0,1,8.235.272a7.6,7.6,0,0,1,3.511,2.266A6.413,6.413,0,0,1,13.424,5.81,5.931,5.931,0,0,1,13.4,7.891a4.889,4.889,0,0,1,1.85,1.569A6.366,6.366,0,0,1,16.4,13.995h0a5.668,5.668,0,0,1,1.924,1.437,5.137,5.137,0,0,1,.964,1.942.978.978,0,0,1-1.878.548,2.86,2.86,0,0,0-1.558-2.006,6.42,6.42,0,0,1-1.135,1.725,4.421,4.421,0,0,1-1.885,1.248A3.047,3.047,0,0,1,11.938,19.027Zm1.615-3.806a3.245,3.245,0,0,0-1,.153,2.111,2.111,0,0,0-1.266.921c-.078.153-.192.384.288.676.516.309,1.241-.164,1.7-.662a4.414,4.414,0,0,0,.711-1.056A3.092,3.092,0,0,0,13.552,15.222ZM10.419,9.207h-.078a7.694,7.694,0,0,0-4.012,1.22c-.619.42-1.576,1.248-1.021,2.1.135.206.427.288.864.242a7.323,7.323,0,0,0,4.659-3.543C10.686,9.211,10.547,9.207,10.419,9.207Z" transform="translate(0.025 -0.024)"/>
    </g>
    <rect id="長方形_3499" data-name="長方形 3499" width="24.133" height="19.843" rx="6" transform="translate(566.436 2666.99)"/>
    <g id="グループ_2504" data-name="グループ 2504" transform="translate(575.553 2673.426)">
      <ellipse id="楕円形_75" data-name="楕円形 75" cx="2.413" cy="2.413" rx="2.413" ry="2.413" transform="translate(0.509)" fill="#f1f1f1"/>
      <path id="パス_745" data-name="パス 745" d="M3.754,0l.379,4.133L0,3.754Z" transform="translate(2.923 9.358) rotate(-135)" fill="#f1f1f1"/>
    </g>
    <path id="パス_868" data-name="パス 868" d="M14.795,14.795H0v-1H13.795V0h1Z" transform="translate(702.892 2690.061) rotate(-45)"/>
    <g id="グループ_2648" data-name="グループ 2648" transform="translate(6862.829 5181.91)">
      <g id="グループ_2646" data-name="グループ 2646" transform="translate(-6038.6 -2541.031)">
        <path id="パス_869" data-name="パス 869" d="M0,0H98.96L97.884,6.454H1.076Z" transform="translate(0 54.97)" fill="#d76b00"/>
        <path id="パス_869_-_アウトライン" data-name="パス 869 - アウトライン" d="M1.18,1l.742,4.454H97.037L97.78,1H1.18M0,0H98.96L97.884,6.454H1.076Z" transform="translate(0 54.97)" fill="#d76b00"/>
        <path id="長方形_3612" data-name="長方形 3612" d="M5,5V53.976H70.358V5s0,0,0,0H5M5,0H70.358a5,5,0,0,1,5,5V53.976a5,5,0,0,1-5,5H5a5,5,0,0,1-5-5V5A5,5,0,0,1,5,0Z" transform="translate(12.042)" fill="#d76b00"/>
        <rect id="長方形_3613" data-name="長方形 3613" width="15.072" height="1.966" transform="translate(42.185 57.01)" fill="#f8ece9"/>
      </g>
      <g id="虫眼鏡のアイコン_1_" data-name="虫眼鏡のアイコン (1)" transform="translate(-6056.019 -2533.751)">
        <path id="パス_870" data-name="パス 870" d="M40.255,5.56a18.988,18.988,0,0,0-29.7,23.219l-9.2,9.2a4.585,4.585,0,0,0,6.483,6.484l9.2-9.2A18.991,18.991,0,0,0,40.255,5.56ZM35.067,27.244a11.663,11.663,0,1,1,3.418-8.25A11.615,11.615,0,0,1,35.067,27.244Z" transform="translate(-0.009 0.006)" fill="#d76b00"/>
        <path id="パス_870_-_アウトライン" data-name="パス 870 - アウトライン" d="M26.809-1.506h.022a20.5,20.5,0,0,1,14.485,35,20.456,20.456,0,0,1-14.48,6H26.8a20.4,20.4,0,0,1-9.5-2.368l-8.4,8.4a6.083,6.083,0,0,1-8.6,0,6.084,6.084,0,0,1,0-8.605l8.4-8.4A20.481,20.481,0,0,1,26.809-1.506Zm.027,38A17.5,17.5,0,0,0,44.32,19,17.5,17.5,0,0,0,26.83,1.494h-.022a17.474,17.474,0,0,0-14.97,26.512l.6,1L2.413,39.04A3.085,3.085,0,1,0,6.774,43.4L16.806,33.372l1,.6A17.445,17.445,0,0,0,26.8,36.5h.039ZM26.817,5.83h.006A13.166,13.166,0,0,1,39.985,18.991V19A13.169,13.169,0,0,1,26.822,32.161h-.006A13.166,13.166,0,0,1,13.654,19v-.006A13.166,13.166,0,0,1,26.817,5.83ZM36.985,18.994a10.169,10.169,0,1,0-2.979,7.189A10.135,10.135,0,0,0,36.985,18.994Z" transform="translate(-0.009 0.006)" fill="#f8ece9"/>
      </g>
      <g id="グループ_2647" data-name="グループ 2647" transform="translate(-5962.125 -2558.144)">
        <g id="グループ_2644" data-name="グループ 2644" transform="translate(0 24.392)">
          <g id="鉄壁のセキュリティアイコン" transform="translate(0)">
            <path id="パス_871" data-name="パス 871" d="M87.218,7.98,85.6,7.891c-4.394-.244-8.2-1.931-10.45-4.63L72.426,0,69.7,3.261c-2.248,2.7-6.058,4.386-10.45,4.63l-3.343.185V23.519a12.6,12.6,0,0,0,1.723,6.161C61.287,36.27,69.6,40.781,70.784,41.4l1.642.858,1.642-.858c1.523-.8,14.873-8.061,14.873-17.883V8.076Z" transform="translate(-55.911)" fill="#f8ece9"/>
            <path id="パス_871_-_アウトライン" data-name="パス 871 - アウトライン" d="M72.426-2.341,76.3,2.3c1.983,2.381,5.4,3.873,9.382,4.094l4.76.264V23.519A14.486,14.486,0,0,1,88.11,31.13a26.7,26.7,0,0,1-5.036,5.834,44.014,44.014,0,0,1-8.309,5.766l-2.338,1.222-2.337-1.221c-1.635-.859-9.973-5.481-13.767-12.325a14.066,14.066,0,0,1-1.911-6.888V6.657l4.76-.263c3.98-.221,7.4-1.713,9.381-4.093ZM87.441,9.5l-1.926-.106C80.707,9.122,76.508,7.238,74,4.221l-1.569-1.88-1.57,1.881c-2.512,3.016-6.711,4.9-11.519,5.167L57.411,9.5V23.519a11.118,11.118,0,0,0,1.533,5.429c3.454,6.23,11.618,10.643,12.537,11.126l.945.494.947-.5a41.532,41.532,0,0,0,7.7-5.348c4.222-3.762,6.363-7.532,6.363-11.205Z" transform="translate(-55.911)" fill="#f8ece9"/>
          </g>
          <g id="鉄壁のセキュリティアイコン-2" data-name="鉄壁のセキュリティアイコン" transform="translate(0)">
            <path id="パス_871-2" data-name="パス 871" d="M87.218,7.98,85.6,7.891c-4.394-.244-8.2-1.931-10.45-4.63L72.426,0,69.7,3.261c-2.248,2.7-6.058,4.386-10.45,4.63l-3.343.185V23.519a12.6,12.6,0,0,0,1.723,6.161C61.287,36.27,69.6,40.781,70.784,41.4l1.642.858,1.642-.858c1.523-.8,14.873-8.061,14.873-17.883V8.076ZM59.446,21.552V11.426c5.31-.3,10.029-2.359,12.98-5.9V21.552H85.405v1.967c0,7.965-12.979,14.747-12.979,14.747V21.552Z" transform="translate(-55.911)" fill="#d76b00"/>
          </g>
        </g>
        <g id="グループ_2645" data-name="グループ 2645" transform="translate(5.686)">
          <path id="パス_872" data-name="パス 872" d="M0,15.315l15.315-.942L.942,0Z" transform="translate(0 10.829) rotate(-45)" fill="#d76b00"/>
          <rect id="長方形_3614" data-name="長方形 3614" width="8.426" height="10.99" transform="translate(6.411 3.795)" fill="#d76b00"/>
        </g>
      </g>
    </g>
    <g id="グループ_2646-2" data-name="グループ 2646" transform="translate(529.022 2640.88)">
      <path id="パス_869-2" data-name="パス 869" d="M0,0H98.96L97.884,6.454H1.076Z" transform="translate(0 54.97)"/>
      <path id="パス_869_-_アウトライン-2" data-name="パス 869 - アウトライン" d="M1.18,1l.742,4.454H97.037L97.78,1H1.18M0,0H98.96L97.884,6.454H1.076Z" transform="translate(0 54.97)"/>
      <path id="長方形_3612-2" data-name="長方形 3612" d="M5,5V53.976H70.358V5s0,0,0,0H5M5,0H70.358a5,5,0,0,1,5,5V53.976a5,5,0,0,1-5,5H5a5,5,0,0,1-5-5V5A5,5,0,0,1,5,0Z" transform="translate(12.042)"/>
      <rect id="長方形_3613-2" data-name="長方形 3613" width="15.072" height="1.966" transform="translate(42.185 57.01)" fill="#f7f7f7"/>
    </g>
  </g>
</svg>
