<svg xmlns="http://www.w3.org/2000/svg" width="558" height="354" viewBox="0 0 558 354">
  <g id="グループ_2952" data-name="グループ 2952" transform="translate(-452 -3074.5)">
    <g id="グループ_2899" data-name="グループ 2899" transform="translate(0 3.5)">
      <text id="悪意のあるサイバー攻撃だけでなく_不注意によるPC_の紛失盗難でも情報が流出する可能性があります_" data-name="悪意のあるサイバー攻撃だけでなく、不注意によるPC の紛失盗難でも情報が流出する可能性があります。" transform="translate(464 3366)" font-size="14" font-family="YuGothicUI-Bold, Yu Gothic UI" font-weight="700"><tspan x="0" y="15">悪意のあるサイバー攻撃だけでなく、不注意</tspan><tspan x="0" y="35">による</tspan><tspan y="35" font-family="Roboto-Bold, Roboto">PC </tspan><tspan y="35">の紛失盗難でも情報が流出する</tspan><tspan x="0" y="55">可能性があります。</tspan></text>
      <rect id="長方形_3619" data-name="長方形 3619" width="264" height="257" transform="translate(452 3094)" fill="#f1f1f1"/>
      <g id="吹き出しアイコン15" transform="translate(597.321 3069.531)">
        <path id="パス_885" data-name="パス 885" d="M46.364,46.658H23.536a23.537,23.537,0,0,0,0,47.074H40.27c3.364,0,4.413,1.561,4.413,2.84,0,1.891-.981,3.663-3.359,5.358-1.473,1.049-.316,1.888.839,1.888,15.024,0,27.737-16.391,27.737-33.625A23.537,23.537,0,0,0,46.364,46.658Z" fill="#fff"/>
      </g>
      <rect id="長方形_3532" data-name="長方形 3532" width="264" height="257" transform="translate(746 3094)" fill="#f8ece9"/>
      <text id="パソコン盗難事件より" transform="translate(586 3086)" fill="#333" font-size="14" font-family="YuGothicUI-Bold, Yu Gothic UI" font-weight="700"><tspan x="-59.626" y="0">パソコン盗難事件より</tspan></text>
      <text id="PCのディスク暗号化などで_機密情報を守ることが必要" data-name="PCのディスク暗号化などで
機密情報を守ることが必要" transform="translate(874 3281)" fill="#d76b00" font-size="16" font-family="Roboto-Bold, Roboto" font-weight="700"><tspan x="-84.363" y="0">PC</tspan><tspan y="0" font-family="YuGothicUI-Bold, Yu Gothic UI">のディスク暗号化などで</tspan><tspan y="0"></tspan><tspan font-family="YuGothicUI-Bold, Yu Gothic UI"><tspan x="-86.492" y="24">機密情報を守ることが必要</tspan></tspan></text>
      <g id="グループ_2898" data-name="グループ 2898" transform="translate(-9.5)">
        <text id="情報漏洩対策として_" data-name="情報漏洩対策として、" transform="translate(776 3381)" fill="#d76b00" font-size="14" font-family="YuGothicUI-Bold, Yu Gothic UI" font-weight="700"><tspan x="0" y="0">情報漏洩対策として、</tspan></text>
        <text id="をおすすめします_" data-name="をおすすめします。" transform="translate(907 3403)" fill="#d76b00" font-size="14" font-family="YuGothicUI-Bold, Yu Gothic UI" font-weight="700"><tspan x="0" y="0">をおすすめします。</tspan></text>
        <g id="グループ_2897" data-name="グループ 2897">
          <rect id="マーカー" width="133" height="13" transform="translate(772.5 3394.971)" fill="#fff826"/>
          <text id="暗号化ソリューション" transform="translate(776 3402)" fill="#d76b00" font-size="16" font-family="YuGothicUI-Bold, Yu Gothic UI" font-weight="700"><tspan x="0" y="0">暗号化ソリューション</tspan></text>
        </g>
      </g>
      <g id="グループ_2894" data-name="グループ 2894">
        <text id="某新聞販売所1万2_000人の個人情報流出" data-name="某新聞販売所1万2,000人の個人情報流出" transform="translate(490.646 3240)" font-size="12" font-family="YuGothicUI-Regular, Yu Gothic UI"><tspan x="0" y="13">某新聞販売所</tspan><tspan y="13" font-size="14" font-family="Roboto-Bold, Roboto" font-weight="700">1</tspan><tspan y="13" font-family="YuGothicUI-Bold, Yu Gothic UI" font-weight="700">万</tspan><tspan y="13" font-size="14" font-family="Roboto-Bold, Roboto" font-weight="700">2,000</tspan><tspan y="13" font-family="YuGothicUI-Bold, Yu Gothic UI" font-weight="700">人</tspan><tspan y="13">の個人情報</tspan><tspan x="0" y="31">流出</tspan></text>
        <circle id="楕円形_73" data-name="楕円形 73" cx="1.5" cy="1.5" r="1.5" transform="translate(481.896 3248)"/>
      </g>
      <g id="グループ_2895" data-name="グループ 2895">
        <text id="某保健所2万9_500件の個人情報流出" data-name="某保健所2万9,500件の個人情報流出" transform="translate(490.646 3281)" font-size="12" font-family="YuGothicUI-Regular, Yu Gothic UI"><tspan x="0" y="13">某保健所</tspan><tspan y="13" font-size="14" font-family="Roboto-Bold, Roboto" font-weight="700">2</tspan><tspan y="13" font-family="YuGothicUI-Bold, Yu Gothic UI" font-weight="700">万</tspan><tspan y="13" font-size="14" font-family="Roboto-Bold, Roboto" font-weight="700">9,500</tspan><tspan y="13" font-family="YuGothicUI-Bold, Yu Gothic UI" font-weight="700">件</tspan><tspan y="13">の個人情報流出</tspan></text>
        <circle id="楕円形_73-2" data-name="楕円形 73" cx="1.5" cy="1.5" r="1.5" transform="translate(481.896 3289)"/>
      </g>
      <g id="グループ_2896" data-name="グループ 2896">
        <text id="A社9_804件の個人情報流出" data-name="A社9,804件の個人情報流出" transform="translate(490.646 3308)" font-size="12" font-family="Roboto-Regular, Roboto"><tspan x="0" y="13">A</tspan><tspan y="13" font-family="YuGothicUI-Regular, Yu Gothic UI">社</tspan><tspan y="13" font-size="14" font-family="Roboto-Bold, Roboto" font-weight="700">9,804</tspan><tspan y="13" font-family="YuGothicUI-Bold, Yu Gothic UI" font-weight="700">件</tspan><tspan y="13" font-family="YuGothicUI-Regular, Yu Gothic UI">の個人情報流出</tspan></text>
        <circle id="楕円形_73-3" data-name="楕円形 73" cx="1.5" cy="1.5" r="1.5" transform="translate(481.896 3315)"/>
      </g>
      <g id="履歴書アイコン6" transform="translate(476.599 3128)">
        <path id="パス_882" data-name="パス 882" d="M69.454,0H53.347A5.658,5.658,0,0,0,47.7,5.651V28.035a5.657,5.657,0,0,0,5.65,5.65h14.4l.614-.611,6.133-6.134.612-.613V5.651A5.658,5.658,0,0,0,69.454,0Zm3.56,25.46H69.846a2.966,2.966,0,0,0-2.966,2.965v3.167H53.347a3.558,3.558,0,0,1-3.558-3.557V5.651a3.558,3.558,0,0,1,3.558-3.558H69.454a3.559,3.559,0,0,1,3.56,3.558Z"/>
        <path id="パス_883" data-name="パス 883" d="M177.272,278.4a4.77,4.77,0,0,1-5.476,0,5.691,5.691,0,0,0-2.7,2.514c-.676,1.2-.146,2.9,1.022,2.9h8.833c1.168,0,1.7-1.7,1.023-2.9A5.692,5.692,0,0,0,177.272,278.4Z" transform="translate(-113.133 -260.082)"/>
        <path id="パス_884" data-name="パス 884" d="M204.707,159.393a3.611,3.611,0,0,0,3.612-3.611v-.865a3.612,3.612,0,1,0-7.224,0v.865A3.611,3.611,0,0,0,204.707,159.393Z" transform="translate(-143.306 -141.351)"/>
      </g>
      <g id="履歴書アイコン6-2" data-name="履歴書アイコン6" transform="translate(580.14 3179)">
        <path id="パス_882-2" data-name="パス 882" d="M69.454,0H53.347A5.658,5.658,0,0,0,47.7,5.651V28.035a5.657,5.657,0,0,0,5.65,5.65h14.4l.614-.611,6.133-6.134.612-.613V5.651A5.658,5.658,0,0,0,69.454,0Zm3.56,25.46H69.846a2.966,2.966,0,0,0-2.966,2.965v3.167H53.347a3.558,3.558,0,0,1-3.558-3.557V5.651a3.558,3.558,0,0,1,3.558-3.558H69.454a3.559,3.559,0,0,1,3.56,3.558Z"/>
        <path id="パス_883-2" data-name="パス 883" d="M177.272,278.4a4.77,4.77,0,0,1-5.476,0,5.691,5.691,0,0,0-2.7,2.514c-.676,1.2-.146,2.9,1.022,2.9h8.833c1.168,0,1.7-1.7,1.023-2.9A5.692,5.692,0,0,0,177.272,278.4Z" transform="translate(-113.133 -260.082)"/>
        <path id="パス_884-2" data-name="パス 884" d="M204.707,159.393a3.611,3.611,0,0,0,3.612-3.611v-.865a3.612,3.612,0,1,0-7.224,0v.865A3.611,3.611,0,0,0,204.707,159.393Z" transform="translate(-143.306 -141.351)"/>
      </g>
      <g id="履歴書アイコン6-3" data-name="履歴書アイコン6" transform="translate(476.599 3177)">
        <path id="パス_882-3" data-name="パス 882" d="M69.454,0H53.347A5.658,5.658,0,0,0,47.7,5.651V28.035a5.657,5.657,0,0,0,5.65,5.65h14.4l.614-.611,6.133-6.134.612-.613V5.651A5.658,5.658,0,0,0,69.454,0Zm3.56,25.46H69.846a2.966,2.966,0,0,0-2.966,2.965v3.167H53.347a3.558,3.558,0,0,1-3.558-3.557V5.651a3.558,3.558,0,0,1,3.558-3.558H69.454a3.559,3.559,0,0,1,3.56,3.558Z"/>
        <path id="パス_883-3" data-name="パス 883" d="M177.272,278.4a4.77,4.77,0,0,1-5.476,0,5.691,5.691,0,0,0-2.7,2.514c-.676,1.2-.146,2.9,1.022,2.9h8.833c1.168,0,1.7-1.7,1.023-2.9A5.692,5.692,0,0,0,177.272,278.4Z" transform="translate(-113.133 -260.082)"/>
        <path id="パス_884-3" data-name="パス 884" d="M204.707,159.393a3.611,3.611,0,0,0,3.612-3.611v-.865a3.612,3.612,0,1,0-7.224,0v.865A3.611,3.611,0,0,0,204.707,159.393Z" transform="translate(-143.306 -141.351)"/>
      </g>
      <g id="ユーロを積み上げたお金アイコン2" transform="translate(427.339 2936.759)">
        <path id="パス_865" data-name="パス 865" d="M204.932,190.281a12.729,12.729,0,1,0,12.728,12.73A12.73,12.73,0,0,0,204.932,190.281Zm5.059,11.686h-3.485l-.376.583v1.4h3.861v1.98H206.13v2.99h-2.4v-2.99h-3.863v-1.98h3.863v-1.393l-.378-.586h-3.485v-1.693h2.4l-2.037-3.169h2.032l2.668,4.151L207.6,197.1h2.032l-2.037,3.169h2.4Z"/>
      </g>
      <g id="ドロボーアイコン" transform="translate(503.093 3140.158)">
        <path id="パス_879" data-name="パス 879" d="M147.757,165.766c-1.39.223-9.266,1.543-9.763,1.543h-1c-.5,0-8.373-1.32-9.763-1.543a9.725,9.725,0,0,0-5.081.578c-2.931,1.216-1.946,4.06-1.3,5.113.9,1.448,4.311,5.248,7.673,5.693,4.383.576,8.168-2.7,8.965-2.7s4.582,3.278,8.965,2.7c3.362-.445,6.776-4.245,7.673-5.693.65-1.053,1.635-3.9-1.3-5.113A9.726,9.726,0,0,0,147.757,165.766Zm-19.367,6.945c-1.416-1.37-1.181-2.746.471-2.858s4.443.574,4.489,1.488C133.467,173.627,129.806,174.085,128.39,172.711Zm18.21,0c-1.418,1.374-5.079.915-4.959-1.37.046-.913,2.834-1.6,4.485-1.488S148.016,171.341,146.6,172.711Z" transform="translate(-50.818 -144.509)"/>
        <path id="パス_880" data-name="パス 880" d="M146.707,14.792a2.558,2.558,0,0,0-1.86-2.186C143.122,2.445,133.155,0,127.978,0s-15.143,2.445-16.87,12.607a2.552,2.552,0,0,0-1.859,2.186v4.243h37.457Z" transform="translate(-41.301)"/>
        <path id="パス_881" data-name="パス 881" d="M99.531,345.335c0-2.578-.8-5.4-3.348-5.4H77.17c-2.545,0-3.348,2.82-3.348,5.4,0,.612-11.915,3.679-11.915,10.549,0,1.6,3.883,6.012,24.635,6.012h.269c20.754,0,24.637-4.415,24.637-6.012C111.448,349.014,99.531,345.947,99.531,345.335Z" transform="translate(0 -296.554)"/>
      </g>
      <g id="個人情報ファイル8" transform="translate(846.124 3133)">
        <path id="パス_886" data-name="パス 886" d="M419.755,144.718H416.47v20.338h3.285a4.035,4.035,0,0,0,4.035-4.036V148.754A4.035,4.035,0,0,0,419.755,144.718Z" transform="translate(-358.038 -121.671)" fill="#d76b00"/>
        <path id="パス_887" data-name="パス 887" d="M337.041,334.585a8.777,8.777,0,0,0-17.553,0v3.09h-2.831v12.17a5.617,5.617,0,0,0,5.618,5.617h11.982a5.616,5.616,0,0,0,5.617-5.617v-12.17h-2.832v-3.09Zm-13.292,0a4.484,4.484,0,0,1,.354-1.757,4.54,4.54,0,0,1,1.637-1.989,4.533,4.533,0,0,1,4.282-.416,4.545,4.545,0,0,1,1.989,1.639,4.483,4.483,0,0,1,.77,2.524v3.09h-9.032Zm4.516,13.948a2.9,2.9,0,1,1,2.9-2.9A2.9,2.9,0,0,1,328.265,348.533Z" transform="translate(-274.121 -273.922)" fill="#d76b00"/>
        <path id="パス_888" data-name="パス 888" d="M109.55,0H55.325a5.764,5.764,0,0,0-5.764,5.764V70.157a5.764,5.764,0,0,0,5.764,5.765H88.844V60.5h2.794l.093-.983a12.023,12.023,0,0,1,.715-3.109,3.1,3.1,0,0,1-2.558,1.4H66.337c-3.115,0-4.527-4.53-2.725-7.731a15.169,15.169,0,0,1,7.2-6.7,12.732,12.732,0,0,0,14.6,0,15.181,15.181,0,0,1,7.2,6.7,6.4,6.4,0,0,1,.566,4.758A12.046,12.046,0,0,1,95.2,52.154a11.923,11.923,0,0,1,8.5-3.522,12.347,12.347,0,0,1,1.445.094V20.337h6.132a4.034,4.034,0,0,0,4.035-4.034V5.764A5.765,5.765,0,0,0,109.55,0ZM87.742,33.015a9.63,9.63,0,0,1-19.26,0V30.708a9.63,9.63,0,1,1,19.26,0Z" transform="translate(-49.561)" fill="#d76b00"/>
      </g>
      <path id="パス_986" data-name="パス 986" d="M14.795,14.795H0v-1H13.795V0h1Z" transform="translate(717 3222.608) rotate(-45)"/>
    </g>
  </g>
</svg>
