<svg xmlns="http://www.w3.org/2000/svg" width="554" height="270" viewBox="0 0 554 270">
  <g id="グループ_2943" data-name="グループ 2943" transform="translate(-450 -2002.704)">
    <g id="グループ_2642" data-name="グループ 2642" transform="translate(0 47.704)">
      <path id="長方形_3607" data-name="長方形 3607" d="M627,2025a75,75,0,0,0,0,150H831a75,75,0,0,0,0-150H627m0-30H831a105,105,0,1,1,0,210H627a105,105,0,0,1,0-210Z" fill="#f1f1f1"/>
      <path id="多角形_83" data-name="多角形 83" d="M625.8,2069.63l-100.714-54.255,92.085-59.817Z" fill="#fff"/>
      <path id="長方形_3608" data-name="長方形 3608" d="M617,1992h34v37H617Z" fill="#fff"/>
      <rect id="長方形_3609" data-name="長方形 3609" width="29" height="30" rx="3" transform="translate(646 1995)" fill="#f1f1f1"/>
      <g id="グループ_2636" data-name="グループ 2636">
        <g id="時間経過のアイコン_2" data-name="時間経過のアイコン 2">
          <path id="パス_811" data-name="パス 811" d="M569.4,2051.88l8.71,9.317a5.157,5.157,0,0,0,4.327,1.668,3.956,3.956,0,0,0,3.3-2.644l20.313-57.77a5.229,5.229,0,0,0-6.14-6.557l-59,16.379a3.947,3.947,0,0,0-2.858,3.1,5.118,5.118,0,0,0,1.373,4.436l11.116,11.893c-6.81,9.994,15.252,26.4,18.861,20.177Z" fill="#f1f1f1"/>
        </g>
      </g>
    </g>
    <rect id="長方形_3600" data-name="長方形 3600" width="102" height="70" rx="10" transform="translate(678 2022.704)" fill="#6785c1" opacity="0.4"/>
    <rect id="長方形_3601" data-name="長方形 3601" width="102" height="70" rx="10" transform="translate(678 2202.704)" fill="#6785c1" opacity="0.4"/>
    <text id="Plan" transform="translate(715 2017.704)" fill="#6785c1" font-size="14" font-family="SegoeUI-Bold, Segoe UI" font-weight="700"><tspan x="0" y="0">Plan</tspan></text>
    <text id="配布計画策定" transform="translate(687 2083.704)" font-size="14" font-family="YuGothicUI-Regular, Yu Gothic UI"><tspan x="0" y="0">配布計画策定</tspan></text>
    <text id="適用状況確認" transform="translate(687 2262.407)" font-size="14" font-family="YuGothicUI-Regular, Yu Gothic UI"><tspan x="0" y="0">適用状況確認</tspan></text>
    <g id="グループ_2639" data-name="グループ 2639">
      <text id="_" data-name="※" transform="translate(451 2193.704)" font-size="12" font-family="SegoeUISymbol, Segoe UI Symbol"><tspan x="0" y="0">※</tspan></text>
      <text id="基準に合致しない場合" transform="translate(463 2193.704)" font-size="10" font-family="YuGothicUI-Regular, Yu Gothic UI"><tspan x="0" y="0">基準に合致しない場合</tspan></text>
    </g>
    <rect id="長方形_3602" data-name="長方形 3602" width="118" height="70" rx="10" transform="translate(886 2109.704)" fill="#6785c1" opacity="0.4"/>
    <text id="事前検証後公開" transform="translate(895 2169.704)" font-size="14" font-family="YuGothicUI-Regular, Yu Gothic UI"><tspan x="0" y="0">事前検証後公開</tspan></text>
    <text id="Do" transform="translate(935 2105.704)" fill="#6785c1" font-size="14" font-family="SegoeUI-Bold, Segoe UI" font-weight="700"><tspan x="0" y="0">Do</tspan></text>
    <text id="Check" transform="translate(710 2198.704)" fill="#6785c1" font-size="14" font-family="SegoeUI-Bold, Segoe UI" font-weight="700"><tspan x="0" y="0">Check</tspan></text>
    <rect id="長方形_3603" data-name="長方形 3603" width="118" height="70" rx="10" transform="translate(450 2109.704)" fill="#6785c1" opacity="0.4"/>
    <text id="強制的に配布" transform="translate(469 2169.704)" font-size="14" font-family="YuGothicUI-Regular, Yu Gothic UI"><tspan x="0" y="0">強制的に配布</tspan></text>
    <text id="Action" transform="translate(484 2105.704)" fill="#6785c1" font-size="14" font-family="SegoeUI-Bold, Segoe UI" font-weight="700"><tspan x="0" y="0">Action</tspan></text>
    <g id="グループ">
      <text id="セキュリティ対策" transform="translate(677.871 2137.704)" font-size="16" font-family="YuGothicUI-Bold, Yu Gothic UI" font-weight="700"><tspan x="0" y="0">セキュリティ対策</tspan></text>
      <text id="運用支援" transform="translate(697 2157.704)" font-size="16" font-family="YuGothicUI-Bold, Yu Gothic UI" font-weight="700"><tspan x="0" y="0">運用支援</tspan></text>
    </g>
    <g id="虫眼鏡のアイコン_1_" data-name="虫眼鏡のアイコン (1)">
      <path id="パス_870" data-name="パス 870" d="M739.555,2216.65a11.113,11.113,0,0,0-17.384,13.59l-5.38,5.385a2.685,2.685,0,0,0,3.794,3.8l5.386-5.386a11.115,11.115,0,0,0,13.584-17.389Zm-3.037,12.692a6.826,6.826,0,1,1,2-4.829,6.826,6.826,0,0,1-2,4.829Z"/>
    </g>
    <g id="グループ_2942" data-name="グループ 2942">
      <g id="グループ_2644" data-name="グループ 2644">
        <path id="パス_871" data-name="パス 871" d="M517.428,2134.06l-.928-.051a8.312,8.312,0,0,1-5.984-2.652l-1.559-1.867-1.559,1.867a8.314,8.314,0,0,1-5.984,2.652l-1.914.106v8.843a7.217,7.217,0,0,0,.989,3.532c2.092,3.774,6.852,6.357,7.53,6.713l.941.491.94-.491c.872-.457,8.517-4.616,8.517-10.241v-8.847Zm-15.9,7.771v-5.8a10.276,10.276,0,0,0,7.433-3.379v9.178h7.428v1.127c0,4.561-7.432,8.445-7.432,8.445v-9.571Z"/>
      </g>
      <g id="グループ_2645" data-name="グループ 2645">
        <path id="パス_872" data-name="パス 872" d="M508.957,2127.93l5.82-6.582h-11.64Z"/>
        <path id="長方形_3614" data-name="長方形 3614" d="M506.427,2117.7h4.825v6.294h-4.825Z"/>
      </g>
    </g>
    <g id="グループ_2646" data-name="グループ 2646">
      <path id="パス_869" data-name="パス 869" d="M922,2147.74h46.7l-.5,3.046H922.508Z"/>
      <path id="パス_869_-_アウトライン" data-name="パス 869 - アウトライン" d="M923.18,2148.74l.174,1.046h43.995l.175-1.046H923.18m-1.18-1h46.7l-.5,3.046H922.508Z"/>
      <path id="長方形_3612" data-name="長方形 3612" d="M930.683,2125.79v21.834h29.565V2125.79H930.683m0-3h29.565a3,3,0,0,1,3,3v21.834a3,3,0,0,1-3,3H930.683a3,3,0,0,1-3-3V2125.79A3,3,0,0,1,930.683,2122.79Z"/>
      <path id="長方形_3613" data-name="長方形 3613" d="M941.909,2148.7h7.113v.928h-7.113Z" fill="#c2cee6"/>
    </g>
    <path id="パス_988" data-name="パス 988" d="M737.347,2060.55H715.323v-16.494H723.8v-8.479h13.545v2.171l2.2-2.114v-2.259H723.8l-8.481,8.479-2.2,2.2v18.7H739.55v-12.97l-2.2,2.295Z"/>
    <path id="パス_989" data-name="パス 989" d="M746.057,2039.18l-3.323-3.323a.75.75,0,0,0-1.06,0l-14.032,13.476a.75.75,0,0,0-.187.312l-1.7,5.576a.75.75,0,0,0,.935.935l5.756-1.752,13.608-14.164a.75.75,0,0,0,0-1.06Zm-17.132,14.929-1.1-1.194.757-2.49,1.887,1.015,1.015,1.887Zm15.023-15.459-11.955,12.03-.759-.759,12.031-11.955.683.683Z"/>
  </g>
</svg>
