<svg id="グループ_2213" data-name="グループ 2213" xmlns="http://www.w3.org/2000/svg" width="241.157" height="11.33" viewBox="0 0 241.157 11.33">
  <g id="グループ_2211" data-name="グループ 2211" transform="translate(0 0.448)">
    <path id="パス_516" data-name="パス 516" d="M35.4,1.7V3.94h3.393v8.417h2.432V3.94h3.425V1.7Z" transform="translate(-24.07 -1.604)" fill="#fff"/>
    <path id="パス_517" data-name="パス 517" d="M145.657,1.7h-6.081V3.972H145.5c.864,0,1.216.384,1.216,1.408v.384h-4.929c-1.856,0-2.784.928-2.784,3.04v.512c0,2.176.96,3.04,2.912,3.04h7.2V5.349c-.032-2.656-.9-3.649-3.457-3.649m-3.521,8.385c-.352,0-.768-.192-.768-1.088,0-.928.416-1.056.768-1.056h4.545v2.176h-4.545Z" transform="translate(-94.513 -1.604)" fill="#fff"/>
    <path id="パス_518" data-name="パス 518" d="M208.357,1.7h-6.081V3.972H208.2c.864,0,1.216.384,1.216,1.408v.384h-4.929c-1.856,0-2.784.928-2.784,3.04v.512c0,2.176.96,3.04,2.912,3.04h7.2V5.349c0-2.656-.9-3.649-3.457-3.649m-3.521,8.385c-.352,0-.768-.192-.768-1.088,0-.928.416-1.056.768-1.056h4.545v2.176h-4.545Z" transform="translate(-137.146 -1.604)" fill="#fff"/>
    <path id="パス_519" data-name="パス 519" d="M66.7,1.7V3.94h3.425v8.417h2.4V3.94h3.425V1.7Z" transform="translate(-45.353 -1.604)" fill="#fff"/>
    <path id="パス_520" data-name="パス 520" d="M172,1.7V3.94h3.425v8.417h2.432V3.94h3.425V1.7Z" transform="translate(-116.951 -1.604)" fill="#fff"/>
    <path id="パス_521" data-name="パス 521" d="M114.786,8.613V5.445c0-2.784-1.088-3.745-3.521-3.745H104.8V12.358h6.593c2.592,0,3.393-1.28,3.393-3.745m-2.464.064c0,1.024-.352,1.408-1.216,1.408h-3.9V3.972h3.9c.864,0,1.216.384,1.216,1.408Z" transform="translate(-71.259 -1.604)" fill="#fff"/>
    <path id="パス_522" data-name="パス 522" d="M7.905,9.625c-.064-.1-3.3-6.4-3.681-7.009A2.282,2.282,0,0,0,2.144,1.4C1.184,1.4,0,1.816,0,4.184v7.969H2.4V5.529c0-.48-.032-1.184-.032-1.312s0-.224.064-.256c.032-.064.128,0,.16.1s3.04,6.017,3.681,7.009a2.282,2.282,0,0,0,2.08,1.216c.992,0,2.144-.448,2.144-2.816V1.5H8.1V8.121c0,.48.032,1.184.032,1.312s0,.224-.064.256c-.032.1-.1.032-.16-.064" transform="translate(0 -1.4)" fill="#fff"/>
  </g>
  <g id="グループ_2212" data-name="グループ 2212" transform="translate(87.95)">
    <path id="パス_523" data-name="パス 523" d="M278.577,7.849a7.163,7.163,0,0,1-1.024-1.76v5.6h-.9v-5.7a11.179,11.179,0,0,1-1.44,3.1L274.8,7.945A10.425,10.425,0,0,0,276.592,4.1h-1.6V3.24h1.7V1h.9V3.24h1.44v.9h-1.44v.736a8.721,8.721,0,0,0,1.6,2.176Zm4.289,3.841h-.9V7.465a10.153,10.153,0,0,1-2.784,3.3l-.672-.832a10.2,10.2,0,0,0,3.168-3.489h-2.688v-.9h2.976V3.784H280.5a6.231,6.231,0,0,1-.832,1.472l-.864-.544a6.651,6.651,0,0,0,1.408-3.393l.96.128a10,10,0,0,1-.352,1.472h1.12V1h.9V2.92h2.528v.864h-2.5V5.577h2.816v.9h-2.5a9.233,9.233,0,0,0,2.624,3.393l-.544.96A8.743,8.743,0,0,1,282.833,7.4V11.69Z" transform="translate(-274.8 -0.68)" fill="#fff"/>
    <path id="パス_524" data-name="パス 524" d="M317.445,10.113a57.511,57.511,0,0,1-6.017.992l-.128-.96c.48-.032,1.088-.1,2.56-.288V6.241h-2.3v-.9h5.5v.9h-2.24V9.729c1.664-.288,2.144-.384,2.592-.48Zm.9-9.249v1.92h3.649v.9h-3.617c.128,2.144.256,4.353,1.472,6.113.128.192.448.64.768.64s.576-.768.64-1.888l.9.416c-.128.864-.352,2.592-1.408,2.592-1.28,0-2.24-1.92-2.528-2.816a16.263,16.263,0,0,1-.768-5.025h-6.081V2.784h6.049c-.032-.544-.032-1.248-.032-1.92Zm2.528,1.824A9.044,9.044,0,0,0,319.077,1.5l.544-.7a11.553,11.553,0,0,1,1.856,1.184Z" transform="translate(-299.618 -0.544)" fill="#fff"/>
    <path id="パス_525" data-name="パス 525" d="M355.309,4.693h-6.081v-.64a12.429,12.429,0,0,1-2.048,1.056l-.48-.928c3.425-1.344,4.737-3.2,5.025-3.681h1.024a11.1,11.1,0,0,0,5.025,3.713l-.512.928a13.214,13.214,0,0,1-1.984-1.088v.64Zm-.992,2.752a16.709,16.709,0,0,1,2.816,3.425l-.832.544a10.345,10.345,0,0,0-.576-.9c-1.92.288-6.625.48-8.417.48l-.1-.96h1.6a18.78,18.78,0,0,0,1.408-2.976h-3.168v-.9h10.306v.9h-6.017c-.288.64-.736,1.632-1.472,2.976.288,0,1.568-.032,1.824-.064,1.408-.064,2.592-.16,3.457-.256-.128-.16-.7-.864-1.6-1.792Zm.64-3.617a10.983,10.983,0,0,1-2.688-2.5,10.459,10.459,0,0,1-2.688,2.5Z" transform="translate(-323.688 -0.34)" fill="#fff"/>
    <path id="パス_526" data-name="パス 526" d="M385.88,11.69h-.928V7.017a9.993,9.993,0,0,1-1.568,1.216L383,7.273a8.376,8.376,0,0,0,3.393-3.585H383.16V2.856h1.824V1h.928V2.888h1.472v.864A8.587,8.587,0,0,1,386.137,5.8,7.955,7.955,0,0,0,387.8,7.3l-.512.832a7.954,7.954,0,0,1-1.376-1.376V11.69ZM391,1V4.329h2.528v.96H391v5.057h2.816v.96H387.1v-.96h2.944V5.257h-2.4V4.3h2.4V1Z" transform="translate(-348.371 -0.68)" fill="#fff"/>
    <path id="パス_527" data-name="パス 527" d="M428.6,2.3h1.408l5.185,8h.032v-8h1.248v9.89h-1.44L429.88,4.252h-.032V12.19H428.6Z" transform="translate(-379.376 -1.564)" fill="#fff"/>
    <path id="パス_528" data-name="パス 528" d="M461.6,3.388h-3.3V2.3h7.905V3.42h-3.3V12.19H461.6Z" transform="translate(-399.571 -1.564)" fill="#fff"/>
    <path id="パス_529" data-name="パス 529" d="M490.7,3.388h-3.3V2.3h7.905V3.42h-3.3V12.19H490.7Z" transform="translate(-419.357 -1.564)" fill="#fff"/>
    <path id="パス_530" data-name="パス 530" d="M525.7,4.165v.96h-3.872c-.032,3.585-1.632,4.993-4.7,5.6l-.416-.928c2.656-.512,4.1-1.408,4.033-4.673H516.1v-.96h9.6Zm-1.856-2.976v.928h-6.721V1.188Zm.64.928a7.963,7.963,0,0,0-.512-1.7l.736-.192a6.184,6.184,0,0,1,.544,1.7Zm1.344-.128a11.566,11.566,0,0,0-.576-1.7L525.926.1a7.763,7.763,0,0,1,.608,1.7Z" transform="translate(-438.872 -0.068)" fill="#fff"/>
    <path id="パス_531" data-name="パス 531" d="M560.142,15.8v1.12H549.9V15.8Z" transform="translate(-461.854 -10.743)" fill="#fff"/>
    <path id="パス_532" data-name="パス 532" d="M589.545,5.837a13.923,13.923,0,0,1,2.944,1.856,7.729,7.729,0,0,0,1.568-3.425h-4.449a9.87,9.87,0,0,1-3.136,2.976l-.672-.768A8.558,8.558,0,0,0,589.7,1.9l1.12.192a13.348,13.348,0,0,1-.608,1.248h5.121c-.384,2.048-1.44,7.041-8.161,8.673l-.576-.9a9.9,9.9,0,0,0,5.153-2.592,14.252,14.252,0,0,0-2.912-1.92Z" transform="translate(-486.265 -1.292)" fill="#fff"/>
    <path id="パス_533" data-name="パス 533" d="M631.5,1.7V3.556h3.841c.1,2.208-.384,4.833-2.08,6.3a9.1,9.1,0,0,1-5.185,1.856l-.32-.992c5.089-.416,6.5-2.752,6.5-6.209h-6.657V7.429H626.6V3.588h3.809V1.7Z" transform="translate(-514.007 -1.156)" fill="#fff"/>
    <path id="パス_534" data-name="パス 534" d="M665.561,11.1V12h-2.945v4.641h3.457v.9H658.2v-.9h3.457V12h-2.945v-.9h6.849Z" transform="translate(-535.493 -7.547)" fill="#fff"/>
    <path id="パス_535" data-name="パス 535" d="M696.342,15.8v1.12H686.1V15.8Z" transform="translate(-554.464 -10.743)" fill="#fff"/>
    <path id="パス_536" data-name="パス 536" d="M730.865,2.016c-.16,2.112-.768,7.457-7.3,8.609l-.512-.992c3.521-.576,6.049-2.208,6.625-6.625H722V2.016Zm-1.28-.288a8.815,8.815,0,0,0-.576-1.472l.8-.192a6.166,6.166,0,0,1,.608,1.472Zm1.7.032a8.089,8.089,0,0,0-.64-1.568l.8-.192a8.855,8.855,0,0,1,.64,1.5Z" transform="translate(-578.874 0)" fill="#fff"/>
  </g>
</svg>
