<svg xmlns="http://www.w3.org/2000/svg" width="301.433" height="39.002" viewBox="0 0 301.433 39.002">
  <g id="wpm_logo_fix" transform="translate(-341.1)">
    <g id="グループ_2216" data-name="グループ 2216" transform="translate(341.1)">
      <path id="パス_609" data-name="パス 609" d="M400.042,30.644a1.6,1.6,0,0,1-1.476-.984L390.814,7.883a1.556,1.556,0,1,1,2.953-.984l7.751,21.777a1.513,1.513,0,0,1-.984,1.969h-.492" transform="translate(-329.666 1.345)" fill="#fff"/>
      <path id="パス_610" data-name="パス 610" d="M410.59,30.667a.74.74,0,0,1-.492-.123,1.561,1.561,0,0,1-.984-1.969L416.865,6.8a1.556,1.556,0,1,1,2.953.984L412.067,29.56a1.363,1.363,0,0,1-1.476,1.107" transform="translate(-325.451 1.322)" fill="#fff"/>
      <path id="パス_611" data-name="パス 611" d="M413.354,30.653a1.546,1.546,0,0,1-1.476-1.107L405.972,12.2l-5.906,17.348a1.556,1.556,0,1,1-2.953-.984L404.5,6.907A1.724,1.724,0,0,1,405.972,5.8a1.546,1.546,0,0,1,1.476,1.107l7.382,21.654a1.513,1.513,0,0,1-.984,1.969c-.123.123-.246.123-.492.123" transform="translate(-328.215 1.336)" fill="#fff"/>
      <path id="パス_612" data-name="パス 612" d="M476.3,30.676a1.629,1.629,0,0,1-1.6-1.6V5.7h10.089a7.874,7.874,0,0,1,0,15.748h-2.83a1.6,1.6,0,0,1,0-3.2h2.83a4.8,4.8,0,1,0,0-9.6H477.9V28.83c-.123,1.23-.738,1.846-1.6,1.846" transform="translate(-310.327 1.313)" fill="#fff"/>
      <path id="パス_613" data-name="パス 613" d="M459.42,29.639a9.72,9.72,0,1,1,9.72-9.72,1.6,1.6,0,1,1-3.2,0,6.633,6.633,0,1,0-2.461,5.167,1.576,1.576,0,1,1,1.969,2.461,9.445,9.445,0,0,1-6.029,2.092" transform="translate(-316.085 2.349)" fill="#fff"/>
      <path id="パス_614" data-name="パス 614" d="M504.226,30.653a12.426,12.426,0,0,1,0-24.853,12.785,12.785,0,0,1,9.228,4.06,1.568,1.568,0,0,1-2.338,2.092,9.235,9.235,0,0,0-6.89-3.076,9.351,9.351,0,1,0,0,18.7,9.235,9.235,0,0,0,6.89-3.076,1.568,1.568,0,0,1,2.338,2.092,12.579,12.579,0,0,1-9.228,4.06" transform="translate(-306.388 1.336)" fill="#fff"/>
      <path id="パス_615" data-name="パス 615" d="M555.135,30.123a1.629,1.629,0,0,1-1.6-1.6V16.835A5.514,5.514,0,0,0,548,11.3a1.6,1.6,0,0,1,0-3.2,8.638,8.638,0,0,1,8.612,8.612V28.4c0,1.107-.615,1.722-1.476,1.722" transform="translate(-293.811 1.866)" fill="#fff"/>
      <path id="パス_616" data-name="パス 616" d="M442.685,29.666a1.736,1.736,0,0,1-1.476-.984l-7.382-16.364a1.568,1.568,0,0,1,2.83-1.353l7.382,16.364a1.624,1.624,0,0,1-.738,2.092.677.677,0,0,1-.615.246" transform="translate(-319.775 2.322)" fill="#fff"/>
      <path id="パス_617" data-name="パス 617" d="M441.28,29.643a.922.922,0,0,1-.615-.123,1.583,1.583,0,0,1-.738-2.092l7.382-16.364a1.568,1.568,0,1,1,2.83,1.353l-7.382,16.364a1.876,1.876,0,0,1-1.476.861" transform="translate(-318.37 2.345)" fill="#fff"/>
      <path id="パス_618" data-name="パス 618" d="M466.58,20H456a1.6,1.6,0,0,1,0-3.2H466.58a1.629,1.629,0,0,1,1.6,1.6,1.719,1.719,0,0,1-1.6,1.6" transform="translate(-315.003 3.87)" fill="#fff"/>
      <path id="パス_619" data-name="パス 619" d="M580.02,29.639a9.72,9.72,0,1,1,9.72-9.72,1.6,1.6,0,1,1-3.2,0,6.633,6.633,0,1,0-2.461,5.167,1.576,1.576,0,1,1,1.969,2.461,9.7,9.7,0,0,1-6.029,2.092" transform="translate(-288.306 2.349)" fill="#fff"/>
      <path id="パス_620" data-name="パス 620" d="M587.08,20H576.5a1.6,1.6,0,0,1,0-3.2H587.08a1.6,1.6,0,0,1,0,3.2" transform="translate(-287.247 3.87)" fill="#fff"/>
      <path id="パス_621" data-name="パス 621" d="M580.02,29.639a9.72,9.72,0,1,1,9.72-9.72,1.6,1.6,0,1,1-3.2,0,6.633,6.633,0,1,0-2.461,5.167,1.576,1.576,0,1,1,1.969,2.461,9.7,9.7,0,0,1-6.029,2.092" transform="translate(-288.306 2.349)" fill="#fff"/>
      <path id="パス_622" data-name="パス 622" d="M520.6,30.647a1.629,1.629,0,0,1-1.6-1.6V7.394a1.589,1.589,0,0,1,1.107-1.476,1.415,1.415,0,0,1,1.722.615L531.8,20.19a1.588,1.588,0,1,1-2.584,1.846l-7.136-9.843V29.171a1.422,1.422,0,0,1-1.477,1.476" transform="translate(-300.123 1.341)" fill="#fff"/>
      <path id="パス_623" data-name="パス 623" d="M538.674,30.659a1.629,1.629,0,0,1-1.6-1.6V12.081l-7.136,9.843a1.588,1.588,0,1,1-2.584-1.846l9.966-13.657a1.808,1.808,0,0,1,1.722-.615,1.724,1.724,0,0,1,1.107,1.476V29.059a1.4,1.4,0,0,1-1.477,1.6" transform="translate(-298.266 1.33)" fill="#fff"/>
      <path id="パス_624" data-name="パス 624" d="M568.681,14H559.7a1.6,1.6,0,1,1,0-3.2h8.981a1.629,1.629,0,0,1,1.6,1.6,1.719,1.719,0,0,1-1.6,1.6" transform="translate(-291.116 2.488)" fill="#fff"/>
      <path id="パス_625" data-name="パス 625" d="M562.2,26.239a1.629,1.629,0,0,1-1.6-1.6V8.4a1.6,1.6,0,1,1,3.2,0V24.64a1.719,1.719,0,0,1-1.6,1.6" transform="translate(-290.541 1.566)" fill="#fff"/>
      <path id="パス_626" data-name="パス 626" d="M566.383,27.382A5.776,5.776,0,0,1,560.6,21.6a1.6,1.6,0,1,1,3.2,0,2.731,2.731,0,0,0,2.707,2.707,3.593,3.593,0,0,0,1.107-.246,1.6,1.6,0,0,1,1.23,2.953,8.525,8.525,0,0,1-2.461.369" transform="translate(-290.541 4.607)" fill="#fff"/>
      <path id="パス_627" data-name="パス 627" d="M549.7,29A8.01,8.01,0,0,1,549.082,13a1.6,1.6,0,1,1,.246,3.2,5.051,5.051,0,0,0-4.552,4.921,4.921,4.921,0,1,0,9.843,0,1.6,1.6,0,1,1,3.2,0A8.145,8.145,0,0,1,549.7,29" transform="translate(-294.894 2.992)" fill="#fff"/>
      <path id="パス_628" data-name="パス 628" d="M431.535,30.123a1.629,1.629,0,0,1-1.6-1.6V16.835A5.514,5.514,0,0,0,424.4,11.3a1.6,1.6,0,0,1,0-3.2,8.638,8.638,0,0,1,8.612,8.612V28.4a1.441,1.441,0,0,1-1.476,1.722" transform="translate(-322.281 1.866)" fill="#fff"/>
      <path id="パス_629" data-name="パス 629" d="M426.2,29A8.01,8.01,0,0,1,425.582,13a1.6,1.6,0,0,1,.246,3.2,5.051,5.051,0,0,0-4.552,4.921,4.921,4.921,0,1,0,9.843,0,1.6,1.6,0,1,1,3.2,0A8.145,8.145,0,0,1,426.2,29" transform="translate(-323.341 2.992)" fill="#fff"/>
      <path id="パス_630" data-name="パス 630" d="M384.9,0H346.39a5.251,5.251,0,0,0-5.29,5.29V27.56a5.251,5.251,0,0,0,5.29,5.29h14.026l-.615,4.429h-3.322V39h18.578V37.279h-3.322l-.615-4.429h14.026a5.251,5.251,0,0,0,5.29-5.29V5.29A5.632,5.632,0,0,0,384.9,0M361.4,37.4l.615-4.429h7.013l.615,4.429ZM388.468,5.29V27.56a3.571,3.571,0,0,1-3.568,3.568H346.39a3.571,3.571,0,0,1-3.568-3.568V5.29a3.571,3.571,0,0,1,3.568-3.568H384.9A3.571,3.571,0,0,1,388.468,5.29Z" transform="translate(-341.1)" fill="#fff"/>
      <rect id="長方形_3295" data-name="長方形 3295" width="39.494" height="1.599" transform="translate(4.798 26.821)" fill="#fff"/>
      <path id="パス_631" data-name="パス 631" d="M369.338,11.053c-1.353-1.476-2.83-2.953-5.044-2.953-2.461,0-3.937,1.722-5.66,3.691-.369.369-1.846,1.969-2.092,2.338-1.476,1.722-2.707,3.076-4.429,3.076a3.7,3.7,0,0,1-3.691-3.691,3.784,3.784,0,0,1,3.691-3.691c1.476,0,2.461.984,3.937,2.584.123-.123.861-.984,1.107-1.23-1.23-1.476-2.83-2.953-5.044-2.953a5.438,5.438,0,0,0-5.414,5.29,5.462,5.462,0,0,0,5.414,5.413c2.461,0,3.937-1.722,5.66-3.691.369-.369,1.846-1.969,2.092-2.338,1.476-1.722,2.707-3.076,4.429-3.076,1.476,0,2.461.984,3.937,2.584a5.917,5.917,0,0,1,1.107-1.353" transform="translate(-339.81 1.866)" fill="#fff"/>
      <path id="パス_632" data-name="パス 632" d="M374.125,8.1c-2.461,0-3.937,1.722-5.66,3.568-.369.369-1.722,1.969-2.092,2.338-1.476,1.722-2.707,3.076-4.429,3.076-1.476,0-2.461-.984-3.937-2.584-.123.123-.861.984-1.107,1.23,1.23,1.476,2.83,2.953,5.044,2.953,2.461,0,3.937-1.722,5.66-3.691h0c.369-.369,1.722-1.969,2.092-2.338,1.476-1.722,2.707-3.076,4.429-3.076a3.691,3.691,0,0,1,0,7.382c-1.476,0-2.461-.984-3.937-2.584-.123.123-.861.984-1.107,1.23,1.23,1.476,2.83,2.953,5.044,2.953a5.33,5.33,0,0,0,5.29-5.29,5.226,5.226,0,0,0-5.29-5.167" transform="translate(-337.461 1.866)" fill="#fff"/>
    </g>
  </g>
</svg>
