<svg xmlns="http://www.w3.org/2000/svg" width="26" height="26" viewBox="0 0 26 26">
  <g id="グループ_2369" data-name="グループ 2369" transform="translate(-1443 -17)">
    <g id="グループ_2351" data-name="グループ 2351" transform="translate(11189.656 -12852.344)">
      <circle id="楕円形_21" data-name="楕円形 21" cx="13" cy="13" r="13" transform="translate(-9746.656 12869.344)" fill="#fff"/>
    </g>
    <g id="授業の無料イラスト" transform="translate(1270.965 23.285)">
      <path id="パス_689" data-name="パス 689" d="M286.084,93.135a.887.887,0,1,0,.888.888A.887.887,0,0,0,286.084,93.135Z" transform="translate(-103.26 -87.307)" fill="#3b486f"/>
      <path id="パス_690" data-name="パス 690" d="M415.254,93.135a.887.887,0,1,0,.887.888A.888.888,0,0,0,415.254,93.135Z" transform="translate(-225.408 -87.307)" fill="#3b486f"/>
      <path id="パス_691" data-name="パス 691" d="M350.681,93.135a.887.887,0,1,0,.887.888A.887.887,0,0,0,350.681,93.135Z" transform="translate(-164.346 -87.307)" fill="#3b486f"/>
      <path id="パス_692" data-name="パス 692" d="M189.126.809h-6.016a4.153,4.153,0,0,0-4.148,4.149V6.577l-.935.552L176,8.326l1.99,1.256,1.525.963a4.145,4.145,0,0,0,3.594,2.077h6.016a4.153,4.153,0,0,0,4.148-4.149V4.958A4.153,4.153,0,0,0,189.126.809Zm2.711,7.664a2.711,2.711,0,0,1-2.711,2.712h-6.016a2.712,2.712,0,0,1-2.492-1.644l-1.86-1.174L180.4,7.4V4.958a2.711,2.711,0,0,1,2.711-2.712h6.016a2.712,2.712,0,0,1,2.711,2.712Z" transform="translate(0 0)" fill="#3b486f"/>
    </g>
  </g>
</svg>
