<svg xmlns="http://www.w3.org/2000/svg" width="26" height="26" viewBox="0 0 26 26">
  <g id="グループ_2372" data-name="グループ 2372" transform="translate(-1704 -17)">
    <g id="グループ_2352" data-name="グループ 2352" transform="translate(11450.656 -12852.344)">
      <circle id="楕円形_21" data-name="楕円形 21" cx="13" cy="13" r="13" transform="translate(-9746.656 12869.344)" fill="#fff"/>
    </g>
    <g id="鉛筆アイコン8" transform="translate(1709.688 22.359)">
      <path id="パス_693" data-name="パス 693" d="M391.429,0h0Z" transform="translate(-379.977)" fill="#3b486f"/>
      <path id="パス_694" data-name="パス 694" d="M14.245,1.806h0l0,0h0l-.006-.005L13.167.728h0A2.45,2.45,0,0,0,9.7.727l-1,1-.381.381L0,10.429v4.537H4.537l8.317-8.316.381-.381,1-1a2.45,2.45,0,0,0,.007-3.457ZM3.989,13.643H1.322V10.976L9.252,3.047l2.667,2.667ZM13.3,4.329l-.623.623L10.014,2.285l.623-.623a1.127,1.127,0,0,1,1.594,0L13.3,2.735a1.128,1.128,0,0,1,0,1.595Z" transform="translate(0 -0.01)" fill="#3b486f"/>
    </g>
  </g>
</svg>
