<svg xmlns="http://www.w3.org/2000/svg" width="26" height="26" viewBox="0 0 26 26">
  <g id="グループ_2375" data-name="グループ 2375" transform="translate(-1704 -88)">
    <circle id="楕円形_21" data-name="楕円形 21" cx="13" cy="13" r="13" transform="translate(1704 88)" fill="#fff"/>
    <g id="メールの無料アイコンその8_1_" data-name="メールの無料アイコンその8 (1)" transform="translate(1709 39.938)">
      <path id="パス_657" data-name="パス 657" d="M15.982,56.852a2.216,2.216,0,0,0-.459-.972,1.911,1.911,0,0,0-.151-.167,2.218,2.218,0,0,0-1.571-.651H2.223a2.221,2.221,0,0,0-1.571.651,1.951,1.951,0,0,0-.151.167,2.19,2.19,0,0,0-.457.972A2.15,2.15,0,0,0,0,57.285v8.131a2.21,2.21,0,0,0,.184.883,2.179,2.179,0,0,0,.467.689c.05.05.1.1.153.141a2.221,2.221,0,0,0,1.418.511H13.8a2.207,2.207,0,0,0,1.418-.513,1.919,1.919,0,0,0,.153-.139,2.224,2.224,0,0,0,.469-.689v0a2.2,2.2,0,0,0,.182-.881V57.285A2.284,2.284,0,0,0,15.982,56.852ZM1.455,56.517a1.074,1.074,0,0,1,.767-.318H13.8a1.068,1.068,0,0,1,.864.432L8.6,61.92a.891.891,0,0,1-1.17,0L1.36,56.629A.82.82,0,0,1,1.455,56.517Zm-.318,8.9v-7.61l4.391,3.831L1.139,65.464A.325.325,0,0,1,1.137,65.416ZM13.8,66.5H2.223a1.071,1.071,0,0,1-.537-.142l4.631-4.036.432.376a1.924,1.924,0,0,0,2.528,0l.432-.376,4.629,4.036A1.072,1.072,0,0,1,13.8,66.5Zm1.086-1.085a.339.339,0,0,1,0,.047l-4.389-3.825,4.391-3.831Z" fill="#f29600"/>
    </g>
  </g>
</svg>
