<svg xmlns="http://www.w3.org/2000/svg" width="26" height="26" viewBox="0 0 26 26">
  <g id="グループ_2366" data-name="グループ 2366" transform="translate(-1170 -17)">
    <g id="グループ_2350" data-name="グループ 2350" transform="translate(10916.656 -12852.344)">
      <circle id="楕円形_21" data-name="楕円形 21" cx="13" cy="13" r="13" transform="translate(-9746.656 12869.344)" fill="#fff"/>
    </g>
    <g id="電球アイコン13" transform="translate(1092.854 21.092)">
      <path id="パス_683" data-name="パス 683" d="M96.5,6.36A6.36,6.36,0,1,0,84.662,9.58h0l0,0,0,.007h0a11.157,11.157,0,0,0,1.438,1.8,4.744,4.744,0,0,1,.554.739,1.359,1.359,0,0,1,.2.647V16.3a1.969,1.969,0,0,0,1.969,1.969h.282a1.152,1.152,0,0,0,2.06,0h.282A1.969,1.969,0,0,0,93.426,16.3V12.78h0a1.359,1.359,0,0,1,.2-.647,7.167,7.167,0,0,1,.914-1.142,7.955,7.955,0,0,0,1.078-1.4h0l0-.006,0,0h0A6.315,6.315,0,0,0,96.5,6.36Zm-4.3,10.693a1.054,1.054,0,0,1-.749.311H88.833a1.06,1.06,0,0,1-1.06-1.06v-.2l4.436.943Zm.311-.749a1.066,1.066,0,0,1-.019.189l-4.726-1V14.25l4.745,1.009Zm0-1.665L87.773,13.63v-.405h4.745ZM94.84,9.127l0,.006,0,0A10.485,10.485,0,0,1,93.5,10.8a5.576,5.576,0,0,0-.66.888,2.553,2.553,0,0,0-.256.633H87.707a2.537,2.537,0,0,0-.256-.633,7.888,7.888,0,0,0-1.03-1.3,7.086,7.086,0,0,1-.965-1.244l0,0,0-.006a5.451,5.451,0,1,1,9.391,0Z" transform="translate(0 0)" fill="#3b486f"/>
      <path id="パス_683_-_アウトライン" data-name="パス 683 - アウトライン" d="M90.144-.15h0a6.507,6.507,0,0,1,5.617,9.8l-.008.014-.007.011a8.116,8.116,0,0,1-1.092,1.418,7.074,7.074,0,0,0-.9,1.115,1.213,1.213,0,0,0-.184.577V16.3a2.122,2.122,0,0,1-2.119,2.119h-.194a1.3,1.3,0,0,1-2.237,0h-.194A2.122,2.122,0,0,1,86.714,16.3V12.78a1.212,1.212,0,0,0-.184-.573,4.546,4.546,0,0,0-.536-.714c-.1-.114-.2-.229-.313-.351a8.47,8.47,0,0,1-1.132-1.459l-.02-.034a6.509,6.509,0,0,1,5.615-9.8Zm5.438,9.508A6.209,6.209,0,0,0,90.146.15l0-.15V.15A6.208,6.208,0,0,0,84.731,9.4h0l.067.117.009.015.066.112a8.806,8.806,0,0,0,1.029,1.3c.111.123.216.239.317.355a4.818,4.818,0,0,1,.571.763,1.5,1.5,0,0,1,.223.718V16.3a1.821,1.821,0,0,0,1.819,1.819h.374l.042.082a1,1,0,0,0,1.793,0l.042-.082h.374A1.821,1.821,0,0,0,93.276,16.3V12.78a1.5,1.5,0,0,1,.223-.722,7.246,7.246,0,0,1,.934-1.168,8.549,8.549,0,0,0,.973-1.229l.084-.142v0l.09-.16ZM90.145.759A5.6,5.6,0,0,1,94.97,9.2l0,.006a7.78,7.78,0,0,1-1.054,1.35c-.1.111-.2.223-.3.336a5.425,5.425,0,0,0-.642.863,2.4,2.4,0,0,0-.241.6l-.029.113H87.59l-.029-.113a2.389,2.389,0,0,0-.241-.6,7.011,7.011,0,0,0-.91-1.163l-.1-.112a7.2,7.2,0,0,1-.982-1.268L85.32,9.2A5.6,5.6,0,0,1,90.145.759Zm2.324,11.407a2.723,2.723,0,0,1,.24-.557,5.785,5.785,0,0,1,.677-.912c.1-.114.2-.227.3-.339A7.442,7.442,0,0,0,94.7,9.065l.01-.017a5.3,5.3,0,1,0-9.134,0l.008.014a6.944,6.944,0,0,0,.945,1.216l.1.112a7.236,7.236,0,0,1,.948,1.215,2.71,2.71,0,0,1,.24.557Zm-4.846.909h5.045v1.75l-5.045-1.073Zm4.745.3H87.923v.134l4.445.945Zm-4.745.69,5.045,1.073V16.3a1.2,1.2,0,0,1-.021.215l-.027.152-5-1.062Zm4.745,1.316-4.445-.945v.931l4.445.945s0-.005,0-.007Zm-4.745.542L92.5,16.96l-.19.2a1.206,1.206,0,0,1-.855.354H88.833a1.21,1.21,0,0,1-1.21-1.21Zm4.224,1.2-3.924-.834V16.3a.91.91,0,0,0,.91.91h2.624A.909.909,0,0,0,91.846,17.127Z" transform="translate(0 0)" fill="#3b486f"/>
    </g>
  </g>
</svg>
