<svg id="グループ_2213" data-name="グループ 2213" xmlns="http://www.w3.org/2000/svg" width="311.025" height="14.612" viewBox="0 0 311.025 14.612">
  <g id="グループ_2211" data-name="グループ 2211" transform="translate(0 0.578)">
    <path id="パス_516" data-name="パス 516" d="M35.4,1.7V4.589h4.375V15.445h3.137V4.589h4.417V1.7Z" transform="translate(-20.788 -1.576)" fill="#fff"/>
    <path id="パス_517" data-name="パス 517" d="M147.586,1.7h-7.843V4.631h7.636c1.114,0,1.569.5,1.569,1.816v.5h-6.357c-2.394,0-3.591,1.2-3.591,3.921v.66c0,2.807,1.238,3.921,3.756,3.921h9.287V6.406C152,2.98,150.888,1.7,147.586,1.7m-4.54,10.815c-.454,0-.991-.248-.991-1.4,0-1.2.537-1.362.991-1.362h5.861v2.807h-5.861Z" transform="translate(-81.624 -1.576)" fill="#fff"/>
    <path id="パス_518" data-name="パス 518" d="M210.286,1.7h-7.843V4.631h7.636c1.114,0,1.569.5,1.569,1.816v.5h-6.357c-2.394,0-3.591,1.2-3.591,3.921v.66c0,2.807,1.238,3.921,3.756,3.921h9.287V6.406c0-3.426-1.156-4.706-4.458-4.706m-4.541,10.815c-.454,0-.991-.248-.991-1.4,0-1.2.537-1.362.991-1.362h5.861v2.807h-5.861Z" transform="translate(-118.443 -1.576)" fill="#fff"/>
    <path id="パス_519" data-name="パス 519" d="M66.7,1.7V4.589h4.417V15.445h3.1V4.589h4.417V1.7Z" transform="translate(-39.168 -1.576)" fill="#fff"/>
    <path id="パス_520" data-name="パス 520" d="M172,1.7V4.589h4.417V15.445h3.137V4.589h4.417V1.7Z" transform="translate(-101.003 -1.576)" fill="#fff"/>
    <path id="パス_521" data-name="パス 521" d="M117.679,10.616V6.529c0-3.591-1.4-4.829-4.541-4.829H104.8V15.445h8.5c3.343,0,4.375-1.651,4.375-4.829M114.5,10.7c0,1.321-.454,1.816-1.569,1.816H107.9V4.631h5.036c1.114,0,1.569.5,1.569,1.816Z" transform="translate(-61.541 -1.576)" fill="#fff"/>
    <path id="パス_522" data-name="パス 522" d="M10.2,12.008c-.083-.124-4.252-8.255-4.747-9.04A2.944,2.944,0,0,0,2.766,1.4C1.527,1.4,0,1.937,0,4.991V15.269H3.1V6.725c0-.619-.041-1.527-.041-1.692s0-.289.083-.33c.041-.083.165,0,.206.124s3.921,7.76,4.747,9.04a2.944,2.944,0,0,0,2.683,1.569c1.28,0,2.766-.578,2.766-3.632V1.524h-3.1v8.544c0,.619.041,1.527.041,1.692s0,.289-.083.33c-.041.124-.124.041-.206-.083" transform="translate(0 -1.4)" fill="#fff"/>
  </g>
  <g id="グループ_2212" data-name="グループ 2212" transform="translate(113.43)">
    <path id="パス_523" data-name="パス 523" d="M279.671,9.833a9.24,9.24,0,0,1-1.321-2.27v7.224h-1.156V7.439a14.417,14.417,0,0,1-1.858,4L274.8,9.957A13.445,13.445,0,0,0,277.112,5h-2.064V3.889h2.188V1h1.156V3.889h1.857V5.045h-1.857v.949A11.251,11.251,0,0,0,280.455,8.8Zm5.531,4.953h-1.156V9.338a13.093,13.093,0,0,1-3.591,4.252l-.867-1.073a13.158,13.158,0,0,0,4.086-4.5h-3.467V6.861h3.839V4.591h-1.9a8.038,8.038,0,0,1-1.073,1.9l-1.115-.7a8.579,8.579,0,0,0,1.816-4.375l1.238.165a12.9,12.9,0,0,1-.454,1.9H284V1h1.156V3.477h3.261V4.591H285.2V6.9h3.632V8.058h-3.22A11.908,11.908,0,0,0,289,12.434l-.7,1.238a11.277,11.277,0,0,1-3.137-4.417v5.531Z" transform="translate(-274.8 -0.587)" fill="#fff"/>
    <path id="パス_524" data-name="パス 524" d="M319.225,12.812a74.171,74.171,0,0,1-7.76,1.28l-.165-1.238c.619-.041,1.4-.124,3.3-.371V7.817H311.63V6.661h7.1V7.817h-2.889v4.5c2.146-.371,2.766-.5,3.343-.619ZM320.381.883V3.359h4.706V4.515h-4.664c.165,2.766.33,5.614,1.9,7.884.165.248.578.826.991.826s.743-.991.826-2.435l1.156.537c-.165,1.114-.454,3.343-1.816,3.343-1.651,0-2.889-2.477-3.261-3.632a20.974,20.974,0,0,1-.991-6.481h-7.843v-1.2h7.8c-.041-.7-.041-1.61-.041-2.477Zm3.261,2.353a11.663,11.663,0,0,0-2.312-1.527l.7-.908a14.9,14.9,0,0,1,2.394,1.527Z" transform="translate(-296.234 -0.47)" fill="#fff"/>
    <path id="パス_525" data-name="パス 525" d="M357.8,5.907h-7.843V5.082a16.033,16.033,0,0,1-2.642,1.362l-.619-1.2c4.417-1.734,6.109-4.128,6.481-4.747H354.5a14.314,14.314,0,0,0,6.481,4.788l-.66,1.2a17.046,17.046,0,0,1-2.559-1.4v.826Zm-1.28,3.55a21.551,21.551,0,0,1,3.632,4.417l-1.073.7a13.332,13.332,0,0,0-.743-1.156c-2.477.371-8.544.619-10.856.619L347.36,12.8h2.064a24.216,24.216,0,0,0,1.816-3.839h-4.086V7.806h13.291V8.962h-7.76c-.371.826-.949,2.105-1.9,3.839.371,0,2.023-.041,2.353-.083,1.816-.083,3.343-.206,4.458-.33-.165-.206-.908-1.114-2.064-2.312Zm.826-4.664a14.165,14.165,0,0,1-3.467-3.22,13.49,13.49,0,0,1-3.467,3.22Z" transform="translate(-317.022 -0.294)" fill="#fff"/>
    <path id="パス_526" data-name="パス 526" d="M386.715,14.787h-1.2V8.76a12.892,12.892,0,0,1-2.023,1.569L383,9.09a10.8,10.8,0,0,0,4.375-4.623h-4.169V3.394h2.353V1h1.2V3.435h1.9V4.55a11.076,11.076,0,0,1-1.61,2.642,10.259,10.259,0,0,0,2.146,1.94l-.66,1.073a10.256,10.256,0,0,1-1.775-1.775v6.357ZM393.319,1V5.293h3.261V6.531h-3.261v6.522h3.632v1.238h-8.668V13.053h3.8V6.49h-3.1V5.252h3.1V1Z" transform="translate(-338.338 -0.587)" fill="#fff"/>
    <path id="パス_527" data-name="パス 527" d="M428.6,2.3h1.816L437.1,12.619h.041V2.3h1.61V15.055H436.9L430.251,4.818h-.041V15.055H428.6Z" transform="translate(-365.115 -1.351)" fill="#fff"/>
    <path id="パス_528" data-name="パス 528" d="M462.552,3.7H458.3V2.3h10.2V3.745h-4.252v11.31h-1.692Z" transform="translate(-382.556 -1.351)" fill="#fff"/>
    <path id="パス_529" data-name="パス 529" d="M491.652,3.7H487.4V2.3h10.2V3.745h-4.252v11.31h-1.692Z" transform="translate(-399.644 -1.351)" fill="#fff"/>
    <path id="パス_530" data-name="パス 530" d="M528.483,5.342V6.581h-4.995c-.041,4.623-2.105,6.439-6.068,7.224l-.537-1.2c3.426-.66,5.284-1.816,5.2-6.027H516.1V5.342h12.383ZM526.089,1.5V2.7h-8.668V1.5Zm.826,1.2a10.272,10.272,0,0,0-.66-2.188L527.2.265a7.979,7.979,0,0,1,.7,2.188Zm1.734-.165a14.927,14.927,0,0,0-.743-2.188L528.772.1a10.009,10.009,0,0,1,.784,2.188Z" transform="translate(-416.498 -0.059)" fill="#fff"/>
    <path id="パス_531" data-name="パス 531" d="M563.109,15.8v1.445H549.9V15.8Z" transform="translate(-436.346 -9.278)" fill="#fff"/>
    <path id="パス_532" data-name="パス 532" d="M590.63,6.977a17.954,17.954,0,0,1,3.8,2.394,9.969,9.969,0,0,0,2.023-4.417h-5.738a12.729,12.729,0,0,1-4.045,3.839L585.8,7.8a11.038,11.038,0,0,0,5.036-5.9l1.445.248a17.229,17.229,0,0,1-.784,1.61h6.6c-.5,2.642-1.857,9.081-10.526,11.186l-.743-1.156a12.766,12.766,0,0,0,6.646-3.343,18.379,18.379,0,0,0-3.756-2.477Z" transform="translate(-457.427 -1.116)" fill="#fff"/>
    <path id="パス_533" data-name="パス 533" d="M632.916,1.7V4.094h4.953c.124,2.848-.5,6.233-2.683,8.132A11.738,11.738,0,0,1,628.5,14.62l-.413-1.28c6.563-.537,8.379-3.55,8.379-8.008H627.88V9.089H626.6V4.135h4.912V1.7Z" transform="translate(-481.386 -0.998)" fill="#fff"/>
    <path id="パス_534" data-name="パス 534" d="M667.694,11.1v1.156h-3.8v5.985h4.458V19.4H658.2V18.241h4.458V12.256h-3.8V11.1h8.833Z" transform="translate(-499.942 -6.518)" fill="#fff"/>
    <path id="パス_535" data-name="パス 535" d="M699.309,15.8v1.445H686.1V15.8Z" transform="translate(-516.326 -9.278)" fill="#fff"/>
    <path id="パス_536" data-name="パス 536" d="M733.434,2.6c-.206,2.724-.991,9.618-9.411,11.1l-.66-1.28c4.541-.743,7.8-2.848,8.544-8.544H722V2.6Zm-1.651-.371a11.373,11.373,0,0,0-.743-1.9l1.032-.248a7.957,7.957,0,0,1,.784,1.9Zm2.188.041a10.427,10.427,0,0,0-.826-2.023L734.177,0A11.417,11.417,0,0,1,735,1.94Z" transform="translate(-537.407 0)" fill="#fff"/>
  </g>
</svg>
