<svg xmlns="http://www.w3.org/2000/svg" width="245" height="31.7" viewBox="0 0 245 31.7">
  <g id="wpm_logo_fix" transform="translate(-341.1)">
    <g id="グループ_2216" data-name="グループ 2216">
      <path id="パス_609" data-name="パス 609" d="M398.3,26a1.3,1.3,0,0,1-1.2-.8L390.8,7.5a1.265,1.265,0,1,1,2.4-.8l6.3,17.7a1.23,1.23,0,0,1-.8,1.6h-.4" fill="#231f20"/>
      <path id="パス_610" data-name="パス 610" d="M410.3,26a.6.6,0,0,1-.4-.1,1.268,1.268,0,0,1-.8-1.6l6.3-17.7a1.265,1.265,0,1,1,2.4.8l-6.3,17.7a1.108,1.108,0,0,1-1.2.9" fill="#231f20"/>
      <path id="パス_611" data-name="パス 611" d="M410.3,26a1.257,1.257,0,0,1-1.2-.9L404.3,11l-4.8,14.1a1.265,1.265,0,1,1-2.4-.8l6-17.6a1.4,1.4,0,0,1,1.2-.9,1.257,1.257,0,0,1,1.2.9l6,17.6a1.23,1.23,0,0,1-.8,1.6c-.1.1-.2.1-.4.1" fill="#231f20"/>
      <path id="パス_612" data-name="パス 612" d="M476,26a1.324,1.324,0,0,1-1.3-1.3V5.7h8.2a6.4,6.4,0,0,1,0,12.8h-2.3a1.3,1.3,0,0,1,0-2.6h2.3a3.9,3.9,0,0,0,0-7.8h-5.6V24.5c-.1,1-.6,1.5-1.3,1.5" fill="#231f20"/>
      <path id="パス_613" data-name="パス 613" d="M457.6,26a7.9,7.9,0,1,1,7.9-7.9,1.3,1.3,0,1,1-2.6,0,5.391,5.391,0,1,0-2,4.2,1.281,1.281,0,1,1,1.6,2,7.677,7.677,0,0,1-4.9,1.7" fill="#231f20"/>
      <path id="パス_614" data-name="パス 614" d="M501.9,26a10.1,10.1,0,1,1,0-20.2,10.392,10.392,0,0,1,7.5,3.3,1.275,1.275,0,0,1-1.9,1.7,7.506,7.506,0,0,0-5.6-2.5,7.6,7.6,0,1,0,0,15.2,7.506,7.506,0,0,0,5.6-2.5,1.275,1.275,0,0,1,1.9,1.7,10.224,10.224,0,0,1-7.5,3.3" fill="#231f20"/>
      <path id="パス_615" data-name="パス 615" d="M553.5,26a1.324,1.324,0,0,1-1.3-1.3V15.2a4.481,4.481,0,0,0-4.5-4.5,1.3,1.3,0,0,1,0-2.6,7.02,7.02,0,0,1,7,7v9.5c0,.9-.5,1.4-1.2,1.4" fill="#231f20"/>
      <path id="パス_616" data-name="パス 616" d="M441,26a1.411,1.411,0,0,1-1.2-.8l-6-13.3a1.275,1.275,0,0,1,2.3-1.1l6,13.3a1.32,1.32,0,0,1-.6,1.7.551.551,0,0,1-.5.2" fill="#231f20"/>
      <path id="パス_617" data-name="パス 617" d="M441,26a.749.749,0,0,1-.5-.1,1.287,1.287,0,0,1-.6-1.7l6-13.3a1.275,1.275,0,0,1,2.3,1.1l-6,13.3a1.525,1.525,0,0,1-1.2.7" fill="#231f20"/>
      <path id="パス_618" data-name="パス 618" d="M464.3,19.4h-8.6a1.3,1.3,0,0,1,0-2.6h8.6a1.324,1.324,0,0,1,1.3,1.3,1.4,1.4,0,0,1-1.3,1.3" fill="#231f20"/>
      <path id="パス_619" data-name="パス 619" d="M578.2,26a7.9,7.9,0,1,1,7.9-7.9,1.3,1.3,0,1,1-2.6,0,5.391,5.391,0,1,0-2,4.2,1.281,1.281,0,1,1,1.6,2,7.881,7.881,0,0,1-4.9,1.7" fill="#231f20"/>
      <path id="パス_620" data-name="パス 620" d="M584.8,19.4h-8.6a1.3,1.3,0,0,1,0-2.6h8.6a1.3,1.3,0,0,1,0,2.6" fill="#231f20"/>
      <path id="パス_621" data-name="パス 621" d="M578.2,26a7.9,7.9,0,1,1,7.9-7.9,1.3,1.3,0,1,1-2.6,0,5.391,5.391,0,1,0-2,4.2,1.281,1.281,0,1,1,1.6,2,7.881,7.881,0,0,1-4.9,1.7" fill="#231f20"/>
      <path id="パス_622" data-name="パス 622" d="M520.3,26a1.324,1.324,0,0,1-1.3-1.3V7.1a1.292,1.292,0,0,1,.9-1.2,1.15,1.15,0,0,1,1.4.5l8.1,11.1a1.29,1.29,0,1,1-2.1,1.5l-5.8-8V24.8a1.155,1.155,0,0,1-1.2,1.2" fill="#231f20"/>
      <path id="パス_623" data-name="パス 623" d="M536.5,26a1.324,1.324,0,0,1-1.3-1.3V10.9l-5.8,8a1.29,1.29,0,1,1-2.1-1.5l8.1-11.1a1.47,1.47,0,0,1,1.4-.5,1.4,1.4,0,0,1,.9,1.2V24.7a1.135,1.135,0,0,1-1.2,1.3" fill="#231f20"/>
      <path id="パス_624" data-name="パス 624" d="M566.7,13.4h-7.3a1.3,1.3,0,0,1,0-2.6h7.3a1.324,1.324,0,0,1,1.3,1.3,1.4,1.4,0,0,1-1.3,1.3" fill="#231f20"/>
      <path id="パス_625" data-name="パス 625" d="M561.9,22.6a1.324,1.324,0,0,1-1.3-1.3V8.1a1.3,1.3,0,1,1,2.6,0V21.3a1.4,1.4,0,0,1-1.3,1.3" fill="#231f20"/>
      <path id="パス_626" data-name="パス 626" d="M565.3,26a4.7,4.7,0,0,1-4.7-4.7,1.3,1.3,0,1,1,2.6,0,2.22,2.22,0,0,0,2.2,2.2,2.92,2.92,0,0,0,.9-.2,1.3,1.3,0,1,1,1,2.4,6.929,6.929,0,0,1-2,.3" fill="#231f20"/>
      <path id="パス_627" data-name="パス 627" d="M548.2,26a6.51,6.51,0,0,1-.5-13,1.3,1.3,0,1,1,.2,2.6,4.1,4.1,0,0,0-3.7,4,4,4,0,1,0,8,0,1.3,1.3,0,1,1,2.6,0,6.62,6.62,0,0,1-6.6,6.4" fill="#231f20"/>
      <path id="パス_628" data-name="パス 628" d="M429.9,26a1.324,1.324,0,0,1-1.3-1.3V15.2a4.481,4.481,0,0,0-4.5-4.5,1.3,1.3,0,0,1,0-2.6,7.02,7.02,0,0,1,7,7v9.5a1.171,1.171,0,0,1-1.2,1.4" fill="#231f20"/>
      <path id="パス_629" data-name="パス 629" d="M424.7,26a6.51,6.51,0,0,1-.5-13,1.3,1.3,0,1,1,.2,2.6,4.1,4.1,0,0,0-3.7,4,4,4,0,1,0,8,0,1.3,1.3,0,1,1,2.6,0,6.62,6.62,0,0,1-6.6,6.4" fill="#231f20"/>
      <path id="パス_630" data-name="パス 630" d="M376.7,0H345.4a4.268,4.268,0,0,0-4.3,4.3V22.4a4.268,4.268,0,0,0,4.3,4.3h11.4l-.5,3.6h-2.7v1.4h15.1V30.3H366l-.5-3.6h11.4a4.268,4.268,0,0,0,4.3-4.3V4.3A4.577,4.577,0,0,0,376.7,0M357.6,30.4l.5-3.6h5.7l.5,3.6Zm22-26.1V22.4a2.9,2.9,0,0,1-2.9,2.9H345.4a2.9,2.9,0,0,1-2.9-2.9V4.3a2.9,2.9,0,0,1,2.9-2.9h31.3A2.9,2.9,0,0,1,379.6,4.3Z" fill="#231f20"/>
      <rect id="長方形_3295" data-name="長方形 3295" width="32.1" height="1.3" transform="translate(345 21.8)" fill="#231f20"/>
      <path id="パス_631" data-name="パス 631" d="M365.1,10.5c-1.1-1.2-2.3-2.4-4.1-2.4-2,0-3.2,1.4-4.6,3-.3.3-1.5,1.6-1.7,1.9-1.2,1.4-2.2,2.5-3.6,2.5a3.009,3.009,0,0,1-3-3,3.076,3.076,0,0,1,3-3c1.2,0,2,.8,3.2,2.1.1-.1.7-.8.9-1a5.5,5.5,0,0,0-4.1-2.4,4.42,4.42,0,0,0-4.4,4.3,4.439,4.439,0,0,0,4.4,4.4c2,0,3.2-1.4,4.6-3,.3-.3,1.5-1.6,1.7-1.9,1.2-1.4,2.2-2.5,3.6-2.5,1.2,0,2,.8,3.2,2.1a4.81,4.81,0,0,1,.9-1.1" fill="#231f20"/>
      <path id="パス_632" data-name="パス 632" d="M370.9,8.1c-2,0-3.2,1.4-4.6,2.9-.3.3-1.4,1.6-1.7,1.9-1.2,1.4-2.2,2.5-3.6,2.5-1.2,0-2-.8-3.2-2.1-.1.1-.7.8-.9,1a5.5,5.5,0,0,0,4.1,2.4c2,0,3.2-1.4,4.6-3h0c.3-.3,1.4-1.6,1.7-1.9,1.2-1.4,2.2-2.5,3.6-2.5a3,3,0,0,1,0,6c-1.2,0-2-.8-3.2-2.1-.1.1-.7.8-.9,1a5.5,5.5,0,0,0,4.1,2.4,4.332,4.332,0,0,0,4.3-4.3,4.247,4.247,0,0,0-4.3-4.2" fill="#231f20"/>
    </g>
  </g>
</svg>
