<svg xmlns="http://www.w3.org/2000/svg" width="100.11" height="77.029" viewBox="0 0 100.11 77.029">
  <g id="グループ_3051" data-name="グループ 3051" transform="translate(-917.73 -2191.971)">
    <g id="気づく_ちょんちょん" data-name="気づく ちょんちょん" transform="translate(917.73 2191.971)">
      <path id="パス_1027" data-name="パス 1027" d="M58.95,5.428a.851.851,0,0,1-.85-.85V.85A.863.863,0,0,1,58.95,0a.851.851,0,0,1,.85.85V4.6A.848.848,0,0,1,58.95,5.428Z" transform="translate(-48.024)" fill="#0f2437"/>
      <path id="パス_1028" data-name="パス 1028" d="M20.548,21.315a.856.856,0,0,1-.59-.243l-2.636-2.653a.846.846,0,1,1,1.2-1.2l2.653,2.653a.848.848,0,0,1,0,1.2A.975.975,0,0,1,20.548,21.315Z" transform="translate(-14.114 -14.031)" fill="#0f2437"/>
      <path id="パス_1029" data-name="パス 1029" d="M4.578,59.8H.85a.85.85,0,1,1,0-1.7H4.6a.851.851,0,0,1,.85.85A.866.866,0,0,1,4.578,59.8Z" transform="translate(0 -48.024)" fill="#0f2437"/>
      <path id="パス_1030" data-name="パス 1030" d="M17.912,88.315a.856.856,0,0,1-.59-.243.848.848,0,0,1,0-1.2l2.653-2.653a.846.846,0,0,1,1.2,1.2l-2.653,2.653A.932.932,0,0,1,17.912,88.315Z" transform="translate(-14.114 -69.412)" fill="#0f2437"/>
      <path id="パス_1031" data-name="パス 1031" d="M84.912,21.315a.856.856,0,0,1-.59-.243.848.848,0,0,1,0-1.2l2.653-2.653a.846.846,0,0,1,1.2,1.2L85.5,21.072A.856.856,0,0,1,84.912,21.315Z" transform="translate(-69.494 -14.031)" fill="#0f2437"/>
    </g>
    <g id="グループ_3045" data-name="グループ 3045">
      <path id="aman_AdobeStock_142170516_更新済み_" data-name="aman_AdobeStock_142170516 [更新済み]" d="M71.014,59.953c-.442-2.54-.994-5.08-1.546-7.62A10.841,10.841,0,0,0,68.032,48.8a6.79,6.79,0,0,0-3.976-3.2L61.074,44.6c-3.645-1.436-7.289-2.982-11.044-4.2a5.4,5.4,0,0,1-2.761-1.878A4.325,4.325,0,0,0,45.723,37.2a2.154,2.154,0,0,1-1.215-2.43,5.812,5.812,0,0,1,.442-1.988,19.447,19.447,0,0,0,1.657-4.859,1.207,1.207,0,0,0,1.436-.552,11.969,11.969,0,0,0,.884-2.1c.442-1.657.884-3.2,1.215-4.859,0-.11.11-.221.11-.331a1.186,1.186,0,0,0-.663-1.325c-.221-.11-.442-.11-.663-.221.11-.331.11-.663.221-.884A14.733,14.733,0,0,0,47.821,7.273a10.07,10.07,0,0,0-6.3-5.522c-.773-.221-1.657-.442-2.54-.663C37.109.646,35.231.757,33.353.2a2.719,2.719,0,0,0-1.325.11c-.884.11-1.767.331-2.651.442a2.986,2.986,0,0,0-2.54,1.215,1.981,1.981,0,0,1-1.1.663,4.11,4.11,0,0,0-2.1,2.209c-.221.663-.663,1.215-.884,1.878a12.17,12.17,0,0,0-.221,1.988,17.027,17.027,0,0,0-.331,4.086,21.682,21.682,0,0,0,.994,5.853c-.442.331-1.215.552-1.215,1.325A4.592,4.592,0,0,0,22.2,22.4a15.2,15.2,0,0,1,1.325,3.755A4.08,4.08,0,0,0,24.3,27.7a3.819,3.819,0,0,0,1.325.773,12.426,12.426,0,0,0,1.546,3.976,2.6,2.6,0,0,1,.331,2.209c-.221.884-.442,1.767-.552,2.54a12.627,12.627,0,0,0-1.767,1.546,8.48,8.48,0,0,1-3.865,2.54c-3.313,1.325-6.737,2.54-10.161,3.534A26.144,26.144,0,0,0,7.4,46.259a7.528,7.528,0,0,0-4.2,4.418C2.43,52.885,1.546,55.094.884,57.413A9.293,9.293,0,0,0,0,61.5a7.155,7.155,0,0,0,.221,2.209,1.585,1.585,0,0,0,1.657,1.436H3.313c21.647,0,43.293.11,64.94.11h.994c1.215-.11,1.767-.552,1.878-1.767A9.588,9.588,0,0,0,71.014,59.953Z" transform="translate(923.877 2199.216)" fill="#0f2437" fill-rule="evenodd"/>
      <g id="グループ_3044" data-name="グループ 3044">
        <path id="パス_1032" data-name="パス 1032" d="M0,0,.579,3.474H52.684L53.263,0H0M-3.541-3H56.8L55.226,6.474H-1.962Z" transform="translate(961.036 2262.526)" fill="#fff"/>
        <rect id="長方形_3497" data-name="長方形 3497" width="40.526" height="33" rx="2" transform="translate(967.404 2233)" fill="#0f2437"/>
        <path id="長方形_3497_-_アウトライン" data-name="長方形 3497 - アウトライン" d="M2,0A2,2,0,0,0,0,2V31a2,2,0,0,0,2,2H38.526a2,2,0,0,0,2-2V2a2,2,0,0,0-2-2H2M2-3H38.526a5.006,5.006,0,0,1,5,5V31a5.006,5.006,0,0,1-5,5H2a5.006,5.006,0,0,1-5-5V2A5.006,5.006,0,0,1,2-3Z" transform="translate(967.404 2233)" fill="#fff"/>
        <path id="パス_744" data-name="パス 744" d="M0,0H53.263l-.579,3.474H.579Z" transform="translate(961.036 2262.526)" fill="#0f2437"/>
      </g>
    </g>
  </g>
</svg>
