<svg xmlns="http://www.w3.org/2000/svg" width="80.979" height="80.818" viewBox="0 0 80.979 80.818">
  <g id="icon" transform="translate(-1294 -3663.591)">
    <g id="グループ_2445" data-name="グループ 2445" transform="translate(-4)">
      <g id="_1000_F_449832230_8xfFb0h4uEstUCWDSJzy97t0hNKj5ARD_うぇい" data-name="1000_F_449832230_8xfFb0h4uEstUCWDSJzy97t0hNKj5ARD_うぇい" transform="translate(1297.893 3663.219)">
        <path id="パス_704" data-name="パス 704" d="M11.44,50.589C9.18,45.515,6.92,40.411,4.6,35.233l2.739-1.257c.269.539.539,1.048.808,1.586,7.947-13.679,19.741-20.8,35.545-21.162.06.075.12.135.18.21a12.425,12.425,0,0,1-.958,1.033c-1.093.943-2.23,1.841-3.308,2.8-.673.6-1.242,1.3-1.886,1.931a11.568,11.568,0,0,1-.958.733c-.614.524-1.242,1.063-1.826,1.616a3.542,3.542,0,0,0-.464.659c2.29,2.08,4.58,4.146,6.974,6.316-7.663.823-13.679,4.116-18.049,10.237.045.06.075.12.12.18a1.049,1.049,0,0,1,.284-.224c.434-.165.838-.539,1.108.3a11.975,11.975,0,0,0,1.078,1.991C21.153,44.976,16.393,47.73,11.44,50.589Z" transform="translate(-3.82 -11.929)" fill="#0f2437"/>
        <path id="パス_705" data-name="パス 705" d="M20.88,227.482c-.09-.539-.18-1.063-.3-1.751.539-.075,1.093-.15,1.631-.239a6.223,6.223,0,0,1,1-.195.633.633,0,0,1,.464.4c.224,1.093.374,2.2.584,3.293.18.9.464,1.781.644,2.694.359,1.841.673,3.7,1.048,5.538.195.958.479,1.886.688,2.829.12.509.195,1.033.284,1.527-5.538.569-11.06,1.152-16.657,1.721-.09-.973-.195-1.931-.284-2.978.6-.06,1.242-.12,1.946-.195-.973-1-1.931-1.961-2.829-2.978a23.347,23.347,0,0,1-1.542-2.08c-.554-.793-1.108-1.6-1.646-2.41a15.444,15.444,0,0,1-.9-1.512c-.449-.868-.868-1.736-1.257-2.634-.494-1.122-.973-2.26-1.407-3.4a32.28,32.28,0,0,1-1.108-3.337C.93,220.508.72,219.206.525,217.9a24.421,24.421,0,0,1-.4-3.293c-.045-1.542.03-3.1.075-4.64.03-.988.06-1.976.18-2.963.12-.958.344-1.9.539-2.844s.4-1.916.614-2.874c.045-.239.06-.479.12-.7.03-.075.18-.21.224-.195.15.045.344.135.389.254.389.913.718,1.856,1.108,2.769.464,1.048.988,2.05,1.467,3.083.224.479.4.988.6,1.467.449,1.048.9,2.1,1.362,3.143,3.008-1.751,5.987-3.472,9.07-5.253A24.507,24.507,0,0,0,20.88,227.482Z" transform="translate(0 -170.085)" fill="#0f2437"/>
        <path id="パス_706" data-name="パス 706" d="M157.317,421.712c-.868-.12-1.631-.165-2.365-.329-.823-.165-.284-.853-.4-1.3a1.417,1.417,0,0,1,.03-.434c-14.083,6.7-27.6,5.942-40.678-2.44,3.966-.434,7.932-.853,11.9-1.287-.748-3.472-1.467-6.855-2.215-10.372a24.458,24.458,0,0,0,22.539,1.3c-.688-.09-1.287-.15-1.856-.269a.611.611,0,0,1-.359-.449c.015-.748.075-1.5.15-2.245.015-.09.254-.21.374-.195.763.075,1.512.224,2.275.3s1.542.03,2.32.075c.6.03,1.182.1,1.781.18.883.1,1.781.24,2.664.344.718.09,1.422.18,2.14.254,1.287.135,2.559.269,3.846.389.434.045.868.09,1.377.135C159.667,410.772,158.485,416.249,157.317,421.712Z" transform="translate(-96.762 -342.957)" fill="#0f2437"/>
        <path id="パス_707" data-name="パス 707" d="M234.489,3.19c14.622,3.218,24.56,11.838,29.962,25.682-.075.1-.135.195-.209.3q-5.163-2.986-10.312-5.957c-.554,1.182-1.152,2.35-1.676,3.562-.584,1.332-1.108,2.694-1.676,4.041a14.031,14.031,0,0,1-.6,1.272,2.216,2.216,0,0,1-.329.434,3.9,3.9,0,0,1-.254-.419,26.382,26.382,0,0,0-2.9-4.834,18.016,18.016,0,0,0-3.023-3.2c-.763-.584-1.392-1.332-2.17-1.9a15.625,15.625,0,0,0-2.469-1.437c-1.527-.733-3.083-1.377-4.625-2.05a3.252,3.252,0,0,0-.524-.09c.374.449.614.748.883,1.048.045.045.15.015.21.06.763.569.733.644.03,1.362-.464.464-.853.988-1.242,1.452-.838-.659-1.6-1.2-2.29-1.8-.838-.718-1.631-1.5-2.454-2.245-.868-.793-1.751-1.586-2.619-2.38-.763-.688-1.5-1.392-2.26-2.08-.853-.763-1.721-1.512-2.574-2.26-.434-.389-.06-.659.165-.868.763-.733,1.556-1.422,2.35-2.125.4-.359.838-.673,1.242-1.033.973-.9,1.916-1.841,2.9-2.739.808-.733,1.706-1.377,2.514-2.11.838-.778,1.616-1.616,2.454-2.395a.607.607,0,0,1,.614-.045,16.194,16.194,0,0,1,1.556,1.646c.09.1-.015.449-.12.614C234.923,2.846,234.7,2.98,234.489,3.19Z" transform="translate(-187.972)" fill="#0f2437"/>
        <path id="パス_708" data-name="パス 708" d="M381.606,204.476c-3.577-.389-7.034-.748-10.506-1.122a24.45,24.45,0,0,0,7.887-18.8c-.075-.03-.135-.075-.21-.1-.21.389-.419.793-.659,1.227-.838-.359-1.706-.733-2.694-1.167,2.275-5.133,4.52-10.207,6.78-15.311,1.033.614,2.005,1.227,3.008,1.8,1.107.629,2.245,1.182,3.337,1.811.853.494,1.646,1.093,2.514,1.6s1.751.913,2.6,1.392c.943.539,1.871,1.107,2.8,1.706a.544.544,0,0,1,.045.509c-.269.479-.614.913-.9,1.392-.4.718-.584.793-1.257.359-.239-.15-.449-.359-.7-.539q2.784,22.315-14.143,36.862c-.12-.03-.254-.075-.374-.1C379.96,212.153,380.768,208.337,381.606,204.476Z" transform="translate(-315.469 -143.561)" fill="#0f2437"/>
      </g>
      <text id="ITIL" transform="translate(1326 3710)" fill="#0f2437" font-size="13" font-family="NotoSansCJKjp-Bold, Noto Sans CJK JP" font-weight="700"><tspan x="0" y="0">ITIL</tspan></text>
    </g>
  </g>
</svg>
