<svg xmlns="http://www.w3.org/2000/svg" width="16.881" height="21.251" viewBox="0 0 16.881 21.251">
  <g id="書類ファイルドキュメント" transform="translate(-53.248 0.15)">
    <path id="パス_658" data-name="パス 658" d="M59.346,0,53.4,5.949v15H69.979V0Zm-.087,2.032V5.862H55.43ZM68.6,19.576H54.773V7.075h5.7v-5.7H68.6Z" transform="translate(0)" fill="#f29600"/>
    <path id="パス_658_-_アウトライン" data-name="パス 658 - アウトライン" d="M59.284-.15H70.129V21.1H53.248V5.887Zm10.545.3H59.409L53.548,6.011V20.8H69.829ZM60.323,1.225h8.431v18.5H54.623V6.925h5.7Zm8.131.3H60.623v5.7h-5.7v12.2H68.454Zm-9.045.145V6.012H55.068Zm-.3,4.041V2.395L55.792,5.712Z" transform="translate(0)" fill="#f29600"/>
    <rect id="長方形_3298" data-name="長方形 3298" width="8.07" height="1.06" transform="translate(57.653 9.738)" fill="#f29600"/>
    <path id="長方形_3298_-_アウトライン" data-name="長方形 3298 - アウトライン" d="M-.15-.15H8.22V1.21H-.15Zm8.07.3H.15V.91H7.92Z" transform="translate(57.653 9.738)" fill="#f29600"/>
    <rect id="長方形_3299" data-name="長方形 3299" width="8.07" height="1.06" transform="translate(57.653 12.632)" fill="#f29600"/>
    <path id="長方形_3299_-_アウトライン" data-name="長方形 3299 - アウトライン" d="M-.15-.15H8.22V1.21H-.15Zm8.07.3H.15V.91H7.92Z" transform="translate(57.653 12.632)" fill="#f29600"/>
    <rect id="長方形_3300" data-name="長方形 3300" width="8.07" height="1.06" transform="translate(57.653 15.525)" fill="#f29600"/>
    <path id="長方形_3300_-_アウトライン" data-name="長方形 3300 - アウトライン" d="M-.15-.15H8.22V1.21H-.15Zm8.07.3H.15V.91H7.92Z" transform="translate(57.653 15.525)" fill="#f29600"/>
  </g>
</svg>
