<svg xmlns="http://www.w3.org/2000/svg" width="86.972" height="74.89" viewBox="0 0 86.972 74.89">
  <g id="グループ_3049" data-name="グループ 3049" transform="translate(-1288.73 -2191.971)">
    <g id="気づく_ちょんちょん" data-name="気づく ちょんちょん" transform="translate(1288.73 2191.971)">
      <path id="パス_1027" data-name="パス 1027" d="M58.95,5.428a.851.851,0,0,1-.85-.85V.85A.863.863,0,0,1,58.95,0a.851.851,0,0,1,.85.85V4.6A.848.848,0,0,1,58.95,5.428Z" transform="translate(-48.024)" fill="#0f2437"/>
      <path id="パス_1028" data-name="パス 1028" d="M20.548,21.315a.856.856,0,0,1-.59-.243l-2.636-2.653a.846.846,0,1,1,1.2-1.2l2.653,2.653a.848.848,0,0,1,0,1.2A.975.975,0,0,1,20.548,21.315Z" transform="translate(-14.114 -14.031)" fill="#0f2437"/>
      <path id="パス_1029" data-name="パス 1029" d="M4.578,59.8H.85a.85.85,0,1,1,0-1.7H4.6a.851.851,0,0,1,.85.85A.866.866,0,0,1,4.578,59.8Z" transform="translate(0 -48.024)" fill="#0f2437"/>
      <path id="パス_1030" data-name="パス 1030" d="M17.912,88.315a.856.856,0,0,1-.59-.243.848.848,0,0,1,0-1.2l2.653-2.653a.846.846,0,0,1,1.2,1.2l-2.653,2.653A.932.932,0,0,1,17.912,88.315Z" transform="translate(-14.114 -69.412)" fill="#0f2437"/>
      <path id="パス_1031" data-name="パス 1031" d="M84.912,21.315a.856.856,0,0,1-.59-.243.848.848,0,0,1,0-1.2l2.653-2.653a.846.846,0,0,1,1.2,1.2L85.5,21.072A.856.856,0,0,1,84.912,21.315Z" transform="translate(-69.494 -14.031)" fill="#0f2437"/>
    </g>
    <g id="AdobeStock_297799634_更新済み_" data-name="AdobeStock_297799634 [更新済み]" transform="translate(631.598 1641.839)">
      <path id="パス_1033" data-name="パス 1033" d="M1646.61,998.577v24.453a4.735,4.735,0,0,1-1.394,3.359l-15.61,15.61a2.066,2.066,0,0,0-.6,1.46v.287a2.066,2.066,0,0,1-2.067,2.063h-9.874a2.065,2.065,0,0,1-2.062-2.062v-3.854a7.447,7.447,0,0,1,2.182-5.267l19.4-19.4a4,4,0,1,1,5.656,5.656l-4.891,4.9a.81.81,0,0,0,0,1.142.8.8,0,0,0,.571.235.815.815,0,0,0,.571-.235l4.9-4.9a5.617,5.617,0,0,0-.381-8.285,5.557,5.557,0,0,0-3.151-1.279,5.768,5.768,0,0,0-1.239.04V998.665a4.064,4.064,0,0,1,4.085-4.085,3.991,3.991,0,0,1,3.908,4Z" transform="translate(-902.506 -420.793)" fill="#0f2436"/>
      <path id="パス_1034" data-name="パス 1034" d="M702.31,1039.993v3.854a2.065,2.065,0,0,1-2.062,2.063h-9.874a2.065,2.065,0,0,1-2.067-2.062v-.287a2.066,2.066,0,0,0-.6-1.461l-15.61-15.61a4.77,4.77,0,0,1-1.394-3.359V998.677a4,4,0,0,1,3.913-4,4.064,4.064,0,0,1,4.085,4.085V1012.6a5.772,5.772,0,0,0-1.239-.04,5.612,5.612,0,0,0-3.532,9.564l4.9,4.9a.8.8,0,0,0,.571.234.805.805,0,0,0,.571-1.376l-4.9-4.9a4,4,0,1,1,5.656-5.656l15.5,15.5,3.9,3.9A7.432,7.432,0,0,1,702.31,1039.993Z" transform="translate(0 -420.888)" fill="#0f2436"/>
      <g id="グループ_3048" data-name="グループ 3048" transform="translate(680.743 554.3)">
        <g id="グループ_3047" data-name="グループ 3047" transform="translate(0 0)">
          <path id="パス_1035" data-name="パス 1035" d="M926.665,602.955l2.726,3.691a26.53,26.53,0,0,0,5.4-1.673l.173-4.576a3.427,3.427,0,0,1,4.461-3.142l4.368,1.381a26.84,26.84,0,0,0,3.395-4.523l-2.554-3.806a3.432,3.432,0,0,1,1.761-5.165l4.342-1.447a27.25,27.25,0,0,0,.2-3.213c0-.823-.035-1.638-.111-2.439l-4.3-1.576a3.435,3.435,0,0,1-1.611-5.218l2.66-3.727a26.965,26.965,0,0,0-3.258-4.625l-4.4,1.253a3.433,3.433,0,0,1-4.368-3.275l-.035-4.585a26.408,26.408,0,0,0-5.355-1.819l-2.828,3.6a3.431,3.431,0,0,1-5.457-.075l-2.726-3.691a26.534,26.534,0,0,0-5.4,1.673l-.173,4.576a3.427,3.427,0,0,1-4.461,3.142l-4.368-1.381a26.839,26.839,0,0,0-3.395,4.523l2.554,3.806a3.432,3.432,0,0,1-1.762,5.165l-4.342,1.452a27.282,27.282,0,0,0-.195,3.213c0,.823.035,1.633.111,2.439l4.3,1.58a3.427,3.427,0,0,1,1.611,5.214l-2.66,3.727a26.969,26.969,0,0,0,3.258,4.625l4.4-1.253a3.433,3.433,0,0,1,4.368,3.275l.035,4.581a26.409,26.409,0,0,0,5.355,1.819l2.828-3.6A3.422,3.422,0,0,1,926.665,602.955Zm-4.258-9.795a12.839,12.839,0,0,1-10.976-12.694,12.641,12.641,0,0,1,.137-1.859,12.83,12.83,0,0,1,25.524,1.859,12.537,12.537,0,0,1-.137,1.854A12.833,12.833,0,0,1,922.408,593.16Z" transform="translate(-897.6 -554.3)" fill="#0f2436"/>
        </g>
      </g>
    </g>
  </g>
</svg>
