<svg xmlns="http://www.w3.org/2000/svg" width="24.772" height="19.444" viewBox="0 0 24.772 19.444">
  <path id="パス_657" data-name="パス 657" d="M24.708,57.83a3.427,3.427,0,0,0-.709-1.5,2.955,2.955,0,0,0-.233-.259,3.429,3.429,0,0,0-2.43-1.007H3.436a3.433,3.433,0,0,0-2.429,1.007,3.018,3.018,0,0,0-.233.259,3.386,3.386,0,0,0-.706,1.5A3.323,3.323,0,0,0,0,58.5V71.07a3.416,3.416,0,0,0,.285,1.365A3.368,3.368,0,0,0,1.007,73.5c.077.077.153.147.237.217a3.433,3.433,0,0,0,2.193.79h17.9a3.412,3.412,0,0,0,2.193-.793,2.964,2.964,0,0,0,.237-.214,3.439,3.439,0,0,0,.725-1.064v0a3.4,3.4,0,0,0,.281-1.361V58.5A3.531,3.531,0,0,0,24.708,57.83ZM2.25,57.312a1.66,1.66,0,0,1,1.186-.492h17.9a1.651,1.651,0,0,1,1.337.668l-9.382,8.177a1.377,1.377,0,0,1-1.809,0L2.1,57.485A1.269,1.269,0,0,1,2.25,57.312ZM1.758,71.07V59.3l6.789,5.923L1.761,71.143A.5.5,0,0,1,1.758,71.07Zm19.578,1.678H3.436a1.655,1.655,0,0,1-.831-.22l7.16-6.24.668.581a2.975,2.975,0,0,0,3.909,0l.668-.581,7.157,6.24A1.657,1.657,0,0,1,21.336,72.748Zm1.678-1.678a.524.524,0,0,1,0,.073L16.225,65.23l6.789-5.923Z" transform="translate(0 -55.062)" fill="#f29600"/>
</svg>
