<svg xmlns="http://www.w3.org/2000/svg" width="137.208" height="104.705" viewBox="0 0 137.208 104.705">
  <g id="グループ_2891" data-name="グループ 2891" transform="translate(-606.549 -464.814)">
    <g id="レイヤー_2_00000066502127103154531750000000459312246520423307_" transform="translate(606.549 464.814)">
      <path id="パス_754" data-name="パス 754" d="M16.327,26a3.613,3.613,0,0,1-1.872-.52A3.573,3.573,0,0,1,12.8,23.467a3.234,3.234,0,0,1,.248-2.392,5.483,5.483,0,0,1,3.316-2.616,7.393,7.393,0,0,1,3.442-.219,6.035,6.035,0,0,0-1.143-3.778,3.885,3.885,0,0,0-1.22-1.113,13.335,13.335,0,0,1-3.471,4.274,10.614,10.614,0,0,1-5.236,2.484,3.693,3.693,0,0,1-3.715-1.527,3.9,3.9,0,0,1-.345-3.758,6.634,6.634,0,0,1,2.48-2.781A13.168,13.168,0,0,1,14.11,9.917a11.068,11.068,0,0,1,1.629.1,5.666,5.666,0,0,0-1.648-4.74c-2.557-2.8-5.173-2.82-6.919-2.348-2.421.656-4.249,2.582-4.551,3.992A1.338,1.338,0,0,1,.005,6.353,7.335,7.335,0,0,1,2.242,2.712,10.007,10.007,0,0,1,6.472.349a8.821,8.821,0,0,1,4.794.015,10.388,10.388,0,0,1,4.8,3.1,8.767,8.767,0,0,1,2.295,4.473,8.108,8.108,0,0,1-.029,2.844,6.683,6.683,0,0,1,2.528,2.144,8.7,8.7,0,0,1,1.566,6.2h0a7.747,7.747,0,0,1,2.63,1.964,7.022,7.022,0,0,1,1.318,2.655,1.337,1.337,0,1,1-2.567.749,3.91,3.91,0,0,0-2.13-2.742A8.776,8.776,0,0,1,20.124,24.1a6.043,6.043,0,0,1-2.577,1.707A4.166,4.166,0,0,1,16.327,26Zm2.207-5.2a4.435,4.435,0,0,0-1.366.209,2.886,2.886,0,0,0-1.731,1.259c-.107.209-.263.525.394.924.7.423,1.7-.224,2.329-.9a6.034,6.034,0,0,0,.972-1.444A4.227,4.227,0,0,0,18.534,20.8Zm-4.283-8.222h-.107A10.517,10.517,0,0,0,8.66,14.244c-.846.574-2.154,1.707-1.4,2.869.185.282.583.394,1.181.331,2-.219,4.881-2.246,6.369-4.842C14.616,12.581,14.426,12.577,14.251,12.577Z" transform="translate(0.025 -0.024)" fill="#fff"/>
    </g>
    <g id="グループ_2890" data-name="グループ 2890" transform="translate(-19.136 -15.992)">
      <g id="グループ_2507" data-name="グループ 2507" transform="translate(648.136 506.153)">
        <path id="パス_701" data-name="パス 701" d="M-3260.805-2507.72v-60.015s-6.263-2.768-9.76,1.457-1.456,15.149-1.456,15.149-1.749-1.311-2.04,0,2.477,7.866,3.5,7.866,2.477,3.788,2.477,7.866-16.461,7.429-19.52,10.342-5.1,18.645-4.807,17.334S-3260.805-2507.72-3260.805-2507.72Z" transform="translate(3292.442 2568.626)" fill="#fff"/>
        <path id="パス_702" data-name="パス 702" d="M-3292.442-2507.652v-60.015s6.263-.728,9.76,3.5,1.457,13.11,1.457,13.11,1.749-1.311,2.04,0-2.477,7.866-3.5,7.866-2.477,3.787-2.477,7.866,16.461,7.43,19.52,10.343,5.1,18.645,4.807,17.334S-3292.442-2507.652-3292.442-2507.652Z" transform="translate(3323.048 2568.557)" fill="#fff"/>
      </g>
      <g id="グループ_2508" data-name="グループ 2508" transform="translate(700.65 506.153)">
        <path id="パス_701-2" data-name="パス 701" d="M-3260.805-2507.72v-60.015s-6.263-2.768-9.76,1.457-1.456,15.149-1.456,15.149-1.749-1.311-2.04,0,2.477,7.866,3.5,7.866,2.477,3.788,2.477,7.866-16.461,7.429-19.52,10.342-5.1,18.645-4.807,17.334S-3260.805-2507.72-3260.805-2507.72Z" transform="translate(3292.442 2568.626)" fill="#fff"/>
        <path id="パス_702-2" data-name="パス 702" d="M-3292.442-2507.652v-60.015s6.263-.728,9.76,3.5,1.457,13.11,1.457,13.11,1.749-1.311,2.04,0-2.477,7.866-3.5,7.866-2.477,3.787-2.477,7.866,16.461,7.43,19.52,10.343,5.1,18.645,4.807,17.334S-3292.442-2507.652-3292.442-2507.652Z" transform="translate(3323.048 2568.557)" fill="#fff"/>
      </g>
      <g id="グループ_2506" data-name="グループ 2506" transform="translate(660.998 493.794)">
        <path id="パス_701-3" data-name="パス 701" d="M-3246.425-2480.037v-87.294s-9.11-4.026-14.2,2.118-2.119,22.035-2.119,22.035-2.543-1.907-2.967,0,3.6,11.442,5.085,11.442,3.6,5.508,3.6,11.441-23.943,10.806-28.392,15.043-7.415,27.12-6.992,25.214S-3246.425-2480.037-3246.425-2480.037Z" transform="translate(3292.442 2568.626)" fill="#0f2437"/>
        <path id="パス_701_-_アウトライン" data-name="パス 701 - アウトライン" d="M-3292.437-2479.924c.006,0,.018-.037.035-.113.423-1.907,45.977,0,45.977,0v-87.294s-9.109-4.026-14.2,2.118-2.119,22.035-2.119,22.035-2.543-1.907-2.967,0,3.6,11.442,5.085,11.442,3.6,5.508,3.6,11.441-23.943,10.806-28.392,15.043c-4.272,4.069-7.177,25.326-7.027,25.326m49.012,3.016-3.125-.131c-.2-.008-20.341-.845-33.744-.845a86.19,86.19,0,0,0-10.339.357,3.032,3.032,0,0,1-1.8.6h-.005l-2.029,0-.754-1.887a4.528,4.528,0,0,1-.094-2.489c.089-.707.221-1.626.371-2.588.287-1.846.773-4.717,1.457-7.912a79.5,79.5,0,0,1,2.337-8.791c1.146-3.362,2.314-5.531,3.675-6.828,2.115-2.015,6.275-3.607,12.886-6.037,3.527-1.3,7.174-2.637,10.061-4.018,3.532-1.689,4.351-2.713,4.512-2.97a23.55,23.55,0,0,0-.776-5.8,11.612,11.612,0,0,0-1.03-2.7,4.86,4.86,0,0,1-2.031-1.589,29.19,29.19,0,0,1-3.347-6.393,31.4,31.4,0,0,1-1.151-3.444,7.406,7.406,0,0,1-.28-3.449,3.962,3.962,0,0,1,2.378-2.916c-.153-1.461-.288-3.211-.329-5.081-.157-7.033,1.073-12.182,3.655-15.3a12.646,12.646,0,0,1,10.111-4.5,20.422,20.422,0,0,1,7.608,1.551l1.788.79Z" transform="translate(3292.442 2568.626)" fill="#0f2437"/>
        <path id="パス_702-3" data-name="パス 702" d="M-3292.442-2480.351v-87.294s9.11-1.059,14.2,5.085,2.119,19.069,2.119,19.069,2.543-1.907,2.967,0-3.6,11.442-5.085,11.442-3.6,5.508-3.6,11.441,23.943,10.806,28.392,15.043,7.416,27.12,6.992,25.214S-3292.442-2480.351-3292.442-2480.351Z" transform="translate(3336.959 2568.939)" fill="#0f2437"/>
        <path id="パス_702_-_アウトライン" data-name="パス 702 - アウトライン" d="M-3246.43-2480.238c.15,0-2.754-21.258-7.027-25.326-4.449-4.237-28.392-9.111-28.392-15.043s2.119-11.441,3.6-11.441,5.509-9.535,5.085-11.442-2.966,0-2.967,0,2.967-12.925-2.119-19.069-14.2-5.085-14.2-5.085v87.294s45.554-1.907,45.978,0c.017.076.028.113.035.113m-49.012,3.016v-93.094l2.654-.309a17.987,17.987,0,0,1,1.921-.09,23.636,23.636,0,0,1,6.837,1,16.611,16.611,0,0,1,8.094,5.245c2.585,3.123,3.815,7.777,3.654,13.831-.034,1.307-.132,2.537-.251,3.617a3.97,3.97,0,0,1,2.3,2.883,7.4,7.4,0,0,1-.28,3.449,31.406,31.406,0,0,1-1.15,3.444,29.2,29.2,0,0,1-3.347,6.392,4.862,4.862,0,0,1-2.032,1.589,11.612,11.612,0,0,0-1.03,2.7,23.55,23.55,0,0,0-.776,5.8c.161.256.981,1.281,4.512,2.969,2.888,1.381,6.535,2.721,10.061,4.018,6.612,2.431,10.771,4.023,12.887,6.037,1.361,1.3,2.529,3.466,3.675,6.828a79.431,79.431,0,0,1,2.337,8.791c.684,3.195,1.17,6.066,1.458,7.912.15.962.281,1.881.371,2.588a4.527,4.527,0,0,1-.094,2.491l-.754,1.886-2.034,0a3.033,3.033,0,0,1-1.8-.6,86.206,86.206,0,0,0-10.339-.357c-13.4,0-33.542.837-33.744.845Z" transform="translate(3336.959 2568.939)" fill="#0f2437"/>
      </g>
      <g id="グループ_2509" data-name="グループ 2509" transform="translate(661.038 493.794)">
        <path id="パス_701-4" data-name="パス 701" d="M-3246.438-2480.037v-87.294s-9.11-4.026-14.2,2.118-2.119,22.035-2.119,22.035-2.543-1.907-2.966,0,3.6,11.442,5.085,11.442,3.6,5.508,3.6,11.441-23.943,10.806-28.392,15.043-6.991,25.142-6.992,25.214S-3246.438-2480.037-3246.438-2480.037Z" transform="translate(3292.416 2568.626)" fill="#fff"/>
        <path id="パス_702-4" data-name="パス 702" d="M-3292.442-2480.351v-87.294s9.11-1.059,14.2,5.085,2.119,19.069,2.119,19.069,2.543-1.907,2.967,0-3.6,11.442-5.085,11.442-3.6,5.508-3.6,11.441,23.943,10.806,28.392,15.043,7.051,25.157,6.992,25.214S-3292.442-2480.351-3292.442-2480.351Z" transform="translate(3336.919 2568.939)" fill="#fff"/>
      </g>
    </g>
  </g>
</svg>
