<svg xmlns="http://www.w3.org/2000/svg" width="105.037" height="117.433" viewBox="0 0 105.037 117.433">
  <g id="グループ_2884" data-name="グループ 2884" transform="translate(-567.963 -388.169)">
    <g id="レイヤー_2_00000066502127103154531750000000459312246520423307_" transform="translate(567.963 388.169)">
      <path id="パス_754" data-name="パス 754" d="M16.327,26a3.613,3.613,0,0,1-1.872-.52A3.573,3.573,0,0,1,12.8,23.467a3.234,3.234,0,0,1,.248-2.392,5.483,5.483,0,0,1,3.316-2.616,7.393,7.393,0,0,1,3.442-.219,6.035,6.035,0,0,0-1.143-3.778,3.885,3.885,0,0,0-1.22-1.113,13.335,13.335,0,0,1-3.471,4.274,10.614,10.614,0,0,1-5.236,2.484,3.693,3.693,0,0,1-3.715-1.527,3.9,3.9,0,0,1-.345-3.758,6.634,6.634,0,0,1,2.48-2.781A13.168,13.168,0,0,1,14.11,9.917a11.068,11.068,0,0,1,1.629.1,5.666,5.666,0,0,0-1.648-4.74c-2.557-2.8-5.173-2.82-6.919-2.348-2.421.656-4.249,2.582-4.551,3.992A1.338,1.338,0,0,1,.005,6.353,7.335,7.335,0,0,1,2.242,2.712,10.007,10.007,0,0,1,6.472.349a8.821,8.821,0,0,1,4.794.015,10.388,10.388,0,0,1,4.8,3.1,8.767,8.767,0,0,1,2.295,4.473,8.108,8.108,0,0,1-.029,2.844,6.683,6.683,0,0,1,2.528,2.144,8.7,8.7,0,0,1,1.566,6.2h0a7.747,7.747,0,0,1,2.63,1.964,7.022,7.022,0,0,1,1.318,2.655,1.337,1.337,0,1,1-2.567.749,3.91,3.91,0,0,0-2.13-2.742A8.776,8.776,0,0,1,20.124,24.1a6.043,6.043,0,0,1-2.577,1.707A4.166,4.166,0,0,1,16.327,26Zm2.207-5.2a4.435,4.435,0,0,0-1.366.209,2.886,2.886,0,0,0-1.731,1.259c-.107.209-.263.525.394.924.7.423,1.7-.224,2.329-.9a6.034,6.034,0,0,0,.972-1.444A4.227,4.227,0,0,0,18.534,20.8Zm-4.283-8.222h-.107A10.517,10.517,0,0,0,8.66,14.244c-.846.574-2.154,1.707-1.4,2.869.185.282.583.394,1.181.331,2-.219,4.881-2.246,6.369-4.842C14.616,12.581,14.426,12.577,14.251,12.577Z" transform="translate(0.025 -0.024)" fill="#fff"/>
    </g>
    <rect id="長方形_3499" data-name="長方形 3499" width="76" height="62" rx="6" transform="translate(597 443.603)" fill="#fff"/>
    <path id="パス_746" data-name="パス 746" d="M27.842,12A15.86,15.86,0,0,0,12,27.842V56.967c2.525,1.081,7.944,2.467,15.842,2.467s13.317-1.386,15.842-2.467V27.842A15.86,15.86,0,0,0,27.842,12m0-12A27.842,27.842,0,0,1,55.684,27.842V59.9C55.684,75.279,0,75.279,0,59.9V27.842A27.842,27.842,0,0,1,27.842,0Z" transform="translate(606.845 401.418)" fill="#fff"/>
    <g id="グループ_2504" data-name="グループ 2504" transform="translate(625.406 463.851)">
      <circle id="楕円形_75" data-name="楕円形 75" cx="7.593" cy="7.593" r="7.593" transform="translate(1.603)" fill="#0f2437"/>
      <path id="パス_745" data-name="パス 745" d="M11.812,0,13,13,0,11.812Z" transform="translate(9.196 29.444) rotate(-135)" fill="#0f2437"/>
    </g>
    <path id="パス_747" data-name="パス 747" d="M0,0,7.674,4.195,15.186,0V15.186H0Z" transform="translate(605.157 428.416)" fill="#0f2437"/>
    <circle id="楕円形_76" data-name="楕円形 76" cx="6" cy="6" r="6" transform="translate(607 423.603)" fill="#fff"/>
  </g>
</svg>
