<svg xmlns="http://www.w3.org/2000/svg" width="110.751" height="119.831" viewBox="0 0 110.751 119.831">
  <g id="グループ_2886" data-name="グループ 2886" transform="translate(-630.289 -383.758)">
    <g id="レイヤー_2_00000066502127103154531750000000459312246520423307_" transform="translate(638.482 383.758)">
      <path id="パス_754" data-name="パス 754" d="M16.327,26a3.613,3.613,0,0,1-1.872-.52A3.573,3.573,0,0,1,12.8,23.467a3.234,3.234,0,0,1,.248-2.392,5.483,5.483,0,0,1,3.316-2.616,7.393,7.393,0,0,1,3.442-.219,6.035,6.035,0,0,0-1.143-3.778,3.885,3.885,0,0,0-1.22-1.113,13.335,13.335,0,0,1-3.471,4.274,10.614,10.614,0,0,1-5.236,2.484,3.693,3.693,0,0,1-3.715-1.527,3.9,3.9,0,0,1-.345-3.758,6.634,6.634,0,0,1,2.48-2.781A13.168,13.168,0,0,1,14.11,9.917a11.068,11.068,0,0,1,1.629.1,5.666,5.666,0,0,0-1.648-4.74c-2.557-2.8-5.173-2.82-6.919-2.348-2.421.656-4.249,2.582-4.551,3.992A1.338,1.338,0,0,1,.005,6.353,7.335,7.335,0,0,1,2.242,2.712,10.007,10.007,0,0,1,6.472.349a8.821,8.821,0,0,1,4.794.015,10.388,10.388,0,0,1,4.8,3.1,8.767,8.767,0,0,1,2.295,4.473,8.108,8.108,0,0,1-.029,2.844,6.683,6.683,0,0,1,2.528,2.144,8.7,8.7,0,0,1,1.566,6.2h0a7.747,7.747,0,0,1,2.63,1.964,7.022,7.022,0,0,1,1.318,2.655,1.337,1.337,0,1,1-2.567.749,3.91,3.91,0,0,0-2.13-2.742A8.776,8.776,0,0,1,20.124,24.1a6.043,6.043,0,0,1-2.577,1.707A4.166,4.166,0,0,1,16.327,26Zm2.207-5.2a4.435,4.435,0,0,0-1.366.209,2.886,2.886,0,0,0-1.731,1.259c-.107.209-.263.525.394.924.7.423,1.7-.224,2.329-.9a6.034,6.034,0,0,0,.972-1.444A4.227,4.227,0,0,0,18.534,20.8Zm-4.283-8.222h-.107A10.517,10.517,0,0,0,8.66,14.244c-.846.574-2.154,1.707-1.4,2.869.185.282.583.394,1.181.331,2-.219,4.881-2.246,6.369-4.842C14.616,12.581,14.426,12.577,14.251,12.577Z" transform="translate(0.025 -0.024)" fill="#fff"/>
    </g>
    <g id="電話発信中のフリーアイコン" transform="translate(630.289 392.843)">
      <path id="パス_966" data-name="パス 966" d="M68.4,178.473a3.585,3.585,0,0,0-4.78-.255l-6.736,5.431a3.58,3.58,0,0,1-4.557-.051,93.983,93.983,0,0,1-22.264-22.264,3.58,3.58,0,0,1-.049-4.555l5.429-6.736a3.58,3.58,0,0,0-.255-4.78l-12.9-12.9a3.59,3.59,0,0,0-4.839-.21L1.278,145.745a3.574,3.574,0,0,0-.851,4.434s2.173,4.44,4.2,7.838c5.55,9.339,14.572,20.382,22.606,28.419s19.076,17.058,28.42,22.608c3.4,2.018,7.836,4.2,7.836,4.2a3.583,3.583,0,0,0,4.432-.857L81.5,196.208a3.587,3.587,0,0,0-.21-4.837Z" transform="translate(0.001 -102.917)" fill="#fff"/>
      <path id="パス_967" data-name="パス 967" d="M261.73,180.728l5.369-.851a28.479,28.479,0,0,0-23.609-23.609l-.853,5.367a23.048,23.048,0,0,1,19.093,19.093Z" transform="translate(-190.152 -122.467)" fill="#fff"/>
      <path id="パス_968" data-name="パス 968" d="M302.7,17.589A62.414,62.414,0,0,0,268.2.012l-.844,5.369A57.225,57.225,0,0,1,314.9,52.928l5.373-.848A62.429,62.429,0,0,0,302.7,17.589Z" transform="translate(-209.526 -0.012)" fill="#fff"/>
      <path id="パス_969" data-name="パス 969" d="M255.855,78.054l-.844,5.375a40.053,40.053,0,0,1,33.329,33.329l5.371-.847a45.492,45.492,0,0,0-37.856-37.857Z" transform="translate(-199.849 -61.173)" fill="#fff"/>
    </g>
  </g>
</svg>
