<svg xmlns="http://www.w3.org/2000/svg" width="1100" height="535" viewBox="0 0 1100 535">
  <g id="グループ_2877" data-name="グループ 2877" transform="translate(-410 -6210)">
    <rect id="長方形_3500" data-name="長方形 3500" width="1100" height="535" transform="translate(410 6210)" fill="#fff"/>
    <g id="グループ_2871" data-name="グループ 2871" transform="translate(0 -3)">
      <g id="グループ_2870" data-name="グループ 2870">
        <text id="ご利用月数で" transform="translate(859 6697)" font-size="20" font-family="YuGothicUI-Semibold, Yu Gothic UI" font-weight="600"><tspan x="0" y="0">ご利用月数で</tspan></text>
        <text id="平準化" transform="translate(972 6697)" fill="#bc4328" font-size="26" font-family="YuGothicUI-Bold, Yu Gothic UI" font-weight="700"><tspan x="0" y="0">平準化</tspan></text>
        <text id="してお支払い頂きます_" data-name="してお支払い頂きます。" transform="translate(1054 6697)" font-size="20" font-family="YuGothicUI-Semibold, Yu Gothic UI" font-weight="600"><tspan x="0" y="0">してお支払い頂きます。</tspan></text>
      </g>
      <path id="パス_818" data-name="パス 818" d="M-7802.965,1345.109H-8540V1330h2v13.109h733.035V1330h2Z" transform="translate(9219.5 5315)"/>
      <g id="グループ_2869" data-name="グループ 2869">
        <text id="Wave_PC_Mate" data-name="Wave PC Mate" transform="translate(445 6541)" fill="#bc4328" font-size="20" font-family="Roboto-Medium, Roboto" font-weight="500"><tspan x="0" y="0">Wave PC Mate</tspan></text>
        <g id="グループ_2866" data-name="グループ 2866">
          <rect id="長方形_3549" data-name="長方形 3549" width="225" height="63" transform="translate(688 6465)" fill="#fff"/>
          <path id="長方形_3549_-_アウトライン" data-name="長方形 3549 - アウトライン" d="M0,0H3V1H0ZM6,0H9V1H6Zm6,0h3V1H12Zm6,0h3V1H18Zm6,0h3V1H24Zm6,0h3V1H30Zm6,0h3V1H36Zm6,0h3V1H42Zm6,0h3V1H48Zm6,0h3V1H54Zm6,0h3V1H60Zm6,0h3V1H66Zm6,0h3V1H72Zm6,0h3V1H78Zm6,0h3V1H84Zm6,0h3V1H90Zm6,0h3V1H96Zm6,0h3V1h-3Zm6,0h3V1h-3Zm6,0h3V1h-3Zm6,0h3V1h-3Zm6,0h3V1h-3Zm6,0h3V1h-3Zm6,0h3V1h-3Zm6,0h3V1h-3Zm6,0h3V1h-3Zm6,0h3V1h-3Zm6,0h3V1h-3Zm6,0h3V1h-3Zm6,0h3V1h-3Zm6,0h3V1h-3Zm6,0h3V1h-3Zm6,0h3V1h-3Zm6,0h3V1h-3Zm6,0h3V1h-3Zm6,0h3V1h-3Zm6,0h3V1h-3Zm6,0h3V1h-3Zm2,3h1V6h-1Zm0,6h1v3h-1Zm0,6h1v3h-1Zm0,6h1v3h-1Zm0,6h1v3h-1Zm0,6h1v3h-1Zm0,6h1v3h-1Zm0,6h1v3h-1Zm0,6h1v3h-1Zm0,6h1v3h-1Zm-2,5h3v1h-3Zm-6,0h3v1h-3Zm-6,0h3v1h-3Zm-6,0h3v1h-3Zm-6,0h3v1h-3Zm-6,0h3v1h-3Zm-6,0h3v1h-3Zm-6,0h3v1h-3Zm-6,0h3v1h-3Zm-6,0h3v1h-3Zm-6,0h3v1h-3Zm-6,0h3v1h-3Zm-6,0h3v1h-3Zm-6,0h3v1h-3Zm-6,0h3v1h-3Zm-6,0h3v1h-3Zm-6,0h3v1h-3Zm-6,0h3v1h-3Zm-6,0h3v1h-3Zm-6,0h3v1h-3Zm-6,0h3v1h-3Zm-6,0h3v1H96Zm-6,0h3v1H90Zm-6,0h3v1H84Zm-6,0h3v1H78Zm-6,0h3v1H72Zm-6,0h3v1H66Zm-6,0h3v1H60Zm-6,0h3v1H54Zm-6,0h3v1H48Zm-6,0h3v1H42Zm-6,0h3v1H36Zm-6,0h3v1H30Zm-6,0h3v1H24Zm-6,0h3v1H18Zm-6,0h3v1H12ZM6,62H9v1H6ZM0,62H3v1H0Zm0-5H1v3H0Zm0-6H1v3H0Zm0-6H1v3H0Zm0-6H1v3H0Zm0-6H1v3H0Zm0-6H1v3H0Zm0-6H1v3H0Zm0-6H1v3H0ZM0,9H1v3H0ZM0,3H1V6H0Z" transform="translate(688 6465)" fill="#bc4328"/>
          <g id="グループ_2865" data-name="グループ 2865">
            <rect id="長方形_3548" data-name="長方形 3548" width="225" height="25" transform="translate(688 6578)" fill="#00b176" opacity="0.85"/>
            <rect id="長方形_3773" data-name="長方形 3773" width="225" height="25" transform="translate(688 6553)" fill="#8246af" opacity="0.85"/>
            <rect id="長方形_3774" data-name="長方形 3774" width="225" height="25" transform="translate(688 6528)" fill="#d76b00" opacity="0.85"/>
          </g>
          <text id="運用管理サポート" transform="translate(755 6596)" fill="#fff" font-size="13" font-family="YuGothicUI-Regular, Yu Gothic UI"><tspan x="0" y="0">運用管理サポート</tspan></text>
          <text id="セットアップデリバリ" transform="translate(753 6571)" fill="#fff" font-size="13" font-family="YuGothicUI-Regular, Yu Gothic UI"><tspan x="0" y="0">セットアップデリバリ</tspan></text>
          <text id="ハードウェア_ソフトウェアの提供" data-name="ハードウェア・ソフトウェアの提供" transform="translate(721 6546)" fill="#fff" font-size="13" font-family="YuGothicUI-Regular, Yu Gothic UI"><tspan x="0" y="0">ハードウェア・ソフトウェアの提供</tspan></text>
          <rect id="長方形_3548-2" data-name="長方形 3548" width="225" height="25" transform="translate(939 6578)" fill="#00b176" opacity="0.85"/>
          <rect id="長方形_3773-2" data-name="長方形 3773" width="225" height="25" transform="translate(939 6553)" fill="#8246af" opacity="0.85"/>
          <rect id="長方形_3774-2" data-name="長方形 3774" width="225" height="25" transform="translate(939 6528)" fill="#d76b00" opacity="0.85"/>
          <text id="運用管理サポート-2" data-name="運用管理サポート" transform="translate(1006 6596)" fill="#fff" font-size="13" font-family="YuGothicUI-Regular, Yu Gothic UI"><tspan x="0" y="0">運用管理サポート</tspan></text>
          <text id="セットアップデリバリ-2" data-name="セットアップデリバリ" transform="translate(1004 6571)" fill="#fff" font-size="13" font-family="YuGothicUI-Regular, Yu Gothic UI"><tspan x="0" y="0">セットアップデリバリ</tspan></text>
          <text id="ハードウェア_ソフトウェアの提供-2" data-name="ハードウェア・ソフトウェアの提供" transform="translate(972 6546)" fill="#fff" font-size="13" font-family="YuGothicUI-Regular, Yu Gothic UI"><tspan x="0" y="0">ハードウェア・ソフトウェアの提供</tspan></text>
          <rect id="長方形_3548-3" data-name="長方形 3548" width="225" height="25" transform="translate(1190 6578)" fill="#00b176" opacity="0.85"/>
          <rect id="長方形_3773-3" data-name="長方形 3773" width="225" height="25" transform="translate(1190 6553)" fill="#8246af" opacity="0.85"/>
          <rect id="長方形_3774-3" data-name="長方形 3774" width="225" height="25" transform="translate(1190 6528)" fill="#d76b00" opacity="0.85"/>
          <text id="運用管理サポート-3" data-name="運用管理サポート" transform="translate(1257 6596)" fill="#fff" font-size="13" font-family="YuGothicUI-Regular, Yu Gothic UI"><tspan x="0" y="0">運用管理サポート</tspan></text>
          <text id="セットアップデリバリ-3" data-name="セットアップデリバリ" transform="translate(1255 6571)" fill="#fff" font-size="13" font-family="YuGothicUI-Regular, Yu Gothic UI"><tspan x="0" y="0">セットアップデリバリ</tspan></text>
          <text id="ハードウェア_ソフトウェアの提供-3" data-name="ハードウェア・ソフトウェアの提供" transform="translate(1223 6546)" fill="#fff" font-size="13" font-family="YuGothicUI-Regular, Yu Gothic UI"><tspan x="0" y="0">ハードウェア・ソフトウェアの提供</tspan></text>
          <text id="なし" transform="translate(790 6502)" fill="#bc4328" font-size="14" font-family="YuGothicUI-Semibold, Yu Gothic UI" font-weight="600"><tspan x="0" y="0">なし</tspan></text>
          <text id="_1ヶ月目" data-name="1ヶ月目" transform="translate(775 6628)" font-size="16" font-family="Roboto-Medium, Roboto" font-weight="500"><tspan x="0" y="0">1</tspan><tspan y="0" font-family="YuGothicUI-Semibold, Yu Gothic UI" font-weight="600">ヶ月目</tspan></text>
          <text id="_2ヶ月目" data-name="2ヶ月目" transform="translate(1026 6628)" font-size="16" font-family="Roboto-Medium, Roboto" font-weight="500"><tspan x="0" y="0">2</tspan><tspan y="0" font-family="YuGothicUI-Semibold, Yu Gothic UI" font-weight="600">ヶ月目</tspan></text>
          <text id="_3ヶ月目" data-name="3ヶ月目" transform="translate(1277 6628)" font-size="16" font-family="Roboto-Medium, Roboto" font-weight="500"><tspan x="0" y="0">3</tspan><tspan y="0" font-family="YuGothicUI-Semibold, Yu Gothic UI" font-weight="600">ヶ月目</tspan></text>
          <path id="パス_983" data-name="パス 983" d="M-11929.576,1159.065a39.234,39.234,0,0,1-5.924-8.231,47.161,47.161,0,0,1-4.057-9.654,45.506,45.506,0,0,1-1.845-12.823,44.377,44.377,0,0,1,1.846-12.717,44.266,44.266,0,0,1,4.06-9.42,36.005,36.005,0,0,1,5.932-7.89l.68.733a35.853,35.853,0,0,0-5.765,7.69,43.379,43.379,0,0,0-5.752,21.6,45.38,45.38,0,0,0,5.775,21.99,38.873,38.873,0,0,0,5.753,8.006Z" transform="translate(12612 5367.303)"/>
          <path id="パス_985" data-name="パス 985" d="M-11929.606,1170.838a47.131,47.131,0,0,1-5.91-9.827,62.819,62.819,0,0,1-4.046-11.522,64.268,64.268,0,0,1-1.839-15.3,62.649,62.649,0,0,1,1.84-15.169,58.754,58.754,0,0,1,4.048-11.242,42.892,42.892,0,0,1,5.917-9.419l.744.669a42.8,42.8,0,0,0-5.778,9.222,60.021,60.021,0,0,0-5.771,25.939,62.842,62.842,0,0,0,5.792,26.4,46.951,46.951,0,0,0,5.767,9.6Z" transform="translate(12612 5430.485)"/>
          <rect id="長方形_3778" data-name="長方形 3778" width="88" height="25" transform="translate(594 6484)" fill="#fff"/>
          <rect id="長方形_3780" data-name="長方形 3780" width="88" height="25" transform="translate(594 6553)" fill="#fff"/>
          <text id="初期費用" transform="translate(622 6501)" font-size="14" font-family="YuGothicUI-Semibold, Yu Gothic UI" font-weight="600"><tspan x="0" y="0">初期費用</tspan></text>
          <text id="ランニングコスト" transform="translate(594 6571)" font-size="14" font-family="YuGothicUI-Semibold, Yu Gothic UI" font-weight="600"><tspan x="0" y="0">ランニングコスト</tspan></text>
          <g id="グループ_2570" data-name="グループ 2570" transform="translate(0 127)">
            <path id="線_358" data-name="線 358" d="M852,.5H0v-1H852Z" transform="translate(624 6476)" fill="#555"/>
            <g id="グループ_2569" data-name="グループ 2569" transform="translate(0 214)">
              <rect id="長方形_3552" data-name="長方形 3552" width="4" height="5" transform="translate(1469 6259)" fill="#fff"/>
              <rect id="長方形_3553" data-name="長方形 3553" width="4" height="5" transform="translate(1462 6259)" fill="#fff"/>
              <rect id="長方形_3554" data-name="長方形 3554" width="4" height="5" transform="translate(1455 6259)" fill="#fff"/>
            </g>
          </g>
        </g>
      </g>
      <g id="グループ_2868" data-name="グループ 2868">
        <text id="購買型" transform="translate(515 6351)" fill="#031524" font-size="20" font-family="YuGothicUI-Semibold, Yu Gothic UI" font-weight="600"><tspan x="0" y="0">購買型</tspan></text>
        <g id="グループ_2867" data-name="グループ 2867">
          <rect id="長方形_3550" data-name="長方形 3550" width="225" height="41" transform="translate(939 6374)" fill="#00b176" opacity="0.85"/>
          <rect id="長方形_3550-2" data-name="長方形 3550" width="225" height="41" transform="translate(1190 6374)" fill="#00b176" opacity="0.85"/>
          <g id="グループ_2864" data-name="グループ 2864">
            <rect id="長方形_3551" data-name="長方形 3551" width="225" height="52" transform="translate(688 6270)" fill="#d76b00" opacity="0.85"/>
            <rect id="長方形_3776" data-name="長方形 3776" width="225" height="52" transform="translate(688 6322)" fill="#8246af" opacity="0.85"/>
          </g>
          <rect id="長方形_3550-3" data-name="長方形 3550" width="225" height="41" transform="translate(688 6374)" fill="#00b176" opacity="0.85"/>
          <text id="運用管理" transform="translate(773 6400)" fill="#fff" font-size="14" font-family="YuGothicUI-Regular, Yu Gothic UI"><tspan x="0" y="0">運用管理</tspan></text>
          <text id="運用管理-2" data-name="運用管理" transform="translate(1024 6400)" fill="#fff" font-size="14" font-family="YuGothicUI-Regular, Yu Gothic UI"><tspan x="0" y="0">運用管理</tspan></text>
          <text id="運用管理-3" data-name="運用管理" transform="translate(1275 6400)" fill="#fff" font-size="14" font-family="YuGothicUI-Regular, Yu Gothic UI"><tspan x="0" y="0">運用管理</tspan></text>
          <text id="_1ヶ月目-2" data-name="1ヶ月目" transform="translate(775 6440)" font-size="16" font-family="Roboto-Medium, Roboto" font-weight="500"><tspan x="0" y="0">1</tspan><tspan y="0" font-family="YuGothicUI-Semibold, Yu Gothic UI" font-weight="600">ヶ月目</tspan></text>
          <text id="セットアップ作業" transform="translate(756 6354)" fill="#fff" font-size="14" font-family="YuGothicUI-Regular, Yu Gothic UI"><tspan x="0" y="0">セットアップ作業</tspan></text>
          <text id="ハードウェア_ソフトウェア購入" data-name="ハードウェア/ソフトウェア購入" transform="translate(725 6302)" fill="#fff" font-size="14" font-family="YuGothicUI-Regular, Yu Gothic UI"><tspan x="0" y="0">ハードウェア</tspan><tspan y="0" font-family="Roboto-Regular, Roboto">/</tspan><tspan y="0">ソフトウェア購入</tspan></text>
          <text id="_2ヶ月目-2" data-name="2ヶ月目" transform="translate(1026 6440)" font-size="16" font-family="Roboto-Medium, Roboto" font-weight="500"><tspan x="0" y="0">2</tspan><tspan y="0" font-family="YuGothicUI-Semibold, Yu Gothic UI" font-weight="600">ヶ月目</tspan></text>
          <text id="_3ヶ月目-2" data-name="3ヶ月目" transform="translate(1280 6440)" font-size="16" font-family="Roboto-Medium, Roboto" font-weight="500"><tspan x="0" y="0">3</tspan><tspan y="0" font-family="YuGothicUI-Semibold, Yu Gothic UI" font-weight="600">ヶ月目</tspan></text>
          <path id="パス_982" data-name="パス 982" d="M-11929.654,1201.419a77.111,77.111,0,0,1-5.884-13.962,116.657,116.657,0,0,1-4.031-16.379,128.578,128.578,0,0,1-1.832-21.738,125.372,125.372,0,0,1,1.832-21.555,108.727,108.727,0,0,1,4.032-15.976,67.685,67.685,0,0,1,5.89-13.379l.846.533a68.156,68.156,0,0,0-5.8,13.2,117.082,117.082,0,0,0-5.8,37.173,122.814,122.814,0,0,0,5.813,37.807,76.221,76.221,0,0,0,5.793,13.762Z" transform="translate(12612 5172)"/>
          <path id="パス_984" data-name="パス 984" d="M-11929.482,1135.7a29.765,29.765,0,0,1-5.949-5.039,24.821,24.821,0,0,1-4.1-5.942,18.212,18.212,0,0,1-1.874-7.947,17.783,17.783,0,0,1,1.876-7.884,23.62,23.62,0,0,1,4.1-5.8,28.262,28.262,0,0,1,5.955-4.829l.492.87a27.836,27.836,0,0,0-5.741,4.667c-2.592,2.746-5.682,7.226-5.682,12.976s3.1,10.367,5.707,13.214a29.271,29.271,0,0,0,5.728,4.857Z" transform="translate(12612 5278.028)"/>
          <rect id="長方形_3777" data-name="長方形 3777" width="88" height="25" transform="translate(594 6310)" fill="#fff"/>
          <rect id="長方形_3779" data-name="長方形 3779" width="88" height="25" transform="translate(594 6382)" fill="#fff"/>
          <text id="初期費用-2" data-name="初期費用" transform="translate(622 6328)" font-size="14" font-family="YuGothicUI-Semibold, Yu Gothic UI" font-weight="600"><tspan x="0" y="0">初期費用</tspan></text>
          <text id="ランニングコスト-2" data-name="ランニングコスト" transform="translate(594 6400)" font-size="14" font-family="YuGothicUI-Semibold, Yu Gothic UI" font-weight="600"><tspan x="0" y="0">ランニングコスト</tspan></text>
          <path id="長方形_3775" data-name="長方形 3775" d="M0-1.5H3v3H1.5V4h-3V1H0Zm6,0H9v3H6Zm6,0h3v3H12Zm6,0h3v3H18Zm6,0h3v3H24Zm6,0h3v3H30Zm6,0h3v3H36Zm6,0h3v3H42Zm6,0h3v3H48Zm6,0h3v3H54Zm6,0h3v3H60Zm6,0h3v3H66Zm6,0h3v3H72Zm6,0h3v3H78Zm6,0h3v3H84Zm6,0h3v3H90Zm6,0h3v3H96Zm6,0h3v3h-3Zm6,0h3v3h-3Zm6,0h3v3h-3Zm6,0h3v3h-3Zm6,0h3v3h-3Zm6,0h3v3h-3Zm6,0h3v3h-3Zm6,0h3v3h-3Zm6,0h3v3h-3Zm6,0h3v3h-3Zm6,0h3v3h-3Zm6,0h3v3h-3Zm6,0h3v3h-3Zm6,0h3v3h-3Zm6,0h3v3h-3Zm6,0h3v3h-3Zm6,0h3v3h-3Zm6,0h3v3h-3Zm6,0h3v3h-3Zm6,0h3v3h-3Zm6,0h3v3h-3ZM223.5,3h3V6h-3ZM-1.5,7h3v3h-3Zm225,2h3v3h-3Zm-225,4h3v3h-3Zm225,2h3v3h-3Zm-225,4h3v3h-3Zm225,2h3v3h-3Zm-225,4h3v3h-3Zm225,2h3v3h-3Zm-225,4h3v3h-3Zm225,2h3v3h-3Zm-225,4h3v3h-3Zm225,2h3v3h-3Zm-225,4h3v3h-3Zm225,2h3v3h-3Zm-225,4h3v3h-3Zm225,2h3v3h-3Zm-225,4h3v3h-3Zm225,2h3v3h-3Zm-225,4h3v3h-3Zm225,2h3v3h-3Zm-225,4h3v3h-3Zm225,2h3v3h-3Zm-225,4h3v3h-3Zm225,2h3v3h-3Zm-225,4h3v3h-3Zm225,2h3v3h-3Zm-225,4h3v3h-3Zm225,2h3v3h-3Zm-225,4h3v3h-3Zm225,2h3v3h-3Zm-225,4h3v3h-3Zm225,2h3v3h-3ZM0,102.5H2v3H-1.5V103H0Zm5,0H8v3H5Zm6,0h3v3H11Zm6,0h3v3H17Zm6,0h3v3H23Zm6,0h3v3H29Zm6,0h3v3H35Zm6,0h3v3H41Zm6,0h3v3H47Zm6,0h3v3H53Zm6,0h3v3H59Zm6,0h3v3H65Zm6,0h3v3H71Zm6,0h3v3H77Zm6,0h3v3H83Zm6,0h3v3H89Zm6,0h3v3H95Zm6,0h3v3h-3Zm6,0h3v3h-3Zm6,0h3v3h-3Zm6,0h3v3h-3Zm6,0h3v3h-3Zm6,0h3v3h-3Zm6,0h3v3h-3Zm6,0h3v3h-3Zm6,0h3v3h-3Zm6,0h3v3h-3Zm6,0h3v3h-3Zm6,0h3v3h-3Zm6,0h3v3h-3Zm6,0h3v3h-3Zm6,0h3v3h-3Zm6,0h3v3h-3Zm6,0h3v3h-3Zm6,0h3v3h-3Zm6,0h3v3h-3Zm6,0h3v3h-3Zm6,0h3v3h-3Z" transform="translate(688 6270)" fill="#bc4328"/>
          <g id="グループ_2571" data-name="グループ 2571" transform="translate(0 154)">
            <path id="線_359" data-name="線 359" d="M852,.5H0v-1H852Z" transform="translate(624 6261)" fill="#555"/>
            <g id="グループ_2568" data-name="グループ 2568" transform="translate(0 -1)">
              <rect id="長方形_3552-2" data-name="長方形 3552" width="4" height="5" transform="translate(1469 6259)" fill="#fff"/>
              <rect id="長方形_3553-2" data-name="長方形 3553" width="4" height="5" transform="translate(1462 6259)" fill="#fff"/>
              <rect id="長方形_3554-2" data-name="長方形 3554" width="4" height="5" transform="translate(1455 6259)" fill="#fff"/>
            </g>
          </g>
        </g>
      </g>
    </g>
  </g>
</svg>
