<svg xmlns="http://www.w3.org/2000/svg" width="181.399" height="120.623" viewBox="0 0 181.399 120.623">
  <g id="グループ_2888" data-name="グループ 2888" transform="translate(-611.549 -434.024)">
    <g id="グループ_2887" data-name="グループ 2887" transform="translate(-14 -10)">
      <g id="シンプルな時計アイコン" transform="translate(704.863 489.868)">
        <path id="パス_670" data-name="パス 670" d="M152.811,135.861a1.763,1.763,0,0,0,.2,2.472l8.738,6.741a1.283,1.283,0,0,0,.122.07c.019.01.036.022.055.03a2,2,0,0,0,2.422-.536c.019-.021.04-.035.058-.055l10.71-12.67A1.454,1.454,0,1,0,172.969,130l-10.01,10.694-7.729-5.383A1.761,1.761,0,0,0,152.811,135.861Z" transform="translate(-136.667 -116.028)" fill="#fff"/>
        <path id="パス_671" data-name="パス 671" d="M5.469,244.016a12.92,12.92,0,0,1,.058-1.379H.042c-.033.454-.042.917-.042,1.379s.009.926.042,1.38H5.527A12.9,12.9,0,0,1,5.469,244.016Z" transform="translate(0 -217.58)" fill="#fff"/>
        <path id="パス_672" data-name="パス 672" d="M463.463,242.637H457.92v2.76h5.543c.034-.454.041-.917.041-1.38S463.5,243.091,463.463,242.637Z" transform="translate(-410.632 -217.58)" fill="#fff"/>
        <path id="パス_673" data-name="パス 673" d="M121.4,34.7c.518-.327,1.047-.637,1.585-.911.074-.037.137-.073.21-.1l-2.734-4.75a22.123,22.123,0,0,0-2,1.149l2.735,4.75C121.267,34.793,121.339,34.748,121.4,34.7Z" transform="translate(-106.233 -25.951)" fill="#fff"/>
        <path id="パス_674" data-name="パス 674" d="M28.972,120.455l4.748,2.734,1.149-2-4.75-2.736A21.171,21.171,0,0,0,28.972,120.455Z" transform="translate(-25.98 -106.224)" fill="#fff"/>
        <path id="パス_675" data-name="パス 675" d="M426.9,347.851c-.284.537-.584,1.066-.921,1.576-.045.065-.093.137-.137.2l4.75,2.733c.42-.646.8-1.3,1.157-1.985l-4.739-2.743C426.976,347.706,426.939,347.779,426.9,347.851Z" transform="translate(-381.869 -311.735)" fill="#fff"/>
        <path id="パス_676" data-name="パス 676" d="M33.82,347.844l-.109-.209-4.739,2.734a19.4,19.4,0,0,0,1.147,1.995l4.75-2.733c-.045-.064-.092-.136-.137-.2A17.553,17.553,0,0,1,33.82,347.844Z" transform="translate(-25.98 -311.736)" fill="#fff"/>
        <path id="パス_677" data-name="パス 677" d="M431.753,120.456a21.705,21.705,0,0,0-1.157-2l-4.75,2.735,1.158,2Z" transform="translate(-381.87 -106.225)" fill="#fff"/>
        <path id="パス_678" data-name="パス 678" d="M121.4,425.964c-.064-.045-.137-.091-.2-.137l-2.735,4.75a22.162,22.162,0,0,0,2,1.159l2.733-4.751a2.245,2.245,0,0,1-.21-.1A17.445,17.445,0,0,1,121.4,425.964Z" transform="translate(-106.232 -381.853)" fill="#fff"/>
        <path id="パス_679" data-name="パス 679" d="M347.64,33.68l2,1.159,2.735-4.75a22.033,22.033,0,0,0-1.987-1.149Z" transform="translate(-311.74 -25.951)" fill="#fff"/>
        <path id="パス_680" data-name="パス 680" d="M242.637,457.977v5.478c.456.041.918.05,1.38.05s.926-.008,1.38-.05V457.92h-2.76Z" transform="translate(-217.58 -410.632)" fill="#fff"/>
        <path id="パス_681" data-name="パス 681" d="M245.4,5.527V.05c-.455-.041-.918-.05-1.38-.05s-.924.008-1.38.05V5.585h2.76Z" transform="translate(-217.58 0)" fill="#fff"/>
        <path id="パス_682" data-name="パス 682" d="M347.64,427l2.744,4.741c.683-.357,1.34-.74,1.987-1.159l-2.735-4.75Z" transform="translate(-311.74 -381.853)" fill="#fff"/>
      </g>
      <path id="パス_744" data-name="パス 744" d="M0,0H154.378L152.7,9.931H1.678Z" transform="translate(652.57 554.715)" fill="#fff"/>
      <path id="長方形_3497" data-name="長方形 3497" d="M7,7V87.646H109V7H7M5,0H111a5,5,0,0,1,5,5V89.646a5,5,0,0,1-5,5H5a5,5,0,0,1-5-5V5A5,5,0,0,1,5,0Z" transform="translate(672 470)" fill="#fff"/>
      <rect id="長方形_3498" data-name="長方形 3498" width="23" height="3" transform="translate(718 558)" fill="#0f2437"/>
    </g>
    <g id="レイヤー_2_00000066502127103154531750000000459312246520423307_" transform="translate(611.549 434.024)">
      <path id="パス_754" data-name="パス 754" d="M16.327,26a3.613,3.613,0,0,1-1.872-.52A3.573,3.573,0,0,1,12.8,23.467a3.234,3.234,0,0,1,.248-2.392,5.483,5.483,0,0,1,3.316-2.616,7.393,7.393,0,0,1,3.442-.219,6.035,6.035,0,0,0-1.143-3.778,3.885,3.885,0,0,0-1.22-1.113,13.335,13.335,0,0,1-3.471,4.274,10.614,10.614,0,0,1-5.236,2.484,3.693,3.693,0,0,1-3.715-1.527,3.9,3.9,0,0,1-.345-3.758,6.634,6.634,0,0,1,2.48-2.781A13.168,13.168,0,0,1,14.11,9.917a11.068,11.068,0,0,1,1.629.1,5.666,5.666,0,0,0-1.648-4.74c-2.557-2.8-5.173-2.82-6.919-2.348-2.421.656-4.249,2.582-4.551,3.992A1.338,1.338,0,0,1,.005,6.353,7.335,7.335,0,0,1,2.242,2.712,10.007,10.007,0,0,1,6.472.349a8.821,8.821,0,0,1,4.794.015,10.388,10.388,0,0,1,4.8,3.1,8.767,8.767,0,0,1,2.295,4.473,8.108,8.108,0,0,1-.029,2.844,6.683,6.683,0,0,1,2.528,2.144,8.7,8.7,0,0,1,1.566,6.2h0a7.747,7.747,0,0,1,2.63,1.964,7.022,7.022,0,0,1,1.318,2.655,1.337,1.337,0,1,1-2.567.749,3.91,3.91,0,0,0-2.13-2.742A8.776,8.776,0,0,1,20.124,24.1a6.043,6.043,0,0,1-2.577,1.707A4.166,4.166,0,0,1,16.327,26Zm2.207-5.2a4.435,4.435,0,0,0-1.366.209,2.886,2.886,0,0,0-1.731,1.259c-.107.209-.263.525.394.924.7.423,1.7-.224,2.329-.9a6.034,6.034,0,0,0,.972-1.444A4.227,4.227,0,0,0,18.534,20.8Zm-4.283-8.222h-.107A10.517,10.517,0,0,0,8.66,14.244c-.846.574-2.154,1.707-1.4,2.869.185.282.583.394,1.181.331,2-.219,4.881-2.246,6.369-4.842C14.616,12.581,14.426,12.577,14.251,12.577Z" transform="translate(0.025 -0.024)" fill="#fff"/>
    </g>
  </g>
</svg>
