<svg xmlns="http://www.w3.org/2000/svg" width="1100" height="634" viewBox="0 0 1100 634">
  <g id="グループ_2951" data-name="グループ 2951" transform="translate(-410 -5201)">
    <g id="グループ_2880" data-name="グループ 2880" transform="translate(0 46)">
      <g id="グループ_2879" data-name="グループ 2879">
        <rect id="長方形_3500" data-name="長方形 3500" width="1100" height="634" transform="translate(410 5155)" fill="#fff"/>
        <g id="グループ_2510" data-name="グループ 2510" transform="translate(-31.723 2763.934)">
          <text id="_70" data-name="70" transform="translate(1066.723 2678.066)" fill="#bc4328" font-size="140" font-family="Roboto-Bold, Roboto" font-weight="700" letter-spacing="-0.04em"><tspan x="0" y="0">70</tspan></text>
          <text id="_" data-name="％" transform="translate(1219.223 2671.566)" fill="#bc4328" font-size="65" font-family="YuGothicUI-Bold, Yu Gothic UI" font-weight="700"><tspan x="0" y="0">％</tspan></text>
          <path id="_-_アウトライン" data-name="％ - アウトライン" d="M51.335-52.644l4.142,3.435L13.432,3.2,9.184-.086Zm1.351,3.719-1.063-.881L12.017-.422,13.1.417Zm-34.627-2.38a11.046,11.046,0,0,1,9.13,4.091c1.933,2.411,2.915,5.675,2.915,9.7,0,4.652-1.26,8.294-3.746,10.825a11.212,11.212,0,0,1-8.3,3.251,10.9,10.9,0,0,1-9.073-4.227l0,0C7.1-30.123,6.141-33.414,6.141-37.451c0-4.634,1.252-8.236,3.721-10.7A11.136,11.136,0,0,1,18.059-51.305Zm0,25.867a9.164,9.164,0,0,0,6.875-2.655c2.1-2.141,3.17-5.312,3.17-9.421,0-3.558-.834-6.4-2.478-8.452a9.027,9.027,0,0,0-7.567-3.339,9.091,9.091,0,0,0-6.783,2.564c-2.08,2.08-3.135,5.206-3.135,9.29,0,3.586.816,6.466,2.426,8.562A8.877,8.877,0,0,0,18.059-25.438Zm0-21.392a4.842,4.842,0,0,1,4.418,2.6,13.914,13.914,0,0,1,1.311,6.776,14.561,14.561,0,0,1-1.306,6.933,4.827,4.827,0,0,1-4.423,2.668h0a4.767,4.767,0,0,1-4.378-2.673,14.72,14.72,0,0,1-1.287-6.928,14.064,14.064,0,0,1,1.293-6.771A4.781,4.781,0,0,1,18.059-46.83Zm0,16.98a2.824,2.824,0,0,0,2.67-1.632,12.939,12.939,0,0,0,1.059-5.969c0-7.379-2.807-7.379-3.729-7.379-.907,0-3.666,0-3.666,7.379a13.1,13.1,0,0,0,1.045,5.974A2.769,2.769,0,0,0,18.059-29.85Zm28.787,4.031a10.942,10.942,0,0,1,9.035,4.091c1.913,2.415,2.883,5.678,2.883,9.7,0,4.65-1.249,8.291-3.711,10.822l-.006.006a11.091,11.091,0,0,1-8.2,3.248,10.942,10.942,0,0,1-9.172-4.231C35.768-4.657,34.8-7.97,34.8-12.029c0-4.615,1.253-8.2,3.724-10.644A11.37,11.37,0,0,1,46.846-25.819ZM53.622-2.6c2.085-2.144,3.142-5.315,3.142-9.424,0-3.56-.824-6.4-2.45-8.456a8.921,8.921,0,0,0-7.468-3.334,9.322,9.322,0,0,0-6.914,2.567c-2.077,2.058-3.131,5.161-3.131,9.223,0,3.607.827,6.509,2.458,8.625A8.925,8.925,0,0,0,46.846.047,9.044,9.044,0,0,0,53.622-2.6Zm-6.776-18.8a4.777,4.777,0,0,1,4.374,2.627,14.25,14.25,0,0,1,1.291,6.815,14.721,14.721,0,0,1-1.287,6.928,4.767,4.767,0,0,1-4.378,2.673,4.826,4.826,0,0,1-4.423-2.668,14.561,14.561,0,0,1-1.306-6.933,14.1,14.1,0,0,1,1.31-6.82A4.837,4.837,0,0,1,46.846-21.408Zm0,17.043a2.769,2.769,0,0,0,2.62-1.627,13.1,13.1,0,0,0,1.045-5.974c0-7.442-2.759-7.442-3.666-7.442-.922,0-3.729,0-3.729,7.442A12.939,12.939,0,0,0,44.175-6,2.824,2.824,0,0,0,46.846-4.364Z" transform="translate(1219.223 2671.566)" fill="#bc4328"/>
          <text id="の経費削減効果" transform="translate(1067.723 2724.066)" fill="#bc4328" font-size="28" font-family="YuGothicUI-Bold, Yu Gothic UI" font-weight="700"><tspan x="0" y="0">の</tspan><tspan y="0" font-size="30">経費削減効果</tspan></text>
        </g>
        <path id="パス_748" data-name="パス 748" d="M483.419.5h-3v-1h3Zm-6,0h-3v-1h3Zm-6,0h-3v-1h3Zm-6,0h-3v-1h3Zm-6,0h-3v-1h3Zm-6,0h-3v-1h3Zm-6,0h-3v-1h3Zm-6,0h-3v-1h3Zm-6,0h-3v-1h3Zm-6,0h-3v-1h3Zm-6,0h-3v-1h3Zm-6,0h-3v-1h3Zm-6,0h-3v-1h3Zm-6,0h-3v-1h3Zm-6,0h-3v-1h3Zm-6,0h-3v-1h3Zm-6,0h-3v-1h3Zm-6,0h-3v-1h3Zm-6,0h-3v-1h3Zm-6,0h-3v-1h3Zm-6,0h-3v-1h3Zm-6,0h-3v-1h3Zm-6,0h-3v-1h3Zm-6,0h-3v-1h3Zm-6,0h-3v-1h3Zm-6,0h-3v-1h3Zm-6,0h-3v-1h3Zm-6,0h-3v-1h3Zm-6,0h-3v-1h3Zm-6,0h-3v-1h3Zm-6,0h-3v-1h3Zm-6,0h-3v-1h3Zm-6,0h-3v-1h3Zm-6,0h-3v-1h3Zm-6,0h-3v-1h3Zm-6,0h-3v-1h3Zm-6,0h-3v-1h3Zm-6,0h-3v-1h3Zm-6,0h-3v-1h3Zm-6,0h-3v-1h3Zm-6,0h-3v-1h3Zm-6,0h-3v-1h3Zm-6,0h-3v-1h3Zm-6,0h-3v-1h3Zm-6,0h-3v-1h3Zm-6,0h-3v-1h3Zm-6,0h-3v-1h3Zm-6,0h-3v-1h3Zm-6,0h-3v-1h3Zm-6,0h-3v-1h3Zm-6,0h-3v-1h3Zm-6,0h-3v-1h3Zm-6,0h-3v-1h3Zm-6,0h-3v-1h3Zm-6,0h-3v-1h3Zm-6,0h-3v-1h3Zm-6,0h-3v-1h3Zm-6,0h-3v-1h3Zm-6,0h-3v-1h3Zm-6,0h-3v-1h3Zm-6,0h-3v-1h3Zm-6,0h-3v-1h3Zm-6,0h-3v-1h3Zm-6,0h-3v-1h3Zm-6,0h-3v-1h3Zm-6,0h-3v-1h3Zm-6,0h-3v-1h3Zm-6,0h-3v-1h3Zm-6,0h-3v-1h3Zm-6,0h-3v-1h3Zm-6,0h-3v-1h3Zm-6,0h-3v-1h3Zm-6,0h-3v-1h3Zm-6,0h-3v-1h3Zm-6,0h-3v-1h3Z" transform="translate(880 5245.5)" fill="#707070"/>
        <path id="パス_749" data-name="パス 749" d="M483.419.5h-3v-1h3Zm-6,0h-3v-1h3Zm-6,0h-3v-1h3Zm-6,0h-3v-1h3Zm-6,0h-3v-1h3Zm-6,0h-3v-1h3Zm-6,0h-3v-1h3Zm-6,0h-3v-1h3Zm-6,0h-3v-1h3Zm-6,0h-3v-1h3Zm-6,0h-3v-1h3Zm-6,0h-3v-1h3Zm-6,0h-3v-1h3Zm-6,0h-3v-1h3Zm-6,0h-3v-1h3Zm-6,0h-3v-1h3Zm-6,0h-3v-1h3Zm-6,0h-3v-1h3Zm-6,0h-3v-1h3Zm-6,0h-3v-1h3Zm-6,0h-3v-1h3Zm-6,0h-3v-1h3Zm-6,0h-3v-1h3Zm-6,0h-3v-1h3Zm-6,0h-3v-1h3Zm-6,0h-3v-1h3Zm-6,0h-3v-1h3Zm-6,0h-3v-1h3Zm-6,0h-3v-1h3Zm-6,0h-3v-1h3Zm-6,0h-3v-1h3Zm-6,0h-3v-1h3Zm-6,0h-3v-1h3Zm-6,0h-3v-1h3Zm-6,0h-3v-1h3Zm-6,0h-3v-1h3Zm-6,0h-3v-1h3Zm-6,0h-3v-1h3Zm-6,0h-3v-1h3Zm-6,0h-3v-1h3Zm-6,0h-3v-1h3Zm-6,0h-3v-1h3Zm-6,0h-3v-1h3Zm-6,0h-3v-1h3Zm-6,0h-3v-1h3Zm-6,0h-3v-1h3Zm-6,0h-3v-1h3Zm-6,0h-3v-1h3Zm-6,0h-3v-1h3Zm-6,0h-3v-1h3Zm-6,0h-3v-1h3Zm-6,0h-3v-1h3Zm-6,0h-3v-1h3Zm-6,0h-3v-1h3Zm-6,0h-3v-1h3Zm-6,0h-3v-1h3Zm-6,0h-3v-1h3Zm-6,0h-3v-1h3Zm-6,0h-3v-1h3Zm-6,0h-3v-1h3Zm-6,0h-3v-1h3Zm-6,0h-3v-1h3Zm-6,0h-3v-1h3Zm-6,0h-3v-1h3Zm-6,0h-3v-1h3Zm-6,0h-3v-1h3Zm-6,0h-3v-1h3Zm-6,0h-3v-1h3Zm-6,0h-3v-1h3Zm-6,0h-3v-1h3Zm-6,0h-3v-1h3Zm-6,0h-3v-1h3Zm-6,0h-3v-1h3Zm-6,0h-3v-1h3Zm-6,0h-3v-1h3Z" transform="translate(880 5589.505)" fill="#707070"/>
        <text id="従来" transform="translate(762 5216)" fill="#031524" font-size="20" font-family="YuGothicUI-Semibold, Yu Gothic UI" font-weight="600"><tspan x="0" y="0">従来</tspan></text>
        <text id="Wave_PC_Mateを導入した場合" data-name="Wave PC Mateを導入した場合" transform="translate(1006 5216)" fill="#bc4328" font-size="20" font-family="Roboto-Medium, Roboto" font-weight="500"><tspan x="0" y="0">Wave PC Mate</tspan><tspan y="0" font-family="YuGothicUI-Semibold, Yu Gothic UI" font-weight="600">を導入した場合</tspan></text>
        <rect id="長方形_3501" data-name="長方形 3501" width="300" height="158" transform="translate(984 5590)" fill="#bc4328"/>
        <rect id="長方形_3468" data-name="長方形 3468" width="300" height="502.44" transform="translate(632 5245.561)" fill="#031524"/>
        <rect id="長方形_3461" data-name="長方形 3461" width="300" height="54.261" transform="translate(632 5380.778)" fill="#4a5863"/>
        <rect id="長方形_3462" data-name="長方形 3462" width="300" height="279.931" transform="translate(632 5435)" fill="#253743"/>
        <rect id="長方形_3463" data-name="長方形 3463" width="300" height="33.031" transform="translate(632 5715)" fill="#031524"/>
        <text id="PCの購入_導入費" data-name="PCの購入・導入費" transform="translate(606 5318)" fill="#707a82" font-size="12" font-family="Roboto-Medium, Roboto" font-weight="500"><tspan x="-91.535" y="0">PC</tspan><tspan y="0" font-family="YuGothicUI-Semibold, Yu Gothic UI" font-weight="600">の購入・導入費</tspan></text>
        <text id="ヘルプデスクの費用" transform="translate(606 5413)" fill="#4a5863" font-size="12" font-family="YuGothicUI-Semibold, Yu Gothic UI" font-weight="600"><tspan x="-90.551" y="0">ヘルプデスクの費用</tspan></text>
        <text id="OSのパッチやウイルス定義_ファイルの更新" data-name="OSのパッチやウイルス定義
ファイルの更新" transform="translate(606 5572)" fill="#253743" font-size="12" font-family="Roboto-Medium, Roboto" font-weight="500"><tspan x="-124.582" y="0">OS</tspan><tspan y="0" font-family="YuGothicUI-Semibold, Yu Gothic UI" font-weight="600">のパッチやウイルス定義</tspan><tspan y="0"></tspan><tspan font-family="YuGothicUI-Semibold, Yu Gothic UI" font-weight="600"><tspan x="-69.111" y="16">ファイルの更新</tspan></tspan></text>
        <g id="グループ_2872" data-name="グループ 2872" transform="translate(3)">
          <text id="_17_617" data-name="¥ 17,617" transform="translate(769 5736.484)" fill="#fff" font-size="15" font-family="Roboto-Regular, Roboto"><tspan x="-28.927" y="0">¥ 17,617</tspan></text>
          <text id="_2" data-name="/" transform="translate(802 5734.984)" fill="#fff" font-size="10" font-family="Roboto-Regular, Roboto" opacity="0.7"><tspan x="-2.061" y="0">/</tspan></text>
          <text id="年" transform="translate(811 5735.984)" fill="#fff" font-size="12" font-family="YuGothicUI-Regular, Yu Gothic UI" opacity="0.7"><tspan x="-6" y="0">年</tspan></text>
        </g>
        <g id="グループ_2874" data-name="グループ 2874" transform="translate(3)">
          <text id="_28_940" data-name="¥ 28,940" transform="translate(769 5412)" fill="#fff" font-size="15" font-family="Roboto-Regular, Roboto"><tspan x="-28.927" y="0">¥ 28,940</tspan></text>
          <text id="_3" data-name="/" transform="translate(802 5410.5)" fill="#fff" font-size="10" font-family="Roboto-Regular, Roboto" opacity="0.7"><tspan x="-2.061" y="0">/</tspan></text>
          <text id="年-2" data-name="年" transform="translate(811 5411.5)" fill="#fff" font-size="12" font-family="YuGothicUI-Regular, Yu Gothic UI" opacity="0.7"><tspan x="-6" y="0">年</tspan></text>
        </g>
        <g id="グループ_2873" data-name="グループ 2873" transform="translate(8 -1)">
          <text id="_149_301" data-name="¥ 149,301" transform="translate(764 5581)" fill="#fff" font-size="15" font-family="Roboto-Regular, Roboto"><tspan x="-33.138" y="0">¥ 149,301</tspan></text>
          <text id="_4" data-name="/" transform="translate(802 5579.5)" fill="#fff" font-size="10" font-family="Roboto-Regular, Roboto" opacity="0.7"><tspan x="-2.061" y="0">/</tspan></text>
          <text id="年-3" data-name="年" transform="translate(811 5580.5)" fill="#fff" font-size="12" font-family="YuGothicUI-Regular, Yu Gothic UI" opacity="0.7"><tspan x="-6" y="0">年</tspan></text>
        </g>
        <text id="ソフトウエアバージョンアップ費用" transform="translate(606 5735)" fill="#031524" font-size="12" font-family="YuGothicUI-Semibold, Yu Gothic UI" font-weight="600"><tspan x="-149.607" y="0">ソフトウエアバージョンアップ費用</tspan></text>
        <g id="グループ_2876" data-name="グループ 2876" transform="translate(2.61 6)">
          <text id="_84_000" data-name="¥ 84,000" transform="translate(1119.39 5650)" fill="#fff" font-size="23" font-family="Roboto-Bold, Roboto" font-weight="700"><tspan x="-45.702" y="0">¥ 84,000</tspan></text>
          <text id="_年" data-name="/年" transform="translate(1177.39 5648.5)" fill="#fff" font-size="16" font-family="Roboto-Bold, Roboto" font-weight="700" opacity="0.7"><tspan x="-10.988" y="0">/</tspan><tspan y="0" font-family="YuGothicUI-Bold, Yu Gothic UI">年</tspan></text>
        </g>
        <text id="_標準PC_サポート例_" data-name="（標準PC&amp;サポート例）" transform="translate(1135 5681)" fill="#fff" font-size="14" font-family="YuGothicUI-Regular, Yu Gothic UI"><tspan x="-69.265" y="0">（標準</tspan><tspan y="0" font-family="Roboto-Regular, Roboto">PC&amp;</tspan><tspan y="0">サポート例）</tspan></text>
        <g id="グループ_2516" data-name="グループ 2516" transform="translate(-106.5 2756)">
          <text id="_5" data-name="※" transform="translate(1212.5 2945)" fill="#fff" font-size="14" font-family="NotoSansCJKjp-Regular, Noto Sans CJK JP"><tspan x="-7" y="0">※</tspan></text>
          <text id="標準価格" transform="translate(1248 2945)" fill="#fff" font-size="14" font-family="YuGothicUI-Regular, Yu Gothic UI"><tspan x="-28" y="0">標準価格</tspan></text>
        </g>
        <g id="グループ_2517" data-name="グループ 2517" transform="translate(262 2728.495)" opacity="0.75">
          <path id="パス_714" data-name="パス 714" d="M0,16.722l16.722-1.028L1.028,0Z" transform="translate(1130 2823.681) rotate(-45)" fill="#e6b600"/>
          <rect id="長方形_3467" data-name="長方形 3467" width="7" height="326" transform="translate(1138 2502)" fill="#e6b600"/>
        </g>
        <rect id="長方形_3502" data-name="長方形 3502" width="147" height="51" rx="10" transform="translate(1330 5221)" fill="#edeeef"/>
        <rect id="長方形_3503" data-name="長方形 3503" width="147" height="51" rx="10" transform="translate(1330 5564)" fill="#faf0ee"/>
        <g id="グループ_2518" data-name="グループ 2518" transform="translate(-31 2755)">
          <text id="_268_275" data-name="¥ 268,275" transform="translate(1380 2498)" font-size="20" font-family="Roboto-Bold, Roboto" font-weight="700"><tspan x="0" y="0">¥ 268,275</tspan></text>
          <text id="_年-2" data-name="/年" transform="translate(1473 2497)" font-size="16" font-family="Roboto-Bold, Roboto" font-weight="700"><tspan x="0" y="0">/</tspan><tspan y="0" font-family="YuGothicUI-Bold, Yu Gothic UI">年</tspan></text>
        </g>
        <g id="グループ_2519" data-name="グループ 2519" transform="translate(-26 2755)">
          <text id="_84_000-2" data-name="¥ 84,000" transform="translate(1380 2842)" font-size="20" font-family="Roboto-Bold, Roboto" font-weight="700"><tspan x="0" y="0">¥ 84,000</tspan></text>
          <text id="_年-3" data-name="/年" transform="translate(1461 2841)" font-size="16" font-family="Roboto-Bold, Roboto" font-weight="700"><tspan x="0" y="0">/</tspan><tspan y="0" font-family="YuGothicUI-Bold, Yu Gothic UI">年</tspan></text>
        </g>
        <text id="費用合計" transform="translate(1372 5212)" font-size="16" font-family="YuGothicUI-Semibold, Yu Gothic UI" font-weight="600"><tspan x="0" y="0">費用合計</tspan></text>
        <path id="パス_981" data-name="パス 981" d="M51.751,346.446-3.419-1.027-.456-1.5l55.17,347.473Z" transform="translate(932.5 5246.5)" fill="#bc4328"/>
        <rect id="長方形_3460" data-name="長方形 3460" width="300" height="135.778" transform="translate(632 5245)" fill="#707a82"/>
        <g id="グループ_2875" data-name="グループ 2875" transform="translate(3)">
          <text id="_72_417" data-name="¥ 72,417" transform="translate(769 5317)" fill="#fff" font-size="15" font-family="Roboto-Regular, Roboto"><tspan x="-28.927" y="0">¥ 72,417</tspan></text>
          <text id="_6" data-name="/" transform="translate(802 5315.5)" fill="#fff" font-size="10" font-family="Roboto-Regular, Roboto" opacity="0.7"><tspan x="-2.061" y="0">/</tspan></text>
          <text id="年-4" data-name="年" transform="translate(811 5316.5)" fill="#fff" font-size="12" font-family="YuGothicUI-Regular, Yu Gothic UI" opacity="0.7"><tspan x="-6" y="0">年</tspan></text>
        </g>
        <path id="線_336" data-name="線 336" d="M800,.5H0v-1H800Z" transform="translate(560.5 5748.5)" fill="#555"/>
      </g>
    </g>
  </g>
</svg>
