<svg xmlns="http://www.w3.org/2000/svg" width="183.376" height="130.666" viewBox="0 0 183.376 130.666">
  <g id="グループ_2883" data-name="グループ 2883" transform="translate(-604.015 -376.612)">
    <path id="パス_703" data-name="パス 703" d="M52.174,109.723H42.53c-.317-.053-.634-.132-.951-.159-3.065-.238-6.13-.37-9.169-.74-6.659-.793-13.133-2.378-19.025-5.708C6.567,99.286,2.1,93.657.568,85.915A37.016,37.016,0,0,1,1.731,68.343C4.8,57.536,10.425,48.129,17.585,39.594c5.047-6,10.7-11.283,17.7-14.982.079-.026.106-.159.159-.238-5.206-4.2-7.557-6.976-9.988-11.864a17.555,17.555,0,0,1-2.246-8.271A4.1,4.1,0,0,1,28.287.064,14.238,14.238,0,0,1,30.85.8c2.061.793,4.1,1.691,6.13,2.51a11.765,11.765,0,0,0,7.848.4c3.356-.978,6.685-1.9,10.041-2.669A34.239,34.239,0,0,1,60.789.275C62.242.2,62.691.751,62.744,2.2a9.267,9.267,0,0,1-.238,2.431,38.362,38.362,0,0,1-10.437,18.47,2.927,2.927,0,0,1-.793.423c2.933,1.77,5.681,3.171,8.165,4.968A82.942,82.942,0,0,1,86,60.971c2.986,6.342,4.994,12.974,5.021,20.082q.04,15.26-13.318,22.619c-5.813,3.2-12.181,4.6-18.708,5.364C56.719,109.353,54.447,109.512,52.174,109.723Z" transform="translate(640.317 397.555)" fill="#fff"/>
    <text id="_" data-name="¥" transform="translate(672.833 480.031)" fill="#0f2437" font-size="42" font-family="NotoSansCJKjp-Black, Noto Sans CJK JP" font-weight="800"><tspan x="0" y="0">¥</tspan></text>
    <g id="レイヤー_2_00000066502127103154531750000000459312246520423307_" transform="translate(604.015 376.612)">
      <path id="パス_754" data-name="パス 754" d="M16.327,26a3.613,3.613,0,0,1-1.872-.52A3.573,3.573,0,0,1,12.8,23.467a3.234,3.234,0,0,1,.248-2.392,5.483,5.483,0,0,1,3.316-2.616,7.393,7.393,0,0,1,3.442-.219,6.035,6.035,0,0,0-1.143-3.778,3.885,3.885,0,0,0-1.22-1.113,13.335,13.335,0,0,1-3.471,4.274,10.614,10.614,0,0,1-5.236,2.484,3.693,3.693,0,0,1-3.715-1.527,3.9,3.9,0,0,1-.345-3.758,6.634,6.634,0,0,1,2.48-2.781A13.168,13.168,0,0,1,14.11,9.917a11.068,11.068,0,0,1,1.629.1,5.666,5.666,0,0,0-1.648-4.74c-2.557-2.8-5.173-2.82-6.919-2.348-2.421.656-4.249,2.582-4.551,3.992A1.338,1.338,0,0,1,.005,6.353,7.335,7.335,0,0,1,2.242,2.712,10.007,10.007,0,0,1,6.472.349a8.821,8.821,0,0,1,4.794.015,10.388,10.388,0,0,1,4.8,3.1,8.767,8.767,0,0,1,2.295,4.473,8.108,8.108,0,0,1-.029,2.844,6.683,6.683,0,0,1,2.528,2.144,8.7,8.7,0,0,1,1.566,6.2h0a7.747,7.747,0,0,1,2.63,1.964,7.022,7.022,0,0,1,1.318,2.655,1.337,1.337,0,1,1-2.567.749,3.91,3.91,0,0,0-2.13-2.742A8.776,8.776,0,0,1,20.124,24.1a6.043,6.043,0,0,1-2.577,1.707A4.166,4.166,0,0,1,16.327,26Zm2.207-5.2a4.435,4.435,0,0,0-1.366.209,2.886,2.886,0,0,0-1.731,1.259c-.107.209-.263.525.394.924.7.423,1.7-.224,2.329-.9a6.034,6.034,0,0,0,.972-1.444A4.227,4.227,0,0,0,18.534,20.8Zm-4.283-8.222h-.107A10.517,10.517,0,0,0,8.66,14.244c-.846.574-2.154,1.707-1.4,2.869.185.282.583.394,1.181.331,2-.219,4.881-2.246,6.369-4.842C14.616,12.581,14.426,12.577,14.251,12.577Z" transform="translate(0.025 -0.024)" fill="#fff"/>
    </g>
    <rect id="長方形_3781" data-name="長方形 3781" width="61.853" height="26.892" transform="matrix(0.985, -0.174, 0.174, 0.985, 718.111, 410.273)" fill="#fff"/>
    <path id="長方形_3781_-_アウトライン" data-name="長方形 3781 - アウトライン" d="M0,0V26.892H61.853V0H0M-2-2H63.853V28.892H-2Z" transform="matrix(0.985, -0.174, 0.174, 0.985, 718.111, 410.273)" fill="#0f2437"/>
    <rect id="長方形_3495" data-name="長方形 3495" width="61.853" height="26.892" transform="translate(723.538 409.405)" fill="#fff"/>
    <path id="長方形_3495_-_アウトライン" data-name="長方形 3495 - アウトライン" d="M0,0V26.892H61.853V0H0M-2-2H63.853V28.892H-2Z" transform="translate(723.538 409.405)" fill="#0f2437"/>
    <circle id="楕円形_74" data-name="楕円形 74" cx="9.544" cy="9.544" r="9.544" transform="translate(745.094 412.672)" fill="#0f2437"/>
    <text id="_2" data-name="¥" transform="translate(750.903 426.672)" fill="#fff" font-size="12" font-family="NotoSansCJKjp-Bold, Noto Sans CJK JP" font-weight="700"><tspan x="0" y="0">¥</tspan></text>
  </g>
</svg>
