<svg xmlns="http://www.w3.org/2000/svg" width="82.649" height="56.669"><g data-name="Free desktop PC icon" fill="#0f2437"><path data-name="パス 916" d="M53.461 0H3.148A3.159 3.159 0 000 3.15v41.266a3.158 3.158 0 003.148 3.148h14.6v6.089h-4.1v3.017h29.321v-3.017h-4.106v-6.089h14.6a3.158 3.158 0 003.148-3.148V3.15A3.159 3.159 0 0053.461 0zm-.948 42.212H4.094V4.094h48.419v38.119z"/><path data-name="パス 917" d="M79.436 0H63.192a3.214 3.214 0 00-3.213 3.213v50.243a3.214 3.214 0 003.213 3.213h16.244a3.212 3.212 0 003.213-3.213V3.213A3.212 3.212 0 0079.436 0zm-8.122 42.5a3.684 3.684 0 113.685-3.683 3.684 3.684 0 01-3.683 3.685zm5.811-22.95H65.79v-2.265h11.335zm0-6.8H65.79v-2.265h11.335z"/></g></svg>