<svg xmlns="http://www.w3.org/2000/svg" width="66.58" height="66.579"><g data-name="インターネットのアイコン2 (1)"><path data-name="パス 915" d="M66.564 32.245l-2.794.087 2.794-.088A33.291 33.291 0 0033.307-.004q-.53 0-1.063.017A33.289 33.289 0 000 33.273c0 .352.006.707.017 1.061a33.291 33.291 0 0033.256 32.245c.35 0 .7 0 1.061-.017A33.291 33.291 0 0066.58 33.307q0-.53-.016-1.062zM13.384 14.03a27.736 27.736 0 019.06-6.228 32.069 32.069 0 00-3.644 7.194h-6.3q.427-.5.884-.966zm-3.541 4.521h7.817a55.339 55.339 0 00-1.868 12.96H5.653a27.5 27.5 0 014.19-12.96zm-.006 29.477a27.516 27.516 0 01-4.18-12.96H15.8a55.413 55.413 0 001.851 12.96zm4.194 5.168a28.326 28.326 0 01-1.528-1.61h6.3a36.707 36.707 0 001.768 4.083 28.283 28.283 0 001.853 3.1 27.815 27.815 0 01-8.393-5.573zm17.481 7.73a27.799 27.799 0 01-2.289-.234 11.17 11.17 0 01-.938-.681 21.359 21.359 0 01-5.685-8.425h8.909zm0-12.9H21.35a51.136 51.136 0 01-2-12.96h12.162zm0-16.517H19.36a51.075 51.075 0 012.005-12.96h10.147zm0-16.517h-8.9c.352-.857.721-1.685 1.118-2.45a18.834 18.834 0 014.554-5.975 11.2 11.2 0 01.923-.671q1.138-.168 2.3-.242zm25.233 3.558a27.518 27.518 0 014.179 12.96H50.778a55.414 55.414 0 00-1.851-12.96zm-4.195-5.167a28.38 28.38 0 011.529 1.611h-6.3a36.65 36.65 0 00-1.768-4.083 28.05 28.05 0 00-1.855-3.1 27.816 27.816 0 018.394 5.572zm-17.48-7.73c.77.049 1.535.124 2.287.234a11.039 11.039 0 01.94.682 21.346 21.346 0 015.68 8.427H35.07zm0 12.9h10.162a51.136 51.136 0 012 12.96H35.07zm0 16.517h12.151a51.063 51.063 0 01-2.005 12.96H35.07zm7.781 18.966A18.842 18.842 0 0138.3 60.01a11.064 11.064 0 01-.922.67q-1.138.168-2.3.242v-9.336h8.9a35.836 35.836 0 01-1.127 2.449zM53.2 52.549a27.735 27.735 0 01-9.058 6.227 32.073 32.073 0 003.646-7.19h6.3q-.436.491-.888.963zm3.54-4.52h-7.819a55.277 55.277 0 001.869-12.96h10.137a27.5 27.5 0 01-4.19 12.959z" fill="#0f2437"/></g></svg>