<svg xmlns="http://www.w3.org/2000/svg" width="558" height="208"><g data-name="グループ 2704"><path data-name="長方形 3634" fill="#f8ece9" d="M281 0h277v208H281z"/><path data-name="長方形 3635" fill="#f7f7f7" d="M0 0h251v208H0z"/><text data-name="ヘルプデスクのアウトソーシング、専用のFAQサイトを活用" transform="translate(326 137.803)" font-size="14" font-family="YuGothicUI-Regular, Yu Gothic UI"><tspan x="0" y="15">ヘルプデスクのアウトソーシング、専</tspan><tspan x="0" y="35">用の</tspan><tspan y="35" font-family="Roboto-Regular, Roboto">FAQ</tspan><tspan y="35">サイトを活用</tspan></text><text transform="translate(40 137.803)" font-size="14" font-family="YuGothicUI-Regular, Yu Gothic UI"><tspan x="0" y="15">社内からの問合せ対応で工数</tspan><tspan x="0" y="35">圧迫</tspan></text><text transform="translate(416.375 48)" fill="#d76b00" font-size="12" font-family="YuGothicUI-Regular, Yu Gothic UI"><tspan x="-88.863" y="0">ヘルプデスクの代行</tspan></text><text transform="translate(467.47 48)" fill="#d76b00" font-size="12" font-family="Roboto-Regular, Roboto"><tspan x="-23.88" y="0">FAQ</tspan><tspan y="0" font-family="YuGothicUI-Regular, Yu Gothic UI">サイト</tspan></text><path data-name="パス 754" d="M93.294 62.804a2.643 2.643 0 01-1.369-.381 2.614 2.614 0 01-1.209-1.473 2.366 2.366 0 01.181-1.75 4.011 4.011 0 012.426-1.914 5.409 5.409 0 012.518-.16 4.415 4.415 0 00-.836-2.764 2.842 2.842 0 00-.893-.815 9.755 9.755 0 01-2.54 3.126 7.765 7.765 0 01-3.831 1.818 2.7 2.7 0 01-2.717-1.114 2.856 2.856 0 01-.253-2.749 4.853 4.853 0 011.814-2.035 9.633 9.633 0 015.086-1.554 8.1 8.1 0 011.192.071 4.145 4.145 0 00-1.207-3.468 4.842 4.842 0 00-5.06-1.718 4.744 4.744 0 00-3.329 2.92.979.979 0 01-1.911-.413 5.366 5.366 0 011.633-2.664 7.321 7.321 0 013.095-1.728 6.453 6.453 0 013.507.01 7.6 7.6 0 013.511 2.266 6.413 6.413 0 011.678 3.272 5.931 5.931 0 01-.024 2.081 4.889 4.889 0 011.85 1.569 6.366 6.366 0 011.15 4.535 5.668 5.668 0 011.924 1.437 5.137 5.137 0 01.964 1.942.978.978 0 01-1.878.548 2.86 2.86 0 00-1.558-2.006 6.42 6.42 0 01-1.135 1.725 4.421 4.421 0 01-1.885 1.248 3.047 3.047 0 01-.894.138zm1.615-3.806a3.245 3.245 0 00-1 .153 2.111 2.111 0 00-1.266.921c-.078.153-.192.384.288.676.516.309 1.241-.164 1.7-.662a4.414 4.414 0 00.711-1.056 3.092 3.092 0 00-.434-.031zm-3.134-6.014h-.078a7.694 7.694 0 00-4.012 1.22c-.619.42-1.576 1.248-1.021 2.1.135.206.427.288.864.242a7.323 7.323 0 004.659-3.543 3.991 3.991 0 00-.412-.019z"/><path data-name="パス 897" d="M271.815 103.561l-10.461 10.462-.707-.707 9.754-9.755-9.754-9.755.707-.707z"/><g data-name="コールセンターの人物アイコン素材 その3" fill="#d76b00"><path data-name="パス 772" d="M396.507 111.76l-.46-2.662a7.326 7.326 0 00-4.264-5.327l-9.683-4.449c-1.189-.545-1.529-2.269-1.563-2.362a.62.62 0 00-.555-.249h-.025a.574.574 0 00-.485.4l-1.117 3.922-6.982 12.67-6.964-12.628-1.136-3.964a.6.6 0 00-.57-.408.593.593 0 00-.525.33 3.469 3.469 0 01-1.532 2.286l-9.685 4.449a7.328 7.328 0 00-4.263 5.327l-.46 2.662a3.43 3.43 0 001.068 3.237c.117.087.263.217.448.382 1.782 1.581 7.206 6.394 23.618 6.394s21.834-4.812 23.617-6.394c.186-.164.332-.295.449-.382a3.429 3.429 0 001.069-3.234z"/><path data-name="パス 773" d="M375.989 72.855c2.347 4.4 5.56 10.437 6.963 11.313l.266.166.976-7.618a11.623 11.623 0 00-3.029-8.919 13.654 13.654 0 00-19.581 0 11.626 11.626 0 00-3.029 8.927l.888 7.541.3-.324a16.933 16.933 0 013.113-2.245c3.231-2.039 8.086-5.1 11.9-11.148.349.648.77 1.438 1.233 2.307z"/><path data-name="パス 774" d="M351.907 87.7a1.5 1.5 0 001.461 1.156 1.53 1.53 0 00.352-.042l2.54-.61a1.5 1.5 0 001.053-.933l.1.007-.048-.191a1.492 1.492 0 000-.7l-1.324-5.479a30.6 30.6 0 01-.479-4.857 15.8 15.8 0 1131.6 0 29.665 29.665 0 01-.5 4.918l-1.3 5.419a1.383 1.383 0 00-.035.248l-.052.116c-.017.038-1.768 3.825-7.207 4.892a1.622 1.622 0 00-1.429-.851h-3.271a1.628 1.628 0 00-1.626 1.626V93.7a1.628 1.628 0 001.626 1.626h3.277a1.627 1.627 0 001.522-1.071 13.936 13.936 0 006.69-2.987 11.481 11.481 0 002.465-2.862l1.7.408a1.527 1.527 0 00.352.042 1.5 1.5 0 001.465-1.156l1.3-5.419a1.51 1.51 0 00-1.114-1.818l-.939-.225a30.692 30.692 0 00.336-4.188 19.051 19.051 0 00-38.1 0 30.663 30.663 0 00.336 4.187l-.94.226a1.509 1.509 0 00-1.113 1.818z"/></g><path data-name="パス 775" d="M153.32 111.589a11.072 11.072 0 00-4.372-6.3 17.914 17.914 0 00-2.936-1.7c-1.517-.711-3.068-1.257-4.5-1.785a23.79 23.79 0 01-3.753-1.644 7.8 7.8 0 01-1-.687 4.337 4.337 0 01-1.012-1.179 3.774 3.774 0 01-.472-1.521 11.684 11.684 0 01-.065-1.226 14.736 14.736 0 01.384-3.152 13.646 13.646 0 001.781-2.615 28.356 28.356 0 001.608-3.674 6.927 6.927 0 003.076-2.721 11.245 11.245 0 001.406-3.568 5.377 5.377 0 00-.386-3.5 6.2 6.2 0 00-.849-1.335c.171-.63.379-1.482.563-2.476a26.575 26.575 0 00.468-4.788 17.584 17.584 0 00-.316-3.436 12.483 12.483 0 00-.78-2.533 9.415 9.415 0 00-2.39-3.341 9.9 9.9 0 00-3.761-2.043 13.782 13.782 0 00-1.982-1.956 10.628 10.628 0 00-3.59-1.9 12.849 12.849 0 00-3.723-.509c-.66 0-1.31.037-1.969.1-.615.056-1.127.119-1.584.2a10.823 10.823 0 00-1.794.455c-.548.188-1.075.409-1.766.68-.262.1-.6.256-1.02.466a17.969 17.969 0 00-2.656 1.651 17.029 17.029 0 00-4.441 4.824A14.961 14.961 0 00109.905 64a16.1 16.1 0 00-.615 4.476 19.693 19.693 0 00.277 3.213c0 .078 0 .156.009.23.009.139.024.286.039.438.024.223.05.455.069.65.011.1.02.182.026.251v.242l.275 1.224a6.408 6.408 0 00-1 1.447 5.447 5.447 0 00-.589 2.455 5.389 5.389 0 00.132 1.192 12.385 12.385 0 00.849 2.546 7.954 7.954 0 001.889 2.609 6.9 6.9 0 001.751 1.137 28.276 28.276 0 001.608 3.672 13.519 13.519 0 001.779 2.613 14.864 14.864 0 01.384 3.154 11.627 11.627 0 01-.063 1.226 3.977 3.977 0 01-.269 1.1 3.839 3.839 0 01-.875 1.287 7.106 7.106 0 01-1.48 1.081 17.5 17.5 0 01-2.05.962c-1.324.535-2.829 1.042-4.359 1.649a24.714 24.714 0 00-3.414 1.634 13.865 13.865 0 00-2.364 1.727 10.8 10.8 0 00-2.7 3.817 14.1 14.1 0 00-1.026 5.568 2.372 2.372 0 00.171.869 3.119 3.119 0 00.394.7 5.461 5.461 0 001.17 1.133 14.132 14.132 0 003.395 1.744 42.393 42.393 0 008.807 2.08 99.668 99.668 0 0013.875.864 104 104 0 0012.332-.665 56.649 56.649 0 006.688-1.17 31.8 31.8 0 003.688-1.124 17.55 17.55 0 002.082-.927 10.637 10.637 0 001.2-.741 5.511 5.511 0 001.274-1.222 3.246 3.246 0 00.392-.717 2.4 2.4 0 00.154-.828 15.489 15.489 0 00-.49-4.007zm-29.742 1.046l-8.185-10.464a9.99 9.99 0 001.211-.823 7.113 7.113 0 001.112-1.1l5.952 2.762-1.27 2.119 1.967 2.086zm-5.019-13.786a6.175 6.175 0 00.47-1.837 13.892 13.892 0 00.078-1.465 18.086 18.086 0 00-.5-3.952l-.072-.314-.221-.234a10.943 10.943 0 01-1.647-2.364 28.158 28.158 0 01-1.64-3.839l-.182-.513-.511-.188a4.758 4.758 0 01-1.031-.52 4.929 4.929 0 01-1.408-1.478 8.953 8.953 0 01-1.1-2.838 3.087 3.087 0 01.271-2.1 4.057 4.057 0 01.763-1.044 16.434 16.434 0 001.133 1.6c.52.522.357.362.531.1 0 0 .591-.832 3.72-6.918 6.259 1.391 17.2-8.01 17.2-8.01a11.546 11.546 0 002.219 5.817c1.978 2.639 3.107 8.833 3.107 8.833s.269-.509.669-1.194a3.888 3.888 0 01.585.9 3.082 3.082 0 01.216 2.009 10.12 10.12 0 01-.689 2.073 5.611 5.611 0 01-1.332 1.861 4.642 4.642 0 01-1.521.9l-.511.186-.182.513a27.975 27.975 0 01-1.64 3.841 10.857 10.857 0 01-1.649 2.366l-.221.234-.069.316a17.876 17.876 0 00-.5 3.947 14.494 14.494 0 00.076 1.465 6.275 6.275 0 00.407 1.686.689.689 0 00.03.069l-7.043 3.7zm10.43 14.165l-.843-5.8 1.969-2.086L128.84 103l5.384-2.829a6.035 6.035 0 00.475.548 8.812 8.812 0 001.811 1.4z"/><path data-name="パス 898" d="M77.494 85.921a11.905 11.905 0 00-1.023 23.766v3.924l8.679-6.665a11.907 11.907 0 00-7.656-21.025zm-6.251 13.494a1.588 1.588 0 111.587-1.588 1.588 1.588 0 01-1.587 1.588zm6.251 0a1.588 1.588 0 111.588-1.588 1.588 1.588 0 01-1.588 1.588zm6.251 0a1.588 1.588 0 111.588-1.588 1.588 1.588 0 01-1.59 1.588z"/><g data-name="コメントアイコン"><path data-name="パス 898" d="M174.506 85.921a11.905 11.905 0 011.023 23.766v3.924l-8.675-6.665a11.907 11.907 0 017.652-21.025zm6.248 13.494a1.588 1.588 0 10-1.587-1.588 1.588 1.588 0 001.587 1.588zm-6.251 0a1.588 1.588 0 10-1.588-1.588 1.588 1.588 0 001.591 1.588zm-6.251 0a1.588 1.588 0 10-1.588-1.588 1.588 1.588 0 001.59 1.588z"/></g><g data-name="コメントアイコン"><path data-name="パス 898" d="M169.125 48.951a11.905 11.905 0 011.023 23.766v3.924l-8.675-6.665a11.907 11.907 0 017.652-21.025zm6.248 13.494a1.588 1.588 0 10-1.587-1.588 1.588 1.588 0 001.587 1.588zm-6.251 0a1.588 1.588 0 10-1.588-1.588 1.588 1.588 0 001.591 1.588zm-6.251 0a1.588 1.588 0 10-1.588-1.588 1.588 1.588 0 001.59 1.588z"/></g><g data-name="グループ 2661"><text transform="translate(466.675 93.079)" fill="#d76b00" font-size="14" font-family="DIN2014-Demi, 'DIN \32 014'" font-weight="300"><tspan x="-11.9" y="0">FAQ</tspan></text><path data-name="パス 744" d="M426.724 109.315h81.491l-.886 5.315H427.61z" fill="#d76b00"/><path data-name="長方形 3497" d="M441.467 68.14a1 1 0 00-1 1v40.489a1 1 0 001 1h52a1 1 0 001-1V69.14a1 1 0 00-1-1h-52m0-4h52a5 5 0 015 5v40.489a5 5 0 01-5 5h-52a5 5 0 01-5-5V69.14a5 5 0 015-5z" fill="#d76b00"/><path data-name="長方形 3498" fill="#f8ece9" d="M461.269 111.086h12.401v1.772h-12.401z"/></g></g></svg>