<svg xmlns="http://www.w3.org/2000/svg" width="67.627" height="72.834"><g fill="#0f2437"><path data-name="長方形 3646" d="M0 53.456h13.837v19.371H0z"/><path data-name="パス 912" d="M41.408 11.953a5.718 5.718 0 109.145 0z"/><path data-name="パス 913" d="M38.737 33.524v39.31h13.837V33.773a19.681 19.681 0 01-13.837-.249z"/><path data-name="パス 914" d="M66.374 30.984l-7.465-7.272a15.377 15.377 0 10-4.582 4.588l7.269 7.464a3.115 3.115 0 004.9.185 3.175 3.175 0 00-.122-4.965zm-20.387-7.356a8.251 8.251 0 115.833-2.416 8.2 8.2 0 01-5.833 2.416z"/><path data-name="長方形 3647" d="M19.366 42.394h13.837v30.441H19.366z"/></g></svg>