<svg xmlns="http://www.w3.org/2000/svg" width="301.433" height="39.002"><g data-name="グループ 2216" fill="#fff"><path data-name="パス 609" d="M70.376 31.989a1.6 1.6 0 01-1.476-.984L61.148 9.228a1.556 1.556 0 112.953-.984l7.751 21.777a1.513 1.513 0 01-.984 1.969h-.492"/><path data-name="パス 610" d="M85.139 31.989a.74.74 0 01-.492-.123 1.561 1.561 0 01-.984-1.969l7.751-21.775a1.556 1.556 0 112.953.984l-7.751 21.776a1.363 1.363 0 01-1.476 1.107"/><path data-name="パス 611" d="M85.139 31.989a1.546 1.546 0 01-1.476-1.107l-5.906-17.346-5.906 17.348a1.556 1.556 0 11-2.953-.984l7.387-21.657a1.724 1.724 0 011.472-1.107 1.546 1.546 0 011.476 1.107l7.382 21.654a1.513 1.513 0 01-.984 1.969c-.123.123-.246.123-.492.123"/><path data-name="パス 612" d="M165.973 31.989a1.629 1.629 0 01-1.6-1.6V7.013h10.089a7.874 7.874 0 010 15.748h-2.83a1.6 1.6 0 010-3.2h2.83a4.8 4.8 0 100-9.6h-6.889v20.182c-.123 1.23-.738 1.846-1.6 1.846"/><path data-name="パス 613" d="M143.335 31.988a9.72 9.72 0 119.72-9.72 1.6 1.6 0 11-3.2 0 6.633 6.633 0 10-2.461 5.167 1.576 1.576 0 111.969 2.461 9.445 9.445 0 01-6.029 2.092"/><path data-name="パス 614" d="M197.838 31.989a12.427 12.427 0 010-24.853 12.785 12.785 0 019.228 4.06 1.569 1.569 0 01-2.338 2.092 9.235 9.235 0 00-6.89-3.076 9.351 9.351 0 100 18.7 9.235 9.235 0 006.89-3.076 1.569 1.569 0 012.338 2.092 12.579 12.579 0 01-9.228 4.06"/><path data-name="パス 615" d="M261.324 31.989a1.629 1.629 0 01-1.6-1.6V18.701a5.514 5.514 0 00-5.535-5.535 1.6 1.6 0 010-3.2 8.638 8.638 0 018.612 8.612v11.688c0 1.107-.615 1.722-1.476 1.722"/><path data-name="パス 616" d="M122.91 31.988a1.736 1.736 0 01-1.476-.984l-7.382-16.364a1.568 1.568 0 012.83-1.353l7.382 16.364a1.624 1.624 0 01-.738 2.092.677.677 0 01-.615.246"/><path data-name="パス 617" d="M122.91 31.988a.922.922 0 01-.615-.123 1.583 1.583 0 01-.738-2.092l7.382-16.364a1.568 1.568 0 112.83 1.353l-7.382 16.364a1.876 1.876 0 01-1.476.861"/><path data-name="パス 618" d="M151.577 23.87h-10.58a1.6 1.6 0 010-3.2h10.58a1.629 1.629 0 011.6 1.6 1.719 1.719 0 01-1.6 1.6"/><path data-name="パス 619" d="M291.714 31.988a9.72 9.72 0 119.72-9.72 1.6 1.6 0 11-3.2 0 6.633 6.633 0 10-2.461 5.167 1.576 1.576 0 111.969 2.461 9.7 9.7 0 01-6.029 2.092"/><path data-name="パス 620" d="M299.833 23.87h-10.58a1.6 1.6 0 010-3.2h10.58a1.6 1.6 0 010 3.2"/><path data-name="パス 621" d="M291.714 31.988a9.72 9.72 0 119.72-9.72 1.6 1.6 0 11-3.2 0 6.633 6.633 0 10-2.461 5.167 1.576 1.576 0 111.969 2.461 9.7 9.7 0 01-6.029 2.092"/><path data-name="パス 622" d="M220.477 31.988a1.629 1.629 0 01-1.6-1.6V8.735a1.589 1.589 0 011.107-1.476 1.415 1.415 0 011.722.615l9.971 13.657a1.588 1.588 0 11-2.584 1.846l-7.136-9.843v16.978a1.422 1.422 0 01-1.477 1.476"/><path data-name="パス 623" d="M240.408 31.989a1.629 1.629 0 01-1.6-1.6V13.411l-7.136 9.843a1.588 1.588 0 11-2.584-1.846l9.966-13.657a1.808 1.808 0 011.722-.615 1.724 1.724 0 011.107 1.476v21.777a1.4 1.4 0 01-1.477 1.6"/><path data-name="パス 624" d="M277.565 16.488h-8.981a1.6 1.6 0 110-3.2h8.981a1.629 1.629 0 011.6 1.6 1.719 1.719 0 01-1.6 1.6"/><path data-name="パス 625" d="M271.659 27.805a1.629 1.629 0 01-1.6-1.6V9.966a1.6 1.6 0 113.2 0v16.24a1.719 1.719 0 01-1.6 1.6"/><path data-name="パス 626" d="M275.842 31.989a5.776 5.776 0 01-5.783-5.782 1.6 1.6 0 113.2 0 2.731 2.731 0 002.707 2.707 3.593 3.593 0 001.107-.246 1.6 1.6 0 011.23 2.953 8.525 8.525 0 01-2.461.369"/><path data-name="パス 627" d="M254.806 31.992a8.01 8.01 0 01-.618-16 1.605 1.605 0 11.246 3.2 5.051 5.051 0 00-4.552 4.921 4.921 4.921 0 109.843 0 1.6 1.6 0 113.2 0 8.145 8.145 0 01-8.119 7.879"/><path data-name="パス 628" d="M109.254 31.989a1.629 1.629 0 01-1.6-1.6V18.701a5.514 5.514 0 00-5.535-5.535 1.6 1.6 0 010-3.2 8.638 8.638 0 018.612 8.612v11.688a1.441 1.441 0 01-1.476 1.722"/><path data-name="パス 629" d="M102.859 31.992a8.01 8.01 0 01-.618-16 1.605 1.605 0 01.246 3.2 5.051 5.051 0 00-4.552 4.921 4.921 4.921 0 109.843 0 1.6 1.6 0 113.2 0 8.145 8.145 0 01-8.119 7.879"/><path data-name="パス 630" d="M43.8 0H5.29A5.251 5.251 0 000 5.29v22.27a5.251 5.251 0 005.29 5.29h14.026l-.615 4.429h-3.322V39h18.578v-1.721h-3.322l-.615-4.429h14.026a5.251 5.251 0 005.29-5.29V5.29A5.632 5.632 0 0043.8 0M20.3 37.4l.615-4.429h7.013l.615 4.429zM47.368 5.29v22.27a3.571 3.571 0 01-3.568 3.568H5.29a3.571 3.571 0 01-3.568-3.568V5.29A3.571 3.571 0 015.29 1.722H43.8a3.571 3.571 0 013.568 3.568z"/><path data-name="長方形 3295" d="M4.798 26.821h39.494v1.599H4.798z"/><path data-name="パス 631" d="M29.528 12.919c-1.353-1.476-2.83-2.953-5.044-2.953-2.461 0-3.937 1.722-5.66 3.691-.369.369-1.846 1.969-2.092 2.338-1.476 1.722-2.707 3.076-4.429 3.076a3.7 3.7 0 01-3.691-3.691 3.784 3.784 0 013.691-3.691c1.476 0 2.461.984 3.937 2.584.123-.123.861-.984 1.107-1.23-1.23-1.476-2.83-2.953-5.044-2.953a5.438 5.438 0 00-5.414 5.29 5.462 5.462 0 005.414 5.413c2.461 0 3.937-1.722 5.66-3.691.369-.369 1.846-1.969 2.092-2.338 1.476-1.722 2.707-3.076 4.429-3.076 1.476 0 2.461.984 3.937 2.584a5.917 5.917 0 011.107-1.353"/><path data-name="パス 632" d="M36.664 9.966c-2.461 0-3.937 1.722-5.66 3.568-.369.369-1.722 1.969-2.092 2.338-1.476 1.722-2.707 3.076-4.429 3.076-1.476 0-2.461-.984-3.937-2.584-.123.123-.861.984-1.107 1.23 1.23 1.476 2.83 2.953 5.044 2.953 2.461 0 3.937-1.722 5.66-3.691.369-.369 1.722-1.969 2.092-2.338 1.476-1.722 2.707-3.076 4.429-3.076a3.691 3.691 0 010 7.382c-1.476 0-2.461-.984-3.937-2.584-.123.123-.861.984-1.107 1.23 1.23 1.476 2.83 2.953 5.044 2.953a5.33 5.33 0 005.29-5.29 5.226 5.226 0 00-5.29-5.167"/></g></svg>