<svg data-name="グループ 2213" xmlns="http://www.w3.org/2000/svg" width="241.157" height="11.33"><g data-name="グループ 2211" fill="#fff"><path data-name="パス 516" d="M11.33.544v2.24h3.393v8.417h2.432V2.784h3.425V.544z"/><path data-name="パス 517" d="M51.144.544h-6.081v2.272h5.924c.864 0 1.216.384 1.216 1.408v.384h-4.929c-1.856 0-2.784.928-2.784 3.04v.512c0 2.176.96 3.04 2.912 3.04h7.2V4.193c-.032-2.656-.9-3.649-3.457-3.649m-3.521 8.385c-.352 0-.768-.192-.768-1.088 0-.928.416-1.056.768-1.056h4.545v2.176h-4.545z"/><path data-name="パス 518" d="M71.211.544H65.13v2.272h5.924c.864 0 1.216.384 1.216 1.408v.384h-4.929c-1.856 0-2.784.928-2.784 3.04v.512c0 2.176.96 3.04 2.912 3.04h7.2V4.193c0-2.656-.9-3.649-3.457-3.649m-3.521 8.385c-.352 0-.768-.192-.768-1.088 0-.928.416-1.056.768-1.056h4.545v2.176h-4.545z"/><path data-name="パス 519" d="M21.347.544v2.24h3.425v8.417h2.4V2.784h3.425V.544z"/><path data-name="パス 520" d="M55.049.544v2.24h3.425v8.417h2.432V2.784h3.425V.544z"/><path data-name="パス 521" d="M43.527 7.457V4.289c0-2.784-1.088-3.745-3.521-3.745h-6.465v10.658h6.593c2.592 0 3.393-1.28 3.393-3.745m-2.464.064c0 1.024-.352 1.408-1.216 1.408h-3.9V2.816h3.9c.864 0 1.216.384 1.216 1.408z"/><path data-name="パス 522" d="M7.905 8.673c-.064-.1-3.3-6.4-3.681-7.009A2.282 2.282 0 002.144.448C1.184.448 0 .864 0 3.232v7.969h2.4V4.577c0-.48-.032-1.184-.032-1.312s0-.224.064-.256c.032-.064.128 0 .16.1s3.04 6.017 3.681 7.009a2.282 2.282 0 002.08 1.216c.992 0 2.144-.448 2.144-2.816V.548H8.1v6.621c0 .48.032 1.184.032 1.312s0 .224-.064.256c-.032.1-.1.032-.16-.064"/></g><g data-name="グループ 2212" fill="#fff"><path data-name="パス 523" d="M91.727 7.169a7.163 7.163 0 01-1.024-1.76v5.6h-.9v-5.7a11.179 11.179 0 01-1.44 3.1l-.413-1.144a10.425 10.425 0 001.792-3.845h-1.6v-.86h1.7V.32h.9v2.24h1.44v.9h-1.44v.736a8.721 8.721 0 001.6 2.176zm4.289 3.841h-.9V6.785a10.153 10.153 0 01-2.784 3.3l-.672-.832a10.2 10.2 0 003.168-3.489H92.14v-.9h2.976v-1.76H93.65a6.231 6.231 0 01-.832 1.472l-.864-.544A6.651 6.651 0 0093.362.639l.96.128a10 10 0 01-.352 1.472h1.12V.32h.9v1.92h2.528v.864h-2.5v1.793h2.816v.9h-2.5a9.233 9.233 0 002.624 3.393l-.544.96a8.743 8.743 0 01-2.431-3.43v4.29z"/><path data-name="パス 524" d="M105.777 9.569a57.511 57.511 0 01-6.017.992l-.128-.96c.48-.032 1.088-.1 2.56-.288V5.697h-2.3v-.9h5.5v.9h-2.24v3.488c1.664-.288 2.144-.384 2.592-.48zm.9-9.249v1.92h3.649v.9h-3.617c.128 2.144.256 4.353 1.472 6.113.128.192.448.64.768.64s.576-.768.64-1.888l.9.416c-.128.864-.352 2.592-1.408 2.592-1.28 0-2.24-1.92-2.528-2.816a16.263 16.263 0 01-.768-5.025h-6.081V2.24h6.049c-.032-.544-.032-1.248-.032-1.92zm2.528 1.824a9.044 9.044 0 00-1.796-1.188l.544-.7a11.553 11.553 0 011.856 1.184z"/><path data-name="パス 525" d="M119.571 4.353h-6.081v-.64a12.429 12.429 0 01-2.048 1.056l-.48-.928c3.425-1.344 4.737-3.2 5.025-3.681h1.024a11.1 11.1 0 005.025 3.713l-.512.928a13.214 13.214 0 01-1.984-1.088v.64zm-.992 2.752a16.709 16.709 0 012.816 3.425l-.832.544a10.345 10.345 0 00-.576-.9c-1.92.288-6.625.48-8.417.48l-.1-.96h1.6a18.78 18.78 0 001.408-2.976h-3.168v-.9h10.306v.9h-6.017c-.288.64-.736 1.632-1.472 2.976.288 0 1.568-.032 1.824-.064a54.878 54.878 0 003.457-.256c-.128-.16-.7-.864-1.6-1.792zm.64-3.617a10.983 10.983 0 01-2.688-2.5 10.459 10.459 0 01-2.688 2.5z"/><path data-name="パス 526" d="M125.459 11.01h-.928V6.337a9.993 9.993 0 01-1.568 1.216l-.384-.96a8.376 8.376 0 003.393-3.585h-3.233v-.832h1.824V.32h.928v1.888h1.472v.864a8.587 8.587 0 01-1.247 2.048 7.955 7.955 0 001.663 1.5l-.512.832a7.954 7.954 0 01-1.376-1.376v4.934zm5.12-10.69v3.329h2.528v.96h-2.528v5.057h2.816v.96h-6.716v-.96h2.944V4.577h-2.4V3.62h2.4V.32z"/><path data-name="パス 527" d="M137.174.736h1.408l5.185 8h.032v-8h1.248v9.89h-1.44l-5.153-7.938h-.032v7.938h-1.248z"/><path data-name="パス 528" d="M149.979 1.824h-3.3V.736h7.905v1.12h-3.3v8.77h-1.305z"/><path data-name="パス 529" d="M159.293 1.824h-3.3V.736h7.905v1.12h-3.3v8.77h-1.305z"/><path data-name="パス 530" d="M174.778 4.097v.96h-3.872c-.032 3.585-1.632 4.993-4.7 5.6l-.416-.928c2.656-.512 4.1-1.408 4.033-4.673h-4.645v-.96h9.6zm-1.856-2.976v.928h-6.721V1.12zm.64.928a7.963 7.963 0 00-.512-1.7l.736-.192a6.184 6.184 0 01.544 1.7zm1.344-.128a11.566 11.566 0 00-.576-1.7l.674-.189a7.763 7.763 0 01.608 1.7z"/><path data-name="パス 531" d="M186.238 5.057v1.12h-10.242v-1.12z"/><path data-name="パス 532" d="M191.23 4.545a13.923 13.923 0 012.944 1.856 7.729 7.729 0 001.568-3.425h-4.449a9.87 9.87 0 01-3.136 2.976l-.672-.768a8.558 8.558 0 003.9-4.576l1.12.192a13.348 13.348 0 01-.608 1.248h5.121c-.384 2.048-1.44 7.041-8.161 8.673l-.576-.9a9.9 9.9 0 005.153-2.592 14.252 14.252 0 00-2.912-1.92z"/><path data-name="パス 533" d="M205.443.544V2.4h3.841c.1 2.208-.384 4.833-2.08 6.3a9.1 9.1 0 01-5.185 1.856l-.32-.992c5.089-.416 6.5-2.752 6.5-6.209h-6.657v2.918h-.999V2.432h3.809V.544z"/><path data-name="パス 534" d="M218.018 3.553v.9h-2.945v4.641h3.457v.9h-7.873v-.9h3.457V4.453h-2.945v-.9h6.849z"/><path data-name="パス 535" d="M229.828 5.057v1.12h-10.242v-1.12z"/><path data-name="パス 536" d="M239.941 2.016c-.16 2.112-.768 7.457-7.3 8.609l-.512-.992c3.521-.576 6.049-2.208 6.625-6.625h-7.678v-.992zm-1.28-.288a8.815 8.815 0 00-.576-1.472l.8-.192a6.166 6.166 0 01.608 1.472zm1.7.032a8.089 8.089 0 00-.64-1.568l.8-.192a8.855 8.855 0 01.64 1.5z"/></g></svg>