<svg xmlns="http://www.w3.org/2000/svg" width="26" height="26"><g data-name="グループ 2366"><g data-name="グループ 2350"><circle data-name="楕円形 21" cx="13" cy="13" r="13" fill="#fff"/></g><g fill="#3b486f"><path data-name="パス 683" d="M19.354 10.452a6.36 6.36 0 10-11.838 3.22v.007a11.157 11.157 0 001.438 1.8 4.744 4.744 0 01.554.739 1.359 1.359 0 01.2.647v3.527a1.969 1.969 0 001.969 1.969h.282a1.152 1.152 0 002.06 0h.282a1.969 1.969 0 001.979-1.969v-3.52a1.359 1.359 0 01.2-.647 7.167 7.167 0 01.914-1.142 7.955 7.955 0 001.078-1.4v-.006a6.315 6.315 0 00.882-3.225zm-4.3 10.693a1.054 1.054 0 01-.749.311h-2.618a1.06 1.06 0 01-1.06-1.06v-.2l4.436.943zm.311-.749a1.066 1.066 0 01-.019.189l-4.726-1v-1.243l4.745 1.009zm0-1.665l-4.738-1.009v-.405h4.745zm2.329-5.512v.006a10.485 10.485 0 01-1.34 1.667 5.576 5.576 0 00-.66.888 2.553 2.553 0 00-.256.633h-4.877a2.537 2.537 0 00-.256-.633 7.888 7.888 0 00-1.03-1.3 7.086 7.086 0 01-.965-1.244v-.006a5.451 5.451 0 119.391 0z"/><path data-name="パス 683 - アウトライン" d="M12.998 3.942a6.507 6.507 0 015.617 9.8l-.008.014-.007.011a8.116 8.116 0 01-1.092 1.418 7.074 7.074 0 00-.9 1.115 1.213 1.213 0 00-.184.577v3.515a2.122 2.122 0 01-2.119 2.119h-.194a1.3 1.3 0 01-2.237 0h-.194a2.122 2.122 0 01-2.112-2.119v-3.52a1.212 1.212 0 00-.184-.573 4.546 4.546 0 00-.536-.714c-.1-.114-.2-.229-.313-.351a8.47 8.47 0 01-1.132-1.459l-.02-.034a6.509 6.509 0 015.615-9.8zm5.438 9.508A6.209 6.209 0 0013 4.242v-.15.15a6.208 6.208 0 00-5.415 9.25l.067.117.009.015.066.112a8.806 8.806 0 001.029 1.3c.111.123.216.239.317.355a4.818 4.818 0 01.571.763 1.5 1.5 0 01.223.718v3.52a1.821 1.821 0 001.819 1.819h.374l.042.082a1 1 0 001.793 0l.042-.082h.374a1.821 1.821 0 001.819-1.819v-3.52a1.5 1.5 0 01.223-.722 7.246 7.246 0 01.934-1.168 8.549 8.549 0 00.973-1.229l.084-.142.09-.16zm-5.437-8.599a5.6 5.6 0 014.825 8.441v.006a7.78 7.78 0 01-1.054 1.35l-.3.336a5.425 5.425 0 00-.642.863 2.4 2.4 0 00-.241.6l-.029.113h-5.114l-.029-.113a2.389 2.389 0 00-.241-.6 7.011 7.011 0 00-.91-1.163l-.1-.112a7.2 7.2 0 01-.982-1.268l-.008-.012a5.6 5.6 0 014.825-8.441zm2.324 11.407a2.723 2.723 0 01.24-.557 5.785 5.785 0 01.677-.912l.3-.339a7.442 7.442 0 001.014-1.293l.01-.017a5.3 5.3 0 10-9.134 0l.008.014a6.944 6.944 0 00.945 1.216l.1.112a7.236 7.236 0 01.948 1.215 2.71 2.71 0 01.24.557zm-4.846.909h5.045v1.75l-5.045-1.073zm4.745.3h-4.445v.134l4.445.945zm-4.745.69l5.045 1.073v1.162a1.2 1.2 0 01-.021.215l-.027.152-5-1.062zm4.745 1.316l-4.445-.945v.931l4.445.945v-.007zm-4.745.542l4.877 1.037-.19.2a1.206 1.206 0 01-.855.354h-2.622a1.21 1.21 0 01-1.21-1.21zm4.224 1.2l-3.924-.834v.011a.91.91 0 00.91.91h2.624a.909.909 0 00.389-.083z"/></g></g></svg>