<svg xmlns="http://www.w3.org/2000/svg" width="26" height="26"><g data-name="グループ 2372"><g data-name="グループ 2352"><circle data-name="楕円形 21" cx="13" cy="13" r="13" fill="#fff"/></g><path data-name="パス 694" d="M19.933 7.155l-.006-.005-1.072-1.073a2.45 2.45 0 00-3.467-.001l-1 1-.381.381-8.319 8.321v4.537h4.537l8.317-8.316.381-.381 1-1a2.45 2.45 0 00.007-3.457zM9.677 18.992H7.01v-2.667l7.93-7.929 2.667 2.667zm9.311-9.314l-.623.623-2.663-2.667.623-.623a1.127 1.127 0 011.594 0l1.069 1.073a1.128 1.128 0 010 1.595z" fill="#3b486f"/></g></svg>