<svg xmlns="http://www.w3.org/2000/svg" width="26" height="26"><g data-name="グループ 2369"><g data-name="グループ 2351"><circle data-name="楕円形 21" cx="13" cy="13" r="13" fill="#fff"/></g><g fill="#3b486f"><path data-name="パス 689" d="M10.789 12.113a.887.887 0 10.888.888.887.887 0 00-.888-.888z"/><path data-name="パス 690" d="M17.811 12.113a.887.887 0 10.887.888.888.888 0 00-.887-.888z"/><path data-name="パス 691" d="M14.3 12.113a.887.887 0 10.887.888.887.887 0 00-.887-.888z"/><path data-name="パス 692" d="M17.091 7.094h-6.016a4.153 4.153 0 00-4.148 4.149v1.619l-.935.552-2.027 1.197 1.99 1.256 1.525.963a4.145 4.145 0 003.594 2.077h6.016a4.153 4.153 0 004.148-4.149v-3.515a4.153 4.153 0 00-4.147-4.149zm2.711 7.664a2.711 2.711 0 01-2.711 2.712h-6.016a2.712 2.712 0 01-2.492-1.644l-1.86-1.174 1.642-.967v-2.442a2.711 2.711 0 012.711-2.712h6.016a2.712 2.712 0 012.711 2.712z"/></g></g></svg>