<svg xmlns="http://www.w3.org/2000/svg" width="26" height="26"><g data-name="グループ 2375" transform="translate(-1704 -88)"><circle data-name="楕円形 21" cx="13" cy="13" r="13" transform="translate(1704 88)" fill="#fff"/><g data-name="メールの無料アイコンその8 (1)"><path data-name="パス 657" d="M1724.982 96.79a2.216 2.216 0 00-.459-.972 1.911 1.911 0 00-.151-.167 2.218 2.218 0 00-1.571-.651h-11.578a2.221 2.221 0 00-1.571.651 1.951 1.951 0 00-.151.167 2.19 2.19 0 00-.457.972 2.15 2.15 0 00-.044.433v8.131a2.21 2.21 0 00.184.883 2.179 2.179 0 00.467.689c.05.05.1.1.153.141a2.221 2.221 0 001.418.511h11.578a2.207 2.207 0 001.418-.513 1.919 1.919 0 00.153-.139 2.224 2.224 0 00.469-.689 2.2 2.2 0 00.182-.881v-8.133a2.284 2.284 0 00-.04-.433zm-14.527-.335a1.074 1.074 0 01.767-.318h11.578a1.068 1.068 0 01.864.432l-6.064 5.289a.891.891 0 01-1.17 0l-6.07-5.291a.82.82 0 01.095-.112zm-.318 8.9v-7.61l4.391 3.831-4.389 3.826a.325.325 0 01-.002-.048zm12.663 1.083h-11.577a1.071 1.071 0 01-.537-.142l4.631-4.036.432.376a1.924 1.924 0 002.528 0l.432-.376 4.629 4.036a1.072 1.072 0 01-.538.142zm1.086-1.085a.339.339 0 010 .047l-4.389-3.825 4.391-3.831z" fill="#f29600"/></g></g></svg>