<svg data-name="グループ 2213" xmlns="http://www.w3.org/2000/svg" width="311.025" height="14.612"><g data-name="グループ 2211" fill="#fff"><path data-name="パス 516" d="M14.612.702v2.889h4.375v10.856h3.137V3.591h4.417V.702z"/><path data-name="パス 517" d="M65.962.702h-7.843v2.931h7.636c1.114 0 1.569.5 1.569 1.816v.5h-6.357c-2.394 0-3.591 1.2-3.591 3.921v.66c0 2.807 1.238 3.921 3.756 3.921h9.287V5.408C70.376 1.982 69.264.702 65.962.702m-4.54 10.815c-.454 0-.991-.248-.991-1.4 0-1.2.537-1.362.991-1.362h5.861v2.807h-5.861z"/><path data-name="パス 518" d="M91.843.702H84v2.931h7.636c1.114 0 1.569.5 1.569 1.816v.5h-6.357c-2.394 0-3.591 1.2-3.591 3.921v.66c0 2.807 1.238 3.921 3.756 3.921H96.3V5.408c0-3.426-1.156-4.706-4.458-4.706m-4.541 10.815c-.454 0-.991-.248-.991-1.4 0-1.2.537-1.362.991-1.362h5.861v2.807h-5.861z"/><path data-name="パス 519" d="M27.532.702v2.889h4.417v10.856h3.1V3.591h4.417V.702z"/><path data-name="パス 520" d="M70.997.702v2.889h4.417v10.856h3.137V3.591h4.417V.702z"/><path data-name="パス 521" d="M56.138 9.618V5.531c0-3.591-1.4-4.829-4.541-4.829h-8.338v13.745h8.5c3.343 0 4.375-1.651 4.375-4.829m-3.175.084c0 1.321-.454 1.816-1.569 1.816h-5.031V3.633h5.036c1.114 0 1.569.5 1.569 1.816z"/><path data-name="パス 522" d="M10.2 11.186c-.083-.124-4.252-8.255-4.747-9.04A2.944 2.944 0 002.766.578C1.527.578 0 1.115 0 4.169v10.278h3.1V5.903c0-.619-.041-1.527-.041-1.692s0-.289.083-.33c.041-.083.165 0 .206.124s3.921 7.76 4.747 9.04a2.944 2.944 0 002.683 1.569c1.28 0 2.766-.578 2.766-3.632V.702h-3.1v8.544c0 .619.041 1.527.041 1.692s0 .289-.083.33c-.041.124-.124.041-.206-.083"/></g><g data-name="グループ 2212" fill="#fff"><path data-name="パス 523" d="M118.301 9.246a9.24 9.24 0 01-1.321-2.27V14.2h-1.156V6.852a14.417 14.417 0 01-1.858 4l-.536-1.482a13.445 13.445 0 002.312-4.957h-2.064V3.302h2.188V.413h1.156v2.889h1.857v1.156h-1.857v.949a11.251 11.251 0 002.063 2.806zm5.531 4.953h-1.156V8.751a13.093 13.093 0 01-3.591 4.252l-.867-1.073a13.158 13.158 0 004.086-4.5h-3.467V6.274h3.839v-2.27h-1.9a8.038 8.038 0 01-1.073 1.9l-1.115-.7a8.579 8.579 0 001.816-4.375l1.238.165a12.9 12.9 0 01-.454 1.9h1.442V.413h1.156V2.89h3.261v1.114h-3.217v2.309h3.632v1.158h-3.22a11.908 11.908 0 003.388 4.376l-.7 1.238a11.277 11.277 0 01-3.137-4.417v5.531z"/><path data-name="パス 524" d="M136.421 12.342a74.171 74.171 0 01-7.76 1.28l-.165-1.238c.619-.041 1.4-.124 3.3-.371V7.347h-2.97V6.191h7.1v1.156h-2.889v4.5c2.146-.371 2.766-.5 3.343-.619zM137.577.413v2.476h4.706v1.156h-4.664c.165 2.766.33 5.614 1.9 7.884.165.248.578.826.991.826s.743-.991.826-2.435l1.156.537c-.165 1.114-.454 3.343-1.816 3.343-1.651 0-2.889-2.477-3.261-3.632a20.974 20.974 0 01-.991-6.481h-7.843v-1.2h7.8c-.041-.7-.041-1.61-.041-2.477zm3.261 2.353a11.663 11.663 0 00-2.312-1.527l.7-.908a14.9 14.9 0 012.394 1.527z"/><path data-name="パス 525" d="M154.208 5.613h-7.843v-.825a16.033 16.033 0 01-2.642 1.362l-.619-1.2c4.417-1.734 6.109-4.128 6.481-4.747h1.323a14.314 14.314 0 006.481 4.788l-.66 1.2a17.046 17.046 0 01-2.559-1.4v.826zm-1.28 3.55a21.551 21.551 0 013.632 4.417l-1.073.7a13.332 13.332 0 00-.743-1.156c-2.477.371-8.544.619-10.856.619l-.12-1.237h2.064a24.216 24.216 0 001.816-3.839h-4.086V7.512h13.291v1.156h-7.76a50.433 50.433 0 01-1.9 3.839c.371 0 2.023-.041 2.353-.083a70.94 70.94 0 004.458-.33 36.064 36.064 0 00-2.064-2.312zm.826-4.664a14.165 14.165 0 01-3.467-3.22 13.49 13.49 0 01-3.467 3.22z"/><path data-name="パス 526" d="M161.807 14.2h-1.2V8.173a12.892 12.892 0 01-2.023 1.569l-.492-1.239a10.8 10.8 0 004.375-4.623h-4.169V2.807h2.353V.413h1.2v2.435h1.9v1.115a11.076 11.076 0 01-1.61 2.642 10.259 10.259 0 002.146 1.94l-.66 1.073a10.256 10.256 0 01-1.775-1.775V14.2zM168.411.413v4.293h3.261v1.238h-3.261v6.522h3.632v1.238h-8.668v-1.238h3.8V5.903h-3.1V4.665h3.1V.413z"/><path data-name="パス 527" d="M176.915.949h1.816l6.684 10.319h.041V.949h1.61v12.755h-1.851l-6.649-10.237h-.041v10.237h-1.61z"/><path data-name="パス 528" d="M193.426 2.349h-4.252v-1.4h10.2v1.445h-4.252v11.31h-1.692z"/><path data-name="パス 529" d="M205.438 2.349h-4.252v-1.4h10.2v1.445h-4.252v11.31h-1.692z"/><path data-name="パス 530" d="M225.415 5.283v1.239h-4.995c-.041 4.623-2.105 6.439-6.068 7.224l-.537-1.2c3.426-.66 5.284-1.816 5.2-6.027h-5.983V5.283h12.383zm-2.394-3.842v1.2h-8.668v-1.2zm.826 1.2a10.272 10.272 0 00-.66-2.188l.945-.247a7.979 7.979 0 01.7 2.188zm1.734-.165a14.927 14.927 0 00-.743-2.188l.866-.247a10.009 10.009 0 01.784 2.188z"/><path data-name="パス 531" d="M240.193 6.522v1.445h-13.209V6.522z"/><path data-name="パス 532" d="M246.633 5.861a17.954 17.954 0 013.8 2.394 9.969 9.969 0 002.023-4.417h-5.738a12.729 12.729 0 01-4.045 3.839l-.87-.993a11.038 11.038 0 005.036-5.9l1.445.248a17.229 17.229 0 01-.784 1.61h6.6c-.5 2.642-1.857 9.081-10.526 11.186l-.743-1.156a12.766 12.766 0 006.646-3.343 18.379 18.379 0 00-3.756-2.477z"/><path data-name="パス 533" d="M264.96.702v2.394h4.953c.124 2.848-.5 6.233-2.683 8.132a11.738 11.738 0 01-6.686 2.394l-.413-1.28c6.563-.537 8.379-3.55 8.379-8.008h-8.586v3.757h-1.28V3.137h4.912V.702z"/><path data-name="パス 534" d="M281.182 4.582v1.156h-3.8v5.985h4.458v1.159h-10.152v-1.159h4.458V5.738h-3.8V4.582h8.833z"/><path data-name="パス 535" d="M296.413 6.522v1.445h-13.209V6.522z"/><path data-name="パス 536" d="M309.457 2.6c-.206 2.724-.991 9.618-9.411 11.1l-.66-1.28c4.541-.743 7.8-2.848 8.544-8.544h-9.907V2.6zm-1.651-.371a11.373 11.373 0 00-.743-1.9l1.032-.248a7.957 7.957 0 01.784 1.9zm2.188.041a10.427 10.427 0 00-.826-2.023L310.2 0a11.417 11.417 0 01.823 1.94z"/></g></svg>