<svg xmlns="http://www.w3.org/2000/svg" width="245" height="31.7"><g data-name="グループ 2216" fill="#231f20"><path data-name="パス 609" d="M57.2 26a1.3 1.3 0 01-1.2-.8L49.7 7.5a1.265 1.265 0 112.4-.8l6.3 17.7a1.23 1.23 0 01-.8 1.6h-.4"/><path data-name="パス 610" d="M69.2 26a.6.6 0 01-.4-.1 1.268 1.268 0 01-.8-1.6l6.3-17.7a1.265 1.265 0 112.4.8l-6.3 17.7a1.108 1.108 0 01-1.2.9"/><path data-name="パス 611" d="M69.2 26a1.257 1.257 0 01-1.2-.9L63.2 11l-4.8 14.1a1.265 1.265 0 11-2.4-.8l6-17.6a1.4 1.4 0 011.2-.9 1.257 1.257 0 011.2.9l6 17.6a1.23 1.23 0 01-.8 1.6c-.1.1-.2.1-.4.1"/><path data-name="パス 612" d="M134.9 26a1.324 1.324 0 01-1.3-1.3v-19h8.2a6.4 6.4 0 010 12.8h-2.3a1.3 1.3 0 010-2.6h2.3a3.9 3.9 0 000-7.8h-5.6v16.4c-.1 1-.6 1.5-1.3 1.5"/><path data-name="パス 613" d="M116.5 26a7.9 7.9 0 117.9-7.9 1.3 1.3 0 11-2.6 0 5.391 5.391 0 10-2 4.2 1.281 1.281 0 111.6 2 7.677 7.677 0 01-4.9 1.7"/><path data-name="パス 614" d="M160.8 26a10.1 10.1 0 110-20.2 10.392 10.392 0 017.5 3.3 1.275 1.275 0 01-1.9 1.7 7.506 7.506 0 00-5.6-2.5 7.6 7.6 0 100 15.2 7.506 7.506 0 005.6-2.5 1.275 1.275 0 011.9 1.7 10.224 10.224 0 01-7.5 3.3"/><path data-name="パス 615" d="M212.4 26a1.324 1.324 0 01-1.3-1.3v-9.5a4.481 4.481 0 00-4.5-4.5 1.3 1.3 0 010-2.6 7.02 7.02 0 017 7v9.5c0 .9-.5 1.4-1.2 1.4"/><path data-name="パス 616" d="M99.9 26a1.411 1.411 0 01-1.2-.8l-6-13.3a1.275 1.275 0 012.3-1.1l6 13.3a1.32 1.32 0 01-.6 1.7.551.551 0 01-.5.2"/><path data-name="パス 617" d="M99.9 26a.749.749 0 01-.5-.1 1.287 1.287 0 01-.6-1.7l6-13.3a1.275 1.275 0 012.3 1.1l-6 13.3a1.525 1.525 0 01-1.2.7"/><path data-name="パス 618" d="M123.2 19.4h-8.6a1.3 1.3 0 010-2.6h8.6a1.324 1.324 0 011.3 1.3 1.4 1.4 0 01-1.3 1.3"/><path data-name="パス 619" d="M237.1 26a7.9 7.9 0 117.9-7.9 1.3 1.3 0 11-2.6 0 5.391 5.391 0 10-2 4.2 1.281 1.281 0 111.6 2 7.881 7.881 0 01-4.9 1.7"/><path data-name="パス 620" d="M243.7 19.4h-8.6a1.3 1.3 0 010-2.6h8.6a1.3 1.3 0 010 2.6"/><path data-name="パス 621" d="M237.1 26a7.9 7.9 0 117.9-7.9 1.3 1.3 0 11-2.6 0 5.391 5.391 0 10-2 4.2 1.281 1.281 0 111.6 2 7.881 7.881 0 01-4.9 1.7"/><path data-name="パス 622" d="M179.2 26a1.324 1.324 0 01-1.3-1.3V7.1a1.292 1.292 0 01.9-1.2 1.15 1.15 0 011.4.5l8.1 11.1a1.29 1.29 0 11-2.1 1.5l-5.8-8v13.8a1.155 1.155 0 01-1.2 1.2"/><path data-name="パス 623" d="M195.4 26a1.324 1.324 0 01-1.3-1.3V10.9l-5.8 8a1.29 1.29 0 11-2.1-1.5l8.1-11.1a1.47 1.47 0 011.4-.5 1.4 1.4 0 01.9 1.2v17.7a1.135 1.135 0 01-1.2 1.3"/><path data-name="パス 624" d="M225.6 13.4h-7.3a1.3 1.3 0 010-2.6h7.3a1.324 1.324 0 011.3 1.3 1.4 1.4 0 01-1.3 1.3"/><path data-name="パス 625" d="M220.8 22.6a1.324 1.324 0 01-1.3-1.3V8.1a1.3 1.3 0 112.6 0v13.2a1.4 1.4 0 01-1.3 1.3"/><path data-name="パス 626" d="M224.2 26a4.7 4.7 0 01-4.7-4.7 1.3 1.3 0 112.6 0 2.22 2.22 0 002.2 2.2 2.92 2.92 0 00.9-.2 1.3 1.3 0 111 2.4 6.929 6.929 0 01-2 .3"/><path data-name="パス 627" d="M207.1 26a6.51 6.51 0 01-.5-13 1.304 1.304 0 11.2 2.6 4.1 4.1 0 00-3.7 4 4 4 0 108 0 1.3 1.3 0 112.6 0 6.62 6.62 0 01-6.6 6.4"/><path data-name="パス 628" d="M88.8 26a1.324 1.324 0 01-1.3-1.3v-9.5a4.481 4.481 0 00-4.5-4.5 1.3 1.3 0 010-2.6 7.02 7.02 0 017 7v9.5a1.171 1.171 0 01-1.2 1.4"/><path data-name="パス 629" d="M83.6 26a6.51 6.51 0 01-.5-13 1.304 1.304 0 11.2 2.6 4.1 4.1 0 00-3.7 4 4 4 0 108 0 1.3 1.3 0 112.6 0 6.62 6.62 0 01-6.6 6.4"/><path data-name="パス 630" d="M35.6 0H4.3A4.268 4.268 0 000 4.3v18.1a4.268 4.268 0 004.3 4.3h11.4l-.5 3.6h-2.7v1.4h15.1v-1.4h-2.7l-.5-3.6h11.4a4.268 4.268 0 004.3-4.3V4.3A4.577 4.577 0 0035.6 0M16.5 30.4l.5-3.6h5.7l.5 3.6zm22-26.1v18.1a2.9 2.9 0 01-2.9 2.9H4.3a2.9 2.9 0 01-2.9-2.9V4.3a2.9 2.9 0 012.9-2.9h31.3a2.9 2.9 0 012.9 2.9z"/><path data-name="長方形 3295" d="M3.9 21.8H36v1.3H3.9z"/><path data-name="パス 631" d="M24 10.5c-1.1-1.2-2.3-2.4-4.1-2.4-2 0-3.2 1.4-4.6 3-.3.3-1.5 1.6-1.7 1.9-1.2 1.4-2.2 2.5-3.6 2.5a3.009 3.009 0 01-3-3 3.076 3.076 0 013-3c1.2 0 2 .8 3.2 2.1.1-.1.7-.8.9-1A5.5 5.5 0 0010 8.2a4.42 4.42 0 00-4.4 4.3 4.439 4.439 0 004.4 4.4c2 0 3.2-1.4 4.6-3 .3-.3 1.5-1.6 1.7-1.9 1.2-1.4 2.2-2.5 3.6-2.5 1.2 0 2 .8 3.2 2.1a4.81 4.81 0 01.9-1.1"/><path data-name="パス 632" d="M29.8 8.1c-2 0-3.2 1.4-4.6 2.9-.3.3-1.4 1.6-1.7 1.9-1.2 1.4-2.2 2.5-3.6 2.5-1.2 0-2-.8-3.2-2.1-.1.1-.7.8-.9 1a5.5 5.5 0 004.1 2.4c2 0 3.2-1.4 4.6-3 .3-.3 1.4-1.6 1.7-1.9 1.2-1.4 2.2-2.5 3.6-2.5a3 3 0 010 6c-1.2 0-2-.8-3.2-2.1-.1.1-.7.8-.9 1a5.5 5.5 0 004.1 2.4 4.332 4.332 0 004.3-4.3 4.247 4.247 0 00-4.3-4.2"/></g></svg>