<svg xmlns="http://www.w3.org/2000/svg" width="16.881" height="21.251"><g fill="#f29600"><path data-name="パス 658" d="M6.098.15L.152 6.099v15h16.579V.15zm-.087 2.032v3.83H2.182zm9.341 17.544H1.525V7.225h5.7v-5.7h8.127z"/><path data-name="パス 658 - アウトライン" d="M6.036 0h10.845v21.25H0V6.037zm10.545.3H6.161L.3 6.161V20.95h16.281zM7.075 1.375h8.431v18.5H1.375v-12.8h5.7zm8.131.3H7.375v5.7h-5.7v12.2h13.531zm-9.045.145v4.342H1.82zm-.3 4.041V2.545L2.544 5.862z"/><path data-name="長方形 3298" d="M4.405 9.888h8.07v1.06h-8.07z"/><path data-name="長方形 3298 - アウトライン" d="M4.255 9.738h8.37v1.36h-8.37zm8.07.3h-7.77v.76h7.77z"/><path data-name="長方形 3299" d="M4.405 12.782h8.07v1.06h-8.07z"/><path data-name="長方形 3299 - アウトライン" d="M4.255 12.632h8.37v1.36h-8.37zm8.07.3h-7.77v.76h7.77z"/><path data-name="長方形 3300" d="M4.405 15.675h8.07v1.06h-8.07z"/><path data-name="長方形 3300 - アウトライン" d="M4.255 15.525h8.37v1.36h-8.37zm8.07.3h-7.77v.76h7.77z"/></g></svg>