<svg xmlns="http://www.w3.org/2000/svg" width="83.29" height="80.029"><g data-name="グループ 3050" fill="#0f2437"><g data-name="グループ 2261"><path data-name="長方形 3350" d="M64.717 6.975h12.382v13.62H64.717z"/><path data-name="多角形 19" d="M70.908 31.739l-12.382-13.62H83.29z"/></g><path data-name="パス 1020" d="M63.793 55.344c-2.566-17.076-21.677-25.482-21.677-25.482s8.494-14.422 4.955-17.164c-2.831-2.123-7.521 1.15-9.025 2.389-1.5-1.239-5.839-2.477-8.671-.354-3.628 2.743 2.92 14.953 2.92 14.953s-17.606 8.582-20.084 25.658C9.645 72.42 16.458 80.029 35.304 80.029h5.485c18.757-.089 25.57-7.609 23.004-24.685zm-19.73.708v1.77h-4.336v1.593h4.335v1.77h-4.335v4.158h-3.539v-4.16h-4.246v-1.77h4.247v-1.592h-4.247v-1.77h3.451l-4.158-8.228h3.716l1.593 3.893a60.994 60.994 0 001.416 3.628h.088c.442-1.239.973-2.477 1.416-3.628l1.593-3.893h3.539l-4.158 8.228z" fill-rule="evenodd"/><g data-name="気づく ちょんちょん"><path data-name="パス 1027" d="M10.926 5.428a.851.851 0 01-.85-.85V.85a.863.863 0 01.85-.85.851.851 0 01.85.85V4.6a.848.848 0 01-.85.828z"/><path data-name="パス 1028" d="M6.434 7.284a.856.856 0 01-.59-.243L3.208 4.388a.849.849 0 111.2-1.2l2.653 2.653a.848.848 0 010 1.2.975.975 0 01-.627.243z"/><path data-name="パス 1029" d="M4.578 11.776H.85a.85.85 0 110-1.7H4.6a.851.851 0 01.85.85.866.866 0 01-.872.85z"/><path data-name="パス 1030" d="M3.798 18.903a.856.856 0 01-.59-.243.848.848 0 010-1.2l2.653-2.653a.849.849 0 011.2 1.2L4.408 18.66a.932.932 0 01-.61.243z"/><path data-name="パス 1031" d="M15.418 7.284a.856.856 0 01-.59-.243.848.848 0 010-1.2l2.653-2.653a.849.849 0 011.2 1.2l-2.675 2.653a.856.856 0 01-.588.243z"/></g></g></svg>