<svg xmlns="http://www.w3.org/2000/svg" width="80.979" height="80.818"><g data-name="グループ 2445" fill="#0f2437"><g data-name="1000_F_449832230_8xfFb0h4uEstUCWDSJzy97t0hNKj5ARD_うぇい"><path data-name="パス 704" d="M7.513 38.288c-2.26-5.074-4.52-10.178-6.84-15.356l2.739-1.257c.269.539.539 1.048.808 1.586 7.947-13.679 19.741-20.8 35.545-21.162.06.075.12.135.18.21a12.425 12.425 0 01-.958 1.033c-1.093.943-2.23 1.841-3.308 2.8-.673.6-1.242 1.3-1.886 1.931a11.568 11.568 0 01-.958.733 47.651 47.651 0 00-1.826 1.616 3.542 3.542 0 00-.464.659c2.29 2.08 4.58 4.146 6.974 6.316-7.663.823-13.679 4.116-18.049 10.237.045.06.075.12.12.18a1.049 1.049 0 01.284-.224c.434-.165.838-.539 1.108.3a11.975 11.975 0 001.078 1.991c-4.834 2.794-9.594 5.548-14.547 8.407z"/><path data-name="パス 705" d="M20.773 57.025c-.09-.539-.18-1.063-.3-1.751.539-.075 1.093-.15 1.631-.239a6.223 6.223 0 011-.195.633.633 0 01.464.4c.224 1.093.374 2.2.584 3.293.18.9.464 1.781.644 2.694.359 1.841.673 3.7 1.048 5.538.195.958.479 1.886.688 2.829.12.509.195 1.033.284 1.527-5.538.569-11.06 1.152-16.657 1.721-.09-.973-.195-1.931-.284-2.978.6-.06 1.242-.12 1.946-.195-.973-1-1.931-1.961-2.829-2.978a23.347 23.347 0 01-1.542-2.08c-.554-.793-1.108-1.6-1.646-2.41a15.444 15.444 0 01-.9-1.512 42.346 42.346 0 01-1.257-2.634 72.428 72.428 0 01-1.407-3.4 32.28 32.28 0 01-1.108-3.337c-.309-1.267-.519-2.569-.714-3.875a24.421 24.421 0 01-.4-3.293c-.045-1.542.03-3.1.075-4.64.03-.988.06-1.976.18-2.963.12-.958.344-1.9.539-2.844s.4-1.916.614-2.874c.045-.239.06-.479.12-.7.03-.075.18-.21.224-.195.15.045.344.135.389.254.389.913.718 1.856 1.108 2.769.464 1.048.988 2.05 1.467 3.083.224.479.4.988.6 1.467.449 1.048.9 2.1 1.362 3.143a3149.22 3149.22 0 019.07-5.253 24.507 24.507 0 005.007 21.628z"/><path data-name="パス 706" d="M60.448 78.383c-.868-.12-1.631-.165-2.365-.329-.823-.165-.284-.853-.4-1.3a1.417 1.417 0 01.03-.434c-14.083 6.7-27.6 5.942-40.678-2.44 3.966-.434 7.932-.853 11.9-1.287-.748-3.472-1.467-6.855-2.215-10.372a24.458 24.458 0 0022.539 1.3c-.688-.09-1.287-.15-1.856-.269a.611.611 0 01-.359-.449c.015-.748.075-1.5.15-2.245.015-.09.254-.21.374-.195.763.075 1.512.224 2.275.3s1.542.03 2.32.075c.6.03 1.182.1 1.781.18.883.1 1.781.24 2.664.344.718.09 1.422.18 2.14.254 1.287.135 2.559.269 3.846.389.434.045.868.09 1.377.135a5314.379 5314.379 0 00-3.523 16.343z"/><path data-name="パス 707" d="M46.41 2.818C61.032 6.036 70.97 14.656 76.372 28.5c-.075.1-.135.195-.209.3Q71 25.814 65.851 22.843c-.554 1.182-1.152 2.35-1.676 3.562-.584 1.332-1.108 2.694-1.676 4.041a14.031 14.031 0 01-.6 1.272 2.216 2.216 0 01-.329.434 3.9 3.9 0 01-.254-.419 26.382 26.382 0 00-2.9-4.834 18.016 18.016 0 00-3.023-3.2c-.763-.584-1.392-1.332-2.17-1.9a15.625 15.625 0 00-2.469-1.437c-1.527-.733-3.083-1.377-4.625-2.05a3.252 3.252 0 00-.524-.09c.374.449.614.748.883 1.048.045.045.15.015.21.06.763.569.733.644.03 1.362-.464.464-.853.988-1.242 1.452-.838-.659-1.6-1.2-2.29-1.8-.838-.718-1.631-1.5-2.454-2.245-.868-.793-1.751-1.586-2.619-2.38-.763-.688-1.5-1.392-2.26-2.08-.853-.763-1.721-1.512-2.574-2.26-.434-.389-.06-.659.165-.868.763-.733 1.556-1.422 2.35-2.125.4-.359.838-.673 1.242-1.033.973-.9 1.916-1.841 2.9-2.739.808-.733 1.706-1.377 2.514-2.11.838-.778 1.616-1.616 2.454-2.395a.607.607 0 01.614-.045 16.194 16.194 0 011.556 1.646c.09.1-.015.449-.12.614-.12.15-.343.284-.554.494z"/><path data-name="パス 708" d="M66.03 60.543c-3.577-.389-7.034-.748-10.506-1.122a24.45 24.45 0 007.887-18.8c-.075-.03-.135-.075-.21-.1-.21.389-.419.793-.659 1.227a311.85 311.85 0 01-2.694-1.167c2.275-5.133 4.52-10.207 6.78-15.311 1.033.614 2.005 1.227 3.008 1.8 1.107.629 2.245 1.182 3.337 1.811.853.494 1.646 1.093 2.514 1.6s1.751.913 2.6 1.392a61.242 61.242 0 012.8 1.706.544.544 0 01.045.509c-.269.479-.614.913-.9 1.392-.4.718-.584.793-1.257.359-.239-.15-.449-.359-.7-.539q2.784 22.315-14.143 36.862c-.12-.03-.254-.075-.374-.1.826-3.842 1.634-7.658 2.472-11.519z"/></g><text transform="translate(28 46.409)" font-size="13" font-family="NotoSansCJKjp-Bold, Noto Sans CJK JP" font-weight="700"><tspan x="0" y="0">ITIL</tspan></text></g></svg>