<svg xmlns="http://www.w3.org/2000/svg" width="86.972" height="74.89"><g data-name="グループ 3049"><g data-name="気づく ちょんちょん" fill="#0f2437"><path data-name="パス 1027" d="M10.926 5.428a.851.851 0 01-.85-.85V.85a.863.863 0 01.85-.85.851.851 0 01.85.85V4.6a.848.848 0 01-.85.828z"/><path data-name="パス 1028" d="M6.434 7.284a.856.856 0 01-.59-.243L3.208 4.388a.849.849 0 111.2-1.2l2.653 2.653a.848.848 0 010 1.2.975.975 0 01-.627.243z"/><path data-name="パス 1029" d="M4.578 11.776H.85a.85.85 0 110-1.7H4.6a.851.851 0 01.85.85.866.866 0 01-.872.85z"/><path data-name="パス 1030" d="M3.798 18.903a.856.856 0 01-.59-.243.848.848 0 010-1.2l2.653-2.653a.849.849 0 011.2 1.2L4.408 18.66a.932.932 0 01-.61.243z"/><path data-name="パス 1031" d="M15.418 7.284a.856.856 0 01-.59-.243.848.848 0 010-1.2l2.653-2.653a.849.849 0 011.2 1.2l-2.675 2.653a.856.856 0 01-.588.243z"/></g><g data-name="AdobeStock_297799634 [更新済み]"><path data-name="パス 1033" d="M86.972 27.652v24.453a4.735 4.735 0 01-1.394 3.359l-15.61 15.61a2.066 2.066 0 00-.6 1.46v.287a2.066 2.066 0 01-2.067 2.063h-9.874a2.065 2.065 0 01-2.062-2.062v-3.854a7.447 7.447 0 012.182-5.267l19.4-19.4a4 4 0 115.656 5.656l-4.891 4.9a.81.81 0 000 1.142.8.8 0 00.571.235.815.815 0 00.571-.235l4.9-4.9a5.617 5.617 0 00-.381-8.285 5.557 5.557 0 00-3.151-1.279 5.768 5.768 0 00-1.239.04V27.74a4.064 4.064 0 014.085-4.085 3.991 3.991 0 013.908 4z" fill="#0f2436"/><path data-name="パス 1034" d="M45.178 68.973v3.854a2.065 2.065 0 01-2.062 2.063h-9.874a2.065 2.065 0 01-2.067-2.062v-.287a2.066 2.066 0 00-.6-1.461l-15.61-15.61a4.77 4.77 0 01-1.394-3.359V27.657a4 4 0 013.913-4 4.064 4.064 0 014.085 4.085V41.58a5.772 5.772 0 00-1.239-.04 5.612 5.612 0 00-3.532 9.564l4.9 4.9a.8.8 0 00.571.234.805.805 0 00.571-1.376l-4.9-4.9a4 4 0 115.656-5.656l15.5 15.5 3.9 3.9a7.432 7.432 0 012.182 5.267z" fill="#0f2436"/><g data-name="グループ 3048"><g data-name="グループ 3047"><path data-name="パス 1035" d="M52.676 52.823l2.726 3.691a26.53 26.53 0 005.4-1.673l.173-4.576a3.427 3.427 0 014.461-3.142l4.368 1.381a26.84 26.84 0 003.395-4.523l-2.554-3.806a3.432 3.432 0 011.761-5.165l4.342-1.447a27.25 27.25 0 00.2-3.213c0-.823-.035-1.638-.111-2.439l-4.3-1.576a3.435 3.435 0 01-1.611-5.218l2.66-3.727a26.965 26.965 0 00-3.258-4.625l-4.4 1.253a3.433 3.433 0 01-4.368-3.275l-.035-4.585a26.408 26.408 0 00-5.355-1.819l-2.828 3.6a3.431 3.431 0 01-5.457-.075l-2.726-3.691a26.534 26.534 0 00-5.4 1.673l-.173 4.576a3.427 3.427 0 01-4.461 3.142l-4.368-1.381a26.839 26.839 0 00-3.395 4.523l2.554 3.806a3.432 3.432 0 01-1.762 5.165l-4.342 1.452a27.282 27.282 0 00-.195 3.213c0 .823.035 1.633.111 2.439l4.3 1.58a3.427 3.427 0 011.611 5.214l-2.66 3.727a26.969 26.969 0 003.258 4.625l4.4-1.253a3.433 3.433 0 014.368 3.275l.035 4.581a26.409 26.409 0 005.355 1.819l2.828-3.6a3.422 3.422 0 015.453.074zm-4.258-9.795a12.839 12.839 0 01-10.976-12.694 12.641 12.641 0 01.137-1.859 12.83 12.83 0 0125.524 1.859 12.537 12.537 0 01-.137 1.854 12.833 12.833 0 01-14.547 10.84z" fill="#0f2436"/></g></g></g></g></svg>