<svg xmlns="http://www.w3.org/2000/svg" width="100.11" height="77.029"><g data-name="グループ 3051"><g data-name="気づく ちょんちょん" fill="#0f2437"><path data-name="パス 1027" d="M10.926 5.428a.851.851 0 01-.85-.85V.85a.863.863 0 01.85-.85.851.851 0 01.85.85V4.6a.848.848 0 01-.85.828z"/><path data-name="パス 1028" d="M6.434 7.284a.856.856 0 01-.59-.243L3.208 4.388a.849.849 0 111.2-1.2l2.653 2.653a.848.848 0 010 1.2.975.975 0 01-.627.243z"/><path data-name="パス 1029" d="M4.578 11.776H.85a.85.85 0 110-1.7H4.6a.851.851 0 01.85.85.866.866 0 01-.872.85z"/><path data-name="パス 1030" d="M3.798 18.903a.856.856 0 01-.59-.243.848.848 0 010-1.2l2.653-2.653a.849.849 0 011.2 1.2L4.408 18.66a.932.932 0 01-.61.243z"/><path data-name="パス 1031" d="M15.418 7.284a.856.856 0 01-.59-.243.848.848 0 010-1.2l2.653-2.653a.849.849 0 011.2 1.2l-2.675 2.653a.856.856 0 01-.588.243z"/></g><g data-name="グループ 3045"><path data-name="aman_AdobeStock_142170516 [更新済み]" d="M77.161 67.198c-.442-2.54-.994-5.08-1.546-7.62a10.841 10.841 0 00-1.436-3.533 6.79 6.79 0 00-3.976-3.2l-2.982-1c-3.645-1.436-7.289-2.982-11.044-4.2a5.4 5.4 0 01-2.761-1.878 4.325 4.325 0 00-1.546-1.322 2.154 2.154 0 01-1.215-2.43 5.812 5.812 0 01.442-1.988 19.447 19.447 0 001.657-4.859 1.207 1.207 0 001.436-.552 11.969 11.969 0 00.884-2.1c.442-1.657.884-3.2 1.215-4.859 0-.11.11-.221.11-.331a1.186 1.186 0 00-.663-1.325c-.221-.11-.442-.11-.663-.221.11-.331.11-.663.221-.884a14.733 14.733 0 00-1.326-10.378 10.07 10.07 0 00-6.3-5.522c-.773-.221-1.657-.442-2.54-.663-1.872-.442-3.75-.331-5.628-.888a2.719 2.719 0 00-1.325.11c-.884.11-1.767.331-2.651.442a2.986 2.986 0 00-2.54 1.215 1.981 1.981 0 01-1.1.663 4.11 4.11 0 00-2.1 2.209c-.221.663-.663 1.215-.884 1.878a12.17 12.17 0 00-.221 1.988 17.027 17.027 0 00-.331 4.086 21.682 21.682 0 00.994 5.853c-.442.331-1.215.552-1.215 1.325a4.592 4.592 0 00.22 2.431 15.2 15.2 0 011.325 3.755 4.08 4.08 0 00.775 1.545 3.819 3.819 0 001.325.773 12.426 12.426 0 001.546 3.976 2.6 2.6 0 01.331 2.209c-.221.884-.442 1.767-.552 2.54a12.627 12.627 0 00-1.767 1.546 8.48 8.48 0 01-3.865 2.54c-3.313 1.325-6.737 2.54-10.161 3.534a26.144 26.144 0 00-3.757 1.441 7.528 7.528 0 00-4.2 4.418c-.77 2.208-1.654 4.417-2.316 6.736a9.293 9.293 0 00-.884 4.087 7.155 7.155 0 00.221 2.209 1.585 1.585 0 001.657 1.436H9.46c21.647 0 43.293.11 64.94.11h.994c1.215-.11 1.767-.552 1.878-1.767a9.588 9.588 0 00-.111-3.535z" fill="#0f2437" fill-rule="evenodd"/><g data-name="グループ 3044" transform="translate(-917.73 -2191.971)"><path data-name="パス 1032" d="M961.036 2262.526l.579 3.474h52.105l.579-3.474h-53.263m-3.541-3h60.341l-1.574 9.474h-57.188z" fill="#fff"/><rect data-name="長方形 3497" width="40.526" height="33" rx="2" transform="translate(967.404 2233)" fill="#0f2437"/><path data-name="長方形 3497 - アウトライン" d="M969.404 2233a2 2 0 00-2 2v29a2 2 0 002 2h36.526a2 2 0 002-2v-29a2 2 0 00-2-2h-36.526m0-3h36.526a5.006 5.006 0 015 5v29a5.006 5.006 0 01-5 5h-36.526a5.006 5.006 0 01-5-5v-29a5.006 5.006 0 015-5z" fill="#fff"/><path data-name="パス 744" d="M961.036 2262.526h53.263l-.579 3.474h-52.105z" fill="#0f2437"/></g></g></g></svg>