<svg xmlns="http://www.w3.org/2000/svg" width="24.772" height="19.444"><g data-name="メールの無料アイコンその8 (1)"><path data-name="パス 657" d="M24.708 2.768a3.427 3.427 0 00-.709-1.5 2.955 2.955 0 00-.233-.259 3.429 3.429 0 00-2.43-1.007h-17.9a3.433 3.433 0 00-2.429 1.007 3.018 3.018 0 00-.233.259 3.386 3.386 0 00-.706 1.5 3.323 3.323 0 00-.068.67v12.57a3.416 3.416 0 00.285 1.365 3.368 3.368 0 00.722 1.065c.077.077.153.147.237.217a3.433 3.433 0 002.193.79h17.9a3.412 3.412 0 002.193-.793 2.964 2.964 0 00.237-.214 3.439 3.439 0 00.725-1.064 3.4 3.4 0 00.281-1.361V3.438a3.531 3.531 0 00-.065-.67zM2.25 2.25a1.66 1.66 0 011.186-.492h17.9a1.651 1.651 0 011.337.668l-9.382 8.177a1.377 1.377 0 01-1.809 0L2.1 2.423a1.269 1.269 0 01.15-.173zm-.492 13.758V4.238l6.789 5.923-6.786 5.92a.5.5 0 01-.003-.073zm19.578 1.678h-17.9a1.655 1.655 0 01-.831-.22l7.16-6.24.668.581a2.975 2.975 0 003.909 0l.668-.581 7.157 6.24a1.657 1.657 0 01-.831.22zm1.678-1.678a.524.524 0 010 .073l-6.789-5.913 6.789-5.923z" fill="#fff"/></g></svg>