<svg xmlns="http://www.w3.org/2000/svg" width="137.208" height="104.705"><g data-name="グループ 2891"><path data-name="パス 754" d="M16.352 25.976a3.613 3.613 0 01-1.872-.52 3.573 3.573 0 01-1.655-2.013 3.234 3.234 0 01.248-2.392 5.483 5.483 0 013.316-2.616 7.393 7.393 0 013.442-.219 6.035 6.035 0 00-1.143-3.778 3.885 3.885 0 00-1.22-1.113 13.335 13.335 0 01-3.471 4.274 10.614 10.614 0 01-5.236 2.484 3.693 3.693 0 01-3.715-1.527 3.9 3.9 0 01-.345-3.758 6.634 6.634 0 012.48-2.781 13.168 13.168 0 016.954-2.124 11.068 11.068 0 011.629.1 5.666 5.666 0 00-1.648-4.74c-2.557-2.8-5.173-2.82-6.919-2.348-2.421.656-4.249 2.582-4.551 3.992A1.338 1.338 0 01.03 6.329a7.335 7.335 0 012.237-3.641A10.007 10.007 0 016.497.325a8.821 8.821 0 014.794.015 10.388 10.388 0 014.8 3.1 8.767 8.767 0 012.295 4.473 8.108 8.108 0 01-.029 2.844 6.683 6.683 0 012.528 2.144 8.7 8.7 0 011.566 6.2 7.747 7.747 0 012.63 1.964 7.022 7.022 0 011.318 2.655 1.337 1.337 0 11-2.567.749 3.91 3.91 0 00-2.13-2.742 8.776 8.776 0 01-1.553 2.349 6.043 6.043 0 01-2.577 1.707 4.166 4.166 0 01-1.22.193zm2.207-5.2a4.435 4.435 0 00-1.366.209 2.886 2.886 0 00-1.731 1.259c-.107.209-.263.525.394.924.7.423 1.7-.224 2.329-.9a6.034 6.034 0 00.972-1.444 4.227 4.227 0 00-.598-.048zm-4.283-8.222h-.107a10.517 10.517 0 00-5.484 1.666c-.846.574-2.154 1.707-1.4 2.869.185.282.583.394 1.181.331 2-.219 4.881-2.246 6.369-4.842a5.185 5.185 0 00-.559-.025z" fill="#fff"/><g data-name="グループ 2890"><g data-name="グループ 2507" fill="#fff"><path data-name="パス 701" d="M54.088 86.253V26.238s-6.263-2.768-9.76 1.457-1.456 15.149-1.456 15.149-1.749-1.311-2.04 0 2.477 7.866 3.5 7.866 2.477 3.788 2.477 7.866-16.461 7.429-19.52 10.342-5.1 18.645-4.807 17.334 31.606.001 31.606.001z"/><path data-name="パス 702" d="M53.057 86.252V26.237s6.263-.728 9.76 3.5 1.457 13.11 1.457 13.11 1.749-1.311 2.04 0-2.477 7.866-3.5 7.866-2.477 3.787-2.477 7.866 16.461 7.43 19.52 10.343 5.1 18.645 4.807 17.334-31.607-.004-31.607-.004z"/></g><g data-name="グループ 2508" fill="#fff"><path data-name="パス 701" d="M106.602 86.253V26.238s-6.263-2.768-9.76 1.457-1.456 15.149-1.456 15.149-1.749-1.311-2.04 0 2.477 7.866 3.5 7.866 2.477 3.788 2.477 7.866-16.461 7.429-19.52 10.342-5.1 18.645-4.807 17.334 31.606.001 31.606.001z"/><path data-name="パス 702" d="M105.571 86.252V26.237s6.263-.728 9.76 3.5 1.457 13.11 1.457 13.11 1.749-1.311 2.04 0-2.477 7.866-3.5 7.866-2.477 3.787-2.477 7.866 16.461 7.43 19.52 10.343 5.1 18.645 4.807 17.334-31.607-.004-31.607-.004z"/></g><g data-name="グループ 2506" fill="#0f2437"><path data-name="パス 701" d="M81.33 101.577V14.283s-9.11-4.026-14.2 2.118-2.119 22.035-2.119 22.035-2.543-1.907-2.967 0 3.6 11.442 5.085 11.442 3.6 5.508 3.6 11.441-23.943 10.806-28.392 15.043-7.415 27.12-6.992 25.214 45.985.001 45.985.001z"/><path data-name="パス 701 - アウトライン" d="M35.318 101.69c.006 0 .018-.037.035-.113.423-1.907 45.977 0 45.977 0V14.283s-9.109-4.026-14.2 2.118-2.119 22.035-2.119 22.035-2.543-1.907-2.967 0 3.6 11.442 5.085 11.442 3.6 5.508 3.6 11.441-23.943 10.806-28.392 15.043c-4.272 4.069-7.177 25.326-7.027 25.326m49.012 3.016l-3.125-.131c-.2-.008-20.341-.845-33.744-.845a86.19 86.19 0 00-10.339.357 3.032 3.032 0 01-1.8.6H33.28l-.754-1.887a4.528 4.528 0 01-.094-2.489c.089-.707.221-1.626.371-2.588.287-1.846.773-4.717 1.457-7.912a79.5 79.5 0 012.337-8.791c1.146-3.362 2.314-5.531 3.675-6.828 2.115-2.015 6.275-3.607 12.886-6.037 3.527-1.3 7.174-2.637 10.061-4.018 3.532-1.689 4.351-2.713 4.512-2.97a23.55 23.55 0 00-.776-5.8 11.612 11.612 0 00-1.03-2.7 4.86 4.86 0 01-2.031-1.589 29.19 29.19 0 01-3.347-6.393 31.4 31.4 0 01-1.151-3.444 7.406 7.406 0 01-.28-3.449 3.962 3.962 0 012.378-2.916 62.34 62.34 0 01-.329-5.081c-.157-7.033 1.073-12.182 3.655-15.3a12.646 12.646 0 0110.111-4.5 20.422 20.422 0 017.608 1.551l1.788.79z"/><path data-name="パス 702" d="M79.83 101.576V14.282s9.11-1.059 14.2 5.085 2.119 19.069 2.119 19.069 2.543-1.907 2.967 0-3.6 11.442-5.085 11.442-3.6 5.508-3.6 11.441 23.943 10.806 28.392 15.043 7.416 27.12 6.992 25.214-45.985 0-45.985 0z"/><path data-name="パス 702 - アウトライン" d="M125.842 101.689c.15 0-2.754-21.258-7.027-25.326-4.449-4.237-28.392-9.111-28.392-15.043s2.119-11.441 3.6-11.441 5.509-9.535 5.085-11.442-2.966 0-2.967 0 2.967-12.925-2.119-19.069-14.2-5.085-14.2-5.085v87.294s45.554-1.907 45.978 0c.017.076.028.113.035.113m-49.012 3.016V11.612l2.654-.309a17.987 17.987 0 011.921-.09 23.636 23.636 0 016.837 1 16.611 16.611 0 018.094 5.245c2.585 3.123 3.815 7.777 3.654 13.831a43.524 43.524 0 01-.251 3.617 3.97 3.97 0 012.3 2.883 7.4 7.4 0 01-.28 3.449 31.406 31.406 0 01-1.15 3.444 29.2 29.2 0 01-3.347 6.392 4.862 4.862 0 01-2.032 1.589 11.612 11.612 0 00-1.03 2.7 23.55 23.55 0 00-.776 5.8c.161.256.981 1.281 4.512 2.969 2.888 1.381 6.535 2.721 10.061 4.018 6.612 2.431 10.771 4.023 12.887 6.037 1.361 1.3 2.529 3.466 3.675 6.828a79.431 79.431 0 012.337 8.791c.684 3.195 1.17 6.066 1.458 7.912.15.962.281 1.881.371 2.588a4.527 4.527 0 01-.094 2.491l-.754 1.886h-2.034a3.033 3.033 0 01-1.8-.6 86.206 86.206 0 00-10.339-.357c-13.4 0-33.542.837-33.744.845z"/></g><g data-name="グループ 2509" fill="#fff"><path data-name="パス 701" d="M81.331 101.577V14.283s-9.11-4.026-14.2 2.118-2.119 22.035-2.119 22.035-2.543-1.907-2.966 0 3.6 11.442 5.085 11.442 3.6 5.508 3.6 11.441-23.943 10.806-28.392 15.043-6.991 25.142-6.992 25.214 45.984.001 45.984.001z"/><path data-name="パス 702" d="M79.83 101.576V14.282s9.11-1.059 14.2 5.085 2.119 19.069 2.119 19.069 2.543-1.907 2.967 0-3.6 11.442-5.085 11.442-3.6 5.508-3.6 11.441 23.943 10.806 28.392 15.043 7.051 25.157 6.992 25.214-45.985 0-45.985 0z"/></g></g></g></svg>