<svg xmlns="http://www.w3.org/2000/svg" width="105.037" height="117.433"><g data-name="グループ 2884" transform="translate(-567.963 -388.169)"><path data-name="パス 754" d="M584.315 414.145a3.613 3.613 0 01-1.872-.52 3.573 3.573 0 01-1.655-2.013 3.234 3.234 0 01.248-2.392 5.483 5.483 0 013.316-2.616 7.393 7.393 0 013.442-.219 6.035 6.035 0 00-1.143-3.778 3.885 3.885 0 00-1.22-1.113 13.335 13.335 0 01-3.471 4.274 10.614 10.614 0 01-5.236 2.484 3.693 3.693 0 01-3.715-1.527 3.9 3.9 0 01-.345-3.758 6.634 6.634 0 012.48-2.781 13.168 13.168 0 016.954-2.124 11.068 11.068 0 011.629.1 5.666 5.666 0 00-1.648-4.74c-2.557-2.8-5.173-2.82-6.919-2.348-2.421.656-4.249 2.582-4.551 3.992a1.338 1.338 0 01-2.616-.568 7.335 7.335 0 012.237-3.641 10.007 10.007 0 014.23-2.363 8.821 8.821 0 014.794.015 10.388 10.388 0 014.8 3.1 8.767 8.767 0 012.295 4.473 8.108 8.108 0 01-.029 2.844 6.683 6.683 0 012.528 2.144 8.7 8.7 0 011.566 6.2 7.747 7.747 0 012.63 1.964 7.022 7.022 0 011.318 2.655 1.337 1.337 0 11-2.567.749 3.91 3.91 0 00-2.13-2.742 8.776 8.776 0 01-1.553 2.349 6.043 6.043 0 01-2.577 1.707 4.166 4.166 0 01-1.22.193zm2.207-5.2a4.435 4.435 0 00-1.366.209 2.886 2.886 0 00-1.731 1.259c-.107.209-.263.525.394.924.7.423 1.7-.224 2.329-.9a6.034 6.034 0 00.972-1.444 4.227 4.227 0 00-.598-.048zm-4.283-8.222h-.107a10.517 10.517 0 00-5.484 1.666c-.846.574-2.154 1.707-1.4 2.869.185.282.583.394 1.181.331 2-.219 4.881-2.246 6.369-4.842a5.185 5.185 0 00-.559-.025z" fill="#fff"/><rect data-name="長方形 3499" width="76" height="62" rx="6" transform="translate(597 443.603)" fill="#fff"/><path data-name="パス 746" d="M634.687 413.418a15.86 15.86 0 00-15.842 15.842v29.125c2.525 1.081 7.944 2.467 15.842 2.467s13.317-1.386 15.842-2.467V429.26a15.86 15.86 0 00-15.842-15.842m0-12a27.842 27.842 0 0127.842 27.842v32.058c0 15.379-55.684 15.379-55.684 0V429.26a27.842 27.842 0 0127.842-27.842z" fill="#fff"/><g data-name="グループ 2504" transform="translate(625.406 463.851)" fill="#0f2437"><circle data-name="楕円形 75" cx="7.593" cy="7.593" r="7.593" transform="translate(1.603)"/><path data-name="パス 745" d="M.844 21.092l8.352-10.033 8.352 10.033z"/></g><path data-name="パス 747" d="M605.157 428.416l7.674 4.195 7.512-4.195v15.186h-15.186z" fill="#0f2437"/><circle data-name="楕円形 76" cx="6" cy="6" r="6" transform="translate(607 423.603)" fill="#fff"/></g></svg>