<svg xmlns="http://www.w3.org/2000/svg" width="1100" height="535"><g data-name="グループ 2877"><path data-name="長方形 3500" fill="#fff" d="M0 0h1100v535H0z"/><g data-name="グループ 2871"><g data-name="グループ 2870"><text transform="translate(449 484)" font-size="20" font-family="YuGothicUI-Semibold, Yu Gothic UI" font-weight="600"><tspan x="0" y="0">ご利用月数で</tspan></text><text transform="translate(562 484)" fill="#bc4328" font-size="26" font-family="YuGothicUI-Bold, Yu Gothic UI" font-weight="700"><tspan x="0" y="0">平準化</tspan></text><text data-name="してお支払い頂きます。" transform="translate(644 484)" font-size="20" font-family="YuGothicUI-Semibold, Yu Gothic UI" font-weight="600"><tspan x="0" y="0">してお支払い頂きます。</tspan></text></g><path data-name="パス 818" d="M1006.535 447.109H269.5V432h2v13.109h733.035V432h2z"/><g data-name="グループ 2869"><text data-name="Wave PC Mate" transform="translate(35 328)" fill="#bc4328" font-size="20" font-family="Roboto-Medium, Roboto" font-weight="500"><tspan x="0" y="0">Wave PC Mate</tspan></text><g data-name="グループ 2866"><path data-name="長方形 3549" fill="#fff" d="M278 252h225v63H278z"/><path data-name="長方形 3549 - アウトライン" d="M278 252h3v1h-3zm6 0h3v1h-3zm6 0h3v1h-3zm6 0h3v1h-3zm6 0h3v1h-3zm6 0h3v1h-3zm6 0h3v1h-3zm6 0h3v1h-3zm6 0h3v1h-3zm6 0h3v1h-3zm6 0h3v1h-3zm6 0h3v1h-3zm6 0h3v1h-3zm6 0h3v1h-3zm6 0h3v1h-3zm6 0h3v1h-3zm6 0h3v1h-3zm6 0h3v1h-3zm6 0h3v1h-3zm6 0h3v1h-3zm6 0h3v1h-3zm6 0h3v1h-3zm6 0h3v1h-3zm6 0h3v1h-3zm6 0h3v1h-3zm6 0h3v1h-3zm6 0h3v1h-3zm6 0h3v1h-3zm6 0h3v1h-3zm6 0h3v1h-3zm6 0h3v1h-3zm6 0h3v1h-3zm6 0h3v1h-3zm6 0h3v1h-3zm6 0h3v1h-3zm6 0h3v1h-3zm6 0h3v1h-3zm6 0h3v1h-3zm2 3h1v3h-1zm0 6h1v3h-1zm0 6h1v3h-1zm0 6h1v3h-1zm0 6h1v3h-1zm0 6h1v3h-1zm0 6h1v3h-1zm0 6h1v3h-1zm0 6h1v3h-1zm0 6h1v3h-1zm-2 5h3v1h-3zm-6 0h3v1h-3zm-6 0h3v1h-3zm-6 0h3v1h-3zm-6 0h3v1h-3zm-6 0h3v1h-3zm-6 0h3v1h-3zm-6 0h3v1h-3zm-6 0h3v1h-3zm-6 0h3v1h-3zm-6 0h3v1h-3zm-6 0h3v1h-3zm-6 0h3v1h-3zm-6 0h3v1h-3zm-6 0h3v1h-3zm-6 0h3v1h-3zm-6 0h3v1h-3zm-6 0h3v1h-3zm-6 0h3v1h-3zm-6 0h3v1h-3zm-6 0h3v1h-3zm-6 0h3v1h-3zm-6 0h3v1h-3zm-6 0h3v1h-3zm-6 0h3v1h-3zm-6 0h3v1h-3zm-6 0h3v1h-3zm-6 0h3v1h-3zm-6 0h3v1h-3zm-6 0h3v1h-3zm-6 0h3v1h-3zm-6 0h3v1h-3zm-6 0h3v1h-3zm-6 0h3v1h-3zm-6 0h3v1h-3zm-6 0h3v1h-3zm-6 0h3v1h-3zm-6 0h3v1h-3zm0-5h1v3h-1zm0-6h1v3h-1zm0-6h1v3h-1zm0-6h1v3h-1zm0-6h1v3h-1zm0-6h1v3h-1zm0-6h1v3h-1zm0-6h1v3h-1zm0-6h1v3h-1zm0-6h1v3h-1z" fill="#bc4328"/><g data-name="グループ 2865"><path data-name="長方形 3548" fill="#00b176" opacity=".85" d="M278 365h225v25H278z"/><path data-name="長方形 3773" fill="#8246af" opacity=".85" d="M278 340h225v25H278z"/><path data-name="長方形 3774" fill="#d76b00" opacity=".85" d="M278 315h225v25H278z"/></g><text transform="translate(345 383)" fill="#fff" font-size="13" font-family="YuGothicUI-Regular, Yu Gothic UI"><tspan x="0" y="0">運用管理サポート</tspan></text><text transform="translate(343 358)" fill="#fff" font-size="13" font-family="YuGothicUI-Regular, Yu Gothic UI"><tspan x="0" y="0">セットアップデリバリ</tspan></text><text data-name="ハードウェア・ソフトウェアの提供" transform="translate(311 333)" fill="#fff" font-size="13" font-family="YuGothicUI-Regular, Yu Gothic UI"><tspan x="0" y="0">ハードウェア・ソフトウェアの提供</tspan></text><path data-name="長方形 3548" fill="#00b176" opacity=".85" d="M529 365h225v25H529z"/><path data-name="長方形 3773" fill="#8246af" opacity=".85" d="M529 340h225v25H529z"/><path data-name="長方形 3774" fill="#d76b00" opacity=".85" d="M529 315h225v25H529z"/><text data-name="運用管理サポート" transform="translate(596 383)" fill="#fff" font-size="13" font-family="YuGothicUI-Regular, Yu Gothic UI"><tspan x="0" y="0">運用管理サポート</tspan></text><text data-name="セットアップデリバリ" transform="translate(594 358)" fill="#fff" font-size="13" font-family="YuGothicUI-Regular, Yu Gothic UI"><tspan x="0" y="0">セットアップデリバリ</tspan></text><text data-name="ハードウェア・ソフトウェアの提供" transform="translate(562 333)" fill="#fff" font-size="13" font-family="YuGothicUI-Regular, Yu Gothic UI"><tspan x="0" y="0">ハードウェア・ソフトウェアの提供</tspan></text><path data-name="長方形 3548" fill="#00b176" opacity=".85" d="M780 365h225v25H780z"/><path data-name="長方形 3773" fill="#8246af" opacity=".85" d="M780 340h225v25H780z"/><path data-name="長方形 3774" fill="#d76b00" opacity=".85" d="M780 315h225v25H780z"/><text data-name="運用管理サポート" transform="translate(847 383)" fill="#fff" font-size="13" font-family="YuGothicUI-Regular, Yu Gothic UI"><tspan x="0" y="0">運用管理サポート</tspan></text><text data-name="セットアップデリバリ" transform="translate(845 358)" fill="#fff" font-size="13" font-family="YuGothicUI-Regular, Yu Gothic UI"><tspan x="0" y="0">セットアップデリバリ</tspan></text><text data-name="ハードウェア・ソフトウェアの提供" transform="translate(813 333)" fill="#fff" font-size="13" font-family="YuGothicUI-Regular, Yu Gothic UI"><tspan x="0" y="0">ハードウェア・ソフトウェアの提供</tspan></text><text transform="translate(380 289)" fill="#bc4328" font-size="14" font-family="YuGothicUI-Semibold, Yu Gothic UI" font-weight="600"><tspan x="0" y="0">なし</tspan></text><text data-name="1ヶ月目" transform="translate(365 415)" font-size="16" font-family="Roboto-Medium, Roboto" font-weight="500"><tspan x="0" y="0">1</tspan><tspan y="0" font-family="YuGothicUI-Semibold, Yu Gothic UI" font-weight="600">ヶ月目</tspan></text><text data-name="2ヶ月目" transform="translate(616 415)" font-size="16" font-family="Roboto-Medium, Roboto" font-weight="500"><tspan x="0" y="0">2</tspan><tspan y="0" font-family="YuGothicUI-Semibold, Yu Gothic UI" font-weight="600">ヶ月目</tspan></text><text data-name="3ヶ月目" transform="translate(867 415)" font-size="16" font-family="Roboto-Medium, Roboto" font-weight="500"><tspan x="0" y="0">3</tspan><tspan y="0" font-family="YuGothicUI-Semibold, Yu Gothic UI" font-weight="600">ヶ月目</tspan></text><path data-name="パス 983" d="M272.424 313.368a39.234 39.234 0 01-5.924-8.231 47.161 47.161 0 01-4.057-9.654 45.506 45.506 0 01-1.845-12.823 44.377 44.377 0 011.846-12.717 44.266 44.266 0 014.06-9.42 36.005 36.005 0 015.932-7.89l.68.733a35.853 35.853 0 00-5.765 7.69 43.379 43.379 0 00-5.752 21.6 45.38 45.38 0 005.775 21.99 38.873 38.873 0 005.753 8.006z"/><path data-name="パス 985" d="M272.394 388.323a47.131 47.131 0 01-5.91-9.827 62.819 62.819 0 01-4.046-11.522 64.268 64.268 0 01-1.839-15.3 62.649 62.649 0 011.84-15.169 58.754 58.754 0 014.048-11.242 42.892 42.892 0 015.917-9.419l.744.669a42.8 42.8 0 00-5.778 9.222 60.021 60.021 0 00-5.771 25.939 62.842 62.842 0 005.792 26.4 46.951 46.951 0 005.767 9.6z"/><path data-name="長方形 3778" fill="#fff" d="M184 271h88v25h-88z"/><path data-name="長方形 3780" fill="#fff" d="M184 340h88v25h-88z"/><text transform="translate(212 288)" font-size="14" font-family="YuGothicUI-Semibold, Yu Gothic UI" font-weight="600"><tspan x="0" y="0">初期費用</tspan></text><text transform="translate(184 358)" font-size="14" font-family="YuGothicUI-Semibold, Yu Gothic UI" font-weight="600"><tspan x="0" y="0">ランニングコスト</tspan></text><g data-name="グループ 2570"><path data-name="線 358" d="M1066 390.5H214v-1h852z" fill="#555"/><g data-name="グループ 2569" fill="#fff"><path data-name="長方形 3552" d="M1059 387h4v5h-4z"/><path data-name="長方形 3553" d="M1052 387h4v5h-4z"/><path data-name="長方形 3554" d="M1045 387h4v5h-4z"/></g></g></g></g><g data-name="グループ 2868"><text transform="translate(105 138)" fill="#031524" font-size="20" font-family="YuGothicUI-Semibold, Yu Gothic UI" font-weight="600"><tspan x="0" y="0">購買型</tspan></text><g data-name="グループ 2867"><path data-name="長方形 3550" fill="#00b176" opacity=".85" d="M529 161h225v41H529zm251 0h225v41H780z"/><g data-name="グループ 2864"><path data-name="長方形 3551" fill="#d76b00" opacity=".85" d="M278 57h225v52H278z"/><path data-name="長方形 3776" fill="#8246af" opacity=".85" d="M278 109h225v52H278z"/></g><path data-name="長方形 3550" fill="#00b176" opacity=".85" d="M278 161h225v41H278z"/><text transform="translate(363 187)" fill="#fff" font-size="14" font-family="YuGothicUI-Regular, Yu Gothic UI"><tspan x="0" y="0">運用管理</tspan></text><text data-name="運用管理" transform="translate(614 187)" fill="#fff" font-size="14" font-family="YuGothicUI-Regular, Yu Gothic UI"><tspan x="0" y="0">運用管理</tspan></text><text data-name="運用管理" transform="translate(865 187)" fill="#fff" font-size="14" font-family="YuGothicUI-Regular, Yu Gothic UI"><tspan x="0" y="0">運用管理</tspan></text><text data-name="1ヶ月目" transform="translate(365 227)" font-size="16" font-family="Roboto-Medium, Roboto" font-weight="500"><tspan x="0" y="0">1</tspan><tspan y="0" font-family="YuGothicUI-Semibold, Yu Gothic UI" font-weight="600">ヶ月目</tspan></text><text transform="translate(346 141)" fill="#fff" font-size="14" font-family="YuGothicUI-Regular, Yu Gothic UI"><tspan x="0" y="0">セットアップ作業</tspan></text><text data-name="ハードウェア/ソフトウェア購入" transform="translate(315 89)" fill="#fff" font-size="14" font-family="YuGothicUI-Regular, Yu Gothic UI"><tspan x="0" y="0">ハードウェア</tspan><tspan y="0" font-family="Roboto-Regular, Roboto">/</tspan><tspan y="0">ソフトウェア購入</tspan></text><text data-name="2ヶ月目" transform="translate(616 227)" font-size="16" font-family="Roboto-Medium, Roboto" font-weight="500"><tspan x="0" y="0">2</tspan><tspan y="0" font-family="YuGothicUI-Semibold, Yu Gothic UI" font-weight="600">ヶ月目</tspan></text><text data-name="3ヶ月目" transform="translate(870 227)" font-size="16" font-family="Roboto-Medium, Roboto" font-weight="500"><tspan x="0" y="0">3</tspan><tspan y="0" font-family="YuGothicUI-Semibold, Yu Gothic UI" font-weight="600">ヶ月目</tspan></text><path data-name="パス 982" d="M272.346 160.419a77.111 77.111 0 01-5.884-13.962 116.657 116.657 0 01-4.031-16.379 128.578 128.578 0 01-1.832-21.738 125.372 125.372 0 011.832-21.555 108.727 108.727 0 014.032-15.976 67.685 67.685 0 015.89-13.379l.846.533a68.156 68.156 0 00-5.8 13.2 117.082 117.082 0 00-5.8 37.173 122.814 122.814 0 005.813 37.807 76.221 76.221 0 005.793 13.762z"/><path data-name="パス 984" d="M272.518 200.728a29.765 29.765 0 01-5.949-5.039 24.821 24.821 0 01-4.1-5.942 18.212 18.212 0 01-1.874-7.947 17.783 17.783 0 011.876-7.884 23.62 23.62 0 014.1-5.8 28.262 28.262 0 015.955-4.829l.492.87a27.836 27.836 0 00-5.741 4.667c-2.592 2.746-5.682 7.226-5.682 12.976s3.1 10.367 5.707 13.214a29.271 29.271 0 005.728 4.857z"/><path data-name="長方形 3777" fill="#fff" d="M184 97h88v25h-88z"/><path data-name="長方形 3779" fill="#fff" d="M184 169h88v25h-88z"/><text data-name="初期費用" transform="translate(212 115)" font-size="14" font-family="YuGothicUI-Semibold, Yu Gothic UI" font-weight="600"><tspan x="0" y="0">初期費用</tspan></text><text data-name="ランニングコスト" transform="translate(184 187)" font-size="14" font-family="YuGothicUI-Semibold, Yu Gothic UI" font-weight="600"><tspan x="0" y="0">ランニングコスト</tspan></text><path data-name="長方形 3775" d="M278 55.5h3v3h-1.5V61h-3v-3h1.5zm6 0h3v3h-3zm6 0h3v3h-3zm6 0h3v3h-3zm6 0h3v3h-3zm6 0h3v3h-3zm6 0h3v3h-3zm6 0h3v3h-3zm6 0h3v3h-3zm6 0h3v3h-3zm6 0h3v3h-3zm6 0h3v3h-3zm6 0h3v3h-3zm6 0h3v3h-3zm6 0h3v3h-3zm6 0h3v3h-3zm6 0h3v3h-3zm6 0h3v3h-3zm6 0h3v3h-3zm6 0h3v3h-3zm6 0h3v3h-3zm6 0h3v3h-3zm6 0h3v3h-3zm6 0h3v3h-3zm6 0h3v3h-3zm6 0h3v3h-3zm6 0h3v3h-3zm6 0h3v3h-3zm6 0h3v3h-3zm6 0h3v3h-3zm6 0h3v3h-3zm6 0h3v3h-3zm6 0h3v3h-3zm6 0h3v3h-3zm6 0h3v3h-3zm6 0h3v3h-3zm6 0h3v3h-3zm6 0h3v3h-3zm1.5 4.5h3v3h-3zm-225 4h3v3h-3zm225 2h3v3h-3zm-225 4h3v3h-3zm225 2h3v3h-3zm-225 4h3v3h-3zm225 2h3v3h-3zm-225 4h3v3h-3zm225 2h3v3h-3zm-225 4h3v3h-3zm225 2h3v3h-3zm-225 4h3v3h-3zm225 2h3v3h-3zm-225 4h3v3h-3zm225 2h3v3h-3zm-225 4h3v3h-3zm225 2h3v3h-3zm-225 4h3v3h-3zm225 2h3v3h-3zm-225 4h3v3h-3zm225 2h3v3h-3zm-225 4h3v3h-3zm225 2h3v3h-3zm-225 4h3v3h-3zm225 2h3v3h-3zm-225 4h3v3h-3zm225 2h3v3h-3zm-225 4h3v3h-3zm225 2h3v3h-3zm-225 4h3v3h-3zm225 2h3v3h-3zm-225 4h3v3h-3zm225 2h3v3h-3zM278 159.5h2v3h-3.5V160h1.5zm5 0h3v3h-3zm6 0h3v3h-3zm6 0h3v3h-3zm6 0h3v3h-3zm6 0h3v3h-3zm6 0h3v3h-3zm6 0h3v3h-3zm6 0h3v3h-3zm6 0h3v3h-3zm6 0h3v3h-3zm6 0h3v3h-3zm6 0h3v3h-3zm6 0h3v3h-3zm6 0h3v3h-3zm6 0h3v3h-3zm6 0h3v3h-3zm6 0h3v3h-3zm6 0h3v3h-3zm6 0h3v3h-3zm6 0h3v3h-3zm6 0h3v3h-3zm6 0h3v3h-3zm6 0h3v3h-3zm6 0h3v3h-3zm6 0h3v3h-3zm6 0h3v3h-3zm6 0h3v3h-3zm6 0h3v3h-3zm6 0h3v3h-3zm6 0h3v3h-3zm6 0h3v3h-3zm6 0h3v3h-3zm6 0h3v3h-3zm6 0h3v3h-3zm6 0h3v3h-3zm6 0h3v3h-3zm6 0h3v3h-3z" fill="#bc4328"/><g data-name="グループ 2571"><path data-name="線 359" d="M1066 202.5H214v-1h852z" fill="#555"/><g data-name="グループ 2568" fill="#fff"><path data-name="長方形 3552" d="M1059 199h4v5h-4z"/><path data-name="長方形 3553" d="M1052 199h4v5h-4z"/><path data-name="長方形 3554" d="M1045 199h4v5h-4z"/></g></g></g></g></g></g></svg>