<svg xmlns="http://www.w3.org/2000/svg" width="133.882" height="133.617"><g data-name="グループ 2445" fill="#fff"><g data-name="1000_F_449832230_8xfFb0h4uEstUCWDSJzy97t0hNKj5ARD_うぇい"><path data-name="パス 704" d="M12.42 63.301c-3.736-8.388-7.473-16.83-11.308-25.387l4.528-2.078c.445.891.891 1.732 1.336 2.623C20.112 15.843 39.612 4.065 65.742 3.471c.1.124.2.223.3.346a20.544 20.544 0 01-1.584 1.707c-1.806 1.559-3.687 3.043-5.468 4.627-1.113.99-2.054 2.153-3.118 3.192a19.126 19.126 0 01-1.584 1.212c-1.014.866-2.054 1.757-3.019 2.672a5.856 5.856 0 00-.767 1.089c3.786 3.439 7.572 6.854 11.531 10.442-12.671 1.362-22.621 6.806-29.843 16.926.074.1.124.2.2.3a1.734 1.734 0 01.47-.371c.718-.272 1.386-.891 1.831.495a19.8 19.8 0 001.782 3.291c-7.995 4.623-15.861 9.172-24.053 13.902z"/><path data-name="パス 705" d="M34.343 94.28c-.148-.891-.3-1.757-.495-2.9.891-.124 1.806-.247 2.7-.4a10.287 10.287 0 011.658-.322 1.047 1.047 0 01.767.668c.371 1.806.619 3.637.965 5.444.3 1.485.767 2.944 1.064 4.454.594 3.043 1.113 6.112 1.732 9.155.322 1.584.792 3.118 1.138 4.677.2.841.322 1.707.47 2.524-9.155.94-18.286 1.905-27.54 2.846-.148-1.608-.322-3.192-.47-4.924.99-.1 2.054-.2 3.217-.322-1.608-1.658-3.192-3.241-4.677-4.924a38.6 38.6 0 01-2.549-3.439 223.36 223.36 0 01-2.722-3.984 25.532 25.532 0 01-1.485-2.5 70.018 70.018 0 01-2.078-4.355 121.963 121.963 0 01-2.326-5.617 53.369 53.369 0 01-1.831-5.518c-.52-2.1-.866-4.256-1.188-6.409A40.376 40.376 0 01.023 73c-.074-2.549.049-5.122.124-7.671.049-1.633.1-3.266.3-4.9.2-1.584.569-3.142.891-4.7.322-1.584.668-3.167 1.014-4.751.074-.4.1-.792.2-1.163.049-.124.3-.346.371-.322.247.074.569.223.643.421.643 1.509 1.188 3.068 1.831 4.578.767 1.732 1.633 3.39 2.425 5.1.371.792.668 1.633.99 2.425a501.32 501.32 0 002.252 5.2c4.973-2.895 9.9-5.741 14.995-8.685-2.925 13.429-.154 25.207 8.284 35.748z"/><path data-name="パス 706" d="M99.937 129.589c-1.435-.2-2.7-.272-3.91-.544-1.361-.272-.47-1.41-.668-2.153a2.343 2.343 0 01.049-.718c-23.284 11.085-45.627 9.823-67.253-4.033 6.557-.718 13.114-1.41 19.671-2.128-1.237-5.74-2.425-11.333-3.662-17.147 12.1 6.755 24.422 7.547 37.264 2.153-1.138-.148-2.128-.247-3.068-.445a1.01 1.01 0 01-.594-.742c.025-1.237.124-2.474.247-3.712.025-.148.421-.346.619-.322 1.262.124 2.5.371 3.761.495 1.262.1 2.549.049 3.835.124.99.05 1.955.173 2.944.3 1.46.173 2.945.4 4.4.569 1.188.148 2.351.3 3.538.421 2.128.223 4.231.445 6.359.643.718.074 1.435.148 2.276.223-1.923 8.931-3.878 17.984-5.808 27.016z"/><path data-name="パス 707" d="M76.728 4.659c24.175 5.32 40.6 19.572 49.537 42.46-.124.173-.223.322-.346.495q-8.537-4.936-17.048-9.848c-.916 1.955-1.905 3.885-2.771 5.889-.965 2.2-1.831 4.454-2.771 6.681a23.214 23.214 0 01-.99 2.1 3.665 3.665 0 01-.544.718 6.442 6.442 0 01-.421-.693 43.616 43.616 0 00-4.8-7.992 29.788 29.788 0 00-5-5.3c-1.262-.965-2.3-2.2-3.588-3.142a25.832 25.832 0 00-4.083-2.375c-2.524-1.212-5.1-2.276-7.646-3.39a5.377 5.377 0 00-.866-.148c.619.742 1.014 1.237 1.46 1.732.074.074.247.025.346.1 1.262.94 1.212 1.064.049 2.252-.767.767-1.41 1.633-2.054 2.4-1.386-1.089-2.648-1.979-3.786-2.969-1.386-1.188-2.7-2.474-4.058-3.712-1.435-1.311-2.9-2.623-4.33-3.934-1.262-1.138-2.474-2.3-3.736-3.439-1.41-1.262-2.846-2.5-4.256-3.736-.718-.643-.1-1.089.272-1.435 1.262-1.212 2.573-2.351 3.885-3.514.668-.594 1.386-1.113 2.054-1.707 1.608-1.485 3.167-3.043 4.8-4.528 1.336-1.212 2.821-2.276 4.157-3.489 1.386-1.287 2.672-2.672 4.058-3.959a1 1 0 011.014-.074 26.773 26.773 0 012.575 2.726c.148.173-.025.742-.2 1.014-.195.248-.567.47-.913.817z"/><path data-name="パス 708" d="M109.167 100.095c-5.914-.643-11.629-1.237-17.37-1.856 8.858-8.561 13.287-18.855 13.04-31.078-.124-.049-.223-.124-.346-.173-.346.643-.693 1.311-1.089 2.029a503.496 503.496 0 01-4.454-1.93c3.761-8.487 7.473-16.875 11.209-25.313 1.707 1.014 3.316 2.029 4.973 2.969 1.831 1.039 3.711 1.955 5.518 2.994 1.41.817 2.722 1.806 4.157 2.648 1.41.817 2.9 1.509 4.305 2.3 1.559.891 3.093 1.831 4.627 2.821a.9.9 0 01.074.841c-.445.792-1.014 1.509-1.485 2.3-.668 1.188-.965 1.311-2.078.594-.4-.247-.742-.594-1.163-.891q4.6 36.893-23.383 60.944c-.2-.049-.421-.124-.619-.173 1.362-6.333 2.698-12.647 4.084-19.026z"/></g><text transform="translate(46.292 75.929)" font-size="21" font-family="NotoSansCJKjp-Bold, Noto Sans CJK JP" font-weight="700"><tspan x="0" y="0">ITIL</tspan></text></g></svg>