<svg xmlns="http://www.w3.org/2000/svg" width="1100" height="634"><g data-name="グループ 2951"><g data-name="グループ 2880"><g data-name="グループ 2879" transform="translate(-410 -5155)"><path data-name="長方形 3500" fill="#fff" d="M410 5155h1100v634H410z"/><g data-name="グループ 2510" fill="#bc4328"><text data-name="70" transform="translate(1035 5442)" font-size="140" font-family="Roboto-Bold, Roboto" font-weight="700" letter-spacing="-.04em"><tspan x="0" y="0">70</tspan></text><text data-name="％" transform="translate(1187.5 5435.5)" font-size="65" font-family="YuGothicUI-Bold, Yu Gothic UI" font-weight="700"><tspan x="0" y="0">％</tspan></text><path data-name="％ - アウトライン" d="M1238.835 5382.856l4.142 3.435-42.045 52.409-4.248-3.286zm1.351 3.719l-1.063-.881-39.606 49.384 1.083.839zm-34.627-2.38a11.046 11.046 0 019.13 4.091c1.933 2.411 2.915 5.675 2.915 9.7 0 4.652-1.26 8.294-3.746 10.825a11.212 11.212 0 01-8.3 3.251 10.9 10.9 0 01-9.073-4.227c-1.885-2.458-2.844-5.749-2.844-9.786 0-4.634 1.252-8.236 3.721-10.7a11.136 11.136 0 018.197-3.154zm0 25.867a9.164 9.164 0 006.875-2.655c2.1-2.141 3.17-5.312 3.17-9.421 0-3.558-.834-6.4-2.478-8.452a9.027 9.027 0 00-7.567-3.339 9.091 9.091 0 00-6.783 2.564c-2.08 2.08-3.135 5.206-3.135 9.29 0 3.586.816 6.466 2.426 8.562a8.877 8.877 0 007.492 3.451zm0-21.392a4.842 4.842 0 014.418 2.6 13.914 13.914 0 011.311 6.776 14.561 14.561 0 01-1.306 6.933 4.827 4.827 0 01-4.423 2.668 4.767 4.767 0 01-4.378-2.673 14.72 14.72 0 01-1.287-6.928 14.064 14.064 0 011.293-6.771 4.781 4.781 0 014.372-2.605zm0 16.98a2.824 2.824 0 002.67-1.632 12.939 12.939 0 001.059-5.969c0-7.379-2.807-7.379-3.729-7.379-.907 0-3.666 0-3.666 7.379a13.1 13.1 0 001.045 5.974 2.769 2.769 0 002.621 1.627zm28.787 4.031a10.942 10.942 0 019.035 4.091c1.913 2.415 2.883 5.678 2.883 9.7 0 4.65-1.249 8.291-3.711 10.822l-.006.006a11.091 11.091 0 01-8.2 3.248 10.942 10.942 0 01-9.172-4.231c-1.907-2.474-2.875-5.787-2.875-9.846 0-4.615 1.253-8.2 3.724-10.644a11.37 11.37 0 018.322-3.146zm6.776 23.219c2.085-2.144 3.142-5.315 3.142-9.424 0-3.56-.824-6.4-2.45-8.456a8.921 8.921 0 00-7.468-3.334 9.322 9.322 0 00-6.914 2.567c-2.077 2.058-3.131 5.161-3.131 9.223 0 3.607.827 6.509 2.458 8.625a8.925 8.925 0 007.587 3.446 9.044 9.044 0 006.776-2.647zm-6.776-18.8a4.777 4.777 0 014.374 2.627 14.25 14.25 0 011.291 6.815 14.721 14.721 0 01-1.287 6.928 4.767 4.767 0 01-4.378 2.673 4.826 4.826 0 01-4.423-2.668 14.561 14.561 0 01-1.306-6.933 14.1 14.1 0 011.31-6.82 4.837 4.837 0 014.419-2.63zm0 17.043a2.769 2.769 0 002.62-1.627 13.1 13.1 0 001.045-5.974c0-7.442-2.759-7.442-3.666-7.442-.922 0-3.729 0-3.729 7.442a12.939 12.939 0 001.059 5.958 2.824 2.824 0 002.671 1.636z"/><text transform="translate(1036 5488)" font-size="28" font-family="YuGothicUI-Bold, Yu Gothic UI" font-weight="700"><tspan x="0" y="0">の</tspan><tspan y="0" font-size="30">経費削減効果</tspan></text></g><path data-name="パス 748" d="M1363.419 5246h-3v-1h3zm-6 0h-3v-1h3zm-6 0h-3v-1h3zm-6 0h-3v-1h3zm-6 0h-3v-1h3zm-6 0h-3v-1h3zm-6 0h-3v-1h3zm-6 0h-3v-1h3zm-6 0h-3v-1h3zm-6 0h-3v-1h3zm-6 0h-3v-1h3zm-6 0h-3v-1h3zm-6 0h-3v-1h3zm-6 0h-3v-1h3zm-6 0h-3v-1h3zm-6 0h-3v-1h3zm-6 0h-3v-1h3zm-6 0h-3v-1h3zm-6 0h-3v-1h3zm-6 0h-3v-1h3zm-6 0h-3v-1h3zm-6 0h-3v-1h3zm-6 0h-3v-1h3zm-6 0h-3v-1h3zm-6 0h-3v-1h3zm-6 0h-3v-1h3zm-6 0h-3v-1h3zm-6 0h-3v-1h3zm-6 0h-3v-1h3zm-6 0h-3v-1h3zm-6 0h-3v-1h3zm-6 0h-3v-1h3zm-6 0h-3v-1h3zm-6 0h-3v-1h3zm-6 0h-3v-1h3zm-6 0h-3v-1h3zm-6 0h-3v-1h3zm-6 0h-3v-1h3zm-6 0h-3v-1h3zm-6 0h-3v-1h3zm-6 0h-3v-1h3zm-6 0h-3v-1h3zm-6 0h-3v-1h3zm-6 0h-3v-1h3zm-6 0h-3v-1h3zm-6 0h-3v-1h3zm-6 0h-3v-1h3zm-6 0h-3v-1h3zm-6 0h-3v-1h3zm-6 0h-3v-1h3zm-6 0h-3v-1h3zm-6 0h-3v-1h3zm-6 0h-3v-1h3zm-6 0h-3v-1h3zm-6 0h-3v-1h3zm-6 0h-3v-1h3zm-6 0h-3v-1h3zm-6 0h-3v-1h3zm-6 0h-3v-1h3zm-6 0h-3v-1h3zm-6 0h-3v-1h3zm-6 0h-3v-1h3zm-6 0h-3v-1h3zm-6 0h-3v-1h3zm-6 0h-3v-1h3zm-6 0h-3v-1h3zm-6 0h-3v-1h3zm-6 0h-3v-1h3zm-6 0h-3v-1h3zm-6 0h-3v-1h3zm-6 0h-3v-1h3zm-6 0h-3v-1h3zm-6 0h-3v-1h3zm-6 0h-3v-1h3zm-6 0h-3v-1h3z" fill="#707070"/><path data-name="パス 749" d="M1363.419 5590.005h-3v-1h3zm-6 0h-3v-1h3zm-6 0h-3v-1h3zm-6 0h-3v-1h3zm-6 0h-3v-1h3zm-6 0h-3v-1h3zm-6 0h-3v-1h3zm-6 0h-3v-1h3zm-6 0h-3v-1h3zm-6 0h-3v-1h3zm-6 0h-3v-1h3zm-6 0h-3v-1h3zm-6 0h-3v-1h3zm-6 0h-3v-1h3zm-6 0h-3v-1h3zm-6 0h-3v-1h3zm-6 0h-3v-1h3zm-6 0h-3v-1h3zm-6 0h-3v-1h3zm-6 0h-3v-1h3zm-6 0h-3v-1h3zm-6 0h-3v-1h3zm-6 0h-3v-1h3zm-6 0h-3v-1h3zm-6 0h-3v-1h3zm-6 0h-3v-1h3zm-6 0h-3v-1h3zm-6 0h-3v-1h3zm-6 0h-3v-1h3zm-6 0h-3v-1h3zm-6 0h-3v-1h3zm-6 0h-3v-1h3zm-6 0h-3v-1h3zm-6 0h-3v-1h3zm-6 0h-3v-1h3zm-6 0h-3v-1h3zm-6 0h-3v-1h3zm-6 0h-3v-1h3zm-6 0h-3v-1h3zm-6 0h-3v-1h3zm-6 0h-3v-1h3zm-6 0h-3v-1h3zm-6 0h-3v-1h3zm-6 0h-3v-1h3zm-6 0h-3v-1h3zm-6 0h-3v-1h3zm-6 0h-3v-1h3zm-6 0h-3v-1h3zm-6 0h-3v-1h3zm-6 0h-3v-1h3zm-6 0h-3v-1h3zm-6 0h-3v-1h3zm-6 0h-3v-1h3zm-6 0h-3v-1h3zm-6 0h-3v-1h3zm-6 0h-3v-1h3zm-6 0h-3v-1h3zm-6 0h-3v-1h3zm-6 0h-3v-1h3zm-6 0h-3v-1h3zm-6 0h-3v-1h3zm-6 0h-3v-1h3zm-6 0h-3v-1h3zm-6 0h-3v-1h3zm-6 0h-3v-1h3zm-6 0h-3v-1h3zm-6 0h-3v-1h3zm-6 0h-3v-1h3zm-6 0h-3v-1h3zm-6 0h-3v-1h3zm-6 0h-3v-1h3zm-6 0h-3v-1h3zm-6 0h-3v-1h3zm-6 0h-3v-1h3zm-6 0h-3v-1h3z" fill="#707070"/><text transform="translate(762 5216)" fill="#031524" font-size="20" font-family="YuGothicUI-Semibold, Yu Gothic UI" font-weight="600"><tspan x="0" y="0">従来</tspan></text><text data-name="Wave PC Mateを導入した場合" transform="translate(1006 5216)" fill="#bc4328" font-size="20" font-family="Roboto-Medium, Roboto" font-weight="500"><tspan x="0" y="0">Wave PC Mate</tspan><tspan y="0" font-family="YuGothicUI-Semibold, Yu Gothic UI" font-weight="600">を導入した場合</tspan></text><path data-name="長方形 3501" fill="#bc4328" d="M984 5590h300v158H984z"/><path data-name="長方形 3468" fill="#031524" d="M632 5245.561h300v502.44H632z"/><path data-name="長方形 3461" fill="#4a5863" d="M632 5380.778h300v54.261H632z"/><path data-name="長方形 3462" fill="#253743" d="M632 5435h300v279.931H632z"/><path data-name="長方形 3463" fill="#031524" d="M632 5715h300v33.031H632z"/><text data-name="PCの購入・導入費" transform="translate(606 5318)" fill="#707a82" font-size="12" font-family="Roboto-Medium, Roboto" font-weight="500"><tspan x="-91.535" y="0">PC</tspan><tspan y="0" font-family="YuGothicUI-Semibold, Yu Gothic UI" font-weight="600">の購入・導入費</tspan></text><text transform="translate(606 5413)" fill="#4a5863" font-size="12" font-family="YuGothicUI-Semibold, Yu Gothic UI" font-weight="600"><tspan x="-90.551" y="0">ヘルプデスクの費用</tspan></text><text data-name="OSのパッチやウイルス定義 ファイルの更新" transform="translate(606 5572)" fill="#253743" font-size="12" font-family="Roboto-Medium, Roboto" font-weight="500"><tspan x="-124.582" y="0">OS</tspan><tspan y="0" font-family="YuGothicUI-Semibold, Yu Gothic UI" font-weight="600">のパッチやウイルス定義</tspan><tspan font-family="YuGothicUI-Semibold, Yu Gothic UI" font-weight="600"><tspan x="-69.111" y="16">ファイルの更新</tspan></tspan></text><g data-name="グループ 2872" fill="#fff"><text data-name="¥ 17,617" transform="translate(772 5736.484)" font-size="15" font-family="Roboto-Regular, Roboto"><tspan x="-28.927" y="0">¥ 17,617</tspan></text><text data-name="/" transform="translate(805 5734.984)" font-size="10" font-family="Roboto-Regular, Roboto" opacity=".7"><tspan x="-2.061" y="0">/</tspan></text><text transform="translate(814 5735.984)" font-size="12" font-family="YuGothicUI-Regular, Yu Gothic UI" opacity=".7"><tspan x="-6" y="0">年</tspan></text></g><g data-name="グループ 2874" fill="#fff"><text data-name="¥ 28,940" transform="translate(772 5412)" font-size="15" font-family="Roboto-Regular, Roboto"><tspan x="-28.927" y="0">¥ 28,940</tspan></text><text data-name="/" transform="translate(805 5410.5)" font-size="10" font-family="Roboto-Regular, Roboto" opacity=".7"><tspan x="-2.061" y="0">/</tspan></text><text data-name="年" transform="translate(814 5411.5)" font-size="12" font-family="YuGothicUI-Regular, Yu Gothic UI" opacity=".7"><tspan x="-6" y="0">年</tspan></text></g><g data-name="グループ 2873" fill="#fff"><text data-name="¥ 149,301" transform="translate(772 5580)" font-size="15" font-family="Roboto-Regular, Roboto"><tspan x="-33.138" y="0">¥ 149,301</tspan></text><text data-name="/" transform="translate(810 5578.5)" font-size="10" font-family="Roboto-Regular, Roboto" opacity=".7"><tspan x="-2.061" y="0">/</tspan></text><text data-name="年" transform="translate(819 5579.5)" font-size="12" font-family="YuGothicUI-Regular, Yu Gothic UI" opacity=".7"><tspan x="-6" y="0">年</tspan></text></g><text transform="translate(606 5735)" fill="#031524" font-size="12" font-family="YuGothicUI-Semibold, Yu Gothic UI" font-weight="600"><tspan x="-149.607" y="0">ソフトウエアバージョンアップ費用</tspan></text><g data-name="グループ 2876" fill="#fff" font-family="Roboto-Bold, Roboto" font-weight="700"><text data-name="¥ 84,000" transform="translate(1122 5656)" font-size="23"><tspan x="-45.702" y="0">¥ 84,000</tspan></text><text data-name="/年" transform="translate(1180 5654.5)" font-size="16" opacity=".7"><tspan x="-10.988" y="0">/</tspan><tspan y="0" font-family="YuGothicUI-Bold, Yu Gothic UI">年</tspan></text></g><text data-name="（標準PC&amp;サポート例）" transform="translate(1135 5681)" fill="#fff" font-size="14" font-family="YuGothicUI-Regular, Yu Gothic UI"><tspan x="-69.265" y="0">（標準</tspan><tspan y="0" font-family="Roboto-Regular, Roboto">PC&amp;</tspan><tspan y="0">サポート例）</tspan></text><g data-name="グループ 2516" fill="#fff" font-size="14"><text data-name="※" transform="translate(1106 5701)" font-family="NotoSansCJKjp-Regular, Noto Sans CJK JP"><tspan x="-7" y="0">※</tspan></text><text transform="translate(1141.5 5701)" font-family="YuGothicUI-Regular, Yu Gothic UI"><tspan x="-28" y="0">標準価格</tspan></text></g><g data-name="グループ 2517" opacity=".75" fill="#e6b600"><path data-name="パス 714" d="M1403.824 5564l11.098-12.55h-22.195z"/><path data-name="長方形 3467" d="M1400 5230.495h7v326h-7z"/></g><rect data-name="長方形 3502" width="147" height="51" rx="10" transform="translate(1330 5221)" fill="#edeeef"/><rect data-name="長方形 3503" width="147" height="51" rx="10" transform="translate(1330 5564)" fill="#faf0ee"/><g data-name="グループ 2518" font-family="Roboto-Bold, Roboto" font-weight="700"><text data-name="¥ 268,275" transform="translate(1349 5253)" font-size="20"><tspan x="0" y="0">¥ 268,275</tspan></text><text data-name="/年" transform="translate(1442 5252)" font-size="16"><tspan x="0" y="0">/</tspan><tspan y="0" font-family="YuGothicUI-Bold, Yu Gothic UI">年</tspan></text></g><g data-name="グループ 2519" font-family="Roboto-Bold, Roboto" font-weight="700"><text data-name="¥ 84,000" transform="translate(1354 5597)" font-size="20"><tspan x="0" y="0">¥ 84,000</tspan></text><text data-name="/年" transform="translate(1435 5596)" font-size="16"><tspan x="0" y="0">/</tspan><tspan y="0" font-family="YuGothicUI-Bold, Yu Gothic UI">年</tspan></text></g><text transform="translate(1372 5212)" font-size="16" font-family="YuGothicUI-Semibold, Yu Gothic UI" font-weight="600"><tspan x="0" y="0">費用合計</tspan></text><path data-name="パス 981" d="M984.251 5592.946l-55.17-347.473 2.963-.473 55.17 347.473z" fill="#bc4328"/><path data-name="長方形 3460" fill="#707a82" d="M632 5245h300v135.778H632z"/><g data-name="グループ 2875" fill="#fff"><text data-name="¥ 72,417" transform="translate(772 5317)" font-size="15" font-family="Roboto-Regular, Roboto"><tspan x="-28.927" y="0">¥ 72,417</tspan></text><text data-name="/" transform="translate(805 5315.5)" font-size="10" font-family="Roboto-Regular, Roboto" opacity=".7"><tspan x="-2.061" y="0">/</tspan></text><text data-name="年" transform="translate(814 5316.5)" font-size="12" font-family="YuGothicUI-Regular, Yu Gothic UI" opacity=".7"><tspan x="-6" y="0">年</tspan></text></g><path data-name="線 336" d="M1360.5 5749h-800v-1h800z" fill="#555"/></g></g></g></svg>