<svg xmlns="http://www.w3.org/2000/svg" width="110.751" height="119.831"><g data-name="グループ 2886" fill="#fff"><path data-name="パス 754" d="M24.545 25.976a3.613 3.613 0 01-1.872-.52 3.573 3.573 0 01-1.655-2.013 3.234 3.234 0 01.248-2.392 5.483 5.483 0 013.316-2.616 7.393 7.393 0 013.442-.219 6.035 6.035 0 00-1.143-3.778 3.885 3.885 0 00-1.22-1.113 13.335 13.335 0 01-3.471 4.274 10.614 10.614 0 01-5.236 2.484 3.693 3.693 0 01-3.715-1.527 3.9 3.9 0 01-.345-3.758 6.634 6.634 0 012.48-2.781 13.168 13.168 0 016.954-2.124 11.068 11.068 0 011.629.1 5.666 5.666 0 00-1.648-4.74c-2.557-2.8-5.173-2.82-6.919-2.348-2.421.656-4.249 2.582-4.551 3.992a1.338 1.338 0 01-2.616-.568 7.335 7.335 0 012.237-3.641A10.007 10.007 0 0114.69.325a8.821 8.821 0 014.794.015 10.388 10.388 0 014.8 3.1 8.767 8.767 0 012.295 4.473 8.108 8.108 0 01-.029 2.844 6.683 6.683 0 012.528 2.144 8.7 8.7 0 011.566 6.2 7.747 7.747 0 012.63 1.964 7.022 7.022 0 011.318 2.655 1.337 1.337 0 11-2.567.749 3.91 3.91 0 00-2.13-2.742 8.776 8.776 0 01-1.553 2.349 6.043 6.043 0 01-2.577 1.707 4.166 4.166 0 01-1.22.193zm2.207-5.2a4.435 4.435 0 00-1.366.209 2.886 2.886 0 00-1.731 1.259c-.107.209-.263.525.394.924.7.423 1.7-.224 2.329-.9a6.034 6.034 0 00.972-1.444 4.227 4.227 0 00-.598-.048zm-4.283-8.222h-.107a10.517 10.517 0 00-5.484 1.666c-.846.574-2.154 1.707-1.4 2.869.185.282.583.394 1.181.331 2-.219 4.881-2.246 6.369-4.842a5.185 5.185 0 00-.559-.025z"/><path data-name="パス 966" d="M68.401 84.641a3.585 3.585 0 00-4.78-.255l-6.736 5.431a3.58 3.58 0 01-4.557-.051 93.983 93.983 0 01-22.264-22.264 3.58 3.58 0 01-.049-4.555l5.429-6.736a3.58 3.58 0 00-.255-4.78l-12.9-12.9a3.59 3.59 0 00-4.839-.21L1.279 51.913a3.574 3.574 0 00-.851 4.434s2.173 4.44 4.2 7.838c5.55 9.339 14.572 20.382 22.606 28.419s19.076 17.058 28.42 22.608c3.4 2.018 7.836 4.2 7.836 4.2a3.583 3.583 0 004.432-.857l13.579-16.179a3.587 3.587 0 00-.21-4.837z"/><path data-name="パス 967" d="M71.578 67.346l5.369-.851a28.479 28.479 0 00-23.609-23.609l-.853 5.367a23.048 23.048 0 0119.093 19.093z"/><path data-name="パス 968" d="M93.174 26.662a62.414 62.414 0 00-34.5-17.577l-.844 5.369a57.225 57.225 0 0147.544 47.547l5.373-.848a62.429 62.429 0 00-17.573-34.491z"/><path data-name="パス 969" d="M56.006 25.966l-.844 5.375A40.053 40.053 0 0188.491 64.67l5.371-.847a45.492 45.492 0 00-37.856-37.857z"/></g></svg>