<svg xmlns="http://www.w3.org/2000/svg" width="183.376" height="130.666"><g data-name="グループ 2883" transform="translate(-604.015 -376.612)"><path data-name="パス 703" d="M692.491 507.278h-9.644c-.317-.053-.634-.132-.951-.159-3.065-.238-6.13-.37-9.169-.74-6.659-.793-13.133-2.378-19.025-5.708-6.818-3.83-11.285-9.459-12.817-17.201a37.016 37.016 0 011.163-17.572c3.069-10.807 8.694-20.214 15.854-28.749 5.047-6 10.7-11.283 17.7-14.982.079-.026.106-.159.159-.238-5.206-4.2-7.557-6.976-9.988-11.864a17.555 17.555 0 01-2.246-8.271 4.1 4.1 0 015.077-4.175 14.238 14.238 0 012.563.736c2.061.793 4.1 1.691 6.13 2.51a11.765 11.765 0 007.848.4c3.356-.978 6.685-1.9 10.041-2.669a34.239 34.239 0 015.92-.766c1.453-.075 1.902.476 1.955 1.925a9.267 9.267 0 01-.238 2.431 38.362 38.362 0 01-10.437 18.47 2.927 2.927 0 01-.793.423c2.933 1.77 5.681 3.171 8.165 4.968a82.942 82.942 0 0126.559 32.479c2.986 6.342 4.994 12.974 5.021 20.082q.04 15.26-13.318 22.619c-5.813 3.2-12.181 4.6-18.708 5.364-2.276.317-4.548.476-6.821.687z" fill="#fff"/><text data-name="¥" transform="translate(672.833 480.031)" fill="#0f2437" font-size="42" font-family="NotoSansCJKjp-Black, Noto Sans CJK JP" font-weight="800"><tspan x="0" y="0">¥</tspan></text><path data-name="パス 754" d="M620.367 402.588a3.613 3.613 0 01-1.872-.52 3.573 3.573 0 01-1.655-2.013 3.234 3.234 0 01.248-2.392 5.483 5.483 0 013.316-2.616 7.393 7.393 0 013.442-.219 6.035 6.035 0 00-1.143-3.778 3.885 3.885 0 00-1.22-1.113 13.335 13.335 0 01-3.471 4.274 10.614 10.614 0 01-5.236 2.484 3.693 3.693 0 01-3.715-1.527 3.9 3.9 0 01-.345-3.758 6.634 6.634 0 012.48-2.781 13.168 13.168 0 016.954-2.124 11.068 11.068 0 011.629.1 5.666 5.666 0 00-1.648-4.74c-2.557-2.8-5.173-2.82-6.919-2.348-2.421.656-4.249 2.582-4.551 3.992a1.338 1.338 0 01-2.616-.568 7.335 7.335 0 012.237-3.641 10.007 10.007 0 014.23-2.363 8.821 8.821 0 014.794.015 10.388 10.388 0 014.8 3.1 8.767 8.767 0 012.295 4.473 8.108 8.108 0 01-.029 2.844 6.683 6.683 0 012.528 2.144 8.7 8.7 0 011.566 6.2 7.747 7.747 0 012.63 1.964 7.022 7.022 0 011.318 2.655 1.337 1.337 0 11-2.567.749 3.91 3.91 0 00-2.13-2.742 8.776 8.776 0 01-1.553 2.349 6.043 6.043 0 01-2.577 1.707 4.166 4.166 0 01-1.22.193zm2.207-5.2a4.435 4.435 0 00-1.366.209 2.886 2.886 0 00-1.731 1.259c-.107.209-.263.525.394.924.7.423 1.7-.224 2.329-.9a6.034 6.034 0 00.972-1.444 4.227 4.227 0 00-.598-.048zm-4.283-8.222h-.107a10.517 10.517 0 00-5.484 1.666c-.846.574-2.154 1.707-1.4 2.869.185.282.583.394 1.181.331 2-.219 4.881-2.246 6.369-4.842a5.185 5.185 0 00-.559-.025z" fill="#fff"/><path data-name="長方形 3781" fill="#fff" d="M718.111 410.273l60.925-10.762 4.68 26.488-60.926 10.763z"/><path data-name="長方形 3781 - アウトライン" d="M718.111 410.273l4.68 26.489 60.924-10.763-4.679-26.488-60.925 10.762m-2.318-1.622l64.865-11.458 5.375 30.428-64.865 11.459z" fill="#0f2437"/><path data-name="長方形 3495" fill="#fff" d="M723.538 409.405h61.853v26.892h-61.853z"/><path data-name="長方形 3495 - アウトライン" d="M723.538 409.405v26.892h61.853v-26.892h-61.853m-2-2h65.853v30.892h-65.853z" fill="#0f2437"/><circle data-name="楕円形 74" cx="9.544" cy="9.544" r="9.544" transform="translate(745.094 412.672)" fill="#0f2437"/><text data-name="¥" transform="translate(750.903 426.672)" fill="#fff" font-size="12" font-family="NotoSansCJKjp-Bold, Noto Sans CJK JP" font-weight="700"><tspan x="0" y="0">¥</tspan></text></g></svg>