<svg xmlns="http://www.w3.org/2000/svg" width="181.399" height="120.623"><g data-name="グループ 2888"><g data-name="グループ 2887"><g fill="#fff"><path data-name="パス 670" d="M95.458 65.677a1.763 1.763 0 00.2 2.472l8.738 6.741a1.283 1.283 0 00.122.07c.019.01.036.022.055.03a2 2 0 002.422-.536c.019-.021.04-.035.058-.055l10.71-12.67a1.454 1.454 0 10-2.147-1.913l-10.01 10.694-7.729-5.383a1.761 1.761 0 00-2.419.55z"/><path data-name="パス 671" d="M84.783 72.28a12.92 12.92 0 01.058-1.379h-5.485c-.033.454-.042.917-.042 1.379s.009.926.042 1.38h5.485a12.9 12.9 0 01-.058-1.38z"/><path data-name="パス 672" d="M132.145 70.901h-5.543v2.76h5.543c.034-.454.041-.917.041-1.38s-.004-.926-.041-1.38z"/><path data-name="パス 673" d="M94.481 54.593a19.933 19.933 0 011.585-.911c.074-.037.137-.073.21-.1l-2.734-4.75a22.123 22.123 0 00-2 1.149l2.735 4.75c.071-.045.143-.09.204-.138z"/><path data-name="パス 674" d="M82.306 60.075l4.748 2.734 1.149-2-4.75-2.736a21.171 21.171 0 00-1.147 2.002z"/><path data-name="パス 675" d="M124.345 81.96a18.715 18.715 0 01-.921 1.576l-.137.2 4.75 2.733c.42-.646.8-1.3 1.157-1.985l-4.739-2.743a3.732 3.732 0 01-.11.219z"/><path data-name="パス 676" d="M87.154 81.952l-.109-.209-4.739 2.734a19.4 19.4 0 001.147 1.995l4.75-2.733-.137-.2a17.553 17.553 0 01-.912-1.587z"/><path data-name="パス 677" d="M129.197 60.075a21.705 21.705 0 00-1.157-2l-4.75 2.735 1.158 2z"/><path data-name="パス 678" d="M94.482 89.955c-.064-.045-.137-.091-.2-.137l-2.735 4.75a22.162 22.162 0 002 1.159l2.733-4.751a2.245 2.245 0 01-.21-.1 17.445 17.445 0 01-1.588-.921z"/><path data-name="パス 679" d="M115.214 53.573l2 1.159 2.735-4.75a22.033 22.033 0 00-1.987-1.149z"/><path data-name="パス 680" d="M104.371 93.189v5.478c.456.041.918.05 1.38.05s.926-.008 1.38-.05v-5.535h-2.76z"/><path data-name="パス 681" d="M107.134 51.371v-5.477c-.455-.041-.918-.05-1.38-.05s-.924.008-1.38.05v5.535h2.76z"/><path data-name="パス 682" d="M115.214 90.991l2.744 4.741c.683-.357 1.34-.74 1.987-1.159l-2.735-4.75z"/></g><path data-name="パス 744" d="M27.021 110.691h154.378l-1.678 9.931H28.699z" fill="#fff"/><path data-name="長方形 3497" d="M53.451 32.976v80.646h102V32.976h-102m-2-7h106a5 5 0 015 5v84.646a5 5 0 01-5 5h-106a5 5 0 01-5-5V30.976a5 5 0 015-5z" fill="#fff"/><path data-name="長方形 3498" fill="#0f2437" d="M92.451 113.976h23v3h-23z"/></g><path data-name="パス 754" d="M16.352 25.976a3.613 3.613 0 01-1.872-.52 3.573 3.573 0 01-1.655-2.013 3.234 3.234 0 01.248-2.392 5.483 5.483 0 013.316-2.616 7.393 7.393 0 013.442-.219 6.035 6.035 0 00-1.143-3.778 3.885 3.885 0 00-1.22-1.113 13.335 13.335 0 01-3.471 4.274 10.614 10.614 0 01-5.236 2.484 3.693 3.693 0 01-3.715-1.527 3.9 3.9 0 01-.345-3.758 6.634 6.634 0 012.48-2.781 13.168 13.168 0 016.954-2.124 11.068 11.068 0 011.629.1 5.666 5.666 0 00-1.648-4.74c-2.557-2.8-5.173-2.82-6.919-2.348-2.421.656-4.249 2.582-4.551 3.992A1.338 1.338 0 01.03 6.329a7.335 7.335 0 012.237-3.641A10.007 10.007 0 016.497.325a8.821 8.821 0 014.794.015 10.388 10.388 0 014.8 3.1 8.767 8.767 0 012.295 4.473 8.108 8.108 0 01-.029 2.844 6.683 6.683 0 012.528 2.144 8.7 8.7 0 011.566 6.2 7.747 7.747 0 012.63 1.964 7.022 7.022 0 011.318 2.655 1.337 1.337 0 11-2.567.749 3.91 3.91 0 00-2.13-2.742 8.776 8.776 0 01-1.553 2.349 6.043 6.043 0 01-2.577 1.707 4.166 4.166 0 01-1.22.193zm2.207-5.2a4.435 4.435 0 00-1.366.209 2.886 2.886 0 00-1.731 1.259c-.107.209-.263.525.394.924.7.423 1.7-.224 2.329-.9a6.034 6.034 0 00.972-1.444 4.227 4.227 0 00-.598-.048zm-4.283-8.222h-.107a10.517 10.517 0 00-5.484 1.666c-.846.574-2.154 1.707-1.4 2.869.185.282.583.394 1.181.331 2-.219 4.881-2.246 6.369-4.842a5.185 5.185 0 00-.559-.025z" fill="#fff"/></g></svg>