<svg xmlns="http://www.w3.org/2000/svg" width="118.773" height="77.365" viewBox="0 0 118.773 77.365">
  <g id="グループ_2621" data-name="グループ 2621" transform="translate(8528.887 3187.065)">
    <g id="メールの無料アイコンその19" transform="translate(-8830.471 -3453.772)">
      <path id="パス_809" data-name="パス 809" d="M360.55,286.484a15.969,15.969,0,1,0,15.97,15.969A15.967,15.967,0,0,0,360.55,286.484Zm-.906,23.429L352.01,303.8l2.9-3.621,3.962,3.17,6.672-8.582,3.664,2.847Z"/>
    </g>
    <g id="グループ_2620" data-name="グループ 2620" transform="translate(-9026.387 -7730)">
      <g id="グループ_2600" data-name="グループ 2600">
        <path id="パス_726" data-name="パス 726" d="M64.268,7.007V64.178H57.719v-13q0-22.389-.019-44.758c0-4.683,1.637-6.378,6.244-6.378q42.264-.029,84.547,0c4.188,0,6.187,1.751,6.206,5.578q.057,28.614,0,57.247a11.356,11.356,0,0,1-.171,1.314h-6.4V7.007Z" transform="translate(450.766 4542.91)"/>
        <path id="パス_727" data-name="パス 727" d="M113.166,363.652H5.831A5.365,5.365,0,0,1,.5,358.969l-.381-2.932A2.154,2.154,0,0,1,2.251,353.6H116.726a2.152,2.152,0,0,1,2.132,2.4l-.324,2.875A5.412,5.412,0,0,1,113.166,363.652Z" transform="translate(497.399 4256.648)"/>
      </g>
      <path id="パス_728" data-name="パス 728" d="M285.272,376.894H268.862a.361.361,0,0,1-.362-.362v-1.371a.361.361,0,0,1,.362-.362h16.411a.362.362,0,0,1,.362.362v1.371A.374.374,0,0,1,285.272,376.894Z" transform="translate(280.098 4239.484)" fill="#f1f1f1"/>
    </g>
  </g>
</svg>
