<svg xmlns="http://www.w3.org/2000/svg" width="123.127" height="79.039" viewBox="0 0 123.127 79.039">
  <g id="グループ_2742" data-name="グループ 2742" transform="translate(-878.433 -2058.247)">
    <g id="カレンダーの無料アイコン10_1_" data-name="カレンダーの無料アイコン10 (1)" transform="translate(918.13 2059.247)">
      <path id="パス_848" data-name="パス 848" d="M99.31,172.967a3.745,3.745,0,1,0,3.745,3.745A3.746,3.746,0,0,0,99.31,172.967Z" transform="translate(-67.163 -149.52)"/>
      <path id="パス_848_-_アウトライン" data-name="パス 848 - アウトライン" d="M99.31,172.967a3.745,3.745,0,1,0,3.745,3.745,3.746,3.746,0,0,0-3.745-3.745m0-1a4.745,4.745,0,1,1-4.745,4.745A4.714,4.714,0,0,1,99.31,171.967Z" transform="translate(-67.163 -149.52)" fill="#f8ece9"/>
      <path id="パス_849" data-name="パス 849" d="M232.111,172.967a3.745,3.745,0,1,0,3.745,3.745A3.745,3.745,0,0,0,232.111,172.967Z" transform="translate(-181.962 -149.52)"/>
      <path id="パス_849_-_アウトライン" data-name="パス 849 - アウトライン" d="M232.111,172.967a3.745,3.745,0,1,0,3.745,3.745,3.745,3.745,0,0,0-3.745-3.745m0-1a4.745,4.745,0,1,1-4.745,4.745A4.714,4.714,0,0,1,232.111,171.967Z" transform="translate(-181.962 -149.52)" fill="#f8ece9"/>
      <path id="パス_850" data-name="パス 850" d="M364.912,180.458a3.745,3.745,0,1,0-3.745-3.745A3.745,3.745,0,0,0,364.912,180.458Z" transform="translate(-296.761 -149.52)"/>
      <path id="パス_850_-_アウトライン" data-name="パス 850 - アウトライン" d="M364.912,180.458a3.745,3.745,0,1,0-3.745-3.745,3.745,3.745,0,0,0,3.745,3.745m0,1a4.745,4.745,0,1,1,4.745-4.745A4.715,4.715,0,0,1,364.912,181.458Z" transform="translate(-296.761 -149.52)" fill="#f8ece9"/>
      <path id="パス_851" data-name="パス 851" d="M99.31,282.87a3.745,3.745,0,1,0,3.745,3.745A3.746,3.746,0,0,0,99.31,282.87Z" transform="translate(-67.163 -244.525)"/>
      <path id="パス_851_-_アウトライン" data-name="パス 851 - アウトライン" d="M99.31,282.87a3.745,3.745,0,1,0,3.745,3.745,3.746,3.746,0,0,0-3.745-3.745m0-1a4.745,4.745,0,1,1-4.745,4.745A4.714,4.714,0,0,1,99.31,281.87Z" transform="translate(-67.163 -244.525)" fill="#f8ece9"/>
      <path id="パス_852" data-name="パス 852" d="M232.111,282.87a3.745,3.745,0,1,0,3.745,3.745A3.745,3.745,0,0,0,232.111,282.87Z" transform="translate(-181.962 -244.525)"/>
      <path id="パス_852_-_アウトライン" data-name="パス 852 - アウトライン" d="M232.111,282.87a3.745,3.745,0,1,0,3.745,3.745,3.745,3.745,0,0,0-3.745-3.745m0-1a4.745,4.745,0,1,1-4.745,4.745A4.714,4.714,0,0,1,232.111,281.87Z" transform="translate(-181.962 -244.525)" fill="#f8ece9"/>
      <path id="パス_853" data-name="パス 853" d="M364.912,290.362a3.745,3.745,0,1,0-3.745-3.745A3.746,3.746,0,0,0,364.912,290.362Z" transform="translate(-296.761 -244.526)"/>
      <path id="パス_853_-_アウトライン" data-name="パス 853 - アウトライン" d="M364.912,290.362a3.745,3.745,0,1,0-3.745-3.745,3.746,3.746,0,0,0,3.745,3.745m0,1a4.745,4.745,0,1,1,4.745-4.745A4.714,4.714,0,0,1,364.912,291.362Z" transform="translate(-296.761 -244.526)" fill="#f8ece9"/>
      <path id="パス_854" data-name="パス 854" d="M99.31,392.783a3.745,3.745,0,1,0,3.745,3.745A3.746,3.746,0,0,0,99.31,392.783Z" transform="translate(-67.163 -339.539)"/>
      <path id="パス_854_-_アウトライン" data-name="パス 854 - アウトライン" d="M99.31,392.783a3.745,3.745,0,1,0,3.745,3.745,3.746,3.746,0,0,0-3.745-3.745m0-1a4.745,4.745,0,1,1-4.745,4.745A4.714,4.714,0,0,1,99.31,391.783Z" transform="translate(-67.163 -339.539)" fill="#f8ece9"/>
      <path id="パス_855" data-name="パス 855" d="M232.111,392.783a3.745,3.745,0,1,0,3.745,3.745A3.745,3.745,0,0,0,232.111,392.783Z" transform="translate(-181.962 -339.539)"/>
      <path id="パス_855_-_アウトライン" data-name="パス 855 - アウトライン" d="M232.111,392.783a3.745,3.745,0,1,0,3.745,3.745,3.745,3.745,0,0,0-3.745-3.745m0-1a4.745,4.745,0,1,1-4.745,4.745A4.714,4.714,0,0,1,232.111,391.783Z" transform="translate(-181.962 -339.539)" fill="#f8ece9"/>
      <path id="パス_856" data-name="パス 856" d="M364.912,400.274a3.745,3.745,0,1,0-3.745-3.745A3.746,3.746,0,0,0,364.912,400.274Z" transform="translate(-296.761 -339.539)"/>
      <path id="パス_856_-_アウトライン" data-name="パス 856 - アウトライン" d="M364.912,400.274a3.745,3.745,0,1,0-3.745-3.745,3.746,3.746,0,0,0,3.745,3.745m0,1a4.745,4.745,0,1,1,4.745-4.745A4.714,4.714,0,0,1,364.912,401.274Z" transform="translate(-296.761 -339.539)" fill="#f8ece9"/>
      <path id="パス_857" data-name="パス 857" d="M103.768,12.1A2.327,2.327,0,0,0,106.1,9.778V2.327a2.328,2.328,0,0,0-4.656,0v7.45A2.327,2.327,0,0,0,103.768,12.1Z" transform="translate(-72.242)"/>
      <path id="パス_857_-_アウトライン" data-name="パス 857 - アウトライン" d="M103.768,12.1A2.327,2.327,0,0,0,106.1,9.778V2.327a2.328,2.328,0,0,0-4.656,0v7.45a2.327,2.327,0,0,0,2.328,2.327m0,1a3.332,3.332,0,0,1-3.328-3.327V2.327a3.328,3.328,0,0,1,6.656,0v7.45A3.331,3.331,0,0,1,103.768,13.1Z" transform="translate(-72.242)" fill="#f8ece9"/>
      <path id="パス_858" data-name="パス 858" d="M241.148,12.1a2.327,2.327,0,0,0,2.327-2.327V2.327a2.328,2.328,0,0,0-4.656,0v7.45A2.327,2.327,0,0,0,241.148,12.1Z" transform="translate(-190.999)"/>
      <path id="パス_858_-_アウトライン" data-name="パス 858 - アウトライン" d="M241.148,12.1a2.327,2.327,0,0,0,2.327-2.327V2.327a2.328,2.328,0,0,0-4.656,0v7.45a2.327,2.327,0,0,0,2.328,2.327m0,1a3.332,3.332,0,0,1-3.328-3.327V2.327a3.328,3.328,0,0,1,6.656,0v7.45A3.331,3.331,0,0,1,241.148,13.1Z" transform="translate(-190.999)" fill="#f8ece9"/>
      <path id="パス_859" data-name="パス 859" d="M72.962,44.9V48.59a4.19,4.19,0,0,1-8.38,0V44.9H54.339V48.59a4.19,4.19,0,0,1-8.38,0V44.9H35.717V48.59a4.19,4.19,0,0,1-8.38,0V44.9H17.87v63.318H82.43V44.9ZM78.7,73.455v31.038H21.595V56.073H78.7Z" transform="translate(0 -38.813)"/>
      <path id="パス_859_-_アウトライン" data-name="パス 859 - アウトライン" d="M17.87,44.9v63.318H82.43V44.9H72.962V48.59a4.19,4.19,0,0,1-8.38,0V44.9H54.339V48.59a4.19,4.19,0,0,1-8.38,0V44.9H35.717V48.59a4.19,4.19,0,0,1-8.38,0V44.9H17.87M78.7,104.493H21.595V56.073H78.7v48.42M16.87,43.9H28.336V48.59a3.19,3.19,0,0,0,6.38,0V43.9H46.959V48.59a3.19,3.19,0,0,0,6.38,0V43.9H65.582V48.59a3.19,3.19,0,0,0,6.38,0V43.9H83.43v65.318H16.87ZM77.7,57.073H22.595v46.42H77.7Z" transform="translate(0 -38.813)" fill="#f8ece9"/>
      <path id="パス_860" data-name="パス 860" d="M378.527,12.1a2.327,2.327,0,0,0,2.328-2.327V2.327a2.328,2.328,0,0,0-4.656,0v7.45A2.327,2.327,0,0,0,378.527,12.1Z" transform="translate(-309.756)"/>
      <path id="パス_860_-_アウトライン" data-name="パス 860 - アウトライン" d="M378.527,12.1a2.327,2.327,0,0,0,2.328-2.327V2.327a2.328,2.328,0,0,0-4.656,0v7.45a2.327,2.327,0,0,0,2.327,2.327m0,1A3.331,3.331,0,0,1,375.2,9.778V2.327A3.331,3.331,0,0,1,378.527-1a3.327,3.327,0,0,1,3.328,3.327v7.45A3.332,3.332,0,0,1,378.527,13.1Z" transform="translate(-309.756)" fill="#f8ece9"/>
    </g>
    <g id="グループ_2623" data-name="グループ 2623" transform="translate(9051.214 4991.987)">
      <path id="パス_665" data-name="パス 665" d="M44.244,23.061l-3.914-.735A1.745,1.745,0,0,1,39,21.208c-.073-.207-.169-.4-.251-.606a9.713,9.713,0,0,1-8.412-8.618c-.317-.136-.631-.281-.957-.4a1.748,1.748,0,0,1-1.119-1.331l-.734-3.915A1.771,1.771,0,0,0,25.788,4.9H22.41a1.771,1.771,0,0,0-1.739,1.444l-.734,3.913a1.748,1.748,0,0,1-1.118,1.332,15.661,15.661,0,0,0-1.526.63,1.747,1.747,0,0,1-1.73-.153L12.278,9.819a1.773,1.773,0,0,0-2.25.21L7.639,12.417a1.77,1.77,0,0,0-.21,2.25l2.248,3.286a1.748,1.748,0,0,1,.152,1.731,15.667,15.667,0,0,0-.63,1.525,1.747,1.747,0,0,1-1.332,1.118l-3.913.735A1.769,1.769,0,0,0,2.511,24.8v3.378a1.771,1.771,0,0,0,1.444,1.739l3.913.734A1.749,1.749,0,0,1,9.2,31.769a15.761,15.761,0,0,0,.63,1.526,1.745,1.745,0,0,1-.152,1.73L7.43,38.309a1.77,1.77,0,0,0,.21,2.25l2.389,2.389a1.769,1.769,0,0,0,2.25.21l3.285-2.248a1.75,1.75,0,0,1,1.731-.151,15.6,15.6,0,0,0,1.526.63,1.745,1.745,0,0,1,1.118,1.331l.734,3.915a1.771,1.771,0,0,0,1.739,1.442h3.378a1.771,1.771,0,0,0,1.739-1.443l.734-3.914a1.746,1.746,0,0,1,1.118-1.331,15.654,15.654,0,0,0,1.526-.63,1.75,1.75,0,0,1,1.73.152l3.286,2.247a1.768,1.768,0,0,0,2.25-.21l2.389-2.389a1.77,1.77,0,0,0,.21-2.25L38.52,35.024a1.748,1.748,0,0,1-.152-1.73A15.8,15.8,0,0,0,39,31.768a1.745,1.745,0,0,1,1.331-1.118l3.915-.734a1.771,1.771,0,0,0,1.442-1.739V24.8a1.769,1.769,0,0,0-1.442-1.738ZM24.1,34.347a7.859,7.859,0,1,1,7.859-7.859A7.859,7.859,0,0,1,24.1,34.347Z" transform="translate(-8166.35 -2911.72)"/>
      <path id="パス_861" data-name="パス 861" d="M41.734,18.161l-3.914-.735a1.745,1.745,0,0,1-1.331-1.118c-.073-.207-.169-.4-.251-.606a9.713,9.713,0,0,1-8.412-8.618c-.317-.136-.631-.281-.957-.4A1.748,1.748,0,0,1,25.75,5.358l-.734-3.915A1.771,1.771,0,0,0,23.277,0H19.9A1.771,1.771,0,0,0,18.16,1.444l-.734,3.913a1.748,1.748,0,0,1-1.118,1.332,15.661,15.661,0,0,0-1.526.63,1.747,1.747,0,0,1-1.73-.153L9.767,4.919a1.773,1.773,0,0,0-2.25.21L5.129,7.517a1.77,1.77,0,0,0-.21,2.25l2.248,3.286a1.748,1.748,0,0,1,.152,1.731,15.667,15.667,0,0,0-.63,1.525,1.747,1.747,0,0,1-1.332,1.118l-3.913.735A1.769,1.769,0,0,0,0,19.9v3.378a1.771,1.771,0,0,0,1.444,1.739l3.913.734a1.749,1.749,0,0,1,1.332,1.118,15.761,15.761,0,0,0,.63,1.526,1.745,1.745,0,0,1-.152,1.73L4.919,33.409a1.77,1.77,0,0,0,.21,2.25l2.389,2.389a1.769,1.769,0,0,0,2.25.21l3.285-2.248a1.75,1.75,0,0,1,1.731-.151,15.6,15.6,0,0,0,1.526.63,1.745,1.745,0,0,1,1.118,1.331l.734,3.915A1.771,1.771,0,0,0,19.9,43.177h3.378a1.771,1.771,0,0,0,1.739-1.443l.734-3.914a1.746,1.746,0,0,1,1.118-1.331,15.653,15.653,0,0,0,1.526-.63,1.75,1.75,0,0,1,1.73.152l3.286,2.247a1.768,1.768,0,0,0,2.25-.21l2.389-2.389a1.77,1.77,0,0,0,.21-2.25l-2.248-3.286a1.748,1.748,0,0,1-.152-1.73,15.8,15.8,0,0,0,.631-1.526,1.745,1.745,0,0,1,1.331-1.118l3.915-.734a1.771,1.771,0,0,0,1.442-1.739V19.9a1.769,1.769,0,0,0-1.442-1.738ZM21.588,29.447a7.859,7.859,0,1,1,7.859-7.859,7.859,7.859,0,0,1-7.859,7.859Z" transform="translate(-8142.25 -2915.762) rotate(45)"/>
    </g>
  </g>
</svg>
