<svg xmlns="http://www.w3.org/2000/svg" xmlns:xlink="http://www.w3.org/1999/xlink" width="558" height="196" viewBox="0 0 558 196">
  <defs>
    <clipPath id="clip-path">
      <rect id="長方形_3591" data-name="長方形 3591" width="16" height="36.282" transform="translate(-8598.831 -1160.5)" fill="none" stroke="#000" stroke-width="1"/>
    </clipPath>
    <clipPath id="clip-path-2">
      <rect width="59" height="54.5" fill="none"/>
    </clipPath>
  </defs>
  <g id="グループ_2701" data-name="グループ 2701" transform="translate(-450 -3250)">
    <text id="購入_リース" data-name="購入・リース" transform="translate(557 3265)" fill="#00b176" font-size="14" font-family="YuGothicUI-Bold, Yu Gothic UI" font-weight="700"><tspan x="0" y="0">購入・リース</tspan></text>
    <text id="Wave_PC_Mate" data-name="Wave PC Mate" transform="translate(823 3263)" fill="#bc4328" font-size="14" font-family="Roboto-Bold, Roboto" font-weight="700"><tspan x="0" y="0">Wave PC Mate</tspan></text>
    <rect id="長方形_3532" data-name="長方形 3532" width="279" height="173" transform="translate(729 3273)" fill="#f8ece9"/>
    <rect id="長方形_3533" data-name="長方形 3533" width="279" height="173" transform="translate(450 3273)" fill="#e5f7f1"/>
    <text id="月額サービス料金のみ" transform="translate(808 3409)" font-size="14" font-family="YuGothicUI-Regular, Yu Gothic UI"><tspan x="0" y="0">月額サービス料金のみ</tspan></text>
    <text id="購入費用_セットアップ費用_etc_" data-name="購入費用、セットアップ費用 etc…" transform="translate(496 3409)" font-size="14" font-family="YuGothicUI-Regular, Yu Gothic UI"><tspan x="0" y="0">購入費用、セットアップ費用</tspan><tspan y="0" xml:space="preserve" font-family="Roboto-Regular, Roboto"> etc…</tspan></text>
    <g id="グループ_2631" data-name="グループ 2631" transform="translate(9116.17 4468)">
      <g id="グループ_2628" data-name="グループ 2628" transform="translate(-443 2023.769)">
        <rect id="長方形_3585" data-name="長方形 3585" width="16" height="28" transform="translate(-7847 -3154)"/>
        <rect id="長方形_3586" data-name="長方形 3586" width="16" height="28" transform="translate(-7827 -3154)"/>
        <rect id="長方形_3587" data-name="長方形 3587" width="16" height="28" transform="translate(-7807 -3154)"/>
        <path id="パス_863" data-name="パス 863" d="M4.183,62.739V0H0V66.921H71.921V62.739Z" transform="translate(-7858.169 -3184.269)"/>
        <path id="パス_864" data-name="パス 864" d="M63,1.5H60v-3h3Zm-6,0H54v-3h3Zm-6,0H48v-3h3Zm-6,0H42v-3h3Zm-6,0H36v-3h3Zm-6,0H30v-3h3Zm-6,0H24v-3h3Zm-6,0H18v-3h3Zm-6,0H12v-3h3Zm-6,0H6v-3H9Zm-6,0H0v-3H3Z" transform="translate(-7849 -3158.5)"/>
      </g>
      <g id="ユーロを積み上げたお金アイコン2" transform="translate(-8415.479 -1323.89)">
        <path id="パス_865" data-name="パス 865" d="M209.581,190.281a17.378,17.378,0,1,0,17.377,17.378A17.379,17.379,0,0,0,209.581,190.281Zm6.906,15.954h-4.758l-.513.8v1.905h5.271v2.7h-5.271v4.082h-3.271V211.64h-5.274v-2.7h5.274v-1.9l-.516-.8h-4.758v-2.311h3.274l-2.781-4.327h2.775l3.642,5.667,3.642-5.667H216l-2.782,4.327h3.271Z" transform="translate(0 0)"/>
      </g>
    </g>
    <g id="グループ_2630" data-name="グループ 2630" transform="translate(9146 4468)">
      <rect id="長方形_3585-2" data-name="長方形 3585" width="16" height="19.769" transform="translate(-8598.831 -1122)"/>
      <path id="長方形_3590" data-name="長方形 3590" d="M1,1V35.282H15V1H1M0,0H16V36.282H0Z" transform="translate(-8598.831 -1160.5)"/>
      <rect id="長方形_3586-2" data-name="長方形 3586" width="16" height="19.769" transform="translate(-8578.831 -1122)"/>
      <rect id="長方形_3587-2" data-name="長方形 3587" width="16" height="19.769" transform="translate(-8558.831 -1122)"/>
      <path id="パス_863-2" data-name="パス 863" d="M4.183,62.739V0H0V66.921H71.921V62.739Z" transform="translate(-8610 -1160.5)"/>
      <g id="ユーロを積み上げたお金アイコン2-2" data-name="ユーロを積み上げたお金アイコン2" transform="translate(-8724.311 -1323.89)">
        <path id="パス_865-2" data-name="パス 865" d="M209.581,190.281a17.378,17.378,0,1,0,17.377,17.378A17.379,17.379,0,0,0,209.581,190.281Zm6.906,15.954h-4.758l-.513.8v1.905h5.271v2.7h-5.271v4.082h-3.271V211.64h-5.274v-2.7h5.274v-1.9l-.516-.8h-4.758v-2.311h3.274l-2.781-4.327h2.775l3.642,5.667,3.642-5.667H216l-2.782,4.327h3.271Z" transform="translate(0 0)"/>
      </g>
      <g id="マスクグループ_81" data-name="マスクグループ 81" clip-path="url(#clip-path)">
        <g id="リピートグリッド_2" data-name="リピートグリッド 2" transform="translate(-8625.257 -1140.768) rotate(-45)" clip-path="url(#clip-path-2)">
          <g transform="translate(8780.5 1128)">
            <line id="線_360" data-name="線 360" x2="59" transform="translate(-8780.5 -1127.5)" fill="none" stroke="#000" stroke-width="1"/>
          </g>
          <g transform="translate(8780.5 1131)">
            <line id="線_360-2" data-name="線 360" x2="59" transform="translate(-8780.5 -1127.5)" fill="none" stroke="#000" stroke-width="1"/>
          </g>
          <g transform="translate(8780.5 1134)">
            <line id="線_360-3" data-name="線 360" x2="59" transform="translate(-8780.5 -1127.5)" fill="none" stroke="#000" stroke-width="1"/>
          </g>
          <g transform="translate(8780.5 1137)">
            <line id="線_360-4" data-name="線 360" x2="59" transform="translate(-8780.5 -1127.5)" fill="none" stroke="#000" stroke-width="1"/>
          </g>
          <g transform="translate(8780.5 1140)">
            <line id="線_360-5" data-name="線 360" x2="59" transform="translate(-8780.5 -1127.5)" fill="none" stroke="#000" stroke-width="1"/>
          </g>
          <g transform="translate(8780.5 1143)">
            <line id="線_360-6" data-name="線 360" x2="59" transform="translate(-8780.5 -1127.5)" fill="none" stroke="#000" stroke-width="1"/>
          </g>
          <g transform="translate(8780.5 1146)">
            <line id="線_360-7" data-name="線 360" x2="59" transform="translate(-8780.5 -1127.5)" fill="none" stroke="#000" stroke-width="1"/>
          </g>
          <g transform="translate(8780.5 1149)">
            <line id="線_360-8" data-name="線 360" x2="59" transform="translate(-8780.5 -1127.5)" fill="none" stroke="#000" stroke-width="1"/>
          </g>
          <g transform="translate(8780.5 1152)">
            <line id="線_360-9" data-name="線 360" x2="59" transform="translate(-8780.5 -1127.5)" fill="none" stroke="#000" stroke-width="1"/>
          </g>
          <g transform="translate(8780.5 1155)">
            <line id="線_360-10" data-name="線 360" x2="59" transform="translate(-8780.5 -1127.5)" fill="none" stroke="#000" stroke-width="1"/>
          </g>
          <g transform="translate(8780.5 1158)">
            <line id="線_360-11" data-name="線 360" x2="59" transform="translate(-8780.5 -1127.5)" fill="none" stroke="#000" stroke-width="1"/>
          </g>
          <g transform="translate(8780.5 1161)">
            <line id="線_360-12" data-name="線 360" x2="59" transform="translate(-8780.5 -1127.5)" fill="none" stroke="#000" stroke-width="1"/>
          </g>
          <g transform="translate(8780.5 1164)">
            <line id="線_360-13" data-name="線 360" x2="59" transform="translate(-8780.5 -1127.5)" fill="none" stroke="#000" stroke-width="1"/>
          </g>
          <g transform="translate(8780.5 1167)">
            <line id="線_360-14" data-name="線 360" x2="59" transform="translate(-8780.5 -1127.5)" fill="none" stroke="#000" stroke-width="1"/>
          </g>
          <g transform="translate(8780.5 1170)">
            <line id="線_360-15" data-name="線 360" x2="59" transform="translate(-8780.5 -1127.5)" fill="none" stroke="#000" stroke-width="1"/>
          </g>
          <g transform="translate(8780.5 1173)">
            <line id="線_360-16" data-name="線 360" x2="59" transform="translate(-8780.5 -1127.5)" fill="none" stroke="#000" stroke-width="1"/>
          </g>
          <g transform="translate(8780.5 1176)">
            <line id="線_360-17" data-name="線 360" x2="59" transform="translate(-8780.5 -1127.5)" fill="none" stroke="#000" stroke-width="1"/>
          </g>
          <g transform="translate(8780.5 1179)">
            <line id="線_360-18" data-name="線 360" x2="59" transform="translate(-8780.5 -1127.5)" fill="none" stroke="#000" stroke-width="1"/>
          </g>
          <g transform="translate(8780.5 1182)">
            <line id="線_360-19" data-name="線 360" x2="59" transform="translate(-8780.5 -1127.5)" fill="none" stroke="#000" stroke-width="1"/>
          </g>
        </g>
      </g>
    </g>
    <g id="レイヤー_2_00000066502127103154531750000000459312246520423307_" transform="translate(569.091 3300.227)">
      <path id="パス_754" data-name="パス 754" d="M5.63,14.57a2.023,2.023,0,0,0,1.048-.291A2,2,0,0,0,7.6,13.151a1.811,1.811,0,0,0-.139-1.339,3.07,3.07,0,0,0-1.857-1.465,4.14,4.14,0,0,0-1.927-.123,3.38,3.38,0,0,1,.64-2.115A2.175,2.175,0,0,1,5,7.486,7.467,7.467,0,0,0,6.948,9.879,5.943,5.943,0,0,0,9.88,11.27a2.068,2.068,0,0,0,2.08-.855,2.186,2.186,0,0,0,.193-2.1,3.715,3.715,0,0,0-1.388-1.557,7.373,7.373,0,0,0-3.893-1.19,6.2,6.2,0,0,0-.912.054,3.173,3.173,0,0,1,.923-2.654,3.706,3.706,0,0,1,3.874-1.315A3.631,3.631,0,0,1,13.3,3.884a.749.749,0,1,0,1.465-.316,4.107,4.107,0,0,0-1.252-2.039A5.6,5.6,0,0,0,11.149.206,4.939,4.939,0,0,0,8.464.214,5.817,5.817,0,0,0,5.777,1.948a4.909,4.909,0,0,0-1.285,2.5,4.54,4.54,0,0,0,.016,1.593,3.742,3.742,0,0,0-1.416,1.2,4.873,4.873,0,0,0-.877,3.471h0a4.338,4.338,0,0,0-1.473,1.1A3.932,3.932,0,0,0,.006,13.3a.749.749,0,1,0,1.437.419,2.189,2.189,0,0,1,1.192-1.535,4.914,4.914,0,0,0,.868,1.32,3.384,3.384,0,0,0,1.443.956A2.333,2.333,0,0,0,5.63,14.57ZM4.394,11.657a2.484,2.484,0,0,1,.765.117,1.616,1.616,0,0,1,.969.705c.06.117.147.294-.221.517-.395.237-.95-.125-1.3-.506a3.379,3.379,0,0,1-.544-.809A2.367,2.367,0,0,1,4.394,11.657Zm2.4-4.6h.06a5.889,5.889,0,0,1,3.071.934c.474.321,1.206.956.781,1.606-.1.158-.327.221-.662.185A5.605,5.605,0,0,1,6.477,7.067C6.589,7.056,6.695,7.053,6.793,7.053Z" transform="translate(0.025 -0.024)"/>
    </g>
  </g>
</svg>
