<svg xmlns="http://www.w3.org/2000/svg" width="558" height="82.11" viewBox="0 0 558 82.11">
  <g id="グループ_2731" data-name="グループ 2731" transform="translate(-450 -2660.89)">
    <path id="パス_846" data-name="パス 846" d="M0,0H532l26,44H0Z" transform="translate(450 2699)" fill="#f1f1f1"/>
    <g id="トラックのアイコン" transform="translate(784.021 2674.861)">
      <path id="パス_804" data-name="パス 804" d="M203.459,82.175h36.975a1.7,1.7,0,0,1,1.65,1.747v26.056a1.7,1.7,0,0,1-1.65,1.744H203.459a1.7,1.7,0,0,1-1.65-1.744V83.922A1.7,1.7,0,0,1,203.459,82.175Z" transform="translate(-201.809 -82.175)"/>
      <path id="パス_805" data-name="パス 805" d="M71.72,354.37a4.906,4.906,0,1,1-4.631,4.9A4.771,4.771,0,0,1,71.72,354.37Z" transform="translate(-18.587 -319.028)"/>
      <path id="パス_806" data-name="パス 806" d="M1.375,160.449H40.841a1.419,1.419,0,0,0,1.376-1.455V137.269a1.416,1.416,0,0,1,1.376-1.455H56.129a1.346,1.346,0,0,1,1.055.523l8.976,11.391a1.5,1.5,0,0,1,.319.93v15.217a1.417,1.417,0,0,1-1.375,1.454H58.187a5.982,5.982,0,0,0-10.107,0H19.852a5.981,5.981,0,0,0-10.106,0H1.375A1.417,1.417,0,0,1,0,163.875V161.9A1.417,1.417,0,0,1,1.375,160.449Zm60.078-10.634v-1.007a1.563,1.563,0,0,0-.317-.947L55.407,140.4a1.392,1.392,0,0,0-1.1-.554H48.693a1.46,1.46,0,0,0-1.42,1.5v8.47a1.461,1.461,0,0,0,1.42,1.5H60.036A1.46,1.46,0,0,0,61.453,149.815Z" transform="translate(0 -128.849)"/>
      <path id="パス_807" data-name="パス 807" d="M366.978,354.37a4.906,4.906,0,1,1-4.632,4.9A4.769,4.769,0,0,1,366.978,354.37Z" transform="translate(-352.178 -319.028)"/>
    </g>
    <g id="グループ_2615" data-name="グループ 2615" transform="translate(9120 5061)">
      <g id="グループ_2602" data-name="グループ 2602" transform="translate(-8646.186 -2391.08)">
        <g id="グループ_2600" data-name="グループ 2600" transform="translate(0 0)">
          <path id="パス_726" data-name="パス 726" d="M61.45,4.011V36.649H57.711V29.226q0-12.781-.011-25.552C57.7,1,58.635.033,61.265.033q24.128-.016,48.267,0c2.391,0,3.532,1,3.543,3.184q.033,16.335,0,32.681a6.484,6.484,0,0,1-.1.75h-3.652V4.011Z" transform="translate(-51.44 -0.025)"/>
          <path id="パス_727" data-name="パス 727" d="M64.648,359.339H3.372a3.063,3.063,0,0,1-3.043-2.674l-.217-1.674A1.23,1.23,0,0,1,1.328,353.6H66.68a1.229,1.229,0,0,1,1.217,1.369l-.185,1.641A3.089,3.089,0,0,1,64.648,359.339Z" transform="translate(-0.1 -315.172)"/>
        </g>
        <path id="パス_728" data-name="パス 728" d="M278.075,376h-9.369a.206.206,0,0,1-.206-.207v-.782a.206.206,0,0,1,.206-.206h9.369a.206.206,0,0,1,.206.206v.782A.214.214,0,0,1,278.075,376Z" transform="translate(-239.329 -334.068)" fill="#fff"/>
      </g>
      <g id="レンチ_ドライバーの設定アイコン_" data-name="レンチ＆ドライバーの設定アイコン。" transform="translate(-8607.359 -2375.371)">
        <path id="パス_839" data-name="パス 839" d="M19.3,21.747l5.773,5.788,2.495-2.4L21.749,19.3l-.712-3.158-5.2-3.158-1.426,1.427-1.426,1.426,3.158,5.2Z" transform="translate(-12.656 -12.088)"/>
        <path id="パス_839_-_アウトライン" data-name="パス 839 - アウトライン" d="M25.078,27.535l2.495-2.4L21.749,19.3l-.712-3.158-5.2-3.158-2.852,2.853,3.158,5.2,3.158.712,5.773,5.788m-.015,1.4L18.8,22.658l-3.289-.742-3.787-6.23,3.962-3.964,6.23,3.787.742,3.291L29,25.154l-.734.706-2.5,2.4Z" transform="translate(-12.656 -12.088)" fill="#fff"/>
        <path id="パス_840" data-name="パス 840" d="M281.592,276.3l8.536,8.509a4.029,4.029,0,0,1-5.7,5.7L275.895,282Z" transform="translate(-257.4 -257.21)"/>
        <path id="パス_840_-_アウトライン" data-name="パス 840 - アウトライン" d="M281.592,276.3l-5.7,5.7,8.536,8.509a4.029,4.029,0,0,0,5.7-5.7l-8.536-8.509m0-1.413,9.243,9.214a5.029,5.029,0,1,1-7.11,7.113L274.48,282Z" transform="translate(-257.4 -257.21)" fill="#fff"/>
        <path id="パス_841" data-name="パス 841" d="M39.387,14.051c2.939-2.667,3.43-5.7,2.773-8.254a.626.626,0,0,0-.245-.5l-.592-.485a.486.486,0,0,0-.726.069L37.2,9.3a.486.486,0,0,1-.409.2l-1.235.091a.489.489,0,0,1-.291-.108L32.874,7.464a.487.487,0,0,1-.177-.315L32.549,6.03a.482.482,0,0,1,.087-.35l3.185-4.327a.486.486,0,0,0-.063-.641l-.773-.6c-.151-.14-.323-.121-.557-.076-2.2.434-5.956,2.565-6.91,5.509a10.376,10.376,0,0,0-.547,4.419A5.381,5.381,0,0,1,25.9,13.419L9.3,29.354c-.032.029-.064.059-.095.091a3.5,3.5,0,0,0-.044,4.92,3.54,3.54,0,0,0,4.954-.012c.064-.064.125-.13.182-.2l16-17.3C32.275,15.1,36.173,16.968,39.387,14.051Z" transform="translate(-8.177 0.002)"/>
        <path id="パス_841_-_アウトライン" data-name="パス 841 - アウトライン" d="M34.694,0a1.439,1.439,0,0,0-.265.033c-2.2.434-5.956,2.565-6.91,5.509a10.376,10.376,0,0,0-.547,4.419A5.381,5.381,0,0,1,25.9,13.419L9.3,29.354c-.032.029-.064.059-.095.091a3.5,3.5,0,0,0-.044,4.92,3.54,3.54,0,0,0,4.954-.012c.064-.064.125-.13.182-.2l16-17.3c1.969-1.753,5.867.114,9.081-2.8,2.939-2.667,3.43-5.7,2.773-8.254a.626.626,0,0,0-.245-.5l-.592-.485a.486.486,0,0,0-.726.069L37.2,9.3a.485.485,0,0,1-.409.2l-1.235.091a.489.489,0,0,1-.291-.108L32.874,7.464a.487.487,0,0,1-.177-.315L32.549,6.03a.482.482,0,0,1,.087-.35l3.185-4.327a.486.486,0,0,0-.063-.641l-.773-.6A.4.4,0,0,0,34.694,0m0-1a1.4,1.4,0,0,1,.932.34l.784.613.032.03a1.488,1.488,0,0,1,.188,1.961l0,0L33.567,6.1l.095.718,2.072,1.756.8-.059L39.8,4.279a1.49,1.49,0,0,1,1.047-.593h.007c.046,0,.093-.007.139-.007a1.482,1.482,0,0,1,.986.374l.554.454a1.592,1.592,0,0,1,.617,1.114,9.079,9.079,0,0,1-3.088,9.171c-2.071,1.88-4.376,2.022-6.228,2.136A5.077,5.077,0,0,0,31,17.573L15.05,34.819c-.068.08-.141.159-.224.241a4.54,4.54,0,0,1-6.368.012,4.387,4.387,0,0,1-1.282-3.156A4.505,4.505,0,0,1,8.5,28.738c.042-.042.081-.08.12-.115L25.2,12.706a4.516,4.516,0,0,0,.772-2.683,11.686,11.686,0,0,1,.6-4.791c1.1-3.4,5.226-5.7,7.667-6.182A2.375,2.375,0,0,1,34.694-1Z" transform="translate(-8.177 0.002)" fill="#fff"/>
      </g>
    </g>
    <g id="CDのアイコン素材" transform="translate(582.622 2672.861)">
      <path id="パス_842" data-name="パス 842" d="M22.57,0a22.57,22.57,0,1,0,22.57,22.57A22.57,22.57,0,0,0,22.57,0ZM8.5,13.215l-.127.191-1.8-1.2.128-.193a19.149,19.149,0,0,1,12.518-8.2l.227-.04.38,2.134-.227.039A16.97,16.97,0,0,0,8.5,13.215Zm4.347,3.244-1.827-1.23.16-.238A14.044,14.044,0,0,1,20.145,9.07l.282-.057.412,2.164-.281.052a11.859,11.859,0,0,0-7.546,4.989Zm1.216,6.111a8.5,8.5,0,1,1,8.5,8.5A8.5,8.5,0,0,1,14.069,22.57Zm10.7,14.04-.355-2.174.285-.047a11.794,11.794,0,0,0,7.918-5.13l.158-.24,1.84,1.209-.16.242a14.008,14.008,0,0,1-9.4,6.091Zm13.671-3.484a19.153,19.153,0,0,1-12.52,8.2l-.227.039-.377-2.134.226-.04a16.957,16.957,0,0,0,11.095-7.272l.127-.193,1.8,1.2Z"/>
      <path id="パス_843" data-name="パス 843" d="M193.112,183.865a6.531,6.531,0,1,0,1.911,4.616A6.506,6.506,0,0,0,193.112,183.865Zm-4.616,8.089a3.472,3.472,0,1,1,3.471-3.473A3.472,3.472,0,0,1,188.5,191.954Z" transform="translate(-165.926 -165.912)"/>
    </g>
    <g id="グループ_2612" data-name="グループ 2612" transform="translate(9096.236 5056.856)">
      <g id="グループ_2608" data-name="グループ 2608" transform="translate(-8412.294 -2395.966)">
        <g id="グループ_2603" data-name="グループ 2603" transform="translate(0 0)">
          <g id="グループ_2600-2" data-name="グループ 2600" transform="translate(0 0)">
            <path id="パス_726-2" data-name="パス 726" d="M59.924,2.389V21.746H57.706v-4.4q0-7.581-.006-15.155C57.7.6,58.254.03,59.814.03q14.31-.01,28.627,0c1.418,0,2.095.593,2.1,1.889q.019,9.688,0,19.383a3.843,3.843,0,0,1-.058.445H88.318V2.389Z" transform="translate(-53.987 -0.025)"/>
            <path id="パス_727-2" data-name="パス 727" d="M38.383,357H2.04a1.817,1.817,0,0,1-1.8-1.586l-.129-.993a.729.729,0,0,1,.722-.825h38.76a.729.729,0,0,1,.722.812l-.11.973A1.832,1.832,0,0,1,38.383,357Z" transform="translate(-0.1 -330.808)"/>
          </g>
          <path id="パス_728-2" data-name="パス 728" d="M274.179,375.509h-5.556a.122.122,0,0,1-.122-.122v-.464a.122.122,0,0,1,.122-.122h5.556a.122.122,0,0,1,.122.122v.464A.127.127,0,0,1,274.179,375.509Z" transform="translate(-251.199 -350.642)" fill="#fff"/>
        </g>
        <g id="Camada_x0020_1" transform="translate(13.691 5.823)">
          <path id="パス_845" data-name="パス 845" d="M2508.834,2462.066v5.759h0c0,.012,0,.021,0,.034a.262.262,0,0,1-.294.225l-5.718-.757a.262.262,0,0,1-.25-.26v-5.008h0a.262.262,0,0,1,.26-.263l5.718.009h.022A.262.262,0,0,1,2508.834,2462.066Zm-6.884-.009v4.9a.262.262,0,0,1-.294.226l-5.391-.671a.262.262,0,0,1-.238-.26v-4.188h0a.262.262,0,0,1,.263-.26l5.375-.012h.024A.262.262,0,0,1,2501.95,2462.057Zm0-5.907v4.775a.261.261,0,0,1-.26.26h-5.427a.262.262,0,0,1-.263-.26v-4.092h0a.263.263,0,0,1,.229-.26l5.4-.68a.293.293,0,0,1,.058-.006A.262.262,0,0,1,2501.95,2456.15Zm6.621,5.035h-5.74a.262.262,0,0,1-.263-.26v-4.911h0a.263.263,0,0,1,.226-.26l5.718-.748a.338.338,0,0,1,.056-.006.263.263,0,0,1,.263.263v5.662A.262.262,0,0,1,2508.571,2461.185Z" transform="translate(-2496 -2455)"/>
        </g>
      </g>
      <g id="グループ_2609" data-name="グループ 2609" transform="translate(-8435.316 -2365.051)">
        <g id="グループ_2603-2" data-name="グループ 2603" transform="translate(0 0)">
          <g id="グループ_2600-3" data-name="グループ 2600" transform="translate(0 0)">
            <path id="パス_726-3" data-name="パス 726" d="M59.924,2.389V21.746H57.706v-4.4q0-7.581-.006-15.155C57.7.6,58.254.03,59.814.03q14.31-.01,28.627,0c1.418,0,2.095.593,2.1,1.889q.019,9.688,0,19.383a3.843,3.843,0,0,1-.058.445H88.318V2.389Z" transform="translate(-53.987 -0.025)"/>
            <path id="パス_727-3" data-name="パス 727" d="M38.383,357H2.04a1.817,1.817,0,0,1-1.8-1.586l-.129-.993a.729.729,0,0,1,.722-.825h38.76a.729.729,0,0,1,.722.812l-.11.973A1.832,1.832,0,0,1,38.383,357Z" transform="translate(-0.1 -330.808)"/>
          </g>
          <path id="パス_728-3" data-name="パス 728" d="M274.179,375.509h-5.556a.122.122,0,0,1-.122-.122v-.464a.122.122,0,0,1,.122-.122h5.556a.122.122,0,0,1,.122.122v.464A.127.127,0,0,1,274.179,375.509Z" transform="translate(-251.199 -350.642)" fill="#fff"/>
        </g>
        <g id="Camada_x0020_1-2" data-name="Camada_x0020_1" transform="translate(13.691 5.823)">
          <path id="パス_845-2" data-name="パス 845" d="M2508.834,2462.066v5.759h0c0,.012,0,.021,0,.034a.262.262,0,0,1-.294.225l-5.718-.757a.262.262,0,0,1-.25-.26v-5.008h0a.262.262,0,0,1,.26-.263l5.718.009h.022A.262.262,0,0,1,2508.834,2462.066Zm-6.884-.009v4.9a.262.262,0,0,1-.294.226l-5.391-.671a.262.262,0,0,1-.238-.26v-4.188h0a.262.262,0,0,1,.263-.26l5.375-.012h.024A.262.262,0,0,1,2501.95,2462.057Zm0-5.907v4.775a.261.261,0,0,1-.26.26h-5.427a.262.262,0,0,1-.263-.26v-4.092h0a.263.263,0,0,1,.229-.26l5.4-.68a.293.293,0,0,1,.058-.006A.262.262,0,0,1,2501.95,2456.15Zm6.621,5.035h-5.74a.262.262,0,0,1-.263-.26v-4.911h0a.263.263,0,0,1,.226-.26l5.718-.748a.338.338,0,0,1,.056-.006.263.263,0,0,1,.263.263v5.662A.262.262,0,0,1,2508.571,2461.185Z" transform="translate(-2496 -2455)"/>
        </g>
      </g>
      <g id="グループ_2610" data-name="グループ 2610" transform="translate(-8389.703 -2365.051)">
        <g id="グループ_2603-3" data-name="グループ 2603" transform="translate(0 0)">
          <g id="グループ_2600-4" data-name="グループ 2600" transform="translate(0 0)">
            <path id="パス_726-4" data-name="パス 726" d="M59.924,2.389V21.746H57.706v-4.4q0-7.581-.006-15.155C57.7.6,58.254.03,59.814.03q14.31-.01,28.627,0c1.418,0,2.095.593,2.1,1.889q.019,9.688,0,19.383a3.843,3.843,0,0,1-.058.445H88.318V2.389Z" transform="translate(-53.987 -0.025)"/>
            <path id="パス_727-4" data-name="パス 727" d="M38.383,357H2.04a1.817,1.817,0,0,1-1.8-1.586l-.129-.993a.729.729,0,0,1,.722-.825h38.76a.729.729,0,0,1,.722.812l-.11.973A1.832,1.832,0,0,1,38.383,357Z" transform="translate(-0.1 -330.808)"/>
          </g>
          <path id="パス_728-4" data-name="パス 728" d="M274.179,375.509h-5.556a.122.122,0,0,1-.122-.122v-.464a.122.122,0,0,1,.122-.122h5.556a.122.122,0,0,1,.122.122v.464A.127.127,0,0,1,274.179,375.509Z" transform="translate(-251.199 -350.642)" fill="#fff"/>
        </g>
        <g id="Camada_x0020_1-3" data-name="Camada_x0020_1" transform="translate(13.691 5.823)">
          <path id="パス_845-3" data-name="パス 845" d="M2508.834,2462.066v5.759h0c0,.012,0,.021,0,.034a.262.262,0,0,1-.294.225l-5.718-.757a.262.262,0,0,1-.25-.26v-5.008h0a.262.262,0,0,1,.26-.263l5.718.009h.022A.262.262,0,0,1,2508.834,2462.066Zm-6.884-.009v4.9a.262.262,0,0,1-.294.226l-5.391-.671a.262.262,0,0,1-.238-.26v-4.188h0a.262.262,0,0,1,.263-.26l5.375-.012h.024A.262.262,0,0,1,2501.95,2462.057Zm0-5.907v4.775a.261.261,0,0,1-.26.26h-5.427a.262.262,0,0,1-.263-.26v-4.092h0a.263.263,0,0,1,.229-.26l5.4-.68a.293.293,0,0,1,.058-.006A.262.262,0,0,1,2501.95,2456.15Zm6.621,5.035h-5.74a.262.262,0,0,1-.263-.26v-4.911h0a.263.263,0,0,1,.226-.26l5.718-.748a.338.338,0,0,1,.056-.006.263.263,0,0,1,.263.263v5.662A.262.262,0,0,1,2508.571,2461.185Z" transform="translate(-2496 -2455)"/>
        </g>
      </g>
    </g>
    <g id="グループ_2614" data-name="グループ 2614" transform="translate(9084 5061)">
      <g id="グループ_2606" data-name="グループ 2606" transform="translate(-8192.193 -2397)">
        <g id="デスクワークアイコン4" transform="translate(0)">
          <rect id="長方形_3546" data-name="長方形 3546" width="66.04" height="6.875" transform="translate(0 47.842)"/>
          <path id="パス_789" data-name="パス 789" d="M17.452,294.519H45.344v-5.429H32.295L26.8,274.164H1.168l7.99,20.355Z" transform="translate(-1.017 -248.487)"/>
          <path id="パス_798" data-name="パス 798" d="M301.234,89.337a9.67,9.67,0,0,0,1.956,4.676v2.435a.7.7,0,0,1-.031.193l4.561,1.958,4.557-1.958a.736.736,0,0,1-.032-.193V94.014a9.638,9.638,0,0,0,1.956-4.676c.933-.3,1.468-.773,2.132-2.85.707-2.212-1.065-2.139-1.065-2.139,1.432-4.23-.454-8.208-3.616-7.917-2.181-3.4-9.486.778-11.777.485a4.225,4.225,0,0,0,.545,2.042c-.8,1.347-.489,4.03-.265,5.39-.129,0-1.733.014-1.052,2.139C299.768,88.565,300.3,89.04,301.234,89.337Z" transform="translate(-260.378 -75.09)"/>
          <rect id="長方形_3547" data-name="長方形 3547" width="3.438" height="2.655" transform="translate(45.621 24.502)"/>
          <path id="パス_799" data-name="パス 799" d="M262.615,289.248v7.761h19.228c-1.022-9.538-5.623-18.464-8.79-19.52a9.361,9.361,0,0,1-1.109-.467l-6.471,7.965-.459-5.222h-3.438l-.459,5.222-6.461-7.965a7.705,7.705,0,0,1-1.122.467c-1.684.526-3.881,4.582-5.6,9.234l.924,2.525Z" transform="translate(-215.956 -250.976)"/>
        </g>
      </g>
      <text id="SETUP" transform="translate(-8202.164 -2388.855)" font-size="10" font-family="DIN2014-Demi, 'DIN \32 014'" font-weight="300" letter-spacing="0.03em"><tspan x="7.827" y="10">SETUP</tspan></text>
      <g id="キラキラ_2" data-name="キラキラ 2" transform="translate(-8246.105 -2411.842)">
        <path id="パス_802" data-name="パス 802" d="M71.709,354.7a5.745,5.745,0,0,1-1.269,2.72,5.747,5.747,0,0,1-2.719,1.269,5.744,5.744,0,0,1,2.719,1.27,5.741,5.741,0,0,1,1.27,2.72,4.393,4.393,0,0,1,3.988-3.99,4.392,4.392,0,0,1-3.989-3.989Z" transform="translate(-24.584 -322.309)"/>
      </g>
    </g>
  </g>
</svg>
