<svg xmlns="http://www.w3.org/2000/svg" width="168.151" height="85.38"><path data-name="パス 709" d="M.275 49.277l6.9-14.638a31.97 31.97 0 01-.034-1.316A33.322 33.322 0 1161.674 59.03v11.778a2.867 2.867 0 01-1.743 2.637l-27.6 11.707a2.859 2.859 0 01-3.982-2.632v-9.982a2.865 2.865 0 00-2.861-2.864H11.354a2.863 2.863 0 01-2.864-2.861v-8.606a2.863 2.863 0 00-1.613-2.577l-5.266-2.556a2.864 2.864 0 01-1.336-3.797zM40.227 61.81a3.771 3.771 0 003.318-1.983h-6.638a3.767 3.767 0 003.32 1.983zm-6.728-7.337a1.476 1.476 0 00.646 1.224 1.476 1.476 0 00.831 2.7h10.569a1.476 1.476 0 00.831-2.7 1.474 1.474 0 00.008-2.434 1.474 1.474 0 00-.839-2.689H34.976a1.474 1.474 0 00-.839 2.689 1.48 1.48 0 00-.638 1.21zM31.683 42.31c2.457 1.629 2.679 2.84 2.679 5.878h11.8c0-3.038.219-4.25 2.679-5.878a15.584 15.584 0 10-17.161 0z" fill="#00b176" opacity=".14"/><text data-name="自律的行動" transform="translate(58.151 51.935)" fill="#00b176" font-size="22" font-family="YuGothicUI-Semibold, Yu Gothic UI" font-weight="600"><tspan x="0" y="0">自律的行動</tspan></text></svg>