<svg xmlns="http://www.w3.org/2000/svg" width="158.38" height="79.415"><g fill="#d76b00"><text data-name="継続改善" transform="translate(70.38 57.393)" font-size="22" font-family="YuGothicUI-Semibold, Yu Gothic UI" font-weight="600"><tspan x="0" y="0">継続改善</tspan></text><g opacity=".14"><path data-name="長方形 3448" d="M0 78.028h88.766v1.387H0z"/><path data-name="パス 710" d="M19.537 62.422v10.532h13.631V59.112a121.438 121.438 0 01-13.631 3.31z"/><path data-name="パス 711" d="M1.506 64.31v8.644h13.631v-9.836A124.862 124.862 0 011.506 64.31z"/><path data-name="パス 712" d="M37.524 57.689v15.265h13.718V51.93a116.44 116.44 0 01-13.718 5.759z"/><path data-name="パス 713" d="M55.533 49.676v23.278h13.761V40.669a110.12 110.12 0 01-13.761 9.007z"/><path data-name="パス 714" d="M73.553 37.223v35.731h13.783V22.882a100.2 100.2 0 01-13.783 14.341z"/><path data-name="パス 715" d="M71.616 5.326l4.795 4.017C61.192 28.331 32.141 52.385 0 55.964v3.839c31.879-1.127 66.073-22.964 83.833-44.24l4.933 4.131V0z"/></g></g></svg>