<svg xmlns="http://www.w3.org/2000/svg" width="173" height="69.054"><g fill="#8246af"><g opacity=".14"><path data-name="パス 706" d="M69.762 17.037a44.876 44.876 0 00-14.165.643c-.336-.222-.672-.451-1-.655a20.1 20.1 0 00-2.993-1.54 9.133 9.133 0 00-2.908-.7 53.435 53.435 0 00-4.279-.175 32.536 32.536 0 00-5.047.33h.005a3.865 3.865 0 01-.584.044 9.2 9.2 0 01-4.038-1.275 2.128 2.128 0 00-2.73.626L16.728 35.423a2.136 2.136 0 00-.049 2.43 8.24 8.24 0 01.927 1.789 10.64 10.64 0 001.268 2.381 22.913 22.913 0 001.717 2.174l.241.231 2.855 2.352a4.047 4.047 0 005.488 5.729 4.043 4.043 0 005.754 5.507 4.039 4.039 0 003.153 6.572 4.04 4.04 0 002.842-1.163l.75-.745a4.047 4.047 0 006.395 4.82l.456-.463c.228.18.437.342.607.474.139.1.258.195.366.273l.161.114.228.141a8.442 8.442 0 002.33.818c.325.067.6.114.81.142l.252.033.079.008h.096c.025 0 .013 0 .143.006l.154-.006a7.266 7.266 0 003.892-1.444 6.5 6.5 0 001.175-1.2 6.994 6.994 0 002.162.353 7.068 7.068 0 006.626-4.662 1.769 1.769 0 00.33-.04 6.617 6.617 0 001.189.121 7.079 7.079 0 006.613-4.59.207.207 0 01.02-.014l.238.023a7.091 7.091 0 007.092-7.091 11.158 11.158 0 00-.562-3.542c2.689-2.376 6.63-6.047 7.342-8.039a29.224 29.224 0 012.832-4.042L77.528 13.949c-1.935 1.108-5.691 3.436-7.766 3.088zm9.07 33.47a2.839 2.839 0 01-2.835 2.836 2.8 2.8 0 01-1.088-.219.877.877 0 00-.1-.029l-2.629-3.2a1.844 1.844 0 10-2.792 2.411l2.543 3.1a2.813 2.813 0 01-4.607 1.856L64.8 54.185a1.845 1.845 0 00-2.793 2.411l1.758 2.191a2.083 2.083 0 00.008.409 2.683 2.683 0 01.045.472 2.838 2.838 0 01-2.834 2.836 2.792 2.792 0 01-1.133-.247l-3.076-3.233a1.845 1.845 0 00-2.529 2.687l1.443 1.693a2.146 2.146 0 01-.63.818 2.989 2.989 0 01-1.479.551 8.116 8.116 0 01-.682-.13 4.193 4.193 0 01-.894-.3 20.073 20.073 0 01-.472-.36c-.136-.1-.291-.225-.464-.362a4.042 4.042 0 00-3.934-5 4.006 4.006 0 00-1.757.418l-.016-.014.019-.021a4.048 4.048 0 00-5.2-6.178 4.046 4.046 0 00-6.007-5.4l-.684.68a4.046 4.046 0 00-6.375-4.851l-.452.454-.915-.754a280.882 280.882 0 01-2.058-1.7 17.562 17.562 0 01-1.3-1.642 6.571 6.571 0 01-.771-1.408 11.374 11.374 0 00-.622-1.417l13.439-18.533a11.458 11.458 0 004.352.984 7.822 7.822 0 001.279-.1h.005a28.605 28.605 0 014.341-.27c1.22 0 2.563.048 3.935.159l.094.006a4.99 4.99 0 011.58.4l.154.07c-5.742 2.593-13.88 7.582-16.555 8.475-3.054 1.017-3.309 5.091 3.562 5.853s12.981-3.564 14.507-4.325c1.1-.548 8.058.121 11.915.544 1.7 1.679 3.191 3.237 4.278 4.415l8.47 10.355.037.042a10.72 10.72 0 012.008 3.152 6.685 6.685 0 01.434 2.492z"/><path data-name="パス 707" d="M109.708 28.859L89.241.631a1.526 1.526 0 00-2.133-.34l-9.066 6.574a1.527 1.527 0 00-.339 2.133l20.468 28.228a1.527 1.527 0 002.133.342l9.067-6.575a1.527 1.527 0 00.337-2.134zm-6.964 2.536a2.545 2.545 0 11.567-3.557 2.548 2.548 0 01-.567 3.558z"/><path data-name="パス 708" d="M31.96 6.865L22.892.291a1.526 1.526 0 00-2.133.34L.291 28.86a1.528 1.528 0 00.34 2.133L9.7 37.568a1.526 1.526 0 002.132-.342L32.3 8.999a1.528 1.528 0 00-.34-2.134zm-6.06 3.152a2.545 2.545 0 11-.567-3.555 2.545 2.545 0 01.567 3.555z"/></g><text data-name="業務支援" transform="translate(85 43.82)" font-size="22" font-family="YuGothicUI-Semibold, Yu Gothic UI" font-weight="600"><tspan x="0" y="0">業務支援</tspan></text></g></svg>