<svg xmlns="http://www.w3.org/2000/svg" width="71.097" height="67.976" viewBox="0 0 71.097 67.976">
  <g id="グループ_2678" data-name="グループ 2678" transform="translate(-540 -2814.1)">
    <g id="時間経過のアイコン_2" data-name="時間経過のアイコン 2" transform="translate(540 2814.1)">
      <path id="パス_811" data-name="パス 811" d="M61.143,21.193a33.894,33.894,0,0,0-24.034-9.954v8.239A25.763,25.763,0,1,1,12.258,38.5l3.339,2.08a1.59,1.59,0,0,0,1.422.151,1.22,1.22,0,0,0,.77-1.051l1.438-18.832a1.613,1.613,0,0,0-2.353-1.463L.608,28.976A1.218,1.218,0,0,0,0,30.129,1.578,1.578,0,0,0,.767,31.34L5.03,34a33.989,33.989,0,1,0,56.114-12.8Z" transform="translate(-0.001 -11.239)"/>
    </g>
    <text id="DONE" transform="translate(577 2855)" font-size="15" font-family="DIN2014-ExtraBold, 'DIN \32 014'" font-weight="800"><tspan x="-18.397" y="0">DONE</tspan></text>
  </g>
</svg>
