<svg xmlns="http://www.w3.org/2000/svg" width="82.888" height="68.676" viewBox="0 0 82.888 68.676">
  <g id="デスクワークアイコン4" transform="translate(0 -26.699)">
    <rect id="長方形_3546" data-name="長方形 3546" width="82.888" height="8.629" transform="translate(0 86.747)"/>
    <path id="パス_789" data-name="パス 789" d="M21.606,299.712H56.614V292.9H40.236l-6.9-18.735H1.168L11.2,299.712Z" transform="translate(-0.979 -215.236)"/>
    <path id="パス_798" data-name="パス 798" d="M301.82,92.972c.5,2.533,1.346,4.769,2.455,5.869V101.9a.876.876,0,0,1-.039.242l5.724,2.457,5.72-2.457a.922.922,0,0,1-.04-.242V98.841c1.113-1.1,1.954-3.337,2.456-5.869,1.171-.373,1.842-.97,2.676-3.577.887-2.777-1.337-2.685-1.337-2.685,1.8-5.309-.57-10.3-4.539-9.937-2.738-4.269-11.906.977-14.781.609a5.3,5.3,0,0,0,.684,2.563c-1,1.69-.614,5.059-.332,6.765-.162,0-2.175.017-1.32,2.685C299.98,92,300.649,92.6,301.82,92.972Z" transform="translate(-250.541 -48.391)"/>
    <rect id="長方形_3547" data-name="長方形 3547" width="4.315" height="3.332" transform="translate(57.26 57.452)"/>
    <path id="パス_799" data-name="パス 799" d="M266.36,292.367v9.74h24.134c-1.282-11.971-7.057-23.175-11.033-24.5a11.744,11.744,0,0,1-1.393-.586l-8.122,10-.576-6.554h-4.315l-.577,6.554-8.11-10a9.672,9.672,0,0,1-1.408.586c-2.113.661-4.871,5.751-7.027,11.59l1.159,3.169Z" transform="translate(-207.797 -217.632)"/>
  </g>
</svg>
