<svg xmlns="http://www.w3.org/2000/svg" width="112.647" height="66.921" viewBox="0 0 112.647 66.921">
  <g id="グループ_2631" data-name="グループ 2631" transform="translate(8301.169 1160.5)">
    <g id="グループ_2628" data-name="グループ 2628" transform="translate(-443 2023.769)">
      <rect id="長方形_3585" data-name="長方形 3585" width="16" height="28" transform="translate(-7847 -3154)"/>
      <rect id="長方形_3586" data-name="長方形 3586" width="16" height="28" transform="translate(-7827 -3154)"/>
      <rect id="長方形_3587" data-name="長方形 3587" width="16" height="28" transform="translate(-7807 -3154)"/>
      <path id="パス_863" data-name="パス 863" d="M4.183,62.739V0H0V66.921H71.921V62.739Z" transform="translate(-7858.169 -3184.269)"/>
      <path id="パス_864" data-name="パス 864" d="M63,1.5H60v-3h3Zm-6,0H54v-3h3Zm-6,0H48v-3h3Zm-6,0H42v-3h3Zm-6,0H36v-3h3Zm-6,0H30v-3h3Zm-6,0H24v-3h3Zm-6,0H18v-3h3Zm-6,0H12v-3h3Zm-6,0H6v-3H9Zm-6,0H0v-3H3Z" transform="translate(-7849 -3158.5)"/>
    </g>
    <g id="ユーロを積み上げたお金アイコン2" transform="translate(-8415.479 -1323.89)">
      <path id="パス_865" data-name="パス 865" d="M209.581,190.281a17.378,17.378,0,1,0,17.377,17.378A17.379,17.379,0,0,0,209.581,190.281Zm6.906,15.954h-4.758l-.513.8v1.905h5.271v2.7h-5.271v4.082h-3.271V211.64h-5.274v-2.7h5.274v-1.9l-.516-.8h-4.758v-2.311h3.274l-2.781-4.327h2.775l3.642,5.667,3.642-5.667H216l-2.782,4.327h3.271Z" transform="translate(0 0)"/>
    </g>
  </g>
</svg>
