<svg xmlns="http://www.w3.org/2000/svg" width="60.4" height="64.933" viewBox="0 0 60.4 64.933">
  <g id="グループ_2622" data-name="グループ 2622" transform="translate(8170 3187.753)">
    <g id="カレンダーの無料アイコン10_1_" data-name="カレンダーの無料アイコン10 (1)" transform="translate(-8170 -3187.753)">
      <path id="パス_848" data-name="パス 848" d="M99.069,172.967a3.5,3.5,0,1,0,3.5,3.5A3.5,3.5,0,0,0,99.069,172.967Z" transform="translate(-85.712 -151.031)"/>
      <path id="パス_849" data-name="パス 849" d="M231.87,172.967a3.5,3.5,0,1,0,3.5,3.5A3.5,3.5,0,0,0,231.87,172.967Z" transform="translate(-201.671 -151.031)"/>
      <path id="パス_850" data-name="パス 850" d="M364.671,179.975a3.5,3.5,0,1,0-3.5-3.5A3.5,3.5,0,0,0,364.671,179.975Z" transform="translate(-317.629 -151.031)"/>
      <path id="パス_851" data-name="パス 851" d="M99.069,282.87a3.5,3.5,0,1,0,3.5,3.5A3.5,3.5,0,0,0,99.069,282.87Z" transform="translate(-85.712 -246.996)"/>
      <path id="パス_852" data-name="パス 852" d="M231.87,282.87a3.5,3.5,0,1,0,3.5,3.5A3.5,3.5,0,0,0,231.87,282.87Z" transform="translate(-201.671 -246.996)"/>
      <path id="パス_853" data-name="パス 853" d="M364.671,289.879a3.5,3.5,0,1,0-3.5-3.5A3.5,3.5,0,0,0,364.671,289.879Z" transform="translate(-317.629 -246.997)"/>
      <path id="パス_854" data-name="パス 854" d="M99.069,392.783a3.5,3.5,0,1,0,3.5,3.5A3.5,3.5,0,0,0,99.069,392.783Z" transform="translate(-85.712 -342.97)"/>
      <path id="パス_855" data-name="パス 855" d="M231.87,392.783a3.5,3.5,0,1,0,3.5,3.5A3.5,3.5,0,0,0,231.87,392.783Z" transform="translate(-201.671 -342.97)"/>
      <path id="パス_856" data-name="パス 856" d="M364.671,399.791a3.5,3.5,0,1,0-3.5-3.5A3.5,3.5,0,0,0,364.671,399.791Z" transform="translate(-317.629 -342.97)"/>
      <path id="パス_857" data-name="パス 857" d="M103.618,11.325A2.177,2.177,0,0,0,105.8,9.148V2.177a2.178,2.178,0,0,0-4.356,0v6.97A2.177,2.177,0,0,0,103.618,11.325Z" transform="translate(-90.841)"/>
      <path id="パス_858" data-name="パス 858" d="M241,11.325a2.177,2.177,0,0,0,2.177-2.177V2.177a2.178,2.178,0,0,0-4.356,0v6.97A2.177,2.177,0,0,0,241,11.325Z" transform="translate(-210.799)"/>
      <path id="パス_859" data-name="パス 859" d="M69.412,44.9v3.453a3.92,3.92,0,0,1-7.84,0V44.9H51.989v3.453a3.92,3.92,0,0,1-7.84,0V44.9H34.567v3.453a3.92,3.92,0,0,1-7.84,0V44.9H17.87v59.238h60.4V44.9Zm5.372,26.716v29.038H21.355v-45.3h53.43Z" transform="translate(-17.87 -39.205)"/>
      <path id="パス_860" data-name="パス 860" d="M378.377,11.325a2.177,2.177,0,0,0,2.178-2.177V2.177a2.178,2.178,0,0,0-4.356,0v6.97A2.177,2.177,0,0,0,378.377,11.325Z" transform="translate(-330.756)"/>
    </g>
  </g>
</svg>
