<svg xmlns="http://www.w3.org/2000/svg" width="71.097" height="67.976"><g data-name="グループ 2678"><g data-name="時間経過のアイコン 2"><path data-name="パス 811" d="M61.142 9.954A33.894 33.894 0 0037.108 0v8.239a25.763 25.763 0 11-24.851 19.022l3.339 2.08a1.59 1.59 0 001.422.151 1.22 1.22 0 00.77-1.051l1.438-18.832a1.613 1.613 0 00-2.353-1.463L.607 17.737a1.218 1.218 0 00-.608 1.153 1.578 1.578 0 00.767 1.211l4.263 2.66a33.989 33.989 0 1056.114-12.8z"/></g><text transform="translate(37 40.9)" font-size="15" font-family="DIN2014-ExtraBold, 'DIN \32 014'" font-weight="800"><tspan x="-18.397" y="0">DONE</tspan></text></g></svg>