<svg xmlns="http://www.w3.org/2000/svg" width="54.077" height="69.189"><path data-name="パス 871" d="M51.256 13.065l-2.652-.146c-7.193-.4-13.428-3.161-17.109-7.581L27.039 0l-4.457 5.339c-3.681 4.42-9.918 7.181-17.109 7.581L0 13.22v25.285a20.634 20.634 0 002.821 10.087c5.981 10.789 19.591 18.175 21.528 19.192l2.689 1.4 2.688-1.4c2.494-1.308 24.351-13.2 24.351-29.278V13.223zM5.789 35.284V18.707c8.694-.484 16.42-3.862 21.252-9.662v26.239h21.248v3.221c0 13.041-21.249 24.144-21.249 24.144V35.284z"/></svg>