<svg xmlns="http://www.w3.org/2000/svg" width="82.888" height="68.676"><path data-name="長方形 3546" d="M0 60.048h82.888v8.629H0z"/><path data-name="パス 789" d="M20.627 57.777h35.008v-6.812H39.257l-6.9-18.735H.189l10.032 25.547z"/><path data-name="パス 798" d="M51.279 17.882c.5 2.533 1.346 4.769 2.455 5.869v3.059a.876.876 0 01-.039.242l5.724 2.457 5.72-2.457a.922.922 0 01-.04-.242v-3.059c1.113-1.1 1.954-3.337 2.456-5.869 1.171-.373 1.842-.97 2.676-3.577.887-2.777-1.337-2.685-1.337-2.685 1.8-5.309-.57-10.3-4.539-9.937-2.738-4.269-11.906.977-14.781.609a5.3 5.3 0 00.684 2.563c-1 1.69-.614 5.059-.332 6.765-.162 0-2.175.017-1.32 2.685.833 2.605 1.502 3.205 2.673 3.577z"/><path data-name="長方形 3547" d="M57.26 30.753h4.315v3.332H57.26z"/><path data-name="パス 799" d="M58.563 48.036v9.74h24.134c-1.282-11.971-7.057-23.175-11.033-24.5a11.744 11.744 0 01-1.393-.586l-8.122 10-.576-6.554h-4.315l-.577 6.554-8.11-10a9.672 9.672 0 01-1.408.586c-2.113.661-4.871 5.751-7.027 11.59l1.159 3.169z"/></svg>