<svg xmlns="http://www.w3.org/2000/svg" width="60.4" height="64.933"><g data-name="グループ 2622"><g data-name="カレンダーの無料アイコン10 (1)"><path data-name="パス 848" d="M13.357 21.936a3.5 3.5 0 103.5 3.5 3.5 3.5 0 00-3.5-3.5z"/><path data-name="パス 849" d="M30.199 21.936a3.5 3.5 0 103.5 3.5 3.5 3.5 0 00-3.5-3.5z"/><path data-name="パス 850" d="M47.042 28.944a3.5 3.5 0 10-3.5-3.5 3.5 3.5 0 003.5 3.5z"/><path data-name="パス 851" d="M13.357 35.874a3.5 3.5 0 103.5 3.5 3.5 3.5 0 00-3.5-3.5z"/><path data-name="パス 852" d="M30.199 35.874a3.5 3.5 0 103.5 3.5 3.5 3.5 0 00-3.5-3.5z"/><path data-name="パス 853" d="M47.042 42.882a3.5 3.5 0 10-3.5-3.5 3.5 3.5 0 003.5 3.5z"/><path data-name="パス 854" d="M13.357 49.813a3.5 3.5 0 103.5 3.5 3.5 3.5 0 00-3.5-3.5z"/><path data-name="パス 855" d="M30.199 49.813a3.5 3.5 0 103.5 3.5 3.5 3.5 0 00-3.5-3.5z"/><path data-name="パス 856" d="M47.042 56.821a3.5 3.5 0 10-3.5-3.5 3.5 3.5 0 003.5 3.5z"/><path data-name="パス 857" d="M12.777 11.325a2.177 2.177 0 002.182-2.177V2.177a2.178 2.178 0 00-4.356 0v6.97a2.177 2.177 0 002.174 2.178z"/><path data-name="パス 858" d="M30.201 11.325a2.177 2.177 0 002.177-2.177V2.177a2.178 2.178 0 00-4.356 0v6.97a2.177 2.177 0 002.179 2.178z"/><path data-name="パス 859" d="M51.542 5.695v3.453a3.92 3.92 0 01-7.84 0V5.695h-9.583v3.453a3.92 3.92 0 01-7.84 0V5.695h-9.582v3.453a3.92 3.92 0 01-7.84 0V5.695H0v59.238h60.4V5.695zm5.372 26.716v29.038H3.485v-45.3h53.43z"/><path data-name="パス 860" d="M47.621 11.325a2.177 2.177 0 002.178-2.177V2.177a2.178 2.178 0 00-4.356 0v6.97a2.177 2.177 0 002.178 2.178z"/></g></g></svg>