<svg xmlns="http://www.w3.org/2000/svg" width="1100" height="616"><g data-name="グループ 2697" transform="translate(-410 -4140)"><path data-name="長方形 3691" fill="#fff" d="M410 4140h1100v616H410z"/><path data-name="長方形 3703" fill="#bc4328" d="M1112 4510h359v40h-359z"/><path data-name="長方形 3702" fill="#00b176" d="M449 4564h359v40H449z"/><path data-name="長方形 3704" fill="#bc4328" d="M1112 4564h359v40h-359z"/><path data-name="長方形 3702" fill="#00b176" d="M449 4617h359v40H449z"/><path data-name="長方形 3705" fill="#bc4328" d="M1112 4617h359v40h-359z"/><path data-name="長方形 3702" fill="#00b176" d="M449 4671h359v40H449z"/><path data-name="長方形 3706" fill="#00b176" d="M1112 4671h359v40h-359z"/><text transform="translate(1180 4536)" fill="#fff" font-size="16" font-family="YuGothicUI-Regular, Yu Gothic UI"><tspan x="0" y="0">弊社検証</tspan><tspan y="0" font-family="Roboto-Regular, Roboto">PC</tspan><tspan y="0">へ最新パッチ適用</tspan></text><text transform="translate(900 4618)" font-size="18" font-family="YuGothicUI-Bold, Yu Gothic UI" font-weight="700"><tspan x="0" y="0">本環境への公開</tspan></text><text transform="translate(469 4591)" fill="#fff" font-size="16" font-family="YuGothicUI-Regular, Yu Gothic UI"><tspan x="0" y="0">最新パッチ未適用端末への通知</tspan></text><text transform="translate(1180 4591)" fill="#fff" font-size="16" font-family="YuGothicUI-Regular, Yu Gothic UI"><tspan x="0" y="0">弊社検証</tspan><tspan y="0" font-family="Roboto-Regular, Roboto">PC</tspan><tspan y="0">環境による動作確認</tspan></text><text transform="translate(469 4644)" fill="#fff" font-size="16" font-family="YuGothicUI-Regular, Yu Gothic UI"><tspan x="0" y="0">全拠点</tspan><tspan y="0" font-family="Roboto-Regular, Roboto">PC</tspan><tspan y="0">への配信</tspan></text><text transform="translate(1180 4644)" fill="#fff" font-size="16" font-family="YuGothicUI-Regular, Yu Gothic UI"><tspan x="0" y="0">システム正常性確認</tspan></text><text transform="translate(469 4697)" fill="#fff" font-size="16" font-family="YuGothicUI-Regular, Yu Gothic UI"><tspan x="0" y="0">パッチ適用状況確認</tspan></text><text data-name="お客様検証PCへの配信・動作確認" transform="translate(1180 4697)" fill="#fff" font-size="16" font-family="YuGothicUI-Regular, Yu Gothic UI"><tspan x="0" y="0">お客様検証</tspan><tspan y="0" font-family="Roboto-Regular, Roboto">PC</tspan><tspan y="0">への配信・動作確認</tspan></text><path data-name="長方形 3699" fill="#f1f1f1" d="M1368 4199h95v46h-95z"/><path data-name="長方形 3700" fill="#f1f1f1" d="M1368 4253h95v46h-95z"/><text transform="translate(450 4190)" fill="#00b176" font-size="14" font-family="YuGothicUI-Bold, Yu Gothic UI" font-weight="700"><tspan x="0" y="0">お客様環境</tspan></text><text transform="translate(918 4190)" fill="#8246af" font-size="14" font-family="YuGothicUI-Bold, Yu Gothic UI" font-weight="700"><tspan x="0" y="0">データセンター</tspan></text><text transform="translate(1378 4227)" font-size="14" font-family="Roboto-Bold, Roboto" font-weight="700"><tspan x="0" y="0">Microsoft</tspan><tspan y="0" font-family="YuGothicUI-Bold, Yu Gothic UI">社</tspan></text><text transform="translate(1383 4280)" font-size="14" font-family="Roboto-Bold, Roboto" font-weight="700"><tspan x="0" y="0">McAfee</tspan><tspan y="0" font-family="YuGothicUI-Bold, Yu Gothic UI">社</tspan></text><path data-name="長方形 3692" fill="#e5f7f1" d="M449 4199h441v238H449z"/><path data-name="長方形 3693" fill="#f2ecf7" d="M917 4199h207v100H917z"/><text transform="translate(918 4328)" fill="#bc4328" font-size="14" font-family="YuGothicUI-Bold, Yu Gothic UI" font-weight="700"><tspan x="0" y="0">弊社検証環境</tspan></text><path data-name="長方形 3698" fill="#f8ece9" d="M917 4337h207v100H917z"/><g data-name="グループ 2681"><g data-name="グループ 2603"><g data-name="グループ 2600"><path data-name="パス 726" d="M617.388 4359.358v33.62h-3.851v-7.651q0-13.166-.011-26.321c0-2.754.963-3.751 3.672-3.751q24.854-.017 49.719 0c2.463 0 3.639 1.03 3.65 3.28q.034 16.827 0 33.665a6.671 6.671 0 01-.1.772h-3.762v-33.614z"/><path data-name="パス 727" d="M673.567 4400.748h-63.12a3.155 3.155 0 01-3.135-2.754l-.224-1.724a1.267 1.267 0 011.254-1.433h67.319a1.266 1.266 0 011.254 1.411l-.19 1.69a3.183 3.183 0 01-3.158 2.81z"/></g><path data-name="パス 728" d="M646.989 4398.442h-9.651a.213.213 0 01-.213-.213v-.806a.212.212 0 01.213-.213h9.651a.213.213 0 01.213.213v.806a.22.22 0 01-.213.213z" fill="#e5f7f1"/></g><path data-name="パス 845" d="M653.147 4377.638v10c0 .021-.006.037-.006.059a.454.454 0 01-.51.391l-9.932-1.315a.454.454 0 01-.435-.451v-8.7h.005a.455.455 0 01.451-.457l9.931.016h.038a.455.455 0 01.458.457zm-11.956-.016v8.515a.454.454 0 01-.51.392l-9.363-1.166a.454.454 0 01-.413-.451v-7.274a.455.455 0 01.456-.451l9.336-.021h.042a.455.455 0 01.452.456zm0-10.26v8.294a.454.454 0 01-.451.452h-9.427a.455.455 0 01-.456-.452v-7.107a.457.457 0 01.4-.451l9.385-1.181a.523.523 0 01.1-.011.455.455 0 01.449.46zm11.5 8.746h-9.969a.455.455 0 01-.456-.452v-8.53h.005a.457.457 0 01.392-.451l9.931-1.3a.6.6 0 01.1-.011.456.456 0 01.457.456v9.835a.455.455 0 01-.461.453z"/></g><g data-name="グループ 2681"><g data-name="グループ 2603"><g data-name="グループ 2600"><path data-name="パス 726" d="M696.388 4359.358v33.62h-3.851v-7.651q0-13.166-.011-26.321c0-2.754.963-3.751 3.672-3.751q24.854-.017 49.719 0c2.463 0 3.639 1.03 3.65 3.28q.034 16.827 0 33.665a6.671 6.671 0 01-.1.772h-3.762v-33.614z"/><path data-name="パス 727" d="M752.567 4400.748h-63.12a3.155 3.155 0 01-3.135-2.754l-.224-1.724a1.267 1.267 0 011.254-1.433h67.319a1.266 1.266 0 011.254 1.411l-.19 1.69a3.183 3.183 0 01-3.158 2.81z"/></g><path data-name="パス 728" d="M725.989 4398.442h-9.651a.213.213 0 01-.213-.213v-.806a.212.212 0 01.213-.213h9.651a.213.213 0 01.213.213v.806a.22.22 0 01-.213.213z" fill="#e5f7f1"/></g><g data-name="Camada_x0020_1"><path data-name="パス 845" d="M732.147 4377.638v10c0 .021-.006.037-.006.059a.454.454 0 01-.51.391l-9.932-1.315a.454.454 0 01-.435-.451v-8.7h.005a.455.455 0 01.451-.457l9.931.016h.038a.455.455 0 01.458.457zm-11.956-.016v8.515a.454.454 0 01-.51.392l-9.363-1.166a.454.454 0 01-.413-.451v-7.274a.455.455 0 01.456-.451l9.336-.021h.042a.455.455 0 01.452.456zm0-10.26v8.294a.454.454 0 01-.451.452h-9.427a.455.455 0 01-.456-.452v-7.107a.457.457 0 01.4-.451l9.385-1.181a.523.523 0 01.1-.011.455.455 0 01.449.46zm11.5 8.746h-9.969a.455.455 0 01-.456-.452v-8.53h.005a.457.457 0 01.392-.451l9.931-1.3a.6.6 0 01.1-.011.456.456 0 01.457.456v9.835a.455.455 0 01-.461.453z"/></g></g><g data-name="グループ 2681"><g data-name="グループ 2603"><g data-name="グループ 2600"><path data-name="パス 726" d="M775.388 4359.358v33.62h-3.851v-7.651q0-13.166-.011-26.321c0-2.754.963-3.751 3.672-3.751q24.854-.017 49.719 0c2.463 0 3.639 1.03 3.65 3.28q.034 16.827 0 33.665a6.671 6.671 0 01-.1.772h-3.762v-33.614z"/><path data-name="パス 727" d="M831.567 4400.748h-63.12a3.155 3.155 0 01-3.135-2.754l-.224-1.724a1.267 1.267 0 011.254-1.433h67.319a1.266 1.266 0 011.254 1.411l-.19 1.69a3.183 3.183 0 01-3.158 2.81z"/></g><path data-name="パス 728" d="M804.989 4398.442h-9.651a.213.213 0 01-.213-.213v-.806a.212.212 0 01.213-.213h9.651a.213.213 0 01.213.213v.806a.22.22 0 01-.213.213z" fill="#e5f7f1"/></g><g data-name="Camada_x0020_1"><path data-name="パス 845" d="M811.147 4377.638v10c0 .021-.006.037-.006.059a.454.454 0 01-.51.391l-9.932-1.315a.454.454 0 01-.435-.451v-8.7h.005a.455.455 0 01.451-.457l9.931.016h.038a.455.455 0 01.458.457zm-11.956-.016v8.515a.454.454 0 01-.51.392l-9.363-1.166a.454.454 0 01-.413-.451v-7.274a.455.455 0 01.456-.451l9.336-.021h.042a.455.455 0 01.452.456zm0-10.26v8.294a.454.454 0 01-.451.452h-9.427a.455.455 0 01-.456-.452v-7.107a.457.457 0 01.4-.451l9.385-1.181a.523.523 0 01.1-.011.455.455 0 01.449.46zm11.5 8.746h-9.969a.455.455 0 01-.456-.452v-8.53h.005a.457.457 0 01.392-.451l9.931-1.3a.6.6 0 01.1-.011.456.456 0 01.457.456v9.835a.455.455 0 01-.461.453z"/></g></g><path data-name="パス 729" d="M1022.767 4256.57v-4.356h-4.882v4.356a4.019 4.019 0 00-.73.73h-11.018v4.882h11.018a3.977 3.977 0 006.341 0h11.018v-4.882h-11.017a4.017 4.017 0 00-.73-.73z"/><path data-name="パス 730" d="M994.288 4218.242v14.65h52.076v-14.65zm44.346 7.323a2.441 2.441 0 11-2.441-2.441 2.441 2.441 0 012.441 2.441zm-39.458 3.244l3.249-6.5h2.253l1 .011-3.249 6.5h-2.261zm6.51 0l3.249-6.5h2.253l1 .011-3.249 6.5h-2.262zm6.51 0l3.249-6.5h2.253l1 .011-3.249 6.5h-2.261z"/><path data-name="パス 731" d="M1022.767 4234.313h-4.879v1.831h-23.6v14.646h52.076v-14.646h-23.6zm-23.592 12.4l3.249-6.5h2.253l1 .011-3.249 6.5h-2.26zm6.51 0l3.249-6.5h2.254l1 .011-3.249 6.5h-2.262zm6.51 0l3.249-6.5h2.253l1 .011-3.249 6.5h-2.26zm21.557-3.25a2.441 2.441 0 112.441 2.441 2.441 2.441 0 01-2.441-2.441z"/><text transform="translate(990 4284)" font-size="14" font-family="YuGothicUI-Regular, Yu Gothic UI"><tspan x="0" y="0">公開サーバ</tspan></text><text transform="translate(998 4421)" font-size="14" font-family="YuGothicUI-Regular, Yu Gothic UI"><tspan x="0" y="0">検証</tspan><tspan y="0" font-family="Roboto-Regular, Roboto">PC</tspan></text><text transform="translate(490 4348.748)" font-size="14" font-family="YuGothicUI-Regular, Yu Gothic UI"><tspan x="0" y="0">お客様検証</tspan><tspan y="0" font-family="Roboto-Regular, Roboto">PC</tspan></text><text transform="translate(697 4421)" font-size="14" font-family="YuGothicUI-Regular, Yu Gothic UI"><tspan x="0" y="0">お客様</tspan><tspan y="0" font-family="Roboto-Regular, Roboto">PC</tspan></text><path data-name="パス 784" d="M1129.625 4249.341h-1.648l9.871-6.6.556.831-7.13 4.766H1362.6v1z" fill="#d76b00"/><path data-name="パス 955" d="M644.5 4347.895l-6.6-9.871.831-.556 4.766 7.13v-66.326h1z" fill="#d76b00"/><path data-name="パス 958" d="M534.061 4273.636l-6.6-9.872.831-.556 4.765 7.13-.013-33.791h1z" fill="#d76b00"/><path data-name="パス 956" d="M721.5 4347.895l-6.6-9.871.831-.556 4.766 7.13v-66.326h1z" fill="#d76b00"/><path data-name="パス 957" d="M798.5 4347.895l-6.6-9.871.831-.556 4.766 7.13v-66.326h1z" fill="#d76b00"/><path data-name="パス 953" d="M1253.1 4384.66h-124.985l9.713-7.22.6.8-7.288 5.417h120.964V4281.55h-122.479v-1H1253.1z" fill="#d76b00"/><g data-name="グループ 2691"><path data-name="長方形 3694" fill="#fff" d="M1170 4229h173v40h-173z"/><path data-name="長方形 3694 - アウトライン" d="M1172 4231v36h169v-36h-169m-2-2h173v40h-173z" fill="#d76b00"/><text data-name="1." transform="translate(1188 4254)" font-size="14" font-family="Roboto-Bold, Roboto" font-weight="700"><tspan x="-6.05" y="0">1.</tspan></text><text transform="translate(1257 4255)" font-size="14" font-family="YuGothicUI-Bold, Yu Gothic UI" font-weight="700"><tspan x="-61.212" y="0">最新パッチの取り込み</tspan></text></g><g data-name="グループ 2692"><path data-name="長方形 3695" fill="#fff" d="M1170 4309h173v40h-173z"/><path data-name="長方形 3695 - アウトライン" d="M1172 4311v36h169v-36h-169m-2-2h173v40h-173z" fill="#d76b00"/><text data-name="2." transform="translate(1182 4334)" font-size="14" font-family="Roboto-Bold, Roboto" font-weight="700"><tspan x="0" y="0">2.</tspan></text><text transform="translate(1257 4334)" font-size="14" font-family="YuGothicUI-Bold, Yu Gothic UI" font-weight="700"><tspan x="-28" y="0">事前検証</tspan></text></g><g data-name="グループ 2689"><g data-name="グループ 2687"><g data-name="グループ 2603"><g data-name="グループ 2600"><path data-name="パス 726" d="M509.888 4287.106v33.62h-3.851v-7.651q0-13.166-.011-26.321c0-2.754.963-3.751 3.672-3.751q24.854-.017 49.719 0c2.463 0 3.639 1.03 3.65 3.28q.034 16.827 0 33.665a6.671 6.671 0 01-.1.772h-3.762v-33.614z"/><path data-name="パス 727" d="M566.067 4328.496h-63.12a3.155 3.155 0 01-3.135-2.754l-.224-1.724a1.267 1.267 0 011.254-1.433h67.319a1.266 1.266 0 011.254 1.411l-.19 1.69a3.183 3.183 0 01-3.158 2.81z"/></g><path data-name="パス 728" d="M539.489 4326.19h-9.651a.213.213 0 01-.213-.213v-.806a.212.212 0 01.213-.213h9.651a.213.213 0 01.213.213v.806a.22.22 0 01-.213.213z" fill="#e5f7f1"/></g><g data-name="Camada_x0020_1"><path data-name="パス 845" d="M545.647 4305.386v10c0 .021-.006.037-.006.059a.454.454 0 01-.51.391l-9.932-1.315a.454.454 0 01-.435-.451v-8.7h.005a.455.455 0 01.451-.457l9.931.016h.038a.455.455 0 01.458.457zm-11.956-.016v8.515a.454.454 0 01-.51.392l-9.363-1.166a.454.454 0 01-.413-.451v-7.274a.455.455 0 01.456-.451l9.336-.021h.042a.455.455 0 01.452.456zm0-10.26v8.294a.454.454 0 01-.451.452h-9.427a.455.455 0 01-.456-.452v-7.107a.457.457 0 01.4-.451l9.385-1.181a.523.523 0 01.1-.011.455.455 0 01.449.46zm11.5 8.746h-9.969a.455.455 0 01-.456-.452v-8.53h.005a.457.457 0 01.392-.451l9.931-1.3a.6.6 0 01.1-.011.456.456 0 01.457.456v9.835a.455.455 0 01-.461.453z"/></g></g><g data-name="虫眼鏡のアイコン (2)"><path data-name="パス 954" d="M513.965 4296.798a10.355 10.355 0 00-16.2 12.663l-5.016 5.018a2.5 2.5 0 103.536 3.536l5.022-5.018a10.357 10.357 0 0012.662-16.2zm-2.83 11.826a6.361 6.361 0 111.864-4.5 6.335 6.335 0 01-1.863 4.5z"/><path data-name="パス 954 - アウトライン" d="M506.632 4293.763a10.348 10.348 0 00-8.865 15.7l-5.018 5.016a2.5 2.5 0 003.536 3.536l5.022-5.018a10.357 10.357 0 105.331-19.234h-.006m.006 16.725a6.364 6.364 0 114.5-1.864 6.339 6.339 0 01-4.5 1.864m-.006-17.725h.012a11.361 11.361 0 018.028 19.4 11.338 11.338 0 01-8.025 3.327h-.021a11.3 11.3 0 01-5.149-1.25l-4.486 4.483a3.502 3.502 0 01-4.95-4.954l4.485-4.485a11.352 11.352 0 0110.106-16.521zm.006 16.725a5.362 5.362 0 10-3.791-1.57 5.344 5.344 0 003.791 1.57z" fill="#e5f7f1"/></g></g><g data-name="グループ 2688"><g data-name="グループ 2680"><g data-name="グループ 2603"><g data-name="グループ 2600"><path data-name="パス 726" d="M995.888 4359.358v33.62h-3.851v-7.651q0-13.166-.011-26.321c0-2.754.963-3.751 3.672-3.751q24.854-.017 49.719 0c2.463 0 3.639 1.03 3.65 3.28q.034 16.827 0 33.665a6.671 6.671 0 01-.1.772h-3.762v-33.614z"/><path data-name="パス 727" d="M1052.067 4400.748h-63.12a3.155 3.155 0 01-3.135-2.754l-.224-1.724a1.267 1.267 0 011.254-1.433h67.319a1.266 1.266 0 011.254 1.411l-.19 1.69a3.183 3.183 0 01-3.158 2.81z"/></g><path data-name="パス 728" d="M1025.489 4398.442h-9.651a.213.213 0 01-.213-.213v-.806a.212.212 0 01.213-.213h9.651a.213.213 0 01.213.213v.806a.22.22 0 01-.213.213z" fill="#f8ece9"/></g><g data-name="Camada_x0020_1"><path data-name="パス 845" d="M1031.647 4377.638v10c0 .021-.006.037-.006.059a.454.454 0 01-.51.391l-9.932-1.315a.454.454 0 01-.435-.451v-8.7h.005a.455.455 0 01.451-.457l9.931.016h.038a.455.455 0 01.458.457zm-11.956-.016v8.515a.454.454 0 01-.51.392l-9.363-1.166a.454.454 0 01-.413-.451v-7.274a.455.455 0 01.456-.451l9.336-.021h.042a.455.455 0 01.452.456zm0-10.26v8.294a.454.454 0 01-.451.452h-9.427a.455.455 0 01-.456-.452v-7.107a.457.457 0 01.4-.451l9.385-1.181a.523.523 0 01.1-.011.455.455 0 01.449.46zm11.5 8.746h-9.969a.455.455 0 01-.456-.452v-8.53h.005a.457.457 0 01.392-.451l9.931-1.3a.6.6 0 01.1-.011.456.456 0 01.457.456v9.835a.455.455 0 01-.461.453z"/></g></g><g data-name="虫眼鏡のアイコン (2)"><path data-name="パス 954" d="M998.965 4368.542a10.355 10.355 0 00-16.2 12.663l-5.016 5.018a2.5 2.5 0 103.536 3.536l5.022-5.018a10.357 10.357 0 0012.662-16.2zm-2.83 11.826a6.361 6.361 0 111.864-4.5 6.335 6.335 0 01-1.863 4.5z"/><path data-name="パス 954 - アウトライン" d="M991.632 4365.507a10.348 10.348 0 00-8.865 15.7l-5.018 5.016a2.5 2.5 0 003.536 3.536l5.022-5.018a10.357 10.357 0 105.331-19.234h-.006m.006 16.725a6.364 6.364 0 114.5-1.864 6.339 6.339 0 01-4.5 1.864m-.006-17.725h.012a11.361 11.361 0 018.028 19.4 11.338 11.338 0 01-8.025 3.327h-.021a11.3 11.3 0 01-5.149-1.25l-4.486 4.483a3.502 3.502 0 01-4.95-4.954l4.485-4.485a11.352 11.352 0 0110.106-16.521zm.006 16.725a5.362 5.362 0 10-3.791-1.57 5.344 5.344 0 003.791 1.57z" fill="#f8ece9"/></g></g><path data-name="線 380" d="M913.5 4284h-113v-1h113z" fill="#d76b00"/><path data-name="パス 959" d="M913.5 4237.5h-380v-1h380z" fill="#d76b00"/><g data-name="グループ 2690"><path data-name="長方形 3696" fill="#fff" d="M635 4264h173v40H635z"/><path data-name="長方形 3696 - アウトライン" d="M637 4266v36h169v-36H637m-2-2h173v40H635z" fill="#d76b00"/><text data-name="4." transform="translate(653 4289)" font-size="14" font-family="Roboto-Bold, Roboto" font-weight="700"><tspan x="-6.05" y="0">4.</tspan></text><text transform="translate(722 4289)" font-size="14" font-family="YuGothicUI-Bold, Yu Gothic UI" font-weight="700"><tspan x="-40.852" y="0">全端末へ配信</tspan></text></g><g data-name="グループ 2693"><path data-name="長方形 3697" fill="#fff" d="M635 4217h173v40H635z"/><path data-name="長方形 3697 - アウトライン" d="M637 4219v36h169v-36H637m-2-2h173v40H635z" fill="#d76b00"/><text data-name="3." transform="translate(653 4242)" font-size="14" font-family="Roboto-Bold, Roboto" font-weight="700"><tspan x="-6.05" y="0">3.</tspan></text><text data-name="事前検証" transform="translate(722 4242)" font-size="14" font-family="YuGothicUI-Bold, Yu Gothic UI" font-weight="700"><tspan x="-28" y="0">事前検証</tspan></text></g><g data-name="グループ 2695" opacity=".75"><path data-name="線 381" d="M1470.5 4468h-1020v-1h1020z"/><path data-name="パス 960" d="M975.112 4467.5l-15.556 15.557L944 4467.5z"/></g><path data-name="長方形 3607" d="M900.159 4535.407a75 75 0 000 150h119.682a75 75 0 000-150H900.159m0-30h119.682a105 105 0 010 210H900.159a105 105 0 010-210z" fill="#f1f1f1"/><path data-name="パス 961" d="M877.819 4580.037l-80.203-54.258 71.347-42.994z" fill="#fff"/><path data-name="長方形 3608" fill="#fff" d="M868.039 4502.407h46v37h-46z"/><rect data-name="長方形 3609" width="29" height="30" rx="3" transform="translate(902.961 4505.407)" fill="#f1f1f1"/><path data-name="長方形 3701" fill="#00b176" d="M449 4510h359v40H449z"/><text transform="translate(469 4536)" fill="#fff" font-size="16" font-family="YuGothicUI-Regular, Yu Gothic UI"><tspan x="0" y="0">ベンダーサイトから保守環境へ最新パッチの取り込み</tspan></text><g data-name="グループ 2636"><g data-name="時間経過のアイコン 2"><path data-name="パス 811" d="M842.36 4559.268l9.093 9.729a5.385 5.385 0 004.517 1.741 4.131 4.131 0 003.44-2.763l21.214-60.318a5.28 5.28 0 00-1.257-5.246 5.262 5.262 0 00-5.153-1.605l-61.607 17.102a4.122 4.122 0 00-2.986 3.238 5.344 5.344 0 001.435 4.63l11.612 12.421c-7.118 10.437 15.921 27.564 19.693 21.071z" fill="#f1f1f1"/></g></g><g data-name="グループ 2696"><text transform="translate(891 4574)" font-size="18" font-family="YuGothicUI-Bold, Yu Gothic UI" font-weight="700"><tspan x="0" y="0">保守環境での検証</tspan></text><text transform="translate(906 4658)" font-size="18" font-family="YuGothicUI-Bold, Yu Gothic UI" font-weight="700"><tspan x="0" y="0">適用状況確認</tspan></text><path data-name="パス 962" d="M959.608 4592.227l-5.981-5.982.707-.707 5.274 5.275 5.274-5.275.707.707z"/><path data-name="パス 963" d="M959.608 4632.963l-5.981-5.982.707-.707 5.274 5.275 5.274-5.275.707.707z"/></g></g></svg>