<svg xmlns="http://www.w3.org/2000/svg" width="558" height="354"><g data-name="グループ 2952"><g data-name="グループ 2899"><text data-name="悪意のあるサイバー攻撃だけでなく、不注意によるPC の紛失盗難でも情報が流出する可能性があります。" transform="translate(12 295)" font-size="14" font-family="YuGothicUI-Bold, Yu Gothic UI" font-weight="700"><tspan x="0" y="15">悪意のあるサイバー攻撃だけでなく、不注意</tspan><tspan x="0" y="35">による</tspan><tspan y="35" font-family="Roboto-Bold, Roboto">PC </tspan><tspan y="35">の紛失盗難でも情報が流出する</tspan><tspan x="0" y="55">可能性があります。</tspan></text><path data-name="長方形 3619" fill="#f1f1f1" d="M0 23h264v257H0z"/><path data-name="パス 885" d="M191.685 45.189h-22.828a23.537 23.537 0 000 47.074h16.734c3.364 0 4.413 1.561 4.413 2.84 0 1.891-.981 3.663-3.359 5.358-1.473 1.049-.316 1.888.839 1.888 15.024 0 27.737-16.391 27.737-33.625a23.537 23.537 0 00-23.536-23.535z" fill="#fff"/><path data-name="長方形 3532" fill="#f8ece9" d="M294 23h264v257H294z"/><text transform="translate(134 15)" fill="#333" font-size="14" font-family="YuGothicUI-Bold, Yu Gothic UI" font-weight="700"><tspan x="-59.626" y="0">パソコン盗難事件より</tspan></text><text data-name="PCのディスク暗号化などで 機密情報を守ることが必要" transform="translate(422 210)" fill="#d76b00" font-size="16" font-family="Roboto-Bold, Roboto" font-weight="700"><tspan x="-84.363" y="0">PC</tspan><tspan y="0" font-family="YuGothicUI-Bold, Yu Gothic UI">のディスク暗号化などで</tspan><tspan font-family="YuGothicUI-Bold, Yu Gothic UI"><tspan x="-86.492" y="24">機密情報を守ることが必要</tspan></tspan></text><g data-name="グループ 2898"><text data-name="情報漏洩対策として、" transform="translate(314.5 310)" fill="#d76b00" font-size="14" font-family="YuGothicUI-Bold, Yu Gothic UI" font-weight="700"><tspan x="0" y="0">情報漏洩対策として、</tspan></text><text data-name="をおすすめします。" transform="translate(445.5 332)" fill="#d76b00" font-size="14" font-family="YuGothicUI-Bold, Yu Gothic UI" font-weight="700"><tspan x="0" y="0">をおすすめします。</tspan></text><g data-name="グループ 2897"><path fill="#fff826" d="M311 323.971h133v13H311z"/><text transform="translate(314.5 331)" fill="#d76b00" font-size="16" font-family="YuGothicUI-Bold, Yu Gothic UI" font-weight="700"><tspan x="0" y="0">暗号化ソリューション</tspan></text></g></g><g data-name="グループ 2894" transform="translate(-452 -3071)"><text data-name="某新聞販売所1万2,000人の個人情報流出" transform="translate(490.646 3240)" font-size="12" font-family="YuGothicUI-Regular, Yu Gothic UI"><tspan x="0" y="13">某新聞販売所</tspan><tspan y="13" font-size="14" font-family="Roboto-Bold, Roboto" font-weight="700">1</tspan><tspan y="13" font-family="YuGothicUI-Bold, Yu Gothic UI" font-weight="700">万</tspan><tspan y="13" font-size="14" font-family="Roboto-Bold, Roboto" font-weight="700">2,000</tspan><tspan y="13" font-family="YuGothicUI-Bold, Yu Gothic UI" font-weight="700">人</tspan><tspan y="13">の個人情報</tspan><tspan x="0" y="31">流出</tspan></text><circle data-name="楕円形 73" cx="1.5" cy="1.5" r="1.5" transform="translate(481.896 3248)"/></g><g data-name="グループ 2895" transform="translate(-452 -3071)"><text data-name="某保健所2万9,500件の個人情報流出" transform="translate(490.646 3281)" font-size="12" font-family="YuGothicUI-Regular, Yu Gothic UI"><tspan x="0" y="13">某保健所</tspan><tspan y="13" font-size="14" font-family="Roboto-Bold, Roboto" font-weight="700">2</tspan><tspan y="13" font-family="YuGothicUI-Bold, Yu Gothic UI" font-weight="700">万</tspan><tspan y="13" font-size="14" font-family="Roboto-Bold, Roboto" font-weight="700">9,500</tspan><tspan y="13" font-family="YuGothicUI-Bold, Yu Gothic UI" font-weight="700">件</tspan><tspan y="13">の個人情報流出</tspan></text><circle data-name="楕円形 73" cx="1.5" cy="1.5" r="1.5" transform="translate(481.896 3289)"/></g><g data-name="グループ 2896" transform="translate(-452 -3071)"><text data-name="A社9,804件の個人情報流出" transform="translate(490.646 3308)" font-size="12" font-family="Roboto-Regular, Roboto"><tspan x="0" y="13">A</tspan><tspan y="13" font-family="YuGothicUI-Regular, Yu Gothic UI">社</tspan><tspan y="13" font-size="14" font-family="Roboto-Bold, Roboto" font-weight="700">9,804</tspan><tspan y="13" font-family="YuGothicUI-Bold, Yu Gothic UI" font-weight="700">件</tspan><tspan y="13" font-family="YuGothicUI-Regular, Yu Gothic UI">の個人情報流出</tspan></text><circle data-name="楕円形 73" cx="1.5" cy="1.5" r="1.5" transform="translate(481.896 3315)"/></g><path data-name="パス 882" d="M94.053 57H77.946a5.658 5.658 0 00-5.647 5.651v22.384a5.657 5.657 0 005.65 5.65h14.4l.614-.611 6.133-6.134.612-.613V62.651A5.658 5.658 0 0094.053 57zm3.56 25.46h-3.168a2.966 2.966 0 00-2.966 2.965v3.167H77.946a3.558 3.558 0 01-3.558-3.557V62.651a3.558 3.558 0 013.558-3.558h16.107a3.559 3.559 0 013.56 3.558z"/><path data-name="パス 883" d="M88.738 75.318a4.77 4.77 0 01-5.476 0 5.691 5.691 0 00-2.7 2.514c-.676 1.2-.146 2.9 1.022 2.9h8.833c1.168 0 1.7-1.7 1.023-2.9a5.692 5.692 0 00-2.702-2.514z"/><path data-name="パス 884" d="M86 75.042a3.611 3.611 0 003.612-3.611v-.865a3.612 3.612 0 10-7.224 0v.865A3.611 3.611 0 0086 75.042z"/><g data-name="履歴書アイコン6"><path data-name="パス 882" d="M197.594 108h-16.107a5.658 5.658 0 00-5.647 5.651v22.384a5.657 5.657 0 005.65 5.65h14.4l.614-.611 6.133-6.134.612-.613v-20.676a5.658 5.658 0 00-5.655-5.651zm3.56 25.46h-3.168a2.966 2.966 0 00-2.966 2.965v3.167h-13.533a3.558 3.558 0 01-3.558-3.557v-22.384a3.558 3.558 0 013.558-3.558h16.107a3.559 3.559 0 013.56 3.558z"/><path data-name="パス 883" d="M192.279 126.318a4.77 4.77 0 01-5.476 0 5.691 5.691 0 00-2.7 2.514c-.676 1.2-.146 2.9 1.022 2.9h8.833c1.168 0 1.7-1.7 1.023-2.9a5.692 5.692 0 00-2.702-2.514z"/><path data-name="パス 884" d="M189.541 126.042a3.611 3.611 0 003.612-3.611v-.865a3.612 3.612 0 10-7.224 0v.865a3.611 3.611 0 003.612 3.611z"/></g><g data-name="履歴書アイコン6"><path data-name="パス 882" d="M94.053 106H77.946a5.658 5.658 0 00-5.647 5.651v22.384a5.657 5.657 0 005.65 5.65h14.4l.614-.611 6.133-6.134.612-.613v-20.676A5.658 5.658 0 0094.053 106zm3.56 25.46h-3.168a2.966 2.966 0 00-2.966 2.965v3.167H77.946a3.558 3.558 0 01-3.558-3.557v-22.384a3.558 3.558 0 013.558-3.558h16.107a3.559 3.559 0 013.56 3.558z"/><path data-name="パス 883" d="M88.738 124.318a4.77 4.77 0 01-5.476 0 5.691 5.691 0 00-2.7 2.514c-.676 1.2-.146 2.9 1.022 2.9h8.833c1.168 0 1.7-1.7 1.023-2.9a5.692 5.692 0 00-2.702-2.514z"/><path data-name="パス 884" d="M86 124.042a3.611 3.611 0 003.612-3.611v-.865a3.612 3.612 0 10-7.224 0v.865A3.611 3.611 0 0086 124.042z"/></g><path data-name="パス 865" d="M180.271 56.04a12.729 12.729 0 1012.728 12.73 12.73 12.73 0 00-12.728-12.73zm5.059 11.686h-3.485l-.376.583v1.4h3.861v1.98h-3.861v2.99h-2.4v-2.99h-3.863v-1.98h3.863v-1.393l-.378-.586h-3.485v-1.693h2.4l-2.037-3.169h2.032l2.668 4.151 2.67-4.16h2.032l-2.037 3.169h2.4z"/><path data-name="パス 879" d="M148.032 90.415c-1.39.223-9.266 1.543-9.763 1.543h-1c-.5 0-8.373-1.32-9.763-1.543a9.725 9.725 0 00-5.081.578c-2.931 1.216-1.946 4.06-1.3 5.113.9 1.448 4.311 5.248 7.673 5.693 4.383.576 8.168-2.7 8.965-2.7s4.582 3.278 8.965 2.7c3.362-.445 6.776-4.245 7.673-5.693.65-1.053 1.635-3.9-1.3-5.113a9.726 9.726 0 00-5.069-.578zm-19.367 6.945c-1.416-1.37-1.181-2.746.471-2.858s4.443.574 4.489 1.488c.117 2.286-3.544 2.744-4.96 1.37zm18.21 0c-1.418 1.374-5.079.915-4.959-1.37.046-.913 2.834-1.6 4.485-1.488s1.89 1.488.474 2.858z"/><path data-name="パス 880" d="M156.499 83.95a2.558 2.558 0 00-1.86-2.186c-1.725-10.161-11.692-12.606-16.869-12.606s-15.143 2.445-16.87 12.607a2.552 2.552 0 00-1.859 2.186v4.243h37.457z"/><path data-name="パス 881" d="M150.624 117.939c0-2.578-.8-5.4-3.348-5.4h-19.013c-2.545 0-3.348 2.82-3.348 5.4 0 .612-11.915 3.679-11.915 10.549 0 1.6 3.883 6.012 24.635 6.012h.269c20.754 0 24.637-4.415 24.637-6.012 0-6.87-11.917-9.937-11.917-10.549z"/><g fill="#d76b00"><path data-name="パス 886" d="M455.841 85.047h-3.285v20.338h3.285a4.035 4.035 0 004.035-4.036V89.083a4.035 4.035 0 00-4.035-4.036z"/><path data-name="パス 887" d="M457.044 122.663a8.777 8.777 0 00-17.553 0v3.09h-2.831v12.17a5.617 5.617 0 005.618 5.617h11.982a5.616 5.616 0 005.617-5.617v-12.17h-2.832v-3.09zm-13.292 0a4.484 4.484 0 01.354-1.757 4.54 4.54 0 011.637-1.989 4.533 4.533 0 014.282-.416 4.545 4.545 0 011.989 1.639 4.483 4.483 0 01.77 2.524v3.09h-9.032zm4.516 13.948a2.9 2.9 0 112.9-2.9 2.9 2.9 0 01-2.9 2.9z"/><path data-name="パス 888" d="M454.113 62h-54.225a5.764 5.764 0 00-5.764 5.764v64.393a5.764 5.764 0 005.764 5.765h33.519V122.5h2.794l.093-.983a12.023 12.023 0 01.715-3.109 3.1 3.1 0 01-2.558 1.4H410.9c-3.115 0-4.527-4.53-2.725-7.731a15.169 15.169 0 017.2-6.7 12.732 12.732 0 0014.6 0 15.181 15.181 0 017.2 6.7 6.4 6.4 0 01.566 4.758 12.046 12.046 0 012.022-2.681 11.923 11.923 0 018.5-3.522 12.347 12.347 0 011.445.094V82.337h6.132a4.034 4.034 0 004.035-4.034V67.764A5.765 5.765 0 00454.113 62zm-21.808 33.015a9.63 9.63 0 01-19.26 0v-2.307a9.63 9.63 0 1119.26 0z"/></g><path data-name="パス 986" d="M285.923 151.608l-10.461 10.462-.707-.707 9.754-9.755-9.754-9.755.707-.707z"/></g></g></svg>