<svg xmlns="http://www.w3.org/2000/svg" width="558" height="208"><g data-name="グループ 2951" transform="translate(-452 -2586.5)"><path data-name="長方形 3441" fill="#f8ece9" d="M733 2586.5h277v208H733z"/><path data-name="長方形 3610" fill="#f7f7f7" d="M452 2586.5h251v208H452z"/><text transform="translate(778 2724.303)" font-size="14" font-family="YuGothicUI-Regular, Yu Gothic UI"><tspan x="0" y="15">セキュリティ対策方針を徹底できる</tspan><tspan x="0" y="35">仕組みを創る</tspan></text><text transform="translate(492 2724.303)" font-size="14" font-family="YuGothicUI-Regular, Yu Gothic UI"><tspan x="0" y="15">セキュリティ対策方針を定めて</tspan><tspan x="0" y="35">も徹底されない</tspan></text><text data-name="適応状況 の確認" transform="translate(815.981 2641.303)" fill="#d76b00" font-size="12" font-family="YuGothicUI-Regular, Yu Gothic UI"><tspan x="-48" y="0">適応状況</tspan><tspan x="-33.791" y="14">の確認</tspan></text><text transform="translate(957.5 2641.303)" fill="#d76b00" font-size="12" font-family="YuGothicUI-Regular, Yu Gothic UI"><tspan x="-24" y="0">強制配布</tspan></text><path data-name="パス 746" d="M578.502 2657.582a4.854 4.854 0 00-4.849 4.849v9.132a13.948 13.948 0 004.849.723 13.948 13.948 0 004.849-.723v-9.132a4.854 4.854 0 00-4.849-4.849m0-4a8.849 8.849 0 018.851 8.849v10.19c0 4.887-17.7 4.887-17.7 0v-10.19a8.849 8.849 0 018.849-8.849z"/><path data-name="パス 747" d="M569.117 2662.163l3.016 1.642 2.953-1.642v5.946h-5.969z" fill="#f1f1f1"/><circle data-name="楕円形 76" cx="2.011" cy="2.011" transform="translate(569.653 2660.554)" r="2.011"/><path data-name="パス 754" d="M524.294 2636.7a2.643 2.643 0 01-1.369-.381 2.614 2.614 0 01-1.209-1.473 2.366 2.366 0 01.181-1.75 4.011 4.011 0 012.426-1.914 5.409 5.409 0 012.518-.16 4.415 4.415 0 00-.836-2.764 2.842 2.842 0 00-.893-.815 9.755 9.755 0 01-2.54 3.126 7.765 7.765 0 01-3.831 1.818 2.7 2.7 0 01-2.717-1.114 2.856 2.856 0 01-.253-2.749 4.853 4.853 0 011.814-2.035 9.633 9.633 0 015.086-1.554 8.1 8.1 0 011.192.071 4.145 4.145 0 00-1.207-3.468 4.842 4.842 0 00-5.06-1.718 4.744 4.744 0 00-3.329 2.92.979.979 0 01-1.911-.413 5.366 5.366 0 011.633-2.664 7.321 7.321 0 013.095-1.728 6.453 6.453 0 013.507.01 7.6 7.6 0 013.511 2.266 6.413 6.413 0 011.678 3.272 5.931 5.931 0 01-.024 2.081 4.889 4.889 0 011.85 1.569 6.366 6.366 0 011.15 4.535 5.668 5.668 0 011.924 1.437 5.137 5.137 0 01.964 1.942.978.978 0 01-1.878.548 2.86 2.86 0 00-1.558-2.006 6.42 6.42 0 01-1.135 1.725 4.421 4.421 0 01-1.885 1.248 3.047 3.047 0 01-.894.138zm1.615-3.806a3.245 3.245 0 00-1 .153 2.111 2.111 0 00-1.266.921c-.078.153-.192.384.288.676.516.309 1.241-.164 1.7-.662a4.414 4.414 0 00.711-1.056 3.092 3.092 0 00-.434-.031zm-3.134-6.014h-.078a7.694 7.694 0 00-4.012 1.22c-.619.42-1.576 1.248-1.021 2.1.135.206.427.288.864.242a7.323 7.323 0 004.659-3.543 3.991 3.991 0 00-.412-.019z"/><rect data-name="長方形 3499" width="24.133" height="19.843" rx="6" transform="translate(566.436 2666.99)"/><g data-name="グループ 2504" transform="translate(575.553 2673.426)" fill="#f1f1f1"><circle data-name="楕円形 75" cx="2.413" cy="2.413" transform="translate(.509)" r="2.413"/><path data-name="パス 745" d="M.269 6.704l2.654-3.19 2.654 3.19z"/></g><path data-name="パス 868" d="M723.815 2690.061l-10.461 10.462-.707-.707 9.754-9.755-9.754-9.755.707-.707z"/><g data-name="グループ 2648"><g data-name="グループ 2646"><path data-name="パス 869" d="M824.229 2695.849h98.96l-1.076 6.454h-96.808z" fill="#d76b00"/><path data-name="パス 869 - アウトライン" d="M825.409 2696.849l.742 4.454h95.115l.743-4.454h-96.6m-1.18-1h98.96l-1.076 6.454h-96.808z" fill="#d76b00"/><path data-name="長方形 3612" d="M841.271 2645.879v48.976h65.358v-48.976h-65.358m0-5h65.358a5 5 0 015 5v48.976a5 5 0 01-5 5h-65.358a5 5 0 01-5-5v-48.976a5 5 0 015-5z" fill="#d76b00"/><path data-name="長方形 3613" fill="#f8ece9" d="M866.414 2697.889h15.072v1.966h-15.072z"/></g><g data-name="虫眼鏡のアイコン (1)"><path data-name="パス 870" d="M847.056 2653.725a18.988 18.988 0 00-29.7 23.219l-9.2 9.2a4.585 4.585 0 006.483 6.484l9.2-9.2a18.991 18.991 0 0023.217-29.703zm-5.188 21.684a11.663 11.663 0 113.418-8.25 11.615 11.615 0 01-3.418 8.25z" fill="#d76b00"/><path data-name="パス 870 - アウトライン" d="M833.61 2646.659h.022a20.5 20.5 0 0114.485 35 20.456 20.456 0 01-14.48 6h-.036a20.4 20.4 0 01-9.5-2.368l-8.4 8.4a6.083 6.083 0 01-8.6 0 6.084 6.084 0 010-8.605l8.4-8.4a20.481 20.481 0 0118.109-30.027zm.027 38a17.5 17.5 0 0017.484-17.494 17.5 17.5 0 00-17.49-17.506h-.022a17.474 17.474 0 00-14.97 26.512l.6 1-10.025 10.034a3.085 3.085 0 104.361 4.36l10.032-10.028 1 .6a17.445 17.445 0 008.994 2.528h.039zm-.019-30.664h.006a13.166 13.166 0 0113.162 13.161v.009a13.169 13.169 0 01-13.163 13.161h-.006a13.166 13.166 0 01-13.162-13.161v-.006a13.166 13.166 0 0113.163-13.164zm10.168 13.164a10.169 10.169 0 10-2.979 7.189 10.135 10.135 0 002.979-7.189z" fill="#f8ece9"/></g><g data-name="グループ 2647"><g data-name="グループ 2644"><g fill="#f8ece9"><path data-name="パス 871" d="M932.011 2656.138l-1.618-.089c-4.394-.244-8.2-1.931-10.45-4.63l-2.724-3.261-2.726 3.261c-2.248 2.7-6.058 4.386-10.45 4.63l-3.343.185v15.443a12.6 12.6 0 001.723 6.161c3.657 6.59 11.97 11.101 13.154 11.72l1.642.858 1.642-.858c1.523-.8 14.873-8.061 14.873-17.883v-15.441z"/><path data-name="パス 871 - アウトライン" d="M917.219 2645.817l3.874 4.641c1.983 2.381 5.4 3.873 9.382 4.094l4.76.264v16.861a14.486 14.486 0 01-2.332 7.611 26.7 26.7 0 01-5.036 5.834 44.014 44.014 0 01-8.309 5.766l-2.338 1.222-2.337-1.221c-1.635-.859-9.973-5.481-13.767-12.325a14.066 14.066 0 01-1.911-6.888v-16.861l4.76-.263c3.98-.221 7.4-1.713 9.381-4.093zm15.015 11.841l-1.926-.106c-4.808-.272-9.007-2.156-11.515-5.173l-1.569-1.88-1.57 1.881c-2.512 3.016-6.711 4.9-11.519 5.167l-1.931.111v14.019a11.118 11.118 0 001.533 5.429c3.454 6.23 11.618 10.643 12.537 11.126l.945.494.947-.5a41.532 41.532 0 007.7-5.348c4.222-3.762 6.363-7.532 6.363-11.205z"/></g><g data-name="鉄壁のセキュリティアイコン"><path data-name="パス 871" d="M932.011 2656.138l-1.618-.089c-4.394-.244-8.2-1.931-10.45-4.63l-2.724-3.261-2.726 3.261c-2.248 2.7-6.058 4.386-10.45 4.63l-3.343.185v15.443a12.6 12.6 0 001.723 6.161c3.657 6.59 11.97 11.101 13.154 11.72l1.642.858 1.642-.858c1.523-.8 14.873-8.061 14.873-17.883v-15.441zm-27.772 13.572v-10.126c5.31-.3 10.029-2.359 12.98-5.9v16.026h12.979v1.967c0 7.965-12.979 14.747-12.979 14.747v-16.714z" fill="#d76b00"/></g></g><g data-name="グループ 2645" fill="#d76b00"><path data-name="パス 872" d="M917.22 2645.424l10.163-11.495h-20.327z"/><path data-name="長方形 3614" d="M912.801 2627.561h8.426v10.99h-8.426z"/></g></g></g><g data-name="グループ 2646"><path data-name="パス 869" d="M529.022 2695.85h98.96l-1.076 6.454h-96.808z"/><path data-name="パス 869 - アウトライン" d="M530.202 2696.85l.742 4.454h95.115l.743-4.454h-96.6m-1.18-1h98.96l-1.076 6.454h-96.808z"/><path data-name="長方形 3612" d="M546.064 2645.88v48.976h65.358v-48.976h-65.358m0-5h65.358a5 5 0 015 5v48.976a5 5 0 01-5 5h-65.358a5 5 0 01-5-5v-48.976a5 5 0 015-5z"/><path data-name="長方形 3613" fill="#f7f7f7" d="M571.207 2697.89h15.072v1.966h-15.072z"/></g></g></svg>