<svg xmlns="http://www.w3.org/2000/svg" width="1100" height="634" viewBox="0 0 1100 634">
  <defs>
    <style>
      <![CDATA[@import url("https://fonts.googleapis.com");]]>
      <![CDATA[@import url("https://fonts.gstatic.com");]]>
      <![CDATA[@import url("https://fonts.googleapis.com/css2?family=BIZ+UDGothic:wght@400;700&family=Roboto:wght@400;500;700;900&display=swap");]]>
      .cls-1, .cls-18, .cls-19, .cls-20, .cls-22, .cls-23, .cls-25, .cls-27 {
        fill: #fff;
      }

      .cls-10, .cls-2, .cls-3, .cls-4, .cls-8 {
        fill: #bc4328;
      }

      .cls-2 {
        font-size: 125px;
        letter-spacing: -0.04em;
      }

      .cls-2, .cls-22, .cls-23, .cls-32, .cls-33 {
        font-family: Roboto-Bold, Roboto, BIZ UDGothic;
      }

      .cls-2, .cls-22, .cls-23, .cls-3, .cls-32, .cls-33, .cls-4 {
        font-weight: 700;
      }

      .cls-3 {
        font-size: 60px;
      }

      .cls-24, .cls-3, .cls-4 {
        font-family: YuGothicUI-Bold, Yu Gothic UI;
      }

      .cls-4 {
        font-size: 25px;
      }

      .cls-5 {
        font-size: 27px;
      }

      .cls-6 {
        fill: #707070;
      }

      .cls-11, .cls-21, .cls-7 {
        fill: #031524;
      }

      .cls-22, .cls-32, .cls-7, .cls-8 {
        font-size: 20px;
      }

      .cls-16, .cls-21, .cls-34, .cls-7, .cls-9 {
        font-family: YuGothicUI-Semibold, Yu Gothic UI;
        font-weight: 600;
      }

      .cls-15, .cls-17, .cls-8 {
        font-family: Roboto-Medium, Roboto;
        font-weight: 500;
      }

      .cls-12, .cls-15 {
        fill: #707a82;
      }

      .cls-13, .cls-16 {
        fill: #4a5863;
      }

      .cls-14, .cls-17 {
        fill: #253743;
      }

      .cls-15, .cls-16, .cls-17, .cls-21 {
        font-size: 12px;
      }

      .cls-18, .cls-23 {
        font-size: 13px;
      }

      .cls-18, .cls-19, .cls-26 {
        font-family: Roboto-Regular, Roboto;
      }

      .cls-19 {
        font-size: 8px;
      }

      .cls-19, .cls-20, .cls-23 {
        opacity: 0.7;
      }

      .cls-20 {
        font-size: 10px;
      }

      .cls-20, .cls-25 {
        font-family: YuGothicUI-Regular, Yu Gothic UI;
      }

      .cls-25, .cls-27 {
        font-size: 14px;
      }

      .cls-27 {
        font-family: NotoSansCJKjp-Regular, Noto Sans CJK JP;
      }

      .cls-28 {
        opacity: 0.75;
      }

      .cls-29 {
        fill: #e6b600;
      }

      .cls-30 {
        fill: #555;
      }

      .cls-31 {
        fill: #f7f7f7;
      }

      .cls-33, .cls-34 {
        font-size: 16px;
      }
    </style>
  </defs>
  <g id="グループ_3127" data-name="グループ 3127" transform="translate(-410 -2453)">
    <g id="グループ_3126" data-name="グループ 3126">
      <rect id="長方形_3475" data-name="長方形 3475" class="cls-1" width="1100" height="634" transform="translate(410 2453)"/>
      <g id="グループ_2480" data-name="グループ 2480" transform="translate(-31 72)">
        <text id="_70" data-name="70" class="cls-2" transform="translate(1068 2545)"><tspan x="0" y="119">70</tspan></text>
        <text id="_" data-name="％" class="cls-3" transform="translate(1204 2594)"><tspan x="0" y="65">％</tspan></text>
        <text id="の経費削減効果" class="cls-4" transform="translate(1068 2677)"><tspan x="0" y="29">の</tspan><tspan class="cls-5" y="29">経費削減効果</tspan></text>
      </g>
      <path id="パス_712" data-name="パス 712" class="cls-6" d="M483.419.5h-3v-1h3Zm-6,0h-3v-1h3Zm-6,0h-3v-1h3Zm-6,0h-3v-1h3Zm-6,0h-3v-1h3Zm-6,0h-3v-1h3Zm-6,0h-3v-1h3Zm-6,0h-3v-1h3Zm-6,0h-3v-1h3Zm-6,0h-3v-1h3Zm-6,0h-3v-1h3Zm-6,0h-3v-1h3Zm-6,0h-3v-1h3Zm-6,0h-3v-1h3Zm-6,0h-3v-1h3Zm-6,0h-3v-1h3Zm-6,0h-3v-1h3Zm-6,0h-3v-1h3Zm-6,0h-3v-1h3Zm-6,0h-3v-1h3Zm-6,0h-3v-1h3Zm-6,0h-3v-1h3Zm-6,0h-3v-1h3Zm-6,0h-3v-1h3Zm-6,0h-3v-1h3Zm-6,0h-3v-1h3Zm-6,0h-3v-1h3Zm-6,0h-3v-1h3Zm-6,0h-3v-1h3Zm-6,0h-3v-1h3Zm-6,0h-3v-1h3Zm-6,0h-3v-1h3Zm-6,0h-3v-1h3Zm-6,0h-3v-1h3Zm-6,0h-3v-1h3Zm-6,0h-3v-1h3Zm-6,0h-3v-1h3Zm-6,0h-3v-1h3Zm-6,0h-3v-1h3Zm-6,0h-3v-1h3Zm-6,0h-3v-1h3Zm-6,0h-3v-1h3Zm-6,0h-3v-1h3Zm-6,0h-3v-1h3Zm-6,0h-3v-1h3Zm-6,0h-3v-1h3Zm-6,0h-3v-1h3Zm-6,0h-3v-1h3Zm-6,0h-3v-1h3Zm-6,0h-3v-1h3Zm-6,0h-3v-1h3Zm-6,0h-3v-1h3Zm-6,0h-3v-1h3Zm-6,0h-3v-1h3Zm-6,0h-3v-1h3Zm-6,0h-3v-1h3Zm-6,0h-3v-1h3Zm-6,0h-3v-1h3Zm-6,0h-3v-1h3Zm-6,0h-3v-1h3Zm-6,0h-3v-1h3Zm-6,0h-3v-1h3Zm-6,0h-3v-1h3Zm-6,0h-3v-1h3Zm-6,0h-3v-1h3Zm-6,0h-3v-1h3Zm-6,0h-3v-1h3Zm-6,0h-3v-1h3Zm-6,0h-3v-1h3Zm-6,0h-3v-1h3Zm-6,0h-3v-1h3Zm-6,0h-3v-1h3Zm-6,0h-3v-1h3Zm-6,0h-3v-1h3Zm-6,0h-3v-1h3Z" transform="translate(880 2543.5)"/>
      <path id="パス_715" data-name="パス 715" class="cls-6" d="M483.419.5h-3v-1h3Zm-6,0h-3v-1h3Zm-6,0h-3v-1h3Zm-6,0h-3v-1h3Zm-6,0h-3v-1h3Zm-6,0h-3v-1h3Zm-6,0h-3v-1h3Zm-6,0h-3v-1h3Zm-6,0h-3v-1h3Zm-6,0h-3v-1h3Zm-6,0h-3v-1h3Zm-6,0h-3v-1h3Zm-6,0h-3v-1h3Zm-6,0h-3v-1h3Zm-6,0h-3v-1h3Zm-6,0h-3v-1h3Zm-6,0h-3v-1h3Zm-6,0h-3v-1h3Zm-6,0h-3v-1h3Zm-6,0h-3v-1h3Zm-6,0h-3v-1h3Zm-6,0h-3v-1h3Zm-6,0h-3v-1h3Zm-6,0h-3v-1h3Zm-6,0h-3v-1h3Zm-6,0h-3v-1h3Zm-6,0h-3v-1h3Zm-6,0h-3v-1h3Zm-6,0h-3v-1h3Zm-6,0h-3v-1h3Zm-6,0h-3v-1h3Zm-6,0h-3v-1h3Zm-6,0h-3v-1h3Zm-6,0h-3v-1h3Zm-6,0h-3v-1h3Zm-6,0h-3v-1h3Zm-6,0h-3v-1h3Zm-6,0h-3v-1h3Zm-6,0h-3v-1h3Zm-6,0h-3v-1h3Zm-6,0h-3v-1h3Zm-6,0h-3v-1h3Zm-6,0h-3v-1h3Zm-6,0h-3v-1h3Zm-6,0h-3v-1h3Zm-6,0h-3v-1h3Zm-6,0h-3v-1h3Zm-6,0h-3v-1h3Zm-6,0h-3v-1h3Zm-6,0h-3v-1h3Zm-6,0h-3v-1h3Zm-6,0h-3v-1h3Zm-6,0h-3v-1h3Zm-6,0h-3v-1h3Zm-6,0h-3v-1h3Zm-6,0h-3v-1h3Zm-6,0h-3v-1h3Zm-6,0h-3v-1h3Zm-6,0h-3v-1h3Zm-6,0h-3v-1h3Zm-6,0h-3v-1h3Zm-6,0h-3v-1h3Zm-6,0h-3v-1h3Zm-6,0h-3v-1h3Zm-6,0h-3v-1h3Zm-6,0h-3v-1h3Zm-6,0h-3v-1h3Zm-6,0h-3v-1h3Zm-6,0h-3v-1h3Zm-6,0h-3v-1h3Zm-6,0h-3v-1h3Zm-6,0h-3v-1h3Zm-6,0h-3v-1h3Zm-6,0h-3v-1h3Zm-6,0h-3v-1h3Z" transform="translate(880 2887.505)"/>
      <text id="従来" class="cls-7" transform="translate(762 2492)"><tspan x="0" y="22">従来</tspan></text>
      <text id="Wave_PC_Mateを導入した場合" data-name="Wave PC Mateを導入した場合" class="cls-8" transform="translate(1006 2492)"><tspan x="0" y="22">Wave PC Mate</tspan><tspan class="cls-9" y="22">を導入した場合</tspan></text>
      <rect id="長方形_3464" data-name="長方形 3464" class="cls-10" width="300" height="158" transform="translate(984 2888)"/>
      <g id="グループ_2481" data-name="グループ 2481" transform="translate(59 74)">
        <rect id="長方形_3468" data-name="長方形 3468" class="cls-11" width="300" height="502.44" transform="translate(573 2469.561)"/>
        <rect id="長方形_3460" data-name="長方形 3460" class="cls-12" width="300" height="135.778" transform="translate(573 2469)"/>
        <rect id="長方形_3461" data-name="長方形 3461" class="cls-13" width="300" height="54.261" transform="translate(573 2604.778)"/>
        <rect id="長方形_3462" data-name="長方形 3462" class="cls-14" width="300" height="279.931" transform="translate(573 2659)"/>
        <rect id="長方形_3463" data-name="長方形 3463" class="cls-11" width="300" height="33.031" transform="translate(573 2939)"/>
      </g>
      <text id="PCの購入_導入費" data-name="PCの購入・導入費" class="cls-15" transform="translate(606 2616)"><tspan x="-91.535" y="0">PC</tspan><tspan class="cls-9" y="0">の購入・導入費</tspan></text>
      <text id="ヘルプデスクの費用" class="cls-16" transform="translate(606 2711)"><tspan x="-90.551" y="0">ヘルプデスクの費用</tspan></text>
      <text id="OSのパッチやウイルス定義_ファイルの更新" data-name="OSのパッチやウイルス定義
ファイルの更新" class="cls-17" transform="translate(606 2870)"><tspan x="-124.582" y="0">OS</tspan><tspan class="cls-9" y="0">のパッチやウイルス定義</tspan><tspan y="0"></tspan><tspan class="cls-9"><tspan x="-69.111" y="16">ファイルの更新</tspan></tspan></text>
      <text id="_17_617" data-name="17,617" class="cls-18" transform="translate(778 3034.485)"><tspan x="-19.525" y="0">17,617</tspan></text>
      <text id="_2" data-name="/" class="cls-19" transform="translate(802 3032.985)"><tspan x="-1.648" y="0">/</tspan></text>
      <text id="年" class="cls-20" transform="translate(809 3033.985)"><tspan x="-5" y="0">年</tspan></text>
      <text id="_3" data-name="¥" class="cls-18" transform="translate(752 3034.485)"><tspan x="-3.936" y="0">¥</tspan></text>
      <g id="グループ_2478" data-name="グループ 2478" transform="translate(35 53)">
        <text id="_28_940" data-name="28,940" class="cls-18" transform="translate(743 2657)"><tspan x="-19.525" y="0">28,940</tspan></text>
        <text id="_4" data-name="/" class="cls-19" transform="translate(767 2655.5)"><tspan x="-1.648" y="0">/</tspan></text>
        <text id="年-2" data-name="年" class="cls-20" transform="translate(774 2656.5)"><tspan x="-5" y="0">年</tspan></text>
        <text id="_5" data-name="¥" class="cls-18" transform="translate(717 2657)"><tspan x="-3.936" y="0">¥</tspan></text>
      </g>
      <g id="グループ_2479" data-name="グループ 2479" transform="translate(35 53)">
        <g id="グループ_2471" data-name="グループ 2471" transform="translate(-45 -18)">
          <text id="_72_417" data-name="72,417" class="cls-18" transform="translate(788 2580)"><tspan x="-19.525" y="0">72,417</tspan></text>
          <text id="_6" data-name="/" class="cls-19" transform="translate(812 2578.5)"><tspan x="-1.648" y="0">/</tspan></text>
          <text id="年-3" data-name="年" class="cls-20" transform="translate(819 2579.5)"><tspan x="-5" y="0">年</tspan></text>
          <text id="_7" data-name="¥" class="cls-18" transform="translate(762 2580)"><tspan x="-3.936" y="0">¥</tspan></text>
        </g>
      </g>
      <g id="グループ_2477" data-name="グループ 2477" transform="translate(33 53)">
        <text id="_149_301" data-name="149,301" class="cls-18" transform="translate(742 2826)"><tspan x="-23.175" y="0">149,301</tspan></text>
        <text id="_8" data-name="/" class="cls-19" transform="translate(769 2824.5)"><tspan x="-1.648" y="0">/</tspan></text>
        <text id="年-4" data-name="年" class="cls-20" transform="translate(776 2825.5)"><tspan x="-5" y="0">年</tspan></text>
        <text id="_9" data-name="¥" class="cls-18" transform="translate(713 2826)"><tspan x="-3.936" y="0">¥</tspan></text>
      </g>
      <text id="ソフトウエアバージョンアップ費用" class="cls-21" transform="translate(606 3033)"><tspan x="-149.607" y="0">ソフトウエアバージョンアップ費用</tspan></text>
      <g id="グループ_2473" data-name="グループ 2473" transform="translate(-41 53)">
        <text id="_84_000" data-name="84,000" class="cls-22" transform="translate(1174.389 2896)"><tspan x="-31.128" y="0">84,000</tspan></text>
        <text id="_年" data-name="/年" class="cls-23" transform="translate(1218.389 2893.5)"><tspan x="-8.928" y="0">/</tspan><tspan class="cls-24" y="0">年</tspan></text>
        <text id="_10" data-name="¥" class="cls-22" transform="translate(1133 2896)"><tspan x="-6.123" y="0">¥</tspan></text>
      </g>
      <text id="_標準PC_サポート例_" data-name="（標準PC&amp;サポート例）" class="cls-25" transform="translate(1135 2978)"><tspan x="-69.265" y="0">（標準</tspan><tspan class="cls-26" y="0">PC&amp;</tspan><tspan y="0">サポート例）</tspan></text>
      <g id="グループ_2472" data-name="グループ 2472" transform="translate(-106.5 53)">
        <text id="_11" data-name="※" class="cls-27" transform="translate(1212.5 2945)"><tspan x="-7" y="0">※</tspan></text>
        <text id="標準価格" class="cls-25" transform="translate(1248 2945)"><tspan x="-28" y="0">標準価格</tspan></text>
      </g>
      <g id="グループ_2470" data-name="グループ 2470" class="cls-28" transform="translate(120 53)">
        <path id="パス_713" data-name="パス 713" class="cls-29" d="M0,0,16.722,1.028,1.028,16.722Z" transform="translate(1141.824 2490.561) rotate(45)"/>
        <path id="パス_714" data-name="パス 714" class="cls-29" d="M0,16.722l16.722-1.028L1.028,0Z" transform="translate(1130 2823.681) rotate(-45)"/>
        <rect id="長方形_3467" data-name="長方形 3467" class="cls-29" width="7" height="326" transform="translate(1138 2502)"/>
      </g>
      <path id="線_346" data-name="線 346" class="cls-30" d="M800,.5H0v-1H800Z" transform="translate(560.5 3046.5)"/>
      <rect id="長方形_3469" data-name="長方形 3469" class="cls-31" width="147" height="51" rx="10" transform="translate(1330 2519)"/>
      <rect id="長方形_3470" data-name="長方形 3470" class="cls-31" width="147" height="51" rx="10" transform="translate(1330 2862)"/>
      <g id="グループ_2475" data-name="グループ 2475" transform="translate(-31 53)">
        <text id="_268_275" data-name="¥ 268,275" class="cls-32" transform="translate(1380 2498)"><tspan x="0" y="0">¥ 268,275</tspan></text>
        <text id="_年-2" data-name="/年" class="cls-33" transform="translate(1473 2497)"><tspan x="0" y="0">/</tspan><tspan class="cls-24" y="0">年</tspan></text>
      </g>
      <g id="グループ_2474" data-name="グループ 2474" transform="translate(-26 53)">
        <text id="_84_000-2" data-name="¥ 84,000" class="cls-32" transform="translate(1380 2842)"><tspan x="0" y="0">¥ 84,000</tspan></text>
        <text id="_年-3" data-name="/年" class="cls-33" transform="translate(1461 2841)"><tspan x="0" y="0">/</tspan><tspan class="cls-24" y="0">年</tspan></text>
      </g>
      <text id="費用合計" class="cls-34" transform="translate(1372 2493)"><tspan x="0" y="17">費用合計</tspan></text>
    </g>
  </g>
</svg>
