<svg xmlns="http://www.w3.org/2000/svg" width="558" height="208" viewBox="0 0 558 208">
  <g id="グループ_2704" data-name="グループ 2704" transform="translate(-452 -1966)">
    <rect id="長方形_3634" data-name="長方形 3634" width="277" height="208" transform="translate(733 1966)" fill="#f8ece9"/>
    <rect id="長方形_3635" data-name="長方形 3635" width="251" height="208" transform="translate(452 1966)" fill="#f7f7f7"/>
    <text id="ヘルプデスクのアウトソーシング_専用のFAQサイトを活用" data-name="ヘルプデスクのアウトソーシング、専用のFAQサイトを活用" transform="translate(778 2103.803)" font-size="14" font-family="YuGothicUI-Regular, Yu Gothic UI"><tspan x="0" y="15">ヘルプデスクのアウトソーシング、専</tspan><tspan x="0" y="35">用の</tspan><tspan y="35" font-family="Roboto-Regular, Roboto">FAQ</tspan><tspan y="35">サイトを活用</tspan></text>
    <text id="社内からの問合せ対応で工数圧迫" transform="translate(492 2103.803)" font-size="14" font-family="YuGothicUI-Regular, Yu Gothic UI"><tspan x="0" y="15">社内からの問合せ対応で工数</tspan><tspan x="0" y="35">圧迫</tspan></text>
    <text id="ヘルプデスクの代行" transform="translate(868.375 2014)" fill="#d76b00" font-size="12" font-family="YuGothicUI-Regular, Yu Gothic UI"><tspan x="-88.863" y="0">ヘルプデスクの代行</tspan></text>
    <text id="FAQサイト" transform="translate(919.47 2014)" fill="#d76b00" font-size="12" font-family="Roboto-Regular, Roboto"><tspan x="-23.88" y="0">FAQ</tspan><tspan y="0" font-family="YuGothicUI-Regular, Yu Gothic UI">サイト</tspan></text>
    <g id="レイヤー_2_00000066502127103154531750000000459312246520423307_" transform="translate(533.331 2009.801)">
      <path id="パス_754" data-name="パス 754" d="M11.938,19.027a2.643,2.643,0,0,1-1.369-.381,2.614,2.614,0,0,1-1.209-1.473,2.366,2.366,0,0,1,.181-1.75,4.011,4.011,0,0,1,2.426-1.914,5.409,5.409,0,0,1,2.518-.16,4.415,4.415,0,0,0-.836-2.764,2.842,2.842,0,0,0-.893-.815,9.755,9.755,0,0,1-2.54,3.126,7.765,7.765,0,0,1-3.831,1.818A2.7,2.7,0,0,1,3.668,13.6a2.856,2.856,0,0,1-.253-2.749A4.853,4.853,0,0,1,5.229,8.816a9.633,9.633,0,0,1,5.086-1.554,8.1,8.1,0,0,1,1.192.071A4.145,4.145,0,0,0,10.3,3.865,4.842,4.842,0,0,0,5.24,2.147a4.744,4.744,0,0,0-3.329,2.92A.979.979,0,0,1,0,4.654,5.366,5.366,0,0,1,1.633,1.99,7.321,7.321,0,0,1,4.728.262,6.453,6.453,0,0,1,8.235.272a7.6,7.6,0,0,1,3.511,2.266A6.413,6.413,0,0,1,13.424,5.81,5.931,5.931,0,0,1,13.4,7.891a4.889,4.889,0,0,1,1.85,1.569A6.366,6.366,0,0,1,16.4,13.995h0a5.668,5.668,0,0,1,1.924,1.437,5.137,5.137,0,0,1,.964,1.942.978.978,0,0,1-1.878.548,2.86,2.86,0,0,0-1.558-2.006,6.42,6.42,0,0,1-1.135,1.725,4.421,4.421,0,0,1-1.885,1.248A3.047,3.047,0,0,1,11.938,19.027Zm1.615-3.806a3.245,3.245,0,0,0-1,.153,2.111,2.111,0,0,0-1.266.921c-.078.153-.192.384.288.676.516.309,1.241-.164,1.7-.662a4.414,4.414,0,0,0,.711-1.056A3.092,3.092,0,0,0,13.552,15.222ZM10.419,9.207h-.078a7.694,7.694,0,0,0-4.012,1.22c-.619.42-1.576,1.248-1.021,2.1.135.206.427.288.864.242a7.323,7.323,0,0,0,4.659-3.543C10.686,9.211,10.547,9.207,10.419,9.207Z" transform="translate(0.025 -0.024)"/>
    </g>
    <path id="パス_897" data-name="パス 897" d="M14.795,14.795H0v-1H13.795V0h1Z" transform="translate(702.892 2069.561) rotate(-45)"/>
    <g id="コールセンターの人物アイコン素材_その3" data-name="コールセンターの人物アイコン素材 その3" transform="translate(741.293 2023)">
      <path id="パス_772" data-name="パス 772" d="M107.214,328.9l-.46-2.662a7.326,7.326,0,0,0-4.264-5.327l-9.683-4.449c-1.189-.545-1.529-2.269-1.563-2.362a.62.62,0,0,0-.555-.249h-.025a.574.574,0,0,0-.485.4l-1.117,3.922-6.982,12.67-6.964-12.628-1.136-3.964a.6.6,0,0,0-.57-.408.593.593,0,0,0-.525.33,3.469,3.469,0,0,1-1.532,2.286l-9.685,4.449a7.328,7.328,0,0,0-4.263,5.327l-.46,2.662a3.43,3.43,0,0,0,1.068,3.237c.117.087.263.217.448.382,1.782,1.581,7.206,6.394,23.618,6.394s21.834-4.812,23.617-6.394c.186-.164.332-.295.449-.382A3.429,3.429,0,0,0,107.214,328.9Z" transform="translate(0 -274.14)" fill="#d76b00"/>
      <path id="パス_773" data-name="パス 773" d="M171.819,61.848c2.347,4.4,5.56,10.437,6.963,11.313l.266.166.976-7.618a11.623,11.623,0,0,0-3.029-8.919,13.654,13.654,0,0,0-19.581,0,11.626,11.626,0,0,0-3.029,8.927l.888,7.541.3-.324a16.933,16.933,0,0,1,3.113-2.245c3.231-2.039,8.086-5.1,11.9-11.148C170.935,60.189,171.356,60.979,171.819,61.848Z" transform="translate(-85.123 -45.993)" fill="#d76b00"/>
      <path id="パス_774" data-name="パス 774" d="M92.839,30.7A1.5,1.5,0,0,0,94.3,31.856a1.53,1.53,0,0,0,.352-.042l2.54-.61a1.5,1.5,0,0,0,1.053-.933l.1.007-.048-.191a1.492,1.492,0,0,0,0-.7l-1.324-5.479a30.6,30.6,0,0,1-.479-4.857,15.8,15.8,0,1,1,31.6,0,29.665,29.665,0,0,1-.5,4.918l-1.3,5.419a1.383,1.383,0,0,0-.035.248l-.052.116c-.017.038-1.768,3.825-7.207,4.892a1.622,1.622,0,0,0-1.429-.851H114.3a1.628,1.628,0,0,0-1.626,1.626V36.7a1.628,1.628,0,0,0,1.626,1.626h3.277a1.627,1.627,0,0,0,1.522-1.071,13.936,13.936,0,0,0,6.69-2.987,11.481,11.481,0,0,0,2.465-2.862l1.7.408a1.527,1.527,0,0,0,.352.042,1.5,1.5,0,0,0,1.465-1.156l1.3-5.419a1.51,1.51,0,0,0-1.114-1.818l-.939-.225a30.692,30.692,0,0,0,.336-4.188,19.051,19.051,0,0,0-38.1,0,30.663,30.663,0,0,0,.336,4.187l-.94.226a1.509,1.509,0,0,0-1.113,1.818Z" transform="translate(-30.225)" fill="#d76b00"/>
    </g>
    <g id="サラリーマン" transform="translate(550.188 2018)">
      <path id="パス_775" data-name="パス 775" d="M110.561,59.589a11.072,11.072,0,0,0-4.372-6.3,17.914,17.914,0,0,0-2.936-1.7c-1.517-.711-3.068-1.257-4.5-1.785A23.79,23.79,0,0,1,95,48.16a7.8,7.8,0,0,1-1-.687,4.337,4.337,0,0,1-1.012-1.179,3.774,3.774,0,0,1-.472-1.521,11.684,11.684,0,0,1-.065-1.226,14.736,14.736,0,0,1,.384-3.152,13.646,13.646,0,0,0,1.781-2.615,28.356,28.356,0,0,0,1.608-3.674A6.927,6.927,0,0,0,99.3,31.385a11.245,11.245,0,0,0,1.406-3.568,5.377,5.377,0,0,0-.386-3.5,6.2,6.2,0,0,0-.849-1.335c.171-.63.379-1.482.563-2.476a26.575,26.575,0,0,0,.468-4.788,17.584,17.584,0,0,0-.316-3.436,12.483,12.483,0,0,0-.78-2.533,9.415,9.415,0,0,0-2.39-3.341,9.9,9.9,0,0,0-3.761-2.043,13.782,13.782,0,0,0-1.982-1.956,10.628,10.628,0,0,0-3.59-1.9A12.849,12.849,0,0,0,83.96,0C83.3,0,82.65.037,81.991.1c-.615.056-1.127.119-1.584.2a10.823,10.823,0,0,0-1.794.455c-.548.188-1.075.409-1.766.68-.262.1-.6.256-1.02.466a17.969,17.969,0,0,0-2.656,1.651A17.029,17.029,0,0,0,68.73,8.376,14.961,14.961,0,0,0,67.146,12a16.1,16.1,0,0,0-.615,4.476,19.693,19.693,0,0,0,.277,3.213c0,.078,0,.156.009.23.009.139.024.286.039.438.024.223.05.455.069.65.011.1.02.182.026.251,0,.032,0,.061,0,.082V21.5l.275,1.224a6.408,6.408,0,0,0-1,1.447,5.447,5.447,0,0,0-.589,2.455,5.389,5.389,0,0,0,.132,1.192,12.385,12.385,0,0,0,.849,2.546,7.954,7.954,0,0,0,1.889,2.609,6.9,6.9,0,0,0,1.751,1.137,28.276,28.276,0,0,0,1.608,3.672,13.519,13.519,0,0,0,1.779,2.613,14.864,14.864,0,0,1,.384,3.154,11.627,11.627,0,0,1-.063,1.226,3.977,3.977,0,0,1-.269,1.1,3.839,3.839,0,0,1-.875,1.287,7.106,7.106,0,0,1-1.48,1.081,17.5,17.5,0,0,1-2.05.962c-1.324.535-2.829,1.042-4.359,1.649a24.714,24.714,0,0,0-3.414,1.634,13.865,13.865,0,0,0-2.364,1.727,10.8,10.8,0,0,0-2.7,3.817A14.1,14.1,0,0,0,55.429,63.6a2.372,2.372,0,0,0,.171.869,3.119,3.119,0,0,0,.394.7,5.461,5.461,0,0,0,1.17,1.133,14.132,14.132,0,0,0,3.395,1.744,42.393,42.393,0,0,0,8.807,2.08,99.668,99.668,0,0,0,13.875.864,104,104,0,0,0,12.332-.665,56.649,56.649,0,0,0,6.688-1.17,31.8,31.8,0,0,0,3.688-1.124,17.55,17.55,0,0,0,2.082-.927,10.637,10.637,0,0,0,1.2-.741,5.511,5.511,0,0,0,1.274-1.222,3.246,3.246,0,0,0,.392-.717,2.4,2.4,0,0,0,.154-.828A15.489,15.489,0,0,0,110.561,59.589ZM80.819,60.635,72.634,50.171a9.99,9.99,0,0,0,1.211-.823,7.113,7.113,0,0,0,1.112-1.1l5.952,2.762-1.27,2.119,1.967,2.086ZM75.8,46.849a6.175,6.175,0,0,0,.47-1.837,13.892,13.892,0,0,0,.078-1.465,18.086,18.086,0,0,0-.5-3.952l-.072-.314-.221-.234a10.943,10.943,0,0,1-1.647-2.364,28.158,28.158,0,0,1-1.64-3.839l-.182-.513-.511-.188a4.758,4.758,0,0,1-1.031-.52,4.929,4.929,0,0,1-1.408-1.478,8.953,8.953,0,0,1-1.1-2.838,3.087,3.087,0,0,1,.271-2.1,4.057,4.057,0,0,1,.763-1.044,16.434,16.434,0,0,0,1.133,1.6c.52.522.357.362.531.1,0,0,.591-.832,3.72-6.918,6.259,1.391,17.2-8.01,17.2-8.01a11.546,11.546,0,0,0,2.219,5.817c1.978,2.639,3.107,8.833,3.107,8.833s.269-.509.669-1.194a3.888,3.888,0,0,1,.585.9A3.082,3.082,0,0,1,98.45,27.3a10.12,10.12,0,0,1-.689,2.073,5.611,5.611,0,0,1-1.332,1.861,4.642,4.642,0,0,1-1.521.9l-.511.186-.182.513a27.975,27.975,0,0,1-1.64,3.841,10.857,10.857,0,0,1-1.649,2.366l-.221.234-.069.316a17.876,17.876,0,0,0-.5,3.947,14.494,14.494,0,0,0,.076,1.465,6.275,6.275,0,0,0,.407,1.686.689.689,0,0,0,.03.069l-7.043,3.7Zm10.43,14.165-.843-5.8,1.969-2.086L86.081,51l5.384-2.829a6.035,6.035,0,0,0,.475.548,8.812,8.812,0,0,0,1.811,1.4Z" transform="translate(-55.429 0)"/>
    </g>
    <g id="コメントアイコン" transform="translate(517.588 2051.921)">
      <path id="パス_898" data-name="パス 898" d="M47.751,0a11.905,11.905,0,0,0-1.023,23.766V27.69l8.679-6.665A11.907,11.907,0,0,0,47.751,0ZM41.5,13.494a1.588,1.588,0,1,1,1.587-1.588A1.588,1.588,0,0,1,41.5,13.494Zm6.251,0a1.588,1.588,0,1,1,1.588-1.588A1.588,1.588,0,0,1,47.751,13.494Zm6.251,0a1.588,1.588,0,1,1,1.588-1.588A1.588,1.588,0,0,1,54,13.494Z" transform="translate(-35.845)"/>
    </g>
    <g id="コメントアイコン-2" data-name="コメントアイコン" transform="translate(614.599 2051.921)">
      <path id="パス_898-2" data-name="パス 898" d="M47.752,0a11.905,11.905,0,0,1,1.023,23.766V27.69L40.1,21.025A11.907,11.907,0,0,1,47.752,0ZM54,13.494a1.588,1.588,0,1,0-1.587-1.588A1.588,1.588,0,0,0,54,13.494Zm-6.251,0a1.588,1.588,0,1,0-1.588-1.588A1.588,1.588,0,0,0,47.752,13.494Zm-6.251,0a1.588,1.588,0,1,0-1.588-1.588A1.588,1.588,0,0,0,41.5,13.494Z" transform="translate(-35.845)"/>
    </g>
    <g id="コメントアイコン-3" data-name="コメントアイコン" transform="translate(609.218 2014.951)">
      <path id="パス_898-3" data-name="パス 898" d="M47.752,0a11.905,11.905,0,0,1,1.023,23.766V27.69L40.1,21.025A11.907,11.907,0,0,1,47.752,0ZM54,13.494a1.588,1.588,0,1,0-1.587-1.588A1.588,1.588,0,0,0,54,13.494Zm-6.251,0a1.588,1.588,0,1,0-1.588-1.588A1.588,1.588,0,0,0,47.752,13.494Zm-6.251,0a1.588,1.588,0,1,0-1.588-1.588A1.588,1.588,0,0,0,41.5,13.494Z" transform="translate(-35.845)"/>
    </g>
    <g id="グループ_2661" data-name="グループ 2661" transform="translate(4819.284 5166.459)">
      <text id="FAQ" transform="translate(-3900.609 -3107.38)" fill="#d76b00" font-size="14" font-family="DIN2014-Demi, 'DIN \32 014'" font-weight="300"><tspan x="-11.9" y="0">FAQ</tspan></text>
      <path id="パス_744" data-name="パス 744" d="M0,0H81.491l-.886,5.315H.886Z" transform="translate(-3940.56 -3091.144)" fill="#d76b00"/>
      <path id="長方形_3497" data-name="長方形 3497" d="M5,4A1,1,0,0,0,4,5V45.489a1,1,0,0,0,1,1H57a1,1,0,0,0,1-1V5a1,1,0,0,0-1-1H5M5,0H57a5,5,0,0,1,5,5V45.489a5,5,0,0,1-5,5H5a5,5,0,0,1-5-5V5A5,5,0,0,1,5,0Z" transform="translate(-3930.817 -3136.319)" fill="#d76b00"/>
      <rect id="長方形_3498" data-name="長方形 3498" width="12.401" height="1.772" transform="translate(-3906.015 -3089.373)" fill="#f8ece9"/>
    </g>
  </g>
</svg>
