<svg xmlns="http://www.w3.org/2000/svg" width="67.627" height="72.834" viewBox="0 0 67.627 72.834">
  <g id="分析アイコン" transform="translate(-18.301)">
    <rect id="長方形_3646" data-name="長方形 3646" width="13.837" height="19.371" transform="translate(18.301 53.456)" fill="#0f2437"/>
    <path id="パス_912" data-name="パス 912" d="M302.544,84.026a5.718,5.718,0,1,0,9.145,0Z" transform="translate(-242.835 -72.073)" fill="#0f2437"/>
    <path id="パス_913" data-name="パス 913" d="M290.61,235.664v39.31h13.837V235.913a19.681,19.681,0,0,1-13.837-.249Z" transform="translate(-233.572 -202.14)" fill="#0f2437"/>
    <path id="パス_914" data-name="パス 914" d="M269.247,30.984l-7.465-7.272A15.377,15.377,0,1,0,257.2,28.3l7.269,7.464a3.115,3.115,0,0,0,4.9.185A3.175,3.175,0,0,0,269.247,30.984ZM248.86,23.628a8.251,8.251,0,1,1,5.833-2.416A8.2,8.2,0,0,1,248.86,23.628Z" transform="translate(-184.572 0)" fill="#0f2437"/>
    <rect id="長方形_3647" data-name="長方形 3647" width="13.837" height="30.441" transform="translate(37.667 42.394)" fill="#0f2437"/>
  </g>
</svg>
