<svg xmlns="http://www.w3.org/2000/svg" width="66.58" height="66.579" viewBox="0 0 66.58 66.579">
  <g id="インターネットのアイコン2_1_" data-name="インターネットのアイコン2 (1)" transform="translate(0 -0.004)">
    <path id="パス_915" data-name="パス 915" d="M66.564,32.249l-2.794.087,2.794-.088A33.291,33.291,0,0,0,33.307,0q-.53,0-1.063.017h0A33.289,33.289,0,0,0,0,33.277c0,.352.006.707.017,1.061A33.291,33.291,0,0,0,33.273,66.583c.35,0,.7,0,1.061-.017A33.291,33.291,0,0,0,66.58,33.311Q66.58,32.781,66.564,32.249ZM13.384,14.034a27.736,27.736,0,0,1,9.06-6.228A32.069,32.069,0,0,0,18.8,15H12.5Q12.927,14.5,13.384,14.034ZM9.843,18.555H17.66a55.339,55.339,0,0,0-1.868,12.96H5.653A27.5,27.5,0,0,1,9.843,18.555ZM9.837,48.032a27.516,27.516,0,0,1-4.18-12.96H15.8a55.413,55.413,0,0,0,1.851,12.96ZM14.031,53.2c-.532-.515-1.038-1.055-1.528-1.61h6.3a36.707,36.707,0,0,0,1.768,4.083,28.283,28.283,0,0,0,1.853,3.1A27.815,27.815,0,0,1,14.031,53.2Zm17.481,7.73c-.771-.049-1.536-.123-2.289-.234a11.17,11.17,0,0,1-.938-.681A21.359,21.359,0,0,1,22.6,51.59h8.909Zm0-12.9H21.35a51.136,51.136,0,0,1-2-12.96H31.512Zm0-16.517H19.36a51.075,51.075,0,0,1,2.005-12.96H31.512Zm0-16.517h-8.9c.352-.857.721-1.685,1.118-2.45a18.834,18.834,0,0,1,4.554-5.975,11.2,11.2,0,0,1,.923-.671q1.138-.168,2.3-.242Zm25.233,3.558a27.518,27.518,0,0,1,4.179,12.96H50.778a55.414,55.414,0,0,0-1.851-12.96ZM52.55,13.387c.532.515,1.038,1.055,1.529,1.611h-6.3a36.65,36.65,0,0,0-1.768-4.083,28.05,28.05,0,0,0-1.855-3.1A27.816,27.816,0,0,1,52.55,13.387ZM35.07,5.657c.77.049,1.535.124,2.287.234a11.039,11.039,0,0,1,.94.682A21.346,21.346,0,0,1,43.977,15H35.07Zm0,12.9H45.232a51.136,51.136,0,0,1,2,12.96H35.07Zm0,16.517H47.221a51.063,51.063,0,0,1-2.005,12.96H35.07Zm7.781,18.966A18.842,18.842,0,0,1,38.3,60.014a11.064,11.064,0,0,1-.922.67q-1.138.168-2.3.242V51.59h8.9C43.615,52.446,43.247,53.273,42.851,54.039ZM53.2,52.553a27.735,27.735,0,0,1-9.058,6.227,32.073,32.073,0,0,0,3.646-7.19h6.3Q53.652,52.081,53.2,52.553Zm3.54-4.52H48.921a55.277,55.277,0,0,0,1.869-12.96H60.927A27.5,27.5,0,0,1,56.737,48.032Z" transform="translate(0 0)" fill="#0f2437"/>
  </g>
</svg>
