<svg xmlns="http://www.w3.org/2000/svg" width="82.649" height="56.669" viewBox="0 0 82.649 56.669">
  <g id="Free_desktop_PC_icon" data-name="Free desktop PC icon" transform="translate(0 -80.469)">
    <path id="パス_916" data-name="パス 916" d="M53.461,80.469H3.148A3.159,3.159,0,0,0,0,83.619v41.266a3.158,3.158,0,0,0,3.148,3.148h14.6v6.089h-4.1v3.017H42.969v-3.017H38.863v-6.089h14.6a3.158,3.158,0,0,0,3.148-3.148V83.619A3.159,3.159,0,0,0,53.461,80.469Zm-.948,42.212H4.094V84.563H52.513v38.119Z" transform="translate(0 0)" fill="#0f2437"/>
    <path id="パス_917" data-name="パス 917" d="M391.02,80.469H374.776a3.214,3.214,0,0,0-3.213,3.213v50.243a3.214,3.214,0,0,0,3.213,3.213H391.02a3.212,3.212,0,0,0,3.213-3.213V83.682A3.212,3.212,0,0,0,391.02,80.469Zm-8.122,42.5a3.684,3.684,0,1,1,3.685-3.683A3.684,3.684,0,0,1,382.9,122.971Zm5.811-22.95H377.374V97.754h11.335Zm0-6.8H377.374V90.954h11.335Z" transform="translate(-311.584 0)" fill="#0f2437"/>
  </g>
</svg>
