<svg id="鉄壁のセキュリティアイコン" xmlns="http://www.w3.org/2000/svg" width="58.238" height="74.512" viewBox="0 0 58.238 74.512">
  <path id="パス_871" data-name="パス 871" d="M111.111,14.071l-2.856-.157c-7.746-.43-14.461-3.4-18.426-8.164L85.03,0l-4.8,5.75C76.266,10.51,69.55,13.484,61.8,13.914l-5.894.326V41.468a22.221,22.221,0,0,0,3.038,10.863C65.391,63.95,80.048,71.9,82.134,73l2.9,1.513L87.925,73c2.686-1.408,26.224-14.213,26.224-31.531V14.24ZM62.144,38V20.146c9.362-.521,17.683-4.159,22.887-10.405V38h22.884v3.469c0,14.044-22.884,26-22.884,26V38Z" transform="translate(-55.911)" fill="#0f2437"/>
</svg>
