<svg xmlns="http://www.w3.org/2000/svg" width="1100" height="772" viewBox="0 0 1100 772">
  <g id="グループ_2839" data-name="グループ 2839" transform="translate(-410 -4153)">
    <rect id="長方形_3656" data-name="長方形 3656" width="1100" height="772" transform="translate(410 4153)" fill="#fff"/>
    <g id="グループ_2837" data-name="グループ 2837">
      <rect id="長方形_3745" data-name="長方形 3745" width="512" height="347" transform="translate(973 4553)" fill="#f7f7f7"/>
      <rect id="長方形_3744" data-name="長方形 3744" width="512" height="347" transform="translate(973 4178)" fill="#f7f7f7"/>
      <path id="線_373" data-name="線 373" d="M1047,.5h-3v-1h3Zm-6,0h-3v-1h3Zm-6,0h-3v-1h3Zm-6,0h-3v-1h3Zm-6,0h-3v-1h3Zm-6,0h-3v-1h3Zm-6,0h-3v-1h3Zm-6,0h-3v-1h3Zm-6,0h-3v-1h3Zm-6,0h-3v-1h3Zm-6,0h-3v-1h3Zm-6,0h-3v-1h3Zm-6,0h-3v-1h3Zm-6,0h-3v-1h3Zm-6,0h-3v-1h3Zm-6,0h-3v-1h3Zm-6,0h-3v-1h3Zm-6,0h-3v-1h3Zm-6,0h-3v-1h3Zm-6,0h-3v-1h3Zm-6,0h-3v-1h3Zm-6,0h-3v-1h3Zm-6,0h-3v-1h3Zm-6,0h-3v-1h3Zm-6,0h-3v-1h3Zm-6,0h-3v-1h3Zm-6,0h-3v-1h3Zm-6,0h-3v-1h3Zm-6,0h-3v-1h3Zm-6,0h-3v-1h3Zm-6,0h-3v-1h3Zm-6,0h-3v-1h3Zm-6,0h-3v-1h3Zm-6,0h-3v-1h3Zm-6,0h-3v-1h3Zm-6,0h-3v-1h3Zm-6,0h-3v-1h3Zm-6,0h-3v-1h3Zm-6,0h-3v-1h3Zm-6,0h-3v-1h3Zm-6,0h-3v-1h3Zm-6,0h-3v-1h3Zm-6,0h-3v-1h3Zm-6,0h-3v-1h3Zm-6,0h-3v-1h3Zm-6,0h-3v-1h3Zm-6,0h-3v-1h3Zm-6,0h-3v-1h3Zm-6,0h-3v-1h3Zm-6,0h-3v-1h3Zm-6,0h-3v-1h3Zm-6,0h-3v-1h3Zm-6,0h-3v-1h3Zm-6,0h-3v-1h3Zm-6,0h-3v-1h3Zm-6,0h-3v-1h3Zm-6,0h-3v-1h3Zm-6,0h-3v-1h3Zm-6,0h-3v-1h3Zm-6,0h-3v-1h3Zm-6,0h-3v-1h3Zm-6,0h-3v-1h3Zm-6,0h-3v-1h3Zm-6,0h-3v-1h3Zm-6,0h-3v-1h3Zm-6,0h-3v-1h3Zm-6,0h-3v-1h3Zm-6,0h-3v-1h3Zm-6,0h-3v-1h3Zm-6,0h-3v-1h3Zm-6,0h-3v-1h3Zm-6,0h-3v-1h3Zm-6,0h-3v-1h3Zm-6,0h-3v-1h3Zm-6,0h-3v-1h3Zm-6,0h-3v-1h3Zm-6,0h-3v-1h3Zm-6,0h-3v-1h3Zm-6,0h-3v-1h3Zm-6,0h-3v-1h3Zm-6,0h-3v-1h3Zm-6,0h-3v-1h3Zm-6,0h-3v-1h3Zm-6,0h-3v-1h3Zm-6,0h-3v-1h3Zm-6,0h-3v-1h3Zm-6,0h-3v-1h3Zm-6,0h-3v-1h3Zm-6,0h-3v-1h3Zm-6,0h-3v-1h3Zm-6,0h-3v-1h3Zm-6,0h-3v-1h3Zm-6,0h-3v-1h3Zm-6,0h-3v-1h3Zm-6,0h-3v-1h3Zm-6,0h-3v-1h3Zm-6,0h-3v-1h3Zm-6,0h-3v-1h3Zm-6,0h-3v-1h3Zm-6,0h-3v-1h3Zm-6,0h-3v-1h3Zm-6,0h-3v-1h3Zm-6,0h-3v-1h3Zm-6,0h-3v-1h3Zm-6,0h-3v-1h3Zm-6,0h-3v-1h3Zm-6,0h-3v-1h3Zm-6,0h-3v-1h3Zm-6,0h-3v-1h3Zm-6,0h-3v-1h3Zm-6,0h-3v-1h3Zm-6,0h-3v-1h3Zm-6,0h-3v-1h3Zm-6,0h-3v-1h3Zm-6,0h-3v-1h3Zm-6,0h-3v-1h3Zm-6,0h-3v-1h3Zm-6,0h-3v-1h3Zm-6,0h-3v-1h3Zm-6,0h-3v-1h3Zm-6,0h-3v-1h3Zm-6,0h-3v-1h3Zm-6,0h-3v-1h3Zm-6,0h-3v-1h3Zm-6,0h-3v-1h3Zm-6,0h-3v-1h3Zm-6,0h-3v-1h3Zm-6,0h-3v-1h3Zm-6,0h-3v-1h3Zm-6,0h-3v-1h3Zm-6,0h-3v-1h3Zm-6,0h-3v-1h3Zm-6,0h-3v-1h3Zm-6,0h-3v-1h3Zm-6,0h-3v-1h3Zm-6,0h-3v-1h3Zm-6,0h-3v-1h3Zm-6,0h-3v-1h3Zm-6,0h-3v-1h3Zm-6,0h-3v-1h3Zm-6,0h-3v-1h3Zm-6,0h-3v-1h3Zm-6,0h-3v-1h3Zm-6,0h-3v-1h3Zm-6,0h-3v-1h3Zm-6,0h-3v-1h3Zm-6,0h-3v-1h3Zm-6,0h-3v-1h3Zm-6,0h-3v-1h3Zm-6,0h-3v-1h3Zm-6,0h-3v-1h3Zm-6,0h-3v-1h3Zm-6,0h-3v-1h3Zm-6,0h-3v-1h3Zm-6,0h-3v-1h3Zm-6,0h-3v-1h3Zm-6,0h-3v-1h3Zm-6,0h-3v-1h3Zm-6,0H96v-1h3Zm-6,0H90v-1h3Zm-6,0H84v-1h3Zm-6,0H78v-1h3Zm-6,0H72v-1h3Zm-6,0H66v-1h3Zm-6,0H60v-1h3Zm-6,0H54v-1h3Zm-6,0H48v-1h3Zm-6,0H42v-1h3Zm-6,0H36v-1h3Zm-6,0H30v-1h3Zm-6,0H24v-1h3Zm-6,0H18v-1h3Zm-6,0H12v-1h3ZM9,.5H6v-1H9ZM3,.5H0v-1H3Z" transform="translate(435.5 4539.5)"/>
      <rect id="長方形_3718" data-name="長方形 3718" width="240" height="54" transform="translate(1245 4846)" fill="#070f26"/>
      <text id="サービスデスク" transform="translate(1303 4881)" fill="#fff" font-size="24" font-family="YuGothicUI-Regular, Yu Gothic UI"><tspan x="0" y="0">サービスデスク</tspan></text>
      <rect id="長方形_3741" data-name="長方形 3741" width="512" height="347" transform="translate(435 4553)" fill="#f7f7f7"/>
      <rect id="長方形_3743" data-name="長方形 3743" width="512" height="347" transform="translate(435 4178)" fill="#f7f7f7"/>
      <rect id="長方形_3729" data-name="長方形 3729" width="188" height="66" rx="10" transform="translate(507 4573)" fill="#6785c1" opacity="0.4"/>
      <rect id="長方形_3737" data-name="長方形 3737" width="188" height="66" rx="10" transform="translate(1227 4573)" fill="#6785c1" opacity="0.4"/>
      <rect id="長方形_3733" data-name="長方形 3733" width="188" height="66" rx="10" transform="translate(507 4437)" fill="#6785c1" opacity="0.4"/>
      <rect id="長方形_3738" data-name="長方形 3738" width="188" height="66" rx="10" transform="translate(1227 4437)" fill="#6785c1" opacity="0.4"/>
      <rect id="長方形_3731" data-name="長方形 3731" width="188" height="66" rx="10" transform="translate(602 4284)" fill="#6785c1" opacity="0.4"/>
      <rect id="長方形_3739" data-name="長方形 3739" width="188" height="66" rx="10" transform="translate(1132 4284)" fill="#6785c1" opacity="0.4"/>
      <rect id="長方形_3732" data-name="長方形 3732" width="228" height="66" rx="10" transform="translate(846 4206)" fill="#6785c1" opacity="0.4"/>
      <rect id="長方形_3728" data-name="長方形 3728" width="188" height="66" rx="10" transform="translate(543 4651)" fill="#6785c1" opacity="0.4"/>
      <rect id="長方形_3736" data-name="長方形 3736" width="188" height="66" rx="10" transform="translate(1191 4651)" fill="#6785c1" opacity="0.4"/>
      <rect id="長方形_3727" data-name="長方形 3727" width="188" height="66" rx="10" transform="translate(598 4729)" fill="#6785c1" opacity="0.4"/>
      <rect id="長方形_3735" data-name="長方形 3735" width="188" height="66" rx="10" transform="translate(1136 4729)" fill="#6785c1" opacity="0.4"/>
      <path id="線_374" data-name="線 374" d="M722,.5h-2v-1h2Zm-5,0h-3v-1h3Zm-6,0h-3v-1h3Zm-6,0h-3v-1h3Zm-6,0h-3v-1h3Zm-6,0h-3v-1h3Zm-6,0h-3v-1h3Zm-6,0h-3v-1h3Zm-6,0h-3v-1h3Zm-6,0h-3v-1h3Zm-6,0h-3v-1h3Zm-6,0h-3v-1h3Zm-6,0h-3v-1h3Zm-6,0h-3v-1h3Zm-6,0h-3v-1h3Zm-6,0h-3v-1h3Zm-6,0h-3v-1h3Zm-6,0h-3v-1h3Zm-6,0h-3v-1h3Zm-6,0h-3v-1h3Zm-6,0h-3v-1h3Zm-6,0h-3v-1h3Zm-6,0h-3v-1h3Zm-6,0h-3v-1h3Zm-6,0h-3v-1h3Zm-6,0h-3v-1h3Zm-6,0h-3v-1h3Zm-6,0h-3v-1h3Zm-6,0h-3v-1h3Zm-6,0h-3v-1h3Zm-6,0h-3v-1h3Zm-6,0h-3v-1h3Zm-6,0h-3v-1h3Zm-6,0h-3v-1h3Zm-6,0h-3v-1h3Zm-6,0h-3v-1h3Zm-6,0h-3v-1h3Zm-6,0h-3v-1h3Zm-6,0h-3v-1h3Zm-6,0h-3v-1h3Zm-6,0h-3v-1h3Zm-6,0h-3v-1h3Zm-6,0h-3v-1h3Zm-6,0h-3v-1h3Zm-6,0h-3v-1h3Zm-6,0h-3v-1h3Zm-6,0h-3v-1h3Zm-6,0h-3v-1h3Zm-6,0h-3v-1h3Zm-6,0h-3v-1h3Zm-6,0h-3v-1h3Zm-6,0h-3v-1h3Zm-6,0h-3v-1h3Zm-6,0h-3v-1h3Zm-6,0h-3v-1h3Zm-6,0h-3v-1h3Zm-6,0h-3v-1h3Zm-6,0h-3v-1h3Zm-6,0h-3v-1h3Zm-6,0h-3v-1h3Zm-6,0h-3v-1h3Zm-6,0h-3v-1h3Zm-6,0h-3v-1h3Zm-6,0h-3v-1h3Zm-6,0h-3v-1h3Zm-6,0h-3v-1h3Zm-6,0h-3v-1h3Zm-6,0h-3v-1h3Zm-6,0h-3v-1h3Zm-6,0h-3v-1h3Zm-6,0h-3v-1h3Zm-6,0h-3v-1h3Zm-6,0h-3v-1h3Zm-6,0h-3v-1h3Zm-6,0h-3v-1h3Zm-6,0h-3v-1h3Zm-6,0h-3v-1h3Zm-6,0h-3v-1h3Zm-6,0h-3v-1h3Zm-6,0h-3v-1h3Zm-6,0h-3v-1h3Zm-6,0h-3v-1h3Zm-6,0h-3v-1h3Zm-6,0h-3v-1h3Zm-6,0h-3v-1h3Zm-6,0h-3v-1h3Zm-6,0h-3v-1h3Zm-6,0h-3v-1h3Zm-6,0h-3v-1h3Zm-6,0h-3v-1h3Zm-6,0h-3v-1h3Zm-6,0h-3v-1h3Zm-6,0h-3v-1h3Zm-6,0h-3v-1h3Zm-6,0h-3v-1h3Zm-6,0h-3v-1h3Zm-6,0h-3v-1h3Zm-6,0h-3v-1h3Zm-6,0h-3v-1h3Zm-6,0h-3v-1h3Zm-6,0h-3v-1h3Zm-6,0h-3v-1h3Zm-6,0h-3v-1h3Zm-6,0h-3v-1h3Zm-6,0H96v-1h3Zm-6,0H90v-1h3Zm-6,0H84v-1h3Zm-6,0H78v-1h3Zm-6,0H72v-1h3Zm-6,0H66v-1h3Zm-6,0H60v-1h3Zm-6,0H54v-1h3Zm-6,0H48v-1h3Zm-6,0H42v-1h3Zm-6,0H36v-1h3Zm-6,0H30v-1h3Zm-6,0H24v-1h3Zm-6,0H18v-1h3Zm-6,0H12v-1h3ZM9,.5H6v-1H9ZM3,.5H0v-1H3Z" transform="translate(960.5 4178.5) rotate(90)"/>
      <rect id="長方形_3719" data-name="長方形 3719" width="240" height="54" transform="translate(1245 4178)" fill="#070f26"/>
      <text id="リリース管理" transform="translate(580 4693)" font-size="24" font-family="YuGothicUI-Regular, Yu Gothic UI"><tspan x="0" y="0">リリース管理</tspan></text>
      <text id="ヘルプデスク" transform="translate(1229 4693)" font-size="24" font-family="YuGothicUI-Regular, Yu Gothic UI"><tspan x="0" y="0">ヘルプデスク</tspan></text>
      <text id="構成管理" transform="translate(553 4615)" font-size="24" font-family="YuGothicUI-Regular, Yu Gothic UI"><tspan x="0" y="0">構成管理</tspan></text>
      <text id="インシデント管理" transform="translate(1241 4615)" font-size="24" font-family="YuGothicUI-Regular, Yu Gothic UI"><tspan x="0" y="0">インシデント管理</tspan></text>
      <text id="サービスデリバリー" transform="translate(1286 4215)" fill="#fff" font-size="24" font-family="YuGothicUI-Regular, Yu Gothic UI"><tspan x="0" y="0">サービスデリバリー</tspan></text>
      <rect id="長方形_3725" data-name="長方形 3725" width="188" height="66" rx="10" transform="translate(742 4805)" fill="#6785c1" opacity="0.4"/>
      <rect id="長方形_3734" data-name="長方形 3734" width="188" height="66" rx="10" transform="translate(990 4805)" fill="#6785c1" opacity="0.4"/>
      <g id="グループ_2673" data-name="グループ 2673" transform="translate(-52 56)">
        <g id="グループ_2670" data-name="グループ 2670" transform="translate(774 4245)">
          <circle id="楕円形_116" data-name="楕円形 116" cx="238.5" cy="238.5" r="238.5" transform="translate(0 0)" fill="#fff"/>
        </g>
        <g id="サークル" transform="translate(774 4245)">
          <path id="パス_925" data-name="パス 925" d="M108.225,364.681a184.875,184.875,0,0,1,.322-252.435l-7.825-32.479L72.1,72.8a238.4,238.4,0,0,0-3.216,328.219l6.86-28.513Z" transform="translate(-5 -0.124)" fill="#ecc83f"/>
          <path id="パス_926" data-name="パス 926" d="M353.721,112.338a184.875,184.875,0,0,1-.322,252.435l7.825,32.479,28.62,6.967A238.4,238.4,0,0,0,393.061,76l-6.86,28.513Z" transform="translate(20.054 0.106)" fill="#ecc83f"/>
          <path id="パス_927" data-name="パス 927" d="M112.338,108.225a184.875,184.875,0,0,1,252.435.322l32.479-7.825,6.967-28.62A238.4,238.4,0,0,0,76,68.886l28.513,6.86Z" transform="translate(0.106 -5)" fill="#ecc83f"/>
          <path id="パス_928" data-name="パス 928" d="M364.681,353.721a184.875,184.875,0,0,1-252.435-.322l-32.479,7.825L72.8,389.845a238.4,238.4,0,0,0,328.219,3.216l-28.513-6.86Z" transform="translate(-0.124 20.054)" fill="#ecc83f"/>
        </g>
      </g>
      <text id="_SLA契約_サービス基本仕様書_サービス機器基準仕様書_PC環境仕様書" data-name="・ SLA契約（サービス基本仕様書）
・ サービス機器基準仕様書
・ PC環境仕様書" transform="translate(821 4569)" font-size="20" font-family="YuGothicUI-Regular, Yu Gothic UI"><tspan x="0" y="0">・</tspan><tspan y="0" xml:space="preserve" font-family="Roboto-Regular, Roboto"> SLA</tspan><tspan y="0">契約（サービス基本仕様書）</tspan><tspan y="0" font-family="Roboto-Regular, Roboto"></tspan><tspan x="0" y="26">・</tspan><tspan y="26" font-family="Roboto-Regular, Roboto"> </tspan><tspan y="26">サービス機器基準仕様書</tspan><tspan y="26" font-family="Roboto-Regular, Roboto"></tspan><tspan x="0" y="52">・</tspan><tspan y="52" xml:space="preserve" font-family="Roboto-Regular, Roboto"> PC</tspan><tspan y="52">環境仕様書</tspan></text>
      <rect id="長方形_3603" data-name="長方形 3603" width="188" height="66" rx="10" transform="translate(866 4461)" fill="#6785c1" opacity="0.4"/>
      <text id="品質管理" transform="translate(908 4503)" font-size="26" font-family="YuGothicUI-Regular, Yu Gothic UI"><tspan x="0" y="0">品質管理</tspan></text>
      <rect id="長方形_3712" data-name="長方形 3712" width="240" height="54" transform="translate(435 4178)" fill="#070f26"/>
      <rect id="長方形_3717" data-name="長方形 3717" width="240" height="54" transform="translate(435 4846)" fill="#070f26"/>
      <text id="テクニカルサポート" transform="translate(474 4881)" fill="#fff" font-size="24" font-family="YuGothicUI-Regular, Yu Gothic UI"><tspan x="0" y="0">テクニカルサポート</tspan></text>
      <text id="サービスの設計と評価" transform="translate(453 4215)" fill="#fff" font-size="24" font-family="YuGothicUI-Regular, Yu Gothic UI"><tspan x="0" y="0">サービスの設計と評価</tspan></text>
      <text id="セキュリティ管理" transform="translate(617 4772)" font-size="24" font-family="YuGothicUI-Regular, Yu Gothic UI"><tspan x="0" y="0">セキュリティ管理</tspan></text>
      <text id="リモート保守" transform="translate(1173 4772)" font-size="24" font-family="YuGothicUI-Regular, Yu Gothic UI"><tspan x="0" y="0">リモート保守</tspan></text>
      <text id="変更管理" transform="translate(788 4848)" font-size="24" font-family="YuGothicUI-Regular, Yu Gothic UI"><tspan x="0" y="0">変更管理</tspan></text>
      <text id="問題管理" transform="translate(1036 4848)" font-size="24" font-family="YuGothicUI-Regular, Yu Gothic UI"><tspan x="0" y="0">問題管理</tspan></text>
      <text id="SLA管理" transform="translate(651 4326)" font-size="24" font-family="Roboto-Regular, Roboto"><tspan x="0" y="0">SLA</tspan><tspan y="0" font-family="YuGothicUI-Regular, Yu Gothic UI">管理</tspan></text>
      <text id="リリース管理-2" data-name="リリース管理" transform="translate(1169 4326)" font-size="24" font-family="YuGothicUI-Regular, Yu Gothic UI"><tspan x="0" y="0">リリース管理</tspan></text>
      <text id="サービス継続性管理" transform="translate(865 4248)" font-size="24" font-family="YuGothicUI-Regular, Yu Gothic UI"><tspan x="0" y="0">サービス継続性管理</tspan></text>
      <text id="サービス報告" transform="translate(542 4480)" font-size="24" font-family="YuGothicUI-Regular, Yu Gothic UI"><tspan x="0" y="0">サービス報告</tspan></text>
      <text id="サプライヤ管理" transform="translate(1252 4480)" font-size="24" font-family="YuGothicUI-Regular, Yu Gothic UI"><tspan x="0" y="0">サプライヤ管理</tspan></text>
    </g>
  </g>
</svg>
