<svg xmlns="http://www.w3.org/2000/svg" width="558" height="254" viewBox="0 0 558 254">
  <g id="グループ_2667" data-name="グループ 2667" transform="translate(-450 -3335)">
    <rect id="長方形_3650" data-name="長方形 3650" width="265" height="254" transform="translate(450 3335)" fill="#f7f7f7"/>
    <rect id="長方形_3649" data-name="長方形 3649" width="265" height="254" transform="translate(743 3335)" fill="#f8ece9"/>
    <path id="多角形_84" data-name="多角形 84" d="M60.5,1.554,2.146,71H118.854L60.5,1.554M60.5,0,121,72H0Z" transform="translate(815 3390)" fill="#d76b00"/>
    <rect id="長方形_3651" data-name="長方形 3651" width="72" height="73" transform="translate(840 3347)" fill="#f8ece9"/>
    <rect id="長方形_3652" data-name="長方形 3652" width="68" height="73" transform="translate(766 3420)" fill="#f8ece9"/>
    <rect id="長方形_3653" data-name="長方形 3653" width="71" height="73" transform="translate(921 3420)" fill="#f8ece9"/>
    <text id="IT資産と各種インシデント情報を一元的に統括_管理できる環境が必要" data-name="IT資産と各種インシデント情報を一元的に統括・管理できる環境が必要" transform="translate(775 3502.803)" font-size="14" font-family="Roboto-Regular, Roboto"><tspan x="0" y="15">IT</tspan><tspan y="15" font-family="YuGothicUI-Regular, Yu Gothic UI">資産と各種インシデント情報を一</tspan><tspan x="0" y="35" font-family="YuGothicUI-Regular, Yu Gothic UI">元的に統括・管理できる環境が必</tspan><tspan x="0" y="55" font-family="YuGothicUI-Regular, Yu Gothic UI">要</tspan></text>
    <text id="別になっていると_インシデントが発生しているIT資産を把握するまでに時間がかかる" data-name="別になっていると、インシデントが発生しているIT資産を把握するまでに時間がかかる" transform="translate(482 3502.803)" font-size="14" font-family="YuGothicUI-Regular, Yu Gothic UI"><tspan x="0" y="15">別になっていると、インシデントが発生</tspan><tspan x="0" y="35">している</tspan><tspan y="35" font-family="Roboto-Regular, Roboto">IT</tspan><tspan y="35">資産を把握するまでに時</tspan><tspan x="0" y="55">間がかかる</tspan></text>
    <text id="サービスデリバリ" transform="translate(839 3482)" font-size="12" font-family="YuGothicUI-Regular, Yu Gothic UI"><tspan x="-70.688" y="0">サービスデリバリ</tspan></text>
    <text id="サービスデリバリ-2" data-name="サービスデリバリ" transform="translate(555 3482)" font-size="12" font-family="YuGothicUI-Regular, Yu Gothic UI"><tspan x="-70.688" y="0">サービスデリバリ</tspan></text>
    <text id="サポートサービス" transform="translate(951 3482)" font-size="12" font-family="YuGothicUI-Regular, Yu Gothic UI"><tspan x="-35.499" y="0">サポートサービス</tspan></text>
    <text id="サポートサービス-2" data-name="サポートサービス" transform="translate(643 3482)" font-size="12" font-family="YuGothicUI-Regular, Yu Gothic UI"><tspan x="-35.499" y="0">サポートサービス</tspan></text>
    <text id="一元管理" transform="translate(876 3445)" fill="#d76b00" font-size="14" font-family="YuGothicUI-Bold, Yu Gothic UI" font-weight="700"><tspan x="-28" y="0">一元管理</tspan></text>
    <text id="サービス設計" transform="translate(876 3414)" font-size="12" font-family="YuGothicUI-Regular, Yu Gothic UI"><tspan x="-29.549" y="0">サービス設計</tspan></text>
    <text id="サービス設計-2" data-name="サービス設計" transform="translate(581 3414)" font-size="12" font-family="YuGothicUI-Regular, Yu Gothic UI"><tspan x="-29.549" y="0">サービス設計</tspan></text>
    <path id="パス_918" data-name="パス 918" d="M14.795,14.795H0v-1H13.795V0h1Z" transform="translate(715 3461.561) rotate(-45)"/>
    <g id="鉛筆のアイコン素材" transform="translate(859.194 3354.233)">
      <path id="パス_919" data-name="パス 919" d="M39.111,6.815,32.718.423a1.442,1.442,0,0,0-2.039,0L3.689,26.343a1.442,1.442,0,0,0-.36.6L.065,37.669a1.442,1.442,0,0,0,1.8,1.8L12.935,36.1h0L39.111,8.855A1.442,1.442,0,0,0,39.111,6.815ZM4.905,35.91l-1.28-1.28,1.882-6.185L9.136,30.4l1.953,3.63ZM35.054,5.794l-23,23.141L10.6,27.475l23.142-23,1.314,1.314Z" transform="translate(0)"/>
    </g>
    <g id="鉛筆のアイコン素材-2" data-name="鉛筆のアイコン素材" transform="translate(564.194 3354.233)">
      <path id="パス_919-2" data-name="パス 919" d="M39.111,6.815,32.718.423a1.442,1.442,0,0,0-2.039,0L3.689,26.343a1.442,1.442,0,0,0-.36.6L.065,37.669a1.442,1.442,0,0,0,1.8,1.8L12.935,36.1h0L39.111,8.855A1.442,1.442,0,0,0,39.111,6.815ZM4.905,35.91l-1.28-1.28,1.882-6.185L9.136,30.4l1.953,3.63ZM35.054,5.794l-23,23.141L10.6,27.475l23.142-23,1.314,1.314Z" transform="translate(0)" fill="#777"/>
    </g>
    <g id="トラックのアイコン" transform="translate(778.643 3429.802)">
      <path id="パス_804" data-name="パス 804" d="M203.051,82.175h27.821a1.279,1.279,0,0,1,1.242,1.314v19.606a1.278,1.278,0,0,1-1.242,1.312H203.051a1.278,1.278,0,0,1-1.242-1.312V83.489A1.279,1.279,0,0,1,203.051,82.175Z" transform="translate(-201.809 -82.175)"/>
      <path id="パス_805" data-name="パス 805" d="M70.573,354.37a3.692,3.692,0,1,1-3.484,3.685A3.59,3.59,0,0,1,70.573,354.37Z" transform="translate(-30.594 -327.777)"/>
      <path id="パス_806" data-name="パス 806" d="M1.035,154.351h29.7a1.067,1.067,0,0,0,1.035-1.1V136.909a1.066,1.066,0,0,1,1.035-1.095h9.432a1.013,1.013,0,0,1,.794.393l6.754,8.571a1.129,1.129,0,0,1,.24.7v11.45a1.066,1.066,0,0,1-1.035,1.094h-5.2a4.5,4.5,0,0,0-7.6,0H14.938a4.5,4.5,0,0,0-7.6,0h-6.3A1.066,1.066,0,0,1,0,156.928v-1.482A1.066,1.066,0,0,1,1.035,154.351Zm45.205-8v-.758a1.176,1.176,0,0,0-.238-.713l-4.311-5.614a1.047,1.047,0,0,0-.828-.417H36.639a1.1,1.1,0,0,0-1.068,1.128v6.373a1.1,1.1,0,0,0,1.068,1.128h8.535A1.1,1.1,0,0,0,46.24,146.349Z" transform="translate(0 -130.574)"/>
      <path id="パス_807" data-name="パス 807" d="M365.831,354.37a3.692,3.692,0,1,1-3.485,3.685A3.589,3.589,0,0,1,365.831,354.37Z" transform="translate(-354.696 -327.777)"/>
    </g>
    <g id="トラックのアイコン-2" data-name="トラックのアイコン" transform="translate(494.643 3429.802)">
      <path id="パス_804-2" data-name="パス 804" d="M203.051,82.175h27.821a1.279,1.279,0,0,1,1.242,1.314v19.606a1.278,1.278,0,0,1-1.242,1.312H203.051a1.278,1.278,0,0,1-1.242-1.312V83.489A1.279,1.279,0,0,1,203.051,82.175Z" transform="translate(-201.809 -82.175)" fill="#777"/>
      <path id="パス_805-2" data-name="パス 805" d="M70.573,354.37a3.692,3.692,0,1,1-3.484,3.685A3.59,3.59,0,0,1,70.573,354.37Z" transform="translate(-30.594 -327.777)" fill="#777"/>
      <path id="パス_806-2" data-name="パス 806" d="M1.035,154.351h29.7a1.067,1.067,0,0,0,1.035-1.1V136.909a1.066,1.066,0,0,1,1.035-1.095h9.432a1.013,1.013,0,0,1,.794.393l6.754,8.571a1.129,1.129,0,0,1,.24.7v11.45a1.066,1.066,0,0,1-1.035,1.094h-5.2a4.5,4.5,0,0,0-7.6,0H14.938a4.5,4.5,0,0,0-7.6,0h-6.3A1.066,1.066,0,0,1,0,156.928v-1.482A1.066,1.066,0,0,1,1.035,154.351Zm45.205-8v-.758a1.176,1.176,0,0,0-.238-.713l-4.311-5.614a1.047,1.047,0,0,0-.828-.417H36.639a1.1,1.1,0,0,0-1.068,1.128v6.373a1.1,1.1,0,0,0,1.068,1.128h8.535A1.1,1.1,0,0,0,46.24,146.349Z" transform="translate(0 -130.574)" fill="#777"/>
      <path id="パス_807-2" data-name="パス 807" d="M365.831,354.37a3.692,3.692,0,1,1-3.485,3.685A3.589,3.589,0,0,1,365.831,354.37Z" transform="translate(-354.696 -327.777)" fill="#777"/>
    </g>
    <g id="コールセンターの人物アイコン素材_その3" data-name="コールセンターの人物アイコン素材 その3" transform="translate(873.343 3412.739)">
      <path id="パス_772" data-name="パス 772" d="M96.378,325.655l-.361-2.088a5.748,5.748,0,0,0-3.346-4.18l-7.6-3.491c-.933-.428-1.2-1.78-1.226-1.853a.486.486,0,0,0-.435-.195h-.019a.45.45,0,0,0-.38.315l-.877,3.077-5.478,9.941-5.464-9.908-.891-3.11a.473.473,0,0,0-.447-.32.465.465,0,0,0-.412.259,2.722,2.722,0,0,1-1.2,1.794l-7.6,3.491a5.75,5.75,0,0,0-3.345,4.18l-.361,2.088a2.691,2.691,0,0,0,.838,2.54c.092.069.206.17.352.3,1.4,1.241,5.655,5.017,18.532,5.017s17.132-3.776,18.531-5.017c.146-.129.261-.231.353-.3A2.69,2.69,0,0,0,96.378,325.655Z" transform="translate(0 -282.69)"/>
      <path id="パス_773" data-name="パス 773" d="M168.056,59.868c1.841,3.456,4.363,8.19,5.463,8.877l.209.13.766-5.977a9.12,9.12,0,0,0-2.377-7,10.714,10.714,0,0,0-15.364,0,9.123,9.123,0,0,0-2.377,7l.7,5.917.233-.254a13.286,13.286,0,0,1,2.442-1.762,27.348,27.348,0,0,0,9.337-8.748C167.363,58.567,167.693,59.186,168.056,59.868Z" transform="translate(-87.778 -47.428)"/>
      <path id="パス_774" data-name="パス 774" d="M92.55,24.089A1.179,1.179,0,0,0,93.7,25a1.2,1.2,0,0,0,.276-.033l1.993-.479a1.177,1.177,0,0,0,.826-.732l.082.005-.037-.149a1.171,1.171,0,0,0,0-.55l-1.039-4.3a24.013,24.013,0,0,1-.376-3.811,12.4,12.4,0,1,1,24.793,0,23.277,23.277,0,0,1-.394,3.859l-1.021,4.252a1.085,1.085,0,0,0-.028.194l-.041.091a7.794,7.794,0,0,1-5.655,3.839,1.273,1.273,0,0,0-1.121-.667h-2.571a1.277,1.277,0,0,0-1.276,1.276V28.8a1.277,1.277,0,0,0,1.276,1.276h2.571a1.277,1.277,0,0,0,1.194-.841,10.935,10.935,0,0,0,5.249-2.344,9.008,9.008,0,0,0,1.934-2.246l1.334.32a1.2,1.2,0,0,0,.276.033,1.179,1.179,0,0,0,1.149-.907l1.021-4.252a1.185,1.185,0,0,0-.874-1.426l-.737-.176a24.083,24.083,0,0,0,.264-3.286,14.948,14.948,0,0,0-29.9,0,24.06,24.06,0,0,0,.264,3.285l-.738.177a1.184,1.184,0,0,0-.874,1.426Z" transform="translate(-31.168)"/>
    </g>
    <g id="コールセンターの人物アイコン素材_その3-2" data-name="コールセンターの人物アイコン素材 その3" transform="translate(565.343 3412.739)">
      <path id="パス_772-2" data-name="パス 772" d="M96.378,325.655l-.361-2.088a5.748,5.748,0,0,0-3.346-4.18l-7.6-3.491c-.933-.428-1.2-1.78-1.226-1.853a.486.486,0,0,0-.435-.195h-.019a.45.45,0,0,0-.38.315l-.877,3.077-5.478,9.941-5.464-9.908-.891-3.11a.473.473,0,0,0-.447-.32.465.465,0,0,0-.412.259,2.722,2.722,0,0,1-1.2,1.794l-7.6,3.491a5.75,5.75,0,0,0-3.345,4.18l-.361,2.088a2.691,2.691,0,0,0,.838,2.54c.092.069.206.17.352.3,1.4,1.241,5.655,5.017,18.532,5.017s17.132-3.776,18.531-5.017c.146-.129.261-.231.353-.3A2.69,2.69,0,0,0,96.378,325.655Z" transform="translate(0 -282.69)" fill="#777"/>
      <path id="パス_773-2" data-name="パス 773" d="M168.056,59.868c1.841,3.456,4.363,8.19,5.463,8.877l.209.13.766-5.977a9.12,9.12,0,0,0-2.377-7,10.714,10.714,0,0,0-15.364,0,9.123,9.123,0,0,0-2.377,7l.7,5.917.233-.254a13.286,13.286,0,0,1,2.442-1.762,27.348,27.348,0,0,0,9.337-8.748C167.363,58.567,167.693,59.186,168.056,59.868Z" transform="translate(-87.778 -47.428)" fill="#777"/>
      <path id="パス_774-2" data-name="パス 774" d="M92.55,24.089A1.179,1.179,0,0,0,93.7,25a1.2,1.2,0,0,0,.276-.033l1.993-.479a1.177,1.177,0,0,0,.826-.732l.082.005-.037-.149a1.171,1.171,0,0,0,0-.55l-1.039-4.3a24.013,24.013,0,0,1-.376-3.811,12.4,12.4,0,1,1,24.793,0,23.277,23.277,0,0,1-.394,3.859l-1.021,4.252a1.085,1.085,0,0,0-.028.194l-.041.091a7.794,7.794,0,0,1-5.655,3.839,1.273,1.273,0,0,0-1.121-.667h-2.571a1.277,1.277,0,0,0-1.276,1.276V28.8a1.277,1.277,0,0,0,1.276,1.276h2.571a1.277,1.277,0,0,0,1.194-.841,10.935,10.935,0,0,0,5.249-2.344,9.008,9.008,0,0,0,1.934-2.246l1.334.32a1.2,1.2,0,0,0,.276.033,1.179,1.179,0,0,0,1.149-.907l1.021-4.252a1.185,1.185,0,0,0-.874-1.426l-.737-.176a24.083,24.083,0,0,0,.264-3.286,14.948,14.948,0,0,0-29.9,0,24.06,24.06,0,0,0,.264,3.285l-.738.177a1.184,1.184,0,0,0-.874,1.426Z" transform="translate(-31.168)" fill="#777"/>
    </g>
  </g>
</svg>
