<svg xmlns="http://www.w3.org/2000/svg" width="558" height="254"><g data-name="グループ 2667"><path data-name="長方形 3650" fill="#f7f7f7" d="M0 0h265v254H0z"/><path data-name="長方形 3649" fill="#f8ece9" d="M293 0h265v254H293z"/><path data-name="多角形 84" d="M425.5 56.554L367.146 126h116.708L425.5 56.554m0-1.554l60.5 72H365z" fill="#d76b00"/><path data-name="長方形 3651" fill="#f8ece9" d="M390 12h72v73h-72z"/><path data-name="長方形 3652" fill="#f8ece9" d="M316 85h68v73h-68z"/><path data-name="長方形 3653" fill="#f8ece9" d="M471 85h71v73h-71z"/><text data-name="IT資産と各種インシデント情報を一元的に統括・管理できる環境が必要" transform="translate(325 167.803)" font-size="14" font-family="Roboto-Regular, Roboto"><tspan x="0" y="15">IT</tspan><tspan y="15" font-family="YuGothicUI-Regular, Yu Gothic UI">資産と各種インシデント情報を一</tspan><tspan x="0" y="35" font-family="YuGothicUI-Regular, Yu Gothic UI">元的に統括・管理できる環境が必</tspan><tspan x="0" y="55" font-family="YuGothicUI-Regular, Yu Gothic UI">要</tspan></text><text data-name="別になっていると、インシデントが発生しているIT資産を把握するまでに時間がかかる" transform="translate(32 167.803)" font-size="14" font-family="YuGothicUI-Regular, Yu Gothic UI"><tspan x="0" y="15">別になっていると、インシデントが発生</tspan><tspan x="0" y="35">している</tspan><tspan y="35" font-family="Roboto-Regular, Roboto">IT</tspan><tspan y="35">資産を把握するまでに時</tspan><tspan x="0" y="55">間がかかる</tspan></text><text transform="translate(389 147)" font-size="12" font-family="YuGothicUI-Regular, Yu Gothic UI"><tspan x="-70.688" y="0">サービスデリバリ</tspan></text><text data-name="サービスデリバリ" transform="translate(105 147)" font-size="12" font-family="YuGothicUI-Regular, Yu Gothic UI"><tspan x="-70.688" y="0">サービスデリバリ</tspan></text><text transform="translate(501 147)" font-size="12" font-family="YuGothicUI-Regular, Yu Gothic UI"><tspan x="-35.499" y="0">サポートサービス</tspan></text><text data-name="サポートサービス" transform="translate(193 147)" font-size="12" font-family="YuGothicUI-Regular, Yu Gothic UI"><tspan x="-35.499" y="0">サポートサービス</tspan></text><text transform="translate(426 110)" fill="#d76b00" font-size="14" font-family="YuGothicUI-Bold, Yu Gothic UI" font-weight="700"><tspan x="-28" y="0">一元管理</tspan></text><text transform="translate(426 79)" font-size="12" font-family="YuGothicUI-Regular, Yu Gothic UI"><tspan x="-29.549" y="0">サービス設計</tspan></text><text data-name="サービス設計" transform="translate(131 79)" font-size="12" font-family="YuGothicUI-Regular, Yu Gothic UI"><tspan x="-29.549" y="0">サービス設計</tspan></text><path data-name="パス 918" d="M285.923 126.561l-10.461 10.462-.707-.707 9.754-9.755-9.754-9.755.707-.707z"/><path data-name="パス 919" d="M448.305 26.048l-6.393-6.392a1.442 1.442 0 00-2.039 0l-26.99 25.92a1.442 1.442 0 00-.36.6l-3.264 10.726a1.442 1.442 0 001.8 1.8l11.07-3.369 26.176-27.245a1.442 1.442 0 000-2.04zm-34.206 29.095l-1.28-1.28 1.882-6.185 3.629 1.955 1.953 3.63zm30.149-30.116l-23 23.141-1.454-1.46 23.142-23 1.314 1.314z"/><g data-name="鉛筆のアイコン素材"><path data-name="パス 919" d="M153.305 26.048l-6.393-6.392a1.442 1.442 0 00-2.039 0l-26.99 25.92a1.442 1.442 0 00-.36.6l-3.264 10.726a1.442 1.442 0 001.8 1.8l11.07-3.369 26.176-27.245a1.442 1.442 0 000-2.04zm-34.206 29.095l-1.28-1.28 1.882-6.185 3.629 1.955 1.953 3.63zm30.149-30.116l-23 23.141-1.454-1.46 23.142-23 1.314 1.314z" fill="#777"/></g><path data-name="パス 804" d="M329.885 94.802h27.821a1.279 1.279 0 011.242 1.314v19.606a1.278 1.278 0 01-1.242 1.312h-27.821a1.278 1.278 0 01-1.242-1.312V96.116a1.279 1.279 0 011.242-1.314z"/><path data-name="パス 805" d="M368.622 121.395a3.692 3.692 0 11-3.484 3.685 3.59 3.59 0 013.484-3.685z"/><path data-name="パス 806" d="M329.678 118.579h29.7a1.067 1.067 0 001.035-1.1v-16.342a1.066 1.066 0 011.035-1.095h9.432a1.013 1.013 0 01.794.393l6.754 8.571a1.129 1.129 0 01.24.7v11.45a1.066 1.066 0 01-1.035 1.094h-5.2a4.5 4.5 0 00-7.6 0h-21.252a4.5 4.5 0 00-7.6 0h-6.3a1.066 1.066 0 01-1.038-1.094v-1.482a1.066 1.066 0 011.035-1.095zm45.205-8v-.758a1.176 1.176 0 00-.238-.713l-4.311-5.614a1.047 1.047 0 00-.828-.417h-4.224a1.1 1.1 0 00-1.068 1.128v6.373a1.1 1.1 0 001.068 1.128h8.535a1.1 1.1 0 001.066-1.129z"/><path data-name="パス 807" d="M339.778 121.395a3.692 3.692 0 11-3.485 3.685 3.589 3.589 0 013.485-3.685z"/><g data-name="トラックのアイコン" fill="#777"><path data-name="パス 804" d="M45.885 94.802h27.821a1.279 1.279 0 011.242 1.314v19.606a1.278 1.278 0 01-1.242 1.312H45.885a1.278 1.278 0 01-1.242-1.312V96.116a1.279 1.279 0 011.242-1.314z"/><path data-name="パス 805" d="M84.622 121.395a3.692 3.692 0 11-3.484 3.685 3.59 3.59 0 013.484-3.685z"/><path data-name="パス 806" d="M45.678 118.579h29.7a1.067 1.067 0 001.035-1.1v-16.342a1.066 1.066 0 011.035-1.095h9.432a1.013 1.013 0 01.794.393l6.754 8.571a1.129 1.129 0 01.24.7v11.45a1.066 1.066 0 01-1.035 1.094h-5.2a4.5 4.5 0 00-7.6 0H59.581a4.5 4.5 0 00-7.6 0h-6.3a1.066 1.066 0 01-1.038-1.094v-1.482a1.066 1.066 0 011.035-1.095zm45.205-8v-.758a1.176 1.176 0 00-.238-.713l-4.311-5.614a1.047 1.047 0 00-.828-.417h-4.224a1.1 1.1 0 00-1.068 1.128v6.373a1.1 1.1 0 001.068 1.128h8.535a1.1 1.1 0 001.066-1.129z"/><path data-name="パス 807" d="M55.778 121.395a3.692 3.692 0 11-3.485 3.685 3.589 3.589 0 013.485-3.685z"/></g><g data-name="コールセンターの人物アイコン素材 その3"><path data-name="パス 772" d="M519.721 120.704l-.361-2.088a5.748 5.748 0 00-3.346-4.18l-7.6-3.491c-.933-.428-1.2-1.78-1.226-1.853a.486.486 0 00-.435-.195h-.019a.45.45 0 00-.38.315l-.877 3.077-5.478 9.941-5.464-9.908-.891-3.11a.473.473 0 00-.447-.32.465.465 0 00-.412.259 2.722 2.722 0 01-1.2 1.794l-7.6 3.491a5.75 5.75 0 00-3.345 4.18l-.361 2.088a2.691 2.691 0 00.838 2.54c.092.069.206.17.352.3 1.4 1.241 5.655 5.017 18.532 5.017s17.132-3.776 18.531-5.017c.146-.129.261-.231.353-.3a2.69 2.69 0 00.836-2.54z"/><path data-name="パス 773" d="M503.621 90.179c1.841 3.456 4.363 8.19 5.463 8.877l.209.13.766-5.977a9.12 9.12 0 00-2.377-7 10.714 10.714 0 00-15.364 0 9.123 9.123 0 00-2.377 7l.7 5.917.233-.254a13.286 13.286 0 012.442-1.762 27.348 27.348 0 009.337-8.748l.968 1.817z"/><path data-name="パス 774" d="M484.725 101.828a1.179 1.179 0 001.15.911 1.2 1.2 0 00.276-.033l1.993-.479a1.177 1.177 0 00.826-.732l.082.005-.037-.149a1.171 1.171 0 000-.55l-1.039-4.3a24.013 24.013 0 01-.376-3.811 12.4 12.4 0 1124.793 0 23.277 23.277 0 01-.394 3.859l-1.021 4.252a1.085 1.085 0 00-.028.194l-.041.091a7.794 7.794 0 01-5.655 3.839 1.273 1.273 0 00-1.121-.667h-2.571a1.277 1.277 0 00-1.276 1.276v1.005a1.277 1.277 0 001.276 1.276h2.571a1.277 1.277 0 001.194-.841 10.935 10.935 0 005.249-2.344 9.008 9.008 0 001.934-2.246l1.334.32a1.2 1.2 0 00.276.033 1.179 1.179 0 001.149-.907l1.021-4.252a1.185 1.185 0 00-.874-1.426l-.737-.176a24.083 24.083 0 00.264-3.286 14.95 14.95 0 00-29.9 0 24.06 24.06 0 00.264 3.285l-.738.177a1.184 1.184 0 00-.874 1.426z"/></g><g data-name="コールセンターの人物アイコン素材 その3" fill="#777"><path data-name="パス 772" d="M211.721 120.704l-.361-2.088a5.748 5.748 0 00-3.346-4.18l-7.6-3.491c-.933-.428-1.2-1.78-1.226-1.853a.486.486 0 00-.435-.195h-.019a.45.45 0 00-.38.315l-.877 3.077-5.478 9.941-5.464-9.908-.891-3.11a.473.473 0 00-.447-.32.465.465 0 00-.412.259 2.722 2.722 0 01-1.2 1.794l-7.6 3.491a5.75 5.75 0 00-3.345 4.18l-.361 2.088a2.691 2.691 0 00.838 2.54c.092.069.206.17.352.3 1.4 1.241 5.655 5.017 18.532 5.017s17.132-3.776 18.531-5.017c.146-.129.261-.231.353-.3a2.69 2.69 0 00.836-2.54z"/><path data-name="パス 773" d="M195.621 90.179c1.841 3.456 4.363 8.19 5.463 8.877l.209.13.766-5.977a9.12 9.12 0 00-2.377-7 10.714 10.714 0 00-15.364 0 9.123 9.123 0 00-2.377 7l.7 5.917.233-.254a13.286 13.286 0 012.442-1.762 27.348 27.348 0 009.337-8.748l.968 1.817z"/><path data-name="パス 774" d="M176.725 101.828a1.179 1.179 0 001.15.911 1.2 1.2 0 00.276-.033l1.993-.479a1.177 1.177 0 00.826-.732l.082.005-.037-.149a1.171 1.171 0 000-.55l-1.039-4.3a24.013 24.013 0 01-.376-3.811 12.4 12.4 0 1124.793 0 23.277 23.277 0 01-.394 3.859l-1.021 4.252a1.085 1.085 0 00-.028.194l-.041.091a7.794 7.794 0 01-5.655 3.839 1.273 1.273 0 00-1.121-.667h-2.571a1.277 1.277 0 00-1.276 1.276v1.005a1.277 1.277 0 001.276 1.276h2.571a1.277 1.277 0 001.194-.841 10.935 10.935 0 005.249-2.344 9.008 9.008 0 001.934-2.246l1.334.32a1.2 1.2 0 00.276.033 1.179 1.179 0 001.149-.907l1.021-4.252a1.185 1.185 0 00-.874-1.426l-.737-.176a24.083 24.083 0 00.264-3.286 14.95 14.95 0 00-29.9 0 24.06 24.06 0 00.264 3.285l-.738.177a1.184 1.184 0 00-.874 1.426z"/></g></g></svg>