<svg xmlns="http://www.w3.org/2000/svg" width="558" height="329" viewBox="0 0 558 329">
  <g id="グループ_2700" data-name="グループ 2700" transform="translate(-450 -3261)">
    <g id="グループ_2699" data-name="グループ 2699">
      <g id="グループ_2537" data-name="グループ 2537" transform="translate(0 1185)">
        <rect id="長方形_3532" data-name="長方形 3532" width="279" height="306" transform="translate(729 2099)" fill="#f8ece9"/>
        <rect id="長方形_3533" data-name="長方形 3533" width="279" height="306" transform="translate(450 2099)" fill="#e5f7f1"/>
      </g>
      <text id="お客様環境" transform="translate(556 3276)" fill="#00b176" font-size="14" font-family="YuGothicUI-Bold, Yu Gothic UI" font-weight="700"><tspan x="0" y="0">お客様環境</tspan></text>
      <text id="Wave_PC_Mate" data-name="Wave PC Mate" transform="translate(823 3274)" fill="#bc4328" font-size="14" font-family="Roboto-Bold, Roboto" font-weight="700"><tspan x="0" y="0">Wave PC Mate</tspan></text>
    </g>
    <g id="グループ_2556" data-name="グループ 2556" transform="translate(2)">
      <text id="ソフトウェア_配布サーバ" data-name="ソフトウェア
配布サーバ" transform="translate(903 3545)" font-size="14" font-family="YuGothicUI-Regular, Yu Gothic UI"><tspan x="0" y="0">ソフトウェア</tspan><tspan y="0" font-family="Roboto-Regular, Roboto"></tspan><tspan x="0" y="18">配布サーバ</tspan></text>
      <text id="自動アップデート" transform="translate(640 3450)" fill="#d76b00" font-size="16" font-family="YuGothicUI-Bold, Yu Gothic UI" font-weight="700"><tspan x="0" y="0">自動アップデート</tspan></text>
      <text id="自動アップデート-2" data-name="自動アップデート" transform="translate(589 3537)" fill="#d76b00" font-size="16" font-family="YuGothicUI-Bold, Yu Gothic UI" font-weight="700"><tspan x="0" y="0">自動アップデート</tspan></text>
      <g id="サーバーのフリーアイコン素材" transform="translate(907 3449.199)">
        <path id="パス_729" data-name="パス 729" d="M133.105,370.6V366.25H128.23V370.6a4.013,4.013,0,0,0-.729.729h-11V376.2h11a3.971,3.971,0,0,0,6.332,0h11v-4.875h-11A4.012,4.012,0,0,0,133.105,370.6Z" transform="translate(-104.668 -300.078)"/>
        <path id="パス_730" data-name="パス 730" d="M0,32.25V46.875H52V32.25Zm44.281,7.313a2.438,2.438,0,1,1-2.437-2.437A2.438,2.438,0,0,1,44.281,39.563ZM4.88,42.8l3.245-6.489h2.249l1,.011L8.125,42.813H5.871Zm6.5,0,3.245-6.489h2.249l1,.011-3.245,6.489H12.371Zm6.5,0,3.245-6.489h2.249l1,.011-3.245,6.489H18.871Z"/>
        <path id="パス_731" data-name="パス 731" d="M28.438,190.25H23.563v1.828H0V206.7H52V192.078H28.438ZM4.88,202.63l3.245-6.489h2.249l1,.011-3.245,6.489H5.871Zm6.5,0,3.245-6.489h2.249l1,.011-3.245,6.489H12.371Zm6.5,0,3.245-6.489h2.249l1,.011-3.245,6.489H18.871Zm21.526-3.239a2.438,2.438,0,1,1,2.438,2.438A2.437,2.437,0,0,1,39.406,199.391Z" transform="translate(0 -141.953)"/>
      </g>
      <text id="インベントリ情報収集サーバ" transform="translate(740.324 3353)" font-size="14" font-family="YuGothicUI-Regular, Yu Gothic UI"><tspan x="2.557" y="15">インベントリ情報</tspan><tspan x="17.617" y="33">収集サーバ</tspan></text>
      <text id="Virus定義ファイル配布サーバ" transform="translate(740.324 3469.083)" font-size="14" font-family="Roboto-Regular, Roboto"><tspan x="3.47" y="15">Virus</tspan><tspan y="15" font-family="YuGothicUI-Regular, Yu Gothic UI">定義ファイ</tspan><tspan x="11.833" y="33" font-family="YuGothicUI-Regular, Yu Gothic UI">ル配布サーバ</tspan></text>
      <text id="お客様PC" transform="translate(521 3455.449)" font-size="14" font-family="YuGothicUI-Regular, Yu Gothic UI"><tspan x="4.885" y="15">お客様</tspan><tspan y="15" font-family="Roboto-Regular, Roboto">PC</tspan></text>
      <path id="パス_732" data-name="パス 732" d="M2913.458-1179.546l-193.488-.022v-1l193.488.022Z" transform="translate(-2165.3 4725.569)" fill="#d76b00"/>
      <path id="パス_770" data-name="パス 770" d="M2756.106-1179.546H2616.282v-1H2752.81l-7.13-4.766.556-.831Z" transform="translate(-2006.958 4512.546)" fill="#d76b00"/>
      <path id="パス_784" data-name="パス 784" d="M2694.635-1179.546l9.871-6.6.556.831-7.13,4.766h78.326v1Z" transform="translate(-1867.782 4639.938)" fill="#d76b00"/>
      <path id="パス_786" data-name="パス 786" d="M2693.282-1179.546v-1h82.974v1Z" transform="translate(-1946.782 4639.938)" fill="#d76b00" opacity="0.4"/>
      <path id="パス_788" data-name="パス 788" d="M2797.343-1179.543l-104.06,0v-1l104.06,0Z" transform="translate(-272.046 644.084) rotate(90)" fill="#d76b00" opacity="0.4"/>
      <path id="パス_787" data-name="パス 787" d="M2693.282-1179.546v-1h82.974v1Z" transform="translate(-1946.782 4512.663)" fill="#d76b00" opacity="0.4"/>
      <path id="パス_768" data-name="パス 768" d="M2725.106-1179.546h-22.824v-1h19.528l-7.13-4.766.556-.831Z" transform="translate(-272.046 629.718) rotate(90)" fill="#d76b00"/>
      <path id="パス_782" data-name="パス 782" d="M21.176.5H0v-1H21.176Z" transform="translate(908 3459.892) rotate(-90)" fill="#d76b00"/>
      <path id="パス_766" data-name="パス 766" d="M2891.458-1179.546H2764.635l9.871-6.6.556.831-7.13,4.766h123.528Z" transform="translate(-2144.31 4639.938)" fill="#d76b00"/>
      <path id="パス_785" data-name="パス 785" d="M2830.458-1179.546h-61.824l9.871-6.6.556.831-7.13,4.766h58.528Z" transform="translate(-625.375 715.652) rotate(90)" fill="#d76b00"/>
      <rect id="長方形_3534" data-name="長方形 3534" width="124" height="40" transform="translate(492 3313)" fill="#fff"/>
      <path id="長方形_3534_-_アウトライン" data-name="長方形 3534 - アウトライン" d="M1,1V39H123V1H1M0,0H124V40H0Z" transform="translate(492 3313)" fill="#00b176"/>
      <text id="アップデート情報" transform="translate(509 3339)" font-size="14" font-family="YuGothicUI-Bold, Yu Gothic UI" font-weight="700"><tspan x="0" y="0">アップデート情報</tspan></text>
      <rect id="長方形_3535" data-name="長方形 3535" width="141" height="40" transform="translate(746 3526)" fill="#fff"/>
      <path id="長方形_3535_-_アウトライン" data-name="長方形 3535 - アウトライン" d="M1,1V39H140V1H1M0,0H141V40H0Z" transform="translate(746 3526)" fill="#bc4328"/>
      <text id="ファイル配布_PUSH_" data-name="ファイル配布 (PUSH)" transform="translate(818 3551)" font-size="14" font-family="YuGothicUI-Bold, Yu Gothic UI" font-weight="700"><tspan x="-59.503" y="0">ファイル配布</tspan><tspan y="0" xml:space="preserve" font-family="Roboto-Bold, Roboto"> (PUSH)</tspan></text>
      <path id="パス_769" data-name="パス 769" d="M79,.5H0v-1H79Z" transform="translate(828.75 3332.616)" fill="#d76b00"/>
      <g id="_1000_F_375195713_UvwkTpKVrPXwjjdi6hKEya9OrJUE8RIT" data-name="1000_F_375195713_UvwkTpKVrPXwjjdi6hKEya9OrJUE8RIT" transform="translate(490.899 3368.387)">
        <path id="パス_726" data-name="パス 726" d="M64.631,7.393V67.725H57.72V54q0-23.627-.02-47.233c0-4.942,1.728-6.73,6.59-6.73q44.6-.03,89.222,0c4.42,0,6.529,1.848,6.55,5.887q.06,30.2,0,60.412a11.984,11.984,0,0,1-.181,1.386h-6.75V7.393Z" transform="translate(-46.028 0)"/>
        <path id="パス_727" data-name="パス 727" d="M119.418,364.208H6.147a5.662,5.662,0,0,1-5.625-4.942l-.4-3.094A2.273,2.273,0,0,1,2.37,353.6h120.8a2.271,2.271,0,0,1,2.25,2.531l-.342,3.034A5.711,5.711,0,0,1,119.418,364.208Z" transform="translate(0 -282.54)"/>
        <path id="パス_728" data-name="パス 728" d="M286.2,377.01H268.882a.381.381,0,0,1-.382-.382v-1.446a.381.381,0,0,1,.382-.382H286.2a.382.382,0,0,1,.382.382v1.446A.4.4,0,0,1,286.2,377.01Z" transform="translate(-214.477 -299.48)" fill="#e5f7f1"/>
      </g>
      <g id="サーバーのフリーアイコン素材-2" data-name="サーバーのフリーアイコン素材" transform="translate(766.82 3281.034)">
        <path id="パス_729-2" data-name="パス 729" d="M129.915,369.764V366.25h-3.938v3.514a3.242,3.242,0,0,0-.589.589H116.5v3.938h8.888a3.208,3.208,0,0,0,5.115,0h8.888v-3.938H130.5A3.241,3.241,0,0,0,129.915,369.764Z" transform="translate(-106.942 -306.597)"/>
        <path id="パス_729_-_アウトライン" data-name="パス 729 - アウトライン" d="M125.976,366.25v3.514a3.242,3.242,0,0,0-.589.589H116.5v3.938h8.888a3.208,3.208,0,0,0,5.115,0h8.888v-3.938H130.5a3.241,3.241,0,0,0-.589-.589V366.25h-3.938m-1.2-1.2h6.338v4.1h9.476v6.338H131.04a4.4,4.4,0,0,1-6.189,0H115.3v-6.338h9.476Z" transform="translate(-106.942 -306.597)" fill="#f8ece9"/>
        <path id="パス_730-2" data-name="パス 730" d="M0,32.25V44.065H42.008V32.25Zm35.772,5.907A1.969,1.969,0,1,1,33.8,36.188,1.969,1.969,0,0,1,35.772,38.157ZM3.943,40.774l2.621-5.242H8.381l.8.009L6.564,40.783H4.743Zm5.251,0,2.621-5.242h1.817l.8.009-2.621,5.242H9.994Zm5.251,0,2.621-5.242h1.817l.8.009-2.621,5.242H15.245Z"/>
        <path id="パス_730_-_アウトライン" data-name="パス 730 - アウトライン" d="M0,32.25V44.065H42.008V32.25H0m6.564,8.533H4.743l-.8-.009,2.621-5.242H8.381l.8.009L6.564,40.783m5.251,0H9.994l-.8-.009,2.621-5.242h1.817l.8.009-2.621,5.242m5.251,0H15.245l-.8-.009,2.621-5.242h1.817l.8.009-2.621,5.242M33.8,40.126a1.969,1.969,0,1,1,1.969-1.969A1.969,1.969,0,0,1,33.8,40.126m-35-9.076H43.208V45.265H-1.2Zm35,7.876a.769.769,0,1,0-.769-.769A.77.77,0,0,0,33.8,38.926Z" fill="#f8ece9"/>
        <path id="パス_731-2" data-name="パス 731" d="M22.973,190.25H19.035v1.477H0v11.815H42.008V191.727H22.973Zm-19.03,10,2.621-5.242H8.381l.8.009L6.564,200.26H4.743Zm5.251,0,2.621-5.242h1.817l.8.009-2.621,5.242H9.994Zm5.251,0,2.621-5.242h1.817l.8.009-2.621,5.242H15.245Zm17.39-2.617A1.969,1.969,0,1,1,33.8,199.6,1.969,1.969,0,0,1,31.834,197.634Z" transform="translate(0 -145.037)"/>
        <path id="パス_731_-_アウトライン" data-name="パス 731 - アウトライン" d="M19.035,190.25v1.477H0v11.815H42.008V191.727H22.973V190.25H19.035M6.564,200.26H4.743l-.8-.009,2.621-5.242H8.381l.8.009L6.564,200.26m5.251,0H9.994l-.8-.009,2.621-5.242h1.817l.8.009-2.621,5.242m5.251,0H15.245l-.8-.009,2.621-5.242h1.817l.8.009-2.621,5.242M33.8,199.6a1.969,1.969,0,1,1,1.969-1.969A1.969,1.969,0,0,1,33.8,199.6M17.835,189.05h6.338v1.477H43.208v14.215H-1.2V190.527H17.835ZM33.8,198.4a.769.769,0,1,0-.769-.769A.77.77,0,0,0,33.8,198.4Z" transform="translate(0 -145.037)" fill="#f8ece9"/>
      </g>
      <g id="サーバーのフリーアイコン素材-3" data-name="サーバーのフリーアイコン素材" transform="translate(886.746 3327.015)">
        <path id="パス_729-3" data-name="パス 729" d="M129.915,369.764V366.25h-3.938v3.514a3.242,3.242,0,0,0-.589.589H116.5v3.938h8.888a3.208,3.208,0,0,0,5.115,0h8.888v-3.938H130.5A3.241,3.241,0,0,0,129.915,369.764Z" transform="translate(-106.942 -306.597)"/>
        <path id="パス_729_-_アウトライン-2" data-name="パス 729 - アウトライン" d="M125.976,366.25v3.514a3.242,3.242,0,0,0-.589.589H116.5v3.938h8.888a3.208,3.208,0,0,0,5.115,0h8.888v-3.938H130.5a3.241,3.241,0,0,0-.589-.589V366.25h-3.938m-1.2-1.2h6.338v4.1h9.476v6.338H131.04a4.4,4.4,0,0,1-6.189,0H115.3v-6.338h9.476Z" transform="translate(-106.942 -306.597)" fill="#f8ece9"/>
        <path id="パス_730-3" data-name="パス 730" d="M0,32.25V44.065H42.008V32.25Zm35.772,5.907A1.969,1.969,0,1,1,33.8,36.188,1.969,1.969,0,0,1,35.772,38.157ZM3.943,40.774l2.621-5.242H8.381l.8.009L6.564,40.783H4.743Zm5.251,0,2.621-5.242h1.817l.8.009-2.621,5.242H9.994Zm5.251,0,2.621-5.242h1.817l.8.009-2.621,5.242H15.245Z"/>
        <path id="パス_730_-_アウトライン-2" data-name="パス 730 - アウトライン" d="M0,32.25V44.065H42.008V32.25H0m6.564,8.533H4.743l-.8-.009,2.621-5.242H8.381l.8.009L6.564,40.783m5.251,0H9.994l-.8-.009,2.621-5.242h1.817l.8.009-2.621,5.242m5.251,0H15.245l-.8-.009,2.621-5.242h1.817l.8.009-2.621,5.242M33.8,40.126a1.969,1.969,0,1,1,1.969-1.969A1.969,1.969,0,0,1,33.8,40.126m-35-9.076H43.208V45.265H-1.2Zm35,7.876a.769.769,0,1,0-.769-.769A.77.77,0,0,0,33.8,38.926Z" fill="#f8ece9"/>
        <path id="パス_731-3" data-name="パス 731" d="M22.973,190.25H19.035v1.477H0v11.815H42.008V191.727H22.973Zm-19.03,10,2.621-5.242H8.381l.8.009L6.564,200.26H4.743Zm5.251,0,2.621-5.242h1.817l.8.009-2.621,5.242H9.994Zm5.251,0,2.621-5.242h1.817l.8.009-2.621,5.242H15.245Zm17.39-2.617A1.969,1.969,0,1,1,33.8,199.6,1.969,1.969,0,0,1,31.834,197.634Z" transform="translate(0 -145.037)"/>
        <path id="パス_731_-_アウトライン-2" data-name="パス 731 - アウトライン" d="M19.035,190.25v1.477H0v11.815H42.008V191.727H22.973V190.25H19.035M6.564,200.26H4.743l-.8-.009,2.621-5.242H8.381l.8.009L6.564,200.26m5.251,0H9.994l-.8-.009,2.621-5.242h1.817l.8.009-2.621,5.242m5.251,0H15.245l-.8-.009,2.621-5.242h1.817l.8.009-2.621,5.242M33.8,199.6a1.969,1.969,0,1,1,1.969-1.969A1.969,1.969,0,0,1,33.8,199.6M17.835,189.05h6.338v1.477H43.208v14.215H-1.2V190.527H17.835ZM33.8,198.4a.769.769,0,1,0-.769-.769A.77.77,0,0,0,33.8,198.4Z" transform="translate(0 -145.037)" fill="#f8ece9"/>
      </g>
      <g id="サーバーのフリーアイコン素材-4" data-name="サーバーのフリーアイコン素材" transform="translate(766.992 3397.841)">
        <path id="パス_729-4" data-name="パス 729" d="M129.915,369.764V366.25h-3.938v3.514a3.242,3.242,0,0,0-.589.589H116.5v3.938h8.888a3.208,3.208,0,0,0,5.115,0h8.888v-3.938H130.5A3.241,3.241,0,0,0,129.915,369.764Z" transform="translate(-106.942 -306.597)"/>
        <path id="パス_729_-_アウトライン-3" data-name="パス 729 - アウトライン" d="M125.976,366.25v3.514a3.242,3.242,0,0,0-.589.589H116.5v3.938h8.888a3.208,3.208,0,0,0,5.115,0h8.888v-3.938H130.5a3.241,3.241,0,0,0-.589-.589V366.25h-3.938m-1.2-1.2h6.338v4.1h9.476v6.338H131.04a4.4,4.4,0,0,1-6.189,0H115.3v-6.338h9.476Z" transform="translate(-106.942 -306.597)" fill="#f8ece9"/>
        <path id="パス_730-4" data-name="パス 730" d="M0,32.25V44.065H42.008V32.25Zm35.772,5.907A1.969,1.969,0,1,1,33.8,36.188,1.969,1.969,0,0,1,35.772,38.157ZM3.943,40.774l2.621-5.242H8.381l.8.009L6.564,40.783H4.743Zm5.251,0,2.621-5.242h1.817l.8.009-2.621,5.242H9.994Zm5.251,0,2.621-5.242h1.817l.8.009-2.621,5.242H15.245Z"/>
        <path id="パス_730_-_アウトライン-3" data-name="パス 730 - アウトライン" d="M0,32.25V44.065H42.008V32.25H0m6.564,8.533H4.743l-.8-.009,2.621-5.242H8.381l.8.009L6.564,40.783m5.251,0H9.994l-.8-.009,2.621-5.242h1.817l.8.009-2.621,5.242m5.251,0H15.245l-.8-.009,2.621-5.242h1.817l.8.009-2.621,5.242M33.8,40.126a1.969,1.969,0,1,1,1.969-1.969A1.969,1.969,0,0,1,33.8,40.126m-35-9.076H43.208V45.265H-1.2Zm35,7.876a.769.769,0,1,0-.769-.769A.77.77,0,0,0,33.8,38.926Z" fill="#f8ece9"/>
        <path id="パス_731-4" data-name="パス 731" d="M22.973,190.25H19.035v1.477H0v11.815H42.008V191.727H22.973Zm-19.03,10,2.621-5.242H8.381l.8.009L6.564,200.26H4.743Zm5.251,0,2.621-5.242h1.817l.8.009-2.621,5.242H9.994Zm5.251,0,2.621-5.242h1.817l.8.009-2.621,5.242H15.245Zm17.39-2.617A1.969,1.969,0,1,1,33.8,199.6,1.969,1.969,0,0,1,31.834,197.634Z" transform="translate(0 -145.037)"/>
        <path id="パス_731_-_アウトライン-3" data-name="パス 731 - アウトライン" d="M19.035,190.25v1.477H0v11.815H42.008V191.727H22.973V190.25H19.035M6.564,200.26H4.743l-.8-.009,2.621-5.242H8.381l.8.009L6.564,200.26m5.251,0H9.994l-.8-.009,2.621-5.242h1.817l.8.009-2.621,5.242m5.251,0H15.245l-.8-.009,2.621-5.242h1.817l.8.009-2.621,5.242M33.8,199.6a1.969,1.969,0,1,1,1.969-1.969A1.969,1.969,0,0,1,33.8,199.6M17.835,189.05h6.338v1.477H43.208v14.215H-1.2V190.527H17.835ZM33.8,198.4a.769.769,0,1,0-.769-.769A.77.77,0,0,0,33.8,198.4Z" transform="translate(0 -145.037)" fill="#f8ece9"/>
      </g>
      <rect id="長方形_3544" data-name="長方形 3544" width="4" height="13" transform="translate(906 3401)" fill="#f8ece9"/>
      <rect id="長方形_3545" data-name="長方形 3545" width="4" height="13" transform="translate(906 3420)" fill="#f8ece9"/>
      <text id="Microsoft_Windows_Server_Update_Services" data-name="Microsoft Windows
Server Update Services" transform="translate(828.75 3399.083)" font-size="14" font-family="Roboto-Regular, Roboto"><tspan x="18.851" y="13">Microsoft Windows</tspan><tspan x="7.49" y="31">Server Update Services</tspan></text>
    </g>
  </g>
</svg>
