<svg xmlns="http://www.w3.org/2000/svg" width="558" height="329" viewBox="0 0 558 329">
  <g id="グループ_2698" data-name="グループ 2698" transform="translate(-450 -1934)">
    <g id="グループ_2537" data-name="グループ 2537" transform="translate(0 -142)">
      <rect id="長方形_3532" data-name="長方形 3532" width="279" height="306" transform="translate(729 2099)" fill="#f8ece9"/>
      <rect id="長方形_3533" data-name="長方形 3533" width="279" height="306" transform="translate(450 2099)" fill="#e5f7f1"/>
    </g>
    <g id="グループ_2536" data-name="グループ 2536" transform="translate(60 -162)">
      <text id="イ" transform="translate(662 2153)" fill="#d76b00" font-size="16" font-family="YuGothicUI-Bold, Yu Gothic UI" font-weight="700"><tspan x="0" y="0">イ</tspan></text>
      <text id="ン" transform="translate(662 2170)" fill="#d76b00" font-size="16" font-family="YuGothicUI-Bold, Yu Gothic UI" font-weight="700"><tspan x="0" y="0">ン</tspan></text>
      <text id="べ" transform="translate(662 2187)" fill="#d76b00" font-size="16" font-family="YuGothicUI-Bold, Yu Gothic UI" font-weight="700"><tspan x="0" y="0">べ</tspan></text>
      <text id="ン-2" data-name="ン" transform="translate(662 2204)" fill="#d76b00" font-size="16" font-family="YuGothicUI-Bold, Yu Gothic UI" font-weight="700"><tspan x="0" y="0">ン</tspan></text>
      <text id="ト" transform="translate(663 2221)" fill="#d76b00" font-size="16" font-family="YuGothicUI-Bold, Yu Gothic UI" font-weight="700"><tspan x="0" y="0">ト</tspan></text>
      <text id="リ" transform="translate(663 2238)" fill="#d76b00" font-size="16" font-family="YuGothicUI-Bold, Yu Gothic UI" font-weight="700"><tspan x="0" y="0">リ</tspan></text>
      <text id="情" transform="translate(660 2255)" fill="#d76b00" font-size="16" font-family="YuGothicUI-Bold, Yu Gothic UI" font-weight="700"><tspan x="0" y="0">情</tspan></text>
      <text id="報" transform="translate(660 2272)" fill="#d76b00" font-size="16" font-family="YuGothicUI-Bold, Yu Gothic UI" font-weight="700"><tspan x="0" y="0">報</tspan></text>
    </g>
    <text id="資産管理サーバ" transform="translate(879 2220)" font-size="14" font-family="YuGothicUI-Regular, Yu Gothic UI"><tspan x="0" y="0">資産管理サーバ</tspan></text>
    <text id="情報登録_更新" data-name="情報登録・更新" transform="translate(871 2130)" fill="#d76b00" font-size="16" font-family="YuGothicUI-Bold, Yu Gothic UI" font-weight="700"><tspan x="0" y="0">情報登録・更新</tspan></text>
    <text id="お客様環境" transform="translate(556 1949)" fill="#00b176" font-size="14" font-family="YuGothicUI-Bold, Yu Gothic UI" font-weight="700"><tspan x="0" y="0">お客様環境</tspan></text>
    <text id="Wave_PC_Mate" data-name="Wave PC Mate" transform="translate(823 1947)" fill="#bc4328" font-size="14" font-family="Roboto-Bold, Roboto" font-weight="700"><tspan x="0" y="0">Wave PC Mate</tspan></text>
    <g id="サーバーのフリーアイコン素材" transform="translate(796.559 1963.593)">
      <path id="パス_729" data-name="パス 729" d="M132.429,370.422V366.25h-4.676v4.172a3.849,3.849,0,0,0-.7.7H116.5V375.8h10.554a3.809,3.809,0,0,0,6.074,0h10.554v-4.677H133.128A3.848,3.848,0,0,0,132.429,370.422Z" transform="translate(-105.15 -301.459)"/>
      <path id="パス_730" data-name="パス 730" d="M0,32.25V46.279H49.883V32.25Zm42.478,7.015a2.338,2.338,0,1,1-2.338-2.338A2.338,2.338,0,0,1,42.478,39.265Zm-37.8,3.107,3.113-6.225H9.952l.955.01L7.794,42.382H5.632Zm6.235,0,3.113-6.225h2.158l.955.01L14.03,42.382H11.867Zm6.235,0,3.113-6.225h2.158l.955.01-3.113,6.225H18.1Z"/>
      <path id="パス_731" data-name="パス 731" d="M27.28,190.25H22.6V192H0v14.03H49.883V192H27.28Zm-22.6,11.876L7.794,195.9H9.952l.955.01-3.113,6.225H5.632Zm6.235,0L14.03,195.9h2.158l.955.01-3.113,6.225H11.867Zm6.235,0,3.113-6.225h2.158l.955.01-3.113,6.225H18.1ZM37.8,199.018a2.338,2.338,0,1,1,2.338,2.338A2.338,2.338,0,0,1,37.8,199.018Z" transform="translate(0 -142.607)"/>
    </g>
    <g id="サーバーのフリーアイコン素材-2" data-name="サーバーのフリーアイコン素材" transform="translate(898 2122.951)">
      <path id="パス_729-2" data-name="パス 729" d="M132.429,370.422V366.25h-4.676v4.172a3.849,3.849,0,0,0-.7.7H116.5V375.8h10.554a3.809,3.809,0,0,0,6.074,0h10.554v-4.677H133.128A3.848,3.848,0,0,0,132.429,370.422Z" transform="translate(-105.15 -301.459)"/>
      <path id="パス_730-2" data-name="パス 730" d="M0,32.25V46.279H49.883V32.25Zm42.478,7.015a2.338,2.338,0,1,1-2.338-2.338A2.338,2.338,0,0,1,42.478,39.265Zm-37.8,3.107,3.113-6.225H9.952l.955.01L7.794,42.382H5.632Zm6.235,0,3.113-6.225h2.158l.955.01L14.03,42.382H11.867Zm6.235,0,3.113-6.225h2.158l.955.01-3.113,6.225H18.1Z"/>
      <path id="パス_731-2" data-name="パス 731" d="M27.28,190.25H22.6V192H0v14.03H49.883V192H27.28Zm-22.6,11.876L7.794,195.9H9.952l.955.01-3.113,6.225H5.632Zm6.235,0L14.03,195.9h2.158l.955.01-3.113,6.225H11.867Zm6.235,0,3.113-6.225h2.158l.955.01-3.113,6.225H18.1ZM37.8,199.018a2.338,2.338,0,1,1,2.338,2.338A2.338,2.338,0,0,1,37.8,199.018Z" transform="translate(0 -142.607)"/>
    </g>
    <g id="_1000_F_375195713_UvwkTpKVrPXwjjdi6hKEya9OrJUE8RIT" data-name="1000_F_375195713_UvwkTpKVrPXwjjdi6hKEya9OrJUE8RIT" transform="translate(605.534 1994.885)">
      <path id="パス_726" data-name="パス 726" d="M61.481,4.044V36.951h-3.77V29.467q0-12.887-.011-25.763c0-2.7.942-3.671,3.594-3.671q24.327-.016,48.665,0c2.411,0,3.561,1.008,3.572,3.211q.033,16.47,0,32.951a6.536,6.536,0,0,1-.1.756h-3.682V4.044Z" transform="translate(-51.288)"/>
      <path id="パス_727" data-name="パス 727" d="M65.181,359.386H3.4a3.088,3.088,0,0,1-3.068-2.7L.111,355a1.24,1.24,0,0,1,1.227-1.4H67.23a1.239,1.239,0,0,1,1.227,1.381l-.186,1.655A3.115,3.115,0,0,1,65.181,359.386Z" transform="translate(0 -314.83)"/>
      <path id="パス_728" data-name="パス 728" d="M278.154,376.005h-9.446a.208.208,0,0,1-.208-.208v-.789a.208.208,0,0,1,.208-.208h9.446a.208.208,0,0,1,.208.208v.789A.216.216,0,0,1,278.154,376.005Z" transform="translate(-238.988 -333.706)" fill="#e5f7f1"/>
    </g>
    <g id="WEBページのアイコン" transform="translate(480.91 2094.699)">
      <path id="パス_764" data-name="パス 764" d="M30.977,0H3.2A3.2,3.2,0,0,0,0,3.2V30.977a3.2,3.2,0,0,0,3.2,3.2H30.977a3.2,3.2,0,0,0,3.2-3.2V3.2A3.2,3.2,0,0,0,30.977,0ZM29.686,2.337a1.268,1.268,0,1,1-1.268,1.268A1.269,1.269,0,0,1,29.686,2.337Zm-4.707,0a1.268,1.268,0,1,1-1.268,1.268A1.269,1.269,0,0,1,24.979,2.337Zm-4.707,0A1.268,1.268,0,1,1,19,3.605,1.269,1.269,0,0,1,20.273,2.337Zm11.238,28.64a.535.535,0,0,1-.534.534H3.2a.535.535,0,0,1-.534-.534V6.943H31.511Z"/>
      <rect id="長方形_3527" data-name="長方形 3527" width="10.079" height="2.138" transform="translate(6.401 12.815)"/>
      <rect id="長方形_3528" data-name="長方形 3528" width="21.991" height="2.138" transform="translate(6.401 23.505)"/>
      <rect id="長方形_3529" data-name="長方形 3529" width="8.246" height="7.941" transform="translate(20.145 12.815)"/>
      <path id="パス_765" data-name="パス 765" d="M104.882,274.136h1.266V272H96v2.136h8.882Z" transform="translate(-89.591 -253.841)"/>
    </g>
    <text id="インベントリ情報収集サーバ" transform="translate(774 2047)" font-size="14" font-family="YuGothicUI-Regular, Yu Gothic UI"><tspan x="2.557" y="15">インベントリ情報</tspan><tspan x="17.617" y="33">収集サーバ</tspan></text>
    <text id="お客様PC" transform="translate(607 2047)" font-size="14" font-family="YuGothicUI-Regular, Yu Gothic UI"><tspan x="4.885" y="15">お客様</tspan><tspan y="15" font-family="Roboto-Regular, Roboto">PC</tspan></text>
    <text id="Webでの資産管理情報の提供" transform="translate(529.402 2091.881)" fill="#d76b00" font-size="14" font-family="Roboto-Bold, Roboto" font-weight="700"><tspan x="0" y="15">Web</tspan><tspan y="15" font-family="YuGothicUI-Bold, Yu Gothic UI">での資産管</tspan><tspan x="0" y="33" font-family="YuGothicUI-Bold, Yu Gothic UI">理情報の提供</tspan></text>
    <path id="長方形_3537" data-name="長方形 3537" d="M0,0H5V1H0ZM8,0h5V1H8Zm8,0h5V1H16Zm8,0h5V1H24Zm8,0h5V1H32Zm8,0h5V1H40Zm8,0h5V1H48Zm8,0h5V1H56Zm8,0h5V1H64Zm8,0h5V1H72Zm8,0h5V1H80Zm8,0h5V1H88Zm8,0h5V1H96Zm8,0h5V1h-5Zm8,0h5V1h-5Zm8,0h5V1h-5Zm8,0h5V1h-5Zm8,0h5V1h-5Zm8,0h5V1h-5Zm8,0h5V1h-5Zm8,0h5V1h-5Zm8,0h5V1h-5Zm8,0h1V4h-1Zm0,7h1v5h-1Zm0,8h1v5h-1Zm0,8h1v5h-1Zm0,8h1v5h-1Zm0,8h1v5h-1Zm0,8h1v5h-1Zm0,8h1v5h-1Zm-4,7h5v1h-5Zm-8,0h5v1h-5Zm-8,0h5v1h-5Zm-8,0h5v1h-5Zm-8,0h5v1h-5Zm-8,0h5v1h-5Zm-8,0h5v1h-5Zm-8,0h5v1h-5Zm-8,0h5v1h-5Zm-8,0h5v1h-5Zm-8,0h5v1H92Zm-8,0h5v1H84Zm-8,0h5v1H76Zm-8,0h5v1H68Zm-8,0h5v1H60Zm-8,0h5v1H52Zm-8,0h5v1H44Zm-8,0h5v1H36Zm-8,0h5v1H28Zm-8,0h5v1H20Zm-8,0h5v1H12ZM4,62H9v1H4ZM0,59H1v4H0Zm0-8H1v5H0Zm0-8H1v5H0Zm0-8H1v5H0Zm0-8H1v5H0Zm0-8H1v5H0Zm0-8H1v5H0ZM0,3H1V8H0Z" transform="translate(463 2080)" fill="#bc4328"/>
    <rect id="長方形_3536" data-name="長方形 3536" width="127" height="56" transform="translate(463 1988)" fill="#fff"/>
    <path id="長方形_3536_-_アウトライン" data-name="長方形 3536 - アウトライン" d="M1,1V55H126V1H1M0,0H127V56H0Z" transform="translate(463 1988)" fill="#00b176"/>
    <text id="_ソフトフェア情報_ハードウェア情報" data-name="・ソフトフェア情報
・ハードウェア情報" transform="translate(478 2012)" font-size="14" font-family="YuGothicUI-Bold, Yu Gothic UI" font-weight="700"><tspan x="0" y="0">・ソフトフェア情報</tspan><tspan y="0" font-family="Roboto-Bold, Roboto"></tspan><tspan x="0" y="18">・ハードウェア情報</tspan></text>
    <text id="管理者" transform="translate(549 2224)" font-size="14" font-family="YuGothicUI-Regular, Yu Gothic UI"><tspan x="0" y="0">管理者</tspan></text>
    <g id="無料のビジネスマンの人物アイコン素材" transform="translate(492.966 2153.841)">
      <path id="パス_763" data-name="パス 763" d="M82.783,30.957a12.538,12.538,0,0,1,.3-3.865,12.887,12.887,0,0,0,2.5-4.632c1.207-.438,2.435-1.454,3.013-3.967a3.185,3.185,0,0,0-.968-3C88.2,13.58,90.479,4.732,83.752,2.911,81.523.1,79.563.208,76.2.531c-1.672.161-1.911.515-3.192.324A11.647,11.647,0,0,1,69.99,0a6.947,6.947,0,0,0-2.7,3.013,16.35,16.35,0,0,0-.854,9.812c-.015.236-.036.472-.037.711l.393,1.693c0,.017,0,.034,0,.051a3.223,3.223,0,0,0-1.127,3.123c.559,2.518,1.78,3.543,2.984,3.989a12.889,12.889,0,0,0,2.464,4.649,12.523,12.523,0,0,1,.27,3.868c-.634,5.886-13.011,2.738-13.05,13.076-.006,1.594,5.326,4.4,18.683,4.445s18.71-2.71,18.716-4.3C95.773,33.793,83.372,36.847,82.783,30.957ZM74.856,46.716,71.517,32.93l4.165,1.752L75.45,36.7l.663-.012ZM79,36.71l-.217-2.016,4.178-1.72-3.443,13.76-1.181-10.04Z" transform="translate(0 0)"/>
    </g>
    <path id="パス_732" data-name="パス 732" d="M2909.106-1179.546H2723.282v-1H2905.81l-7.13-4.766.556-.831Z" transform="translate(-2043.958 3334.728)" fill="#d76b00"/>
    <path id="パス_767" data-name="パス 767" d="M2751.106-1179.546h-27.824v-1h24.528l-7.13-4.766.556-.831Z" transform="translate(-2036.782 3193.046)" fill="#d76b00"/>
    <path id="パス_770" data-name="パス 770" d="M2751.106-1179.546h-27.824v-1h24.528l-7.13-4.766.556-.831Z" transform="translate(-1979.958 3193.046)" fill="#d76b00"/>
    <path id="パス_768" data-name="パス 768" d="M2795.106-1179.546h-92.824v-1h89.528l-7.13-4.766.556-.831Z" transform="translate(-257.046 -689.398) rotate(90)" fill="#d76b00"/>
    <path id="パス_766" data-name="パス 766" d="M2891.458-1179.546H2721.635l9.871-6.6.556.831-7.13,4.766h166.528Z" transform="translate(-2115.782 3390.046)" fill="#d76b00"/>
    <rect id="長方形_3534" data-name="長方形 3534" width="130" height="40" transform="translate(607 2136)" fill="#fff"/>
    <path id="長方形_3534_-_アウトライン" data-name="長方形 3534 - アウトライン" d="M1,1V39H129V1H1M0,0H130V40H0Z" transform="translate(607 2136)" fill="#00b176"/>
    <text id="資産情報の検索" transform="translate(624 2161)" font-size="14" font-family="YuGothicUI-Bold, Yu Gothic UI" font-weight="700"><tspan x="0" y="0">資産情報の検索</tspan></text>
    <rect id="長方形_3535" data-name="長方形 3535" width="145" height="56" transform="translate(720 2181)" fill="#fff"/>
    <path id="長方形_3535_-_アウトライン" data-name="長方形 3535 - アウトライン" d="M1,1V55H144V1H1M0,0H145V56H0Z" transform="translate(720 2181)" fill="#bc4328"/>
    <text id="_資産管理情報_資産レポート" data-name="・資産管理情報
・資産レポート" transform="translate(744 2206)" font-size="14" font-family="YuGothicUI-Bold, Yu Gothic UI" font-weight="700"><tspan x="0" y="0">・資産管理情報</tspan><tspan y="0" font-family="Roboto-Bold, Roboto"></tspan><tspan x="0" y="18">・資産レポート</tspan></text>
    <path id="パス_769" data-name="パス 769" d="M46,.5H0v-1H46Z" transform="translate(877.182 2013.5)" fill="#d76b00"/>
  </g>
</svg>
