<svg xmlns="http://www.w3.org/2000/svg" width="1124.364" height="281" viewBox="0 0 1124.364 281">
  <g id="グループ_2952" data-name="グループ 2952" transform="translate(-409 -4499)">
    <g id="グループ_2951" data-name="グループ 2951">
      <g id="グループ_2729" data-name="グループ 2729" transform="translate(0 56)">
        <g id="グループ_2728" data-name="グループ 2728">
          <path id="パス_815" data-name="パス 815" d="M0,0H275l19,20.333L275,41H0Z" transform="translate(1238 4444)" fill="#a0a9c1"/>
          <path id="パス_815_-_アウトライン" data-name="パス 815 - アウトライン" d="M0,0V41H275l19-20.667L275,0H0M-1-1H275.434l19.929,21.328L275.439,42H-1Z" transform="translate(1238 4444)" fill="#fff"/>
          <text id="撤去" transform="translate(1353 4448)" fill="#fff" font-size="22" font-family="YuGothicUI-Bold, Yu Gothic UI" font-weight="700"><tspan x="7.5" y="24">撤去</tspan></text>
        </g>
        <g id="グループ_2727" data-name="グループ 2727">
          <path id="パス_815-2" data-name="パス 815" d="M0,0H275l19,20.333L275,41H0Z" transform="translate(962 4444)" fill="#667493"/>
          <path id="パス_815_-_アウトライン-2" data-name="パス 815 - アウトライン" d="M0,0V41H275l19-20.667L275,0H0M-1-1H275.434l19.929,21.328L275.439,42H-1Z" transform="translate(962 4444)" fill="#fff"/>
          <text id="運用" transform="translate(1070 4448)" fill="#fff" font-size="22" font-family="YuGothicUI-Bold, Yu Gothic UI" font-weight="700"><tspan x="14.5" y="24">運用</tspan></text>
        </g>
        <g id="グループ_2726" data-name="グループ 2726">
          <path id="パス_815-3" data-name="パス 815" d="M0,0H275l19,20.333L275,41H0Z" transform="translate(686 4444)" fill="#3b486f"/>
          <path id="パス_815_-_アウトライン-3" data-name="パス 815 - アウトライン" d="M0,0V41H275l19-20.667L275,0H0M-1-1H275.434l19.929,21.328L275.439,42H-1Z" transform="translate(686 4444)" fill="#fff"/>
          <text id="導入" transform="translate(799 4448)" fill="#fff" font-size="22" font-family="YuGothicUI-Bold, Yu Gothic UI" font-weight="700"><tspan x="9.5" y="24">導入</tspan></text>
        </g>
        <g id="グループ_2725" data-name="グループ 2725">
          <path id="パス_815-4" data-name="パス 815" d="M0,0H275l19,20.333L275,41H0Z" transform="translate(410 4444)" fill="#1d264d"/>
          <path id="パス_815_-_アウトライン-4" data-name="パス 815 - アウトライン" d="M0,0V41H275l19-20.667L275,0H0M-1-1H275.434l19.929,21.328L275.439,42H-1Z" transform="translate(410 4444)" fill="#fff"/>
          <text id="調達" transform="translate(523 4448)" fill="#fff" font-size="22" font-family="YuGothicUI-Bold, Yu Gothic UI" font-weight="700"><tspan x="9.5" y="24">調達</tspan></text>
        </g>
      </g>
      <text id="ベンダーに縛られない最適なPCの調達" transform="translate(453.5 4706)" fill="#333" font-size="16" font-family="NotoSansCJKjp-Regular, Noto Sans CJK JP"><tspan x="0" y="19">ベンダーに縛られない最適な</tspan><tspan x="0" y="44">PCの調達</tspan></text>
      <text id="お客様固有の環境にセットアップした状態でPCをお届け" transform="translate(730 4706)" fill="#333" font-size="16" font-family="NotoSansCJKjp-Regular, Noto Sans CJK JP"><tspan x="0" y="19">お客様固有の環境にセット</tspan><tspan x="0" y="44">アップした状態でPCをお届け</tspan></text>
      <text id="ヘルプデスク_セキュリティ対策_資産管理などトータルでサポート" data-name="ヘルプデスク、セキュリティ対策、資産管理などトータルでサポート" transform="translate(1005.5 4706)" fill="#333" font-size="16" font-family="NotoSansCJKjp-Regular, Noto Sans CJK JP"><tspan x="0" y="19">ヘルプデスク、セキュリティ</tspan><tspan x="0" y="44">対策、資産管理などトータル</tspan><tspan x="0" y="69">でサポート</tspan></text>
      <text id="撤去時の回収スケジュール調整_回収業者を手配" data-name="撤去時の回収スケジュール調整、回収業者を手配" transform="translate(1281.5 4706)" fill="#333" font-size="16" font-family="NotoSansCJKjp-Regular, Noto Sans CJK JP"><tspan x="0" y="19">撤去時の回収スケジュール調</tspan><tspan x="0" y="44">整、回収業者を手配</tspan></text>
      <g id="デスクワークアイコン4" transform="translate(768.352 4554.3)">
        <rect id="長方形_3546" data-name="長方形 3546" width="114.905" height="11.962" transform="translate(0 109.941)" fill="#3b486f"/>
        <path id="パス_789" data-name="パス 789" d="M29.5,309.581H78.032v-9.446h-22.7l-9.561-25.971H1.168l13.9,35.417Z" transform="translate(-0.906 -202.787)" fill="#3b486f"/>
        <path id="パス_798" data-name="パス 798" d="M302.934,99.879c.7,3.511,1.866,6.612,3.4,8.137v4.236a1.214,1.214,0,0,1-.055.336l7.935,3.406,7.929-3.406a1.278,1.278,0,0,1-.055-.336v-4.236c1.543-1.525,2.709-4.626,3.4-8.137,1.623-.516,2.554-1.345,3.71-4.959,1.229-3.849-1.853-3.722-1.853-3.722,2.492-7.36-.79-14.281-6.292-13.775-3.8-5.919-16.505,1.354-20.491.844a7.351,7.351,0,0,0,.948,3.553c-1.385,2.343-.851,7.013-.461,9.378-.224,0-3.016.024-1.83,3.722C300.384,98.535,301.31,99.363,302.934,99.879Z" transform="translate(-231.847 -48.391)" fill="#3b486f"/>
        <rect id="長方形_3547" data-name="長方形 3547" width="5.981" height="4.62" transform="translate(79.378 69.331)" fill="#3b486f"/>
        <path id="パス_799" data-name="パス 799" d="M273.478,298.294v13.5h33.456c-1.777-16.6-9.783-32.126-15.295-33.963a16.284,16.284,0,0,1-1.93-.812L278.45,290.881l-.8-9.086H271.67l-.8,9.086-11.242-13.859a13.412,13.412,0,0,1-1.952.812c-2.93.916-6.752,7.972-9.742,16.067l1.607,4.393Z" transform="translate(-192.292 -205.004)" fill="#3b486f"/>
      </g>
      <g id="キラキラ_2" data-name="キラキラ 2" transform="translate(761.687 4573.241)">
        <path id="パス_802" data-name="パス 802" d="M74.9,354.7a10.343,10.343,0,0,1-2.285,4.9,10.349,10.349,0,0,1-4.9,2.286,10.342,10.342,0,0,1,4.9,2.286,10.337,10.337,0,0,1,2.286,4.9,10.336,10.336,0,0,1,2.285-4.9,10.345,10.345,0,0,1,4.9-2.286,10.336,10.336,0,0,1-4.9-2.285A10.337,10.337,0,0,1,74.9,354.7Z" transform="translate(-24.584 -322.309)" fill="#3b486f"/>
      </g>
      <g id="キラキラ_2-2" data-name="キラキラ 2" transform="translate(749.269 4557.623)">
        <path id="パス_802-2" data-name="パス 802" d="M77.519,354.7a14.114,14.114,0,0,1-3.118,6.683A14.121,14.121,0,0,1,67.72,364.5a14.112,14.112,0,0,1,6.681,3.119,14.106,14.106,0,0,1,3.12,6.682,14.1,14.1,0,0,1,3.118-6.683,14.117,14.117,0,0,1,6.68-3.12,14.1,14.1,0,0,1-6.681-3.118A14.106,14.106,0,0,1,77.519,354.7Z" transform="translate(-24.584 -322.309)" fill="#3b486f"/>
      </g>
      <g id="グループ_2601" data-name="グループ 2601" transform="translate(0 56)">
        <g id="グループ_2600" data-name="グループ 2600">
          <path id="パス_726" data-name="パス 726" d="M64.268,7.007V64.178H57.719v-13q0-22.389-.019-44.758c0-4.683,1.637-6.378,6.244-6.378q42.264-.029,84.547,0c4.188,0,6.187,1.751,6.206,5.578q.057,28.614,0,57.247a11.356,11.356,0,0,1-.171,1.314h-6.4V7.007Z" transform="translate(450.766 4542.91)" fill="#1d264d"/>
          <path id="パス_727" data-name="パス 727" d="M113.166,363.652H5.831A5.365,5.365,0,0,1,.5,358.969l-.381-2.932A2.154,2.154,0,0,1,2.251,353.6H116.726a2.152,2.152,0,0,1,2.132,2.4l-.324,2.875A5.412,5.412,0,0,1,113.166,363.652Z" transform="translate(497.399 4256.648)" fill="#1d264d"/>
        </g>
        <path id="パス_728" data-name="パス 728" d="M285.272,376.894H268.862a.361.361,0,0,1-.362-.362v-1.371a.361.361,0,0,1,.362-.362h16.411a.362.362,0,0,1,.362.362v1.371A.374.374,0,0,1,285.272,376.894Z" transform="translate(280.098 4239.484)" fill="#fff"/>
      </g>
      <g id="トラックのアイコン" transform="translate(1332.726 4599.35)">
        <path id="パス_804" data-name="パス 804" d="M204.513,82.175H265.1a2.786,2.786,0,0,1,2.7,2.862v42.7a2.783,2.783,0,0,1-2.7,2.858H204.513a2.783,2.783,0,0,1-2.7-2.858v-42.7A2.786,2.786,0,0,1,204.513,82.175Z" transform="translate(-201.809 -82.175)" fill="#a0a9c1"/>
        <path id="パス_805" data-name="パス 805" d="M74.677,354.37a8.04,8.04,0,1,1-7.588,8.026A7.819,7.819,0,0,1,74.677,354.37Z" transform="translate(12.392 -296.455)" fill="#a0a9c1"/>
        <path id="パス_806" data-name="パス 806" d="M2.253,176.184H66.926a2.325,2.325,0,0,0,2.255-2.385V138.2a2.321,2.321,0,0,1,2.255-2.385H91.979a2.206,2.206,0,0,1,1.729.857l14.709,18.667a2.459,2.459,0,0,1,.522,1.524V181.8a2.321,2.321,0,0,1-2.253,2.383H95.352a9.8,9.8,0,0,0-16.562,0H32.532a9.8,9.8,0,0,0-16.56,0H2.253A2.321,2.321,0,0,1,0,181.8v-3.229A2.322,2.322,0,0,1,2.253,176.184Zm98.45-17.426v-1.65a2.562,2.562,0,0,0-.519-1.552L90.8,143.329a2.281,2.281,0,0,0-1.8-.907h-9.2a2.393,2.393,0,0,0-2.326,2.456v13.88a2.394,2.394,0,0,0,2.326,2.456H98.381A2.393,2.393,0,0,0,100.7,158.758Z" transform="translate(0 -124.401)" fill="#a0a9c1"/>
        <path id="パス_807" data-name="パス 807" d="M369.936,354.37a8.04,8.04,0,1,1-7.59,8.026A7.816,7.816,0,0,1,369.936,354.37Z" transform="translate(-345.684 -296.455)" fill="#a0a9c1"/>
      </g>
      <text id="PC" transform="translate(1348.5 4611)" fill="#fff" font-size="20" font-family="DIN2014-Demi, 'DIN \32 014'" font-weight="300" letter-spacing="0.03em"><tspan x="4.44" y="19">PC</tspan></text>
      <g id="メールの無料アイコンその19" transform="translate(195.916 4332.228)">
        <path id="パス_809" data-name="パス 809" d="M360.55,286.484a15.969,15.969,0,1,0,15.97,15.969A15.967,15.967,0,0,0,360.55,286.484Zm-.906,23.429L352.01,303.8l2.9-3.621,3.962,3.17,6.672-8.582,3.664,2.847Z" fill="#1d264d"/>
      </g>
      <g id="グループ_2575" data-name="グループ 2575" transform="translate(0 52)">
        <g id="時間経過のアイコン_2" data-name="時間経過のアイコン 2" transform="translate(1081.42 4532.848)">
          <path id="パス_811" data-name="パス 811" d="M48.506,19.136a26.888,26.888,0,0,0-19.067-7.9v6.536A20.438,20.438,0,1,1,9.725,32.865l2.649,1.65a1.262,1.262,0,0,0,1.128.12.968.968,0,0,0,.611-.834l1.141-14.939A1.279,1.279,0,0,0,13.387,17.7L.482,25.31A.966.966,0,0,0,0,26.224a1.252,1.252,0,0,0,.606.961L3.99,29.292A26.964,26.964,0,1,0,48.506,19.136Z" transform="translate(-0.001 -11.239)" fill="#667493"/>
          <path id="パス_811_-_アウトライン" data-name="パス 811 - アウトライン" d="M29.439,10.739h.007a27.463,27.463,0,1,1,0,54.926h-.014A27.464,27.464,0,0,1,3.388,29.506L.344,27.61A1.747,1.747,0,0,1-.5,26.257,1.472,1.472,0,0,1,.23,24.879l12.9-7.608a1.609,1.609,0,0,1,.822-.22,1.832,1.832,0,0,1,.957.275l0,0a1.726,1.726,0,0,1,.835,1.569L14.611,33.839a1.473,1.473,0,0,1-.919,1.258,1.628,1.628,0,0,1-.621.12,1.825,1.825,0,0,1-.961-.278l-2.068-1.288a19.925,19.925,0,1,0,19.4-15.377h-.5V10.739Zm.007,53.926A26.464,26.464,0,0,0,48.153,19.49a26.252,26.252,0,0,0-18.213-7.746v5.537A20.927,20.927,0,1,1,8.513,38.2a21.036,21.036,0,0,1,.729-5.467l.175-.65,3.221,2.006a.778.778,0,0,0,.674.082.468.468,0,0,0,.3-.407l1.141-14.942a.739.739,0,0,0-.368-.647.832.832,0,0,0-.432-.126.611.611,0,0,0-.312.081L.736,25.741a.467.467,0,0,0-.234.45.758.758,0,0,0,.37.57l3.722,2.319-.132.378a26.463,26.463,0,0,0,24.97,35.208Z" transform="translate(-0.001 -11.239)" fill="#667493"/>
        </g>
        <g id="hands" transform="translate(1064.803 4552)">
          <path id="パス_813" data-name="パス 813" d="M281.521,21.994V5.126A4.993,4.993,0,0,1,286.483,0a4.832,4.832,0,0,1,4.881,5.044V34.921a6.046,6.046,0,0,1-1.879,4.472c-6.208,6.188-12.375,12.4-18.6,18.563a3.892,3.892,0,0,0-1.246,2.961c.041,5.105.02-2.057.02,3.048,0,2-.96,2.941-2.961,2.941H255.32c-1.96,0-2.92-.96-2.92-2.92V55.955a9.049,9.049,0,0,1,2.675-6.576q11.947-11.947,23.913-23.913a4.708,4.708,0,0,1,4.881-1.287,4.615,4.615,0,0,1,3.41,3.615,4.794,4.794,0,0,1-1.368,4.656c-1.9,1.9-3.8,3.778-5.657,5.677a1.8,1.8,0,0,0-.551.939,1.085,1.085,0,0,0,.531.878,1.463,1.463,0,0,0,1.164-.2c.756-.633,1.409-1.368,2.1-2.063l3.758-3.758a6.947,6.947,0,0,0-5.065-11.987A2.1,2.1,0,0,1,281.521,21.994Z" transform="translate(-200.969)" fill="#667493"/>
          <path id="パス_814" data-name="パス 814" d="M9.843,22.014a7.562,7.562,0,0,0-4.636,1.021,6.923,6.923,0,0,0-1.389,10.64c1.96,2.042,4,4.023,6,6.024.572.572,1.123.613,1.572.143.429-.449.388-1-.163-1.572-1.9-1.92-3.819-3.819-5.738-5.738a4.822,4.822,0,0,1-1.307-5.187,4.664,4.664,0,0,1,4.084-3.308,4.828,4.828,0,0,1,4.207,1.552Q23.658,36.769,34.818,47.95l1.041,1.042a9.711,9.711,0,0,1,3.084,7.556c-.041,6.6-.02.945-.02,7.541a2.524,2.524,0,0,1-2.777,2.8c-3.921.02-7.862.02-11.783,0a2.511,2.511,0,0,1-2.7-2.736c0-5.248-.02,1.791,0-3.457a3.414,3.414,0,0,0-1.1-2.614q-9.282-9.251-18.543-18.5A6.774,6.774,0,0,1,0,34.553c.041-9.761.02-19.543.02-29.3C.02,2.165,2.063,0,4.962,0A5,5,0,0,1,9.843,5.269v15.97C9.843,21.463,9.843,21.667,9.843,22.014Z" transform="translate(-2)" fill="#667493"/>
        </g>
      </g>
      <g id="グループ_2605" data-name="グループ 2605" transform="translate(0 56)">
        <g id="グループ_2600-2" data-name="グループ 2600">
          <path id="パス_726-2" data-name="パス 726" d="M64.268,7.007V64.178H57.719v-13q0-22.389-.019-44.758c0-4.683,1.637-6.378,6.244-6.378q42.264-.029,84.547,0c4.188,0,6.187,1.751,6.206,5.578q.057,28.614,0,57.247a11.356,11.356,0,0,1-.171,1.314h-6.4V7.007Z" transform="translate(450.766 4542.91)" fill="#1d264d"/>
          <path id="パス_727-2" data-name="パス 727" d="M113.166,363.652H5.831A5.365,5.365,0,0,1,.5,358.969l-.381-2.932A2.154,2.154,0,0,1,2.251,353.6H116.726a2.152,2.152,0,0,1,2.132,2.4l-.324,2.875A5.412,5.412,0,0,1,113.166,363.652Z" transform="translate(497.399 4256.648)" fill="#1d264d"/>
        </g>
        <path id="パス_728-2" data-name="パス 728" d="M285.272,376.894H268.862a.361.361,0,0,1-.362-.362v-1.371a.361.361,0,0,1,.362-.362h16.411a.362.362,0,0,1,.362.362v1.371A.374.374,0,0,1,285.272,376.894Z" transform="translate(280.098 4239.484)" fill="#fff"/>
      </g>
    </g>
  </g>
</svg>
