<svg xmlns="http://www.w3.org/2000/svg" width="559" height="237" viewBox="0 0 559 237">
  <g id="グループ_2554" data-name="グループ 2554" transform="translate(-449 -2594)">
    <rect id="長方形_3539" data-name="長方形 3539" width="424" height="237" transform="translate(584 2594)" fill="#f2ecf7"/>
    <path id="パス_776" data-name="パス 776" d="M49.462,13.72,1.471,135.092H97.452L49.462,13.72m0-2.72L98.923,136.092H0Z" transform="translate(811.046 2663.539) rotate(90)"/>
    <rect id="長方形_3541" data-name="長方形 3541" width="58" height="58" transform="translate(646 2736)" fill="#f2ecf7"/>
    <rect id="長方形_3542" data-name="長方形 3542" width="76" height="82" transform="translate(637 2605)" fill="#f2ecf7"/>
    <rect id="長方形_3543" data-name="長方形 3543" width="73" height="102" transform="translate(775 2651)" fill="#f2ecf7"/>
    <text id="連携" transform="translate(702 2718)" font-size="14" font-family="YuGothicUI-Bold, Yu Gothic UI" font-weight="700"><tspan x="0" y="0">連携</tspan></text>
    <text id="テクニカル_エンジニア" data-name="テクニカル
エンジニア" transform="translate(813 2725.917)" font-size="14" font-family="YuGothicUI-Regular, Yu Gothic UI"><tspan x="-26.65" y="0">テクニカル</tspan><tspan y="0" font-family="Roboto-Regular, Roboto"></tspan><tspan x="-26.811" y="18">エンジニア</tspan></text>
    <g id="メガネをかけた男性のアイコン素材" transform="translate(738.971 2660.595)">
      <path id="パス_771" data-name="パス 771" d="M92.7,40.634a7.8,7.8,0,0,0-.778-1.909,7.7,7.7,0,0,0-2.17-2.383,11.914,11.914,0,0,0-1.987-1.164c-1.027-.487-2.08-.86-3.053-1.219a17.692,17.692,0,0,1-2.575-1.111l-.077-.044a5.033,5.033,0,0,1-.678-.47,2.953,2.953,0,0,1-.694-.8,2.6,2.6,0,0,1-.322-1.038,3.468,3.468,0,0,1-.043-.567,12.259,12.259,0,0,1,.263-2.426A9.319,9.319,0,0,0,81.8,25.715,19.413,19.413,0,0,0,82.9,23.2a4.865,4.865,0,0,0,.69-.384A4.941,4.941,0,0,0,85,21.344a7.692,7.692,0,0,0,.96-2.437,3.7,3.7,0,0,0,.092-.817,3.739,3.739,0,0,0-.355-1.576,4.283,4.283,0,0,0-.581-.911c.117-.431.26-1.012.386-1.691a18.2,18.2,0,0,0,.319-3.269,12.124,12.124,0,0,0-.216-2.349,8.715,8.715,0,0,0-.533-1.731,6.451,6.451,0,0,0-1.632-2.284,6.724,6.724,0,0,0-2.569-1.394,8.91,8.91,0,0,0-1.109-1.126,6.218,6.218,0,0,0-.994-.688A5.679,5.679,0,0,0,77.189.484,8.075,8.075,0,0,0,75.521.328c-.79,0-1.622.08-2.539.17-.347.035-.64.078-.891.123-.377.068-.659.139-.885.183a2.728,2.728,0,0,1-.31.05,1.955,1.955,0,0,1-.3.021A3.512,3.512,0,0,1,70.067.83a11.849,11.849,0,0,1-1.761-.4c-.241-.072-.449-.145-.612-.207-.08-.03-.151-.059-.208-.083s-.1-.044-.124-.056A.817.817,0,0,0,66.987,0a.9.9,0,0,0-.233.03,1.36,1.36,0,0,0-.14.049,1.258,1.258,0,0,0-.2.1A3.289,3.289,0,0,0,66.1.4a7.715,7.715,0,0,0-.623.547,10.376,10.376,0,0,0-1.016,1.136A7.192,7.192,0,0,0,64,2.745a4.753,4.753,0,0,0-.352.712A18.967,18.967,0,0,0,62.68,6.84,15.569,15.569,0,0,0,62.412,9.7a19.365,19.365,0,0,0,.39,3.662c0,.049,0,.1.007.145,0,.1.015.2.025.3.016.155.034.313.047.445.007.066.013.126.018.171,0,.022,0,.043,0,.058l0,.015v.093l.189.836a4.3,4.3,0,0,0-.687.988,3.662,3.662,0,0,0-.312,2.494v0a8.36,8.36,0,0,0,.579,1.739,5.428,5.428,0,0,0,1.291,1.782,4.7,4.7,0,0,0,1.2.777,19.356,19.356,0,0,0,1.1,2.508A9.2,9.2,0,0,0,67.473,27.5a12.31,12.31,0,0,1,.263,2.43,3.465,3.465,0,0,1-.044.566,2.754,2.754,0,0,1-.182.75,2.583,2.583,0,0,1-.6.879,4.678,4.678,0,0,1-1.006.737l-.313.168c-.335.171-.7.334-1.095.493-.9.366-1.932.711-2.978,1.127a16.883,16.883,0,0,0-2.331,1.114,9.5,9.5,0,0,0-1.613,1.18,7.43,7.43,0,0,0-1.848,2.607,9.678,9.678,0,0,0-.7,3.8,1.627,1.627,0,0,0,.115.594,2.211,2.211,0,0,0,.27.482,3.68,3.68,0,0,0,.8.774,9.715,9.715,0,0,0,2.318,1.191,28.8,28.8,0,0,0,6.017,1.421,68.012,68.012,0,0,0,9.479.591,71.257,71.257,0,0,0,8.427-.452,39.485,39.485,0,0,0,4.569-.8,21.5,21.5,0,0,0,2.52-.768,11.847,11.847,0,0,0,1.42-.635,6.805,6.805,0,0,0,.823-.505,3.825,3.825,0,0,0,.87-.833,2.175,2.175,0,0,0,.266-.492,1.6,1.6,0,0,0,.1-.566A10.593,10.593,0,0,0,92.7,40.634ZM67.136,8.24c4.275.95,12.633-.866,12.633-.866a7.882,7.882,0,0,0,1.516,3.975,13.331,13.331,0,0,1,1.685,4.126c-.012,0-.025,0-.038-.006a.294.294,0,0,1-.273-.275c-.053-.256-.293-.332-.675-.384a17.722,17.722,0,0,0-3.047-.1c-3.641.177-3.371.508-4.8.508s-1.16-.331-4.8-.508a17.731,17.731,0,0,0-3.049.1c-.381.052-.62.128-.674.384a.294.294,0,0,1-.275.275H65.33C65.452,13.849,66.964,11.825,67.136,8.24ZM81.929,17.4c0,.019-.016,2.108-1.436,2.823a3.874,3.874,0,0,1-1.7.377,3.407,3.407,0,0,1-1.72-.425,2.256,2.256,0,0,1-1.05-1.353c-.041-.136-.08-.275-.115-.408-.114-.408-.417-1.533.226-2.031a6.241,6.241,0,0,1,2.928-.527,4.637,4.637,0,0,1,2.593.5A1.41,1.41,0,0,1,81.929,17.4Zm-9.564,1.013c-.037.133-.077.272-.117.408A2.259,2.259,0,0,1,71.2,20.173a3.415,3.415,0,0,1-1.721.425,3.875,3.875,0,0,1-1.7-.377c-1.42-.715-1.436-2.8-1.436-2.823a1.408,1.408,0,0,1,.278-1.043,4.637,4.637,0,0,1,2.593-.5,6.241,6.241,0,0,1,2.928.527C72.781,16.879,72.478,18,72.366,18.412Zm.1,22.3L67.42,33.762c.064-.046.128-.095.192-.145a4.984,4.984,0,0,0,.758-.75l4.067,1.886L71.568,36.2l1.344,1.425Zm-3.517-8.8a4.323,4.323,0,0,0,.322-1.256,4.923,4.923,0,0,0,.052-.728,14.175,14.175,0,0,0-.343-2.972l-.049-.216-.149-.16a7.378,7.378,0,0,1-1.126-1.616,19.1,19.1,0,0,1-1.121-2.622l-.123-.352-.352-.127A3.23,3.23,0,0,1,64.392,20.5a6.116,6.116,0,0,1-.753-1.94,2.091,2.091,0,0,1,.183-1.434,2.848,2.848,0,0,1,.521-.715,11.908,11.908,0,0,0,.773,1.095c.118.118.2.1.256,0a4.117,4.117,0,0,0,1.91,3.334c1.917,1.018,4.776.637,5.746-1.629.44-1.022.446-2.022,1.106-2.022s.668,1,1.106,2.022c.972,2.266,3.832,2.647,5.746,1.629s1.93-3.536,1.93-3.713c0-.1.108-.179.256-.179a.242.242,0,0,0,.14-.046c.064.3.1.482.1.482s.185-.349.456-.815a2.738,2.738,0,0,1,.4.615,2.158,2.158,0,0,1,.205.907,2.078,2.078,0,0,1-.053.468,6.863,6.863,0,0,1-.47,1.415,3.873,3.873,0,0,1-.91,1.273A3.2,3.2,0,0,1,82,21.863l-.35.127-.124.35a19.1,19.1,0,0,1-1.121,2.626,7.454,7.454,0,0,1-1.126,1.615l-.152.161-.046.214a14.036,14.036,0,0,0-.344,2.969,5.161,5.161,0,0,0,.052.73,4.344,4.344,0,0,0,.278,1.151l.022.05-4.813,2.527Zm7.048,9.135-.5-3.421L76.842,36.2l-.872-1.452,3.678-1.934a4.126,4.126,0,0,0,.325.372,5.483,5.483,0,0,0,.68.588Z" transform="translate(0 0)"/>
    </g>
    <text id="ヘルプデスク" transform="translate(640 2677)" font-size="14" font-family="YuGothicUI-Regular, Yu Gothic UI"><tspan x="0" y="0">ヘルプデスク</tspan></text>
    <g id="コールセンターの人物アイコン素材_その3" data-name="コールセンターの人物アイコン素材 その3" transform="translate(600.46 2612.461)">
      <path id="パス_772" data-name="パス 772" d="M92.692,324.552l-.327-1.893a5.212,5.212,0,0,0-3.033-3.79L82.443,315.7c-.846-.388-1.088-1.614-1.112-1.68a.441.441,0,0,0-.395-.177h-.017a.408.408,0,0,0-.345.286l-.795,2.79-4.967,9.013-4.954-8.983-.808-2.82a.429.429,0,0,0-.405-.29.422.422,0,0,0-.373.235,2.468,2.468,0,0,1-1.09,1.627l-6.89,3.165a5.213,5.213,0,0,0-3.032,3.79l-.327,1.893a2.44,2.44,0,0,0,.76,2.3c.083.062.187.154.319.272,1.268,1.125,5.127,4.549,16.8,4.549s15.533-3.424,16.8-4.549c.132-.117.236-.21.32-.272A2.439,2.439,0,0,0,92.692,324.552Z" transform="translate(0 -285.598)"/>
      <path id="パス_773" data-name="パス 773" d="M166.776,59.195c1.669,3.133,3.956,7.425,4.953,8.048l.189.118.694-5.419a8.269,8.269,0,0,0-2.155-6.345,9.713,9.713,0,0,0-13.93,0,8.271,8.271,0,0,0-2.155,6.351L155,67.312l.211-.231a12.046,12.046,0,0,1,2.214-1.6,24.8,24.8,0,0,0,8.466-7.931C166.147,58.015,166.447,58.576,166.776,59.195Z" transform="translate(-88.681 -47.915)"/>
      <path id="パス_774" data-name="パス 774" d="M92.451,21.84a1.069,1.069,0,0,0,1.042.822,1.088,1.088,0,0,0,.251-.03l1.807-.434a1.067,1.067,0,0,0,.749-.664l.074,0L96.34,21.4a1.062,1.062,0,0,0,0-.5l-.942-3.9a21.773,21.773,0,0,1-.34-3.455,11.239,11.239,0,1,1,22.479,0,21.1,21.1,0,0,1-.357,3.5l-.925,3.855a.983.983,0,0,0-.025.176l-.037.082a7.066,7.066,0,0,1-5.127,3.48,1.154,1.154,0,0,0-1.017-.605h-2.331a1.158,1.158,0,0,0-1.157,1.157v.912a1.158,1.158,0,0,0,1.157,1.157h2.331a1.157,1.157,0,0,0,1.083-.762,9.914,9.914,0,0,0,4.759-2.125,8.168,8.168,0,0,0,1.753-2.036l1.21.29a1.086,1.086,0,0,0,.251.03,1.069,1.069,0,0,0,1.042-.822l.925-3.855a1.074,1.074,0,0,0-.792-1.293l-.668-.16a21.834,21.834,0,0,0,.239-2.979,13.553,13.553,0,0,0-27.106,0,21.815,21.815,0,0,0,.239,2.979l-.669.161a1.074,1.074,0,0,0-.792,1.293Z" transform="translate(-31.488)"/>
    </g>
    <text id="サービスマネージャー" transform="translate(678 2809)" font-size="14" font-family="YuGothicUI-Regular, Yu Gothic UI"><tspan x="-51.037" y="0">サービスマネージャー</tspan></text>
    <g id="サラリーマン" transform="translate(600.571 2743.15)">
      <path id="パス_775" data-name="パス 775" d="M93.094,40.71a7.564,7.564,0,0,0-2.987-4.3,12.239,12.239,0,0,0-2.006-1.16c-1.036-.485-2.1-.859-3.073-1.22A16.253,16.253,0,0,1,82.462,32.9a5.331,5.331,0,0,1-.682-.469,2.964,2.964,0,0,1-.691-.805,2.578,2.578,0,0,1-.323-1.039,7.983,7.983,0,0,1-.044-.838,10.067,10.067,0,0,1,.262-2.154A9.323,9.323,0,0,0,82.2,25.811a19.372,19.372,0,0,0,1.1-2.51,4.732,4.732,0,0,0,2.1-1.859A7.682,7.682,0,0,0,86.364,19a3.673,3.673,0,0,0-.263-2.392,4.236,4.236,0,0,0-.58-.912c.117-.431.259-1.012.385-1.692a18.155,18.155,0,0,0,.32-3.271,12.013,12.013,0,0,0-.216-2.347,8.528,8.528,0,0,0-.533-1.73,6.432,6.432,0,0,0-1.633-2.282,6.764,6.764,0,0,0-2.57-1.4A9.415,9.415,0,0,0,79.92,1.645a7.261,7.261,0,0,0-2.453-1.3A8.778,8.778,0,0,0,74.921,0c-.448,0-.9.025-1.345.065-.42.038-.77.081-1.082.135a7.394,7.394,0,0,0-1.226.311c-.374.129-.734.28-1.206.465-.179.071-.413.175-.7.318A12.276,12.276,0,0,0,67.55,2.421a11.634,11.634,0,0,0-3.034,3.3A10.221,10.221,0,0,0,63.434,8.2a11,11,0,0,0-.42,3.058,13.454,13.454,0,0,0,.189,2.2c0,.053,0,.107.006.157.006.095.016.2.027.3.016.152.034.311.047.444.007.065.013.124.018.172,0,.022,0,.041,0,.056v.108l.188.836a4.378,4.378,0,0,0-.685.989,3.721,3.721,0,0,0-.4,1.677,3.681,3.681,0,0,0,.09.814,8.461,8.461,0,0,0,.58,1.739,5.434,5.434,0,0,0,1.291,1.782,4.716,4.716,0,0,0,1.2.777,19.318,19.318,0,0,0,1.1,2.509A9.236,9.236,0,0,0,67.874,27.6a10.155,10.155,0,0,1,.262,2.155,7.943,7.943,0,0,1-.043.838,2.717,2.717,0,0,1-.184.752,2.623,2.623,0,0,1-.6.879,4.855,4.855,0,0,1-1.011.739,11.957,11.957,0,0,1-1.4.657c-.9.366-1.933.712-2.978,1.126a16.884,16.884,0,0,0-2.333,1.116,9.473,9.473,0,0,0-1.615,1.18,7.377,7.377,0,0,0-1.847,2.608,9.632,9.632,0,0,0-.7,3.8,1.62,1.62,0,0,0,.117.594,2.131,2.131,0,0,0,.269.481,3.731,3.731,0,0,0,.8.774,9.655,9.655,0,0,0,2.319,1.192,28.963,28.963,0,0,0,6.017,1.421,68.09,68.09,0,0,0,9.479.591,71.052,71.052,0,0,0,8.425-.454,38.7,38.7,0,0,0,4.569-.8,21.725,21.725,0,0,0,2.519-.768,11.989,11.989,0,0,0,1.422-.634,7.268,7.268,0,0,0,.82-.506,3.765,3.765,0,0,0,.87-.835,2.217,2.217,0,0,0,.268-.49,1.637,1.637,0,0,0,.105-.565A10.582,10.582,0,0,0,93.094,40.71Zm-20.319.715-5.592-7.149a6.824,6.824,0,0,0,.827-.563,4.859,4.859,0,0,0,.759-.752l4.066,1.887L71.968,36.3l1.344,1.425Zm-3.429-9.418a4.219,4.219,0,0,0,.321-1.255,9.492,9.492,0,0,0,.053-1,12.355,12.355,0,0,0-.342-2.7l-.049-.215-.151-.16a7.476,7.476,0,0,1-1.125-1.615,19.237,19.237,0,0,1-1.12-2.623l-.124-.351-.349-.129a3.25,3.25,0,0,1-.7-.355,3.368,3.368,0,0,1-.962-1.009,6.116,6.116,0,0,1-.755-1.939,2.109,2.109,0,0,1,.185-1.436,2.771,2.771,0,0,1,.521-.713,11.228,11.228,0,0,0,.774,1.094c.355.357.244.247.363.071,0,0,.4-.568,2.541-4.726C72.7,13.9,80.17,7.473,80.17,7.473a7.888,7.888,0,0,0,1.516,3.974c1.351,1.8,2.123,6.035,2.123,6.035s.184-.348.457-.816a2.657,2.657,0,0,1,.4.613,2.105,2.105,0,0,1,.155,1.375,6.913,6.913,0,0,1-.471,1.416,3.834,3.834,0,0,1-.91,1.271,3.172,3.172,0,0,1-1.039.617l-.349.127-.124.351a19.114,19.114,0,0,1-1.12,2.624,7.418,7.418,0,0,1-1.126,1.616l-.151.16-.047.216a12.213,12.213,0,0,0-.343,2.7,9.906,9.906,0,0,0,.052,1,4.287,4.287,0,0,0,.278,1.152.469.469,0,0,0,.021.047l-4.812,2.531Zm7.125,9.677L75.9,37.722,77.241,36.3l-.87-1.454,3.678-1.933a4.123,4.123,0,0,0,.324.374,6.02,6.02,0,0,0,1.237.953Z" transform="translate(0 0)"/>
    </g>
    <g id="グループ_2549" data-name="グループ 2549" transform="translate(10608 5034)">
      <text id="整" transform="translate(-9729 -2343)" font-size="14" font-family="YuGothicUI-Bold, Yu Gothic UI" font-weight="700"><tspan x="0" y="0">整</tspan></text>
      <text id="備" transform="translate(-9729 -2329)" font-size="14" font-family="YuGothicUI-Bold, Yu Gothic UI" font-weight="700"><tspan x="0" y="0">備</tspan></text>
    </g>
    <g id="グループ_2550" data-name="グループ 2550" transform="translate(10608 5036)">
      <text id="保" transform="translate(-9729 -2306)" font-size="14" font-family="YuGothicUI-Bold, Yu Gothic UI" font-weight="700"><tspan x="0" y="0">保</tspan></text>
      <text id="全" transform="translate(-9729 -2292)" font-size="14" font-family="YuGothicUI-Bold, Yu Gothic UI" font-weight="700"><tspan x="0" y="0">全</tspan></text>
    </g>
    <text id="サービス_提供環境" data-name="サービス
提供環境" transform="translate(958 2726)" font-size="14" font-family="YuGothicUI-Regular, Yu Gothic UI"><tspan x="-20.474" y="0">サービス</tspan><tspan y="0" font-family="Roboto-Regular, Roboto"></tspan><tspan x="-28" y="18">提供環境</tspan></text>
    <path id="パス_777" data-name="パス 777" d="M75.582,6.182H0v-1H72.287L65.156.416l.556-.831Z" transform="translate(850.191 2706.818)" fill="#070f26"/>
    <g id="ビルのアイコン" transform="translate(849.954 2667.727)">
      <path id="パス_778" data-name="パス 778" d="M96,0V38.547h9.637V32.524h4.818v6.023h9.637V0Zm6.625,24.493H99.011V19.675h3.614Zm0-8.432H99.011V11.242h3.614Zm0-8.432H99.011V2.81h3.614Zm7.228,16.864h-3.614V19.675h3.614Zm0-8.432h-3.614V11.242h3.614Zm0-8.432h-3.614V2.81h3.614Zm7.228,16.864h-3.614V19.675h3.614Zm0-8.432h-3.614V11.242h3.614Zm0-8.432h-3.614V2.81h3.614Z"/>
    </g>
    <text id="ユーザー" transform="translate(480 2657)" fill="#00b176" font-size="14" font-family="YuGothicUI-Bold, Yu Gothic UI" font-weight="700"><tspan x="0" y="0">ユーザー</tspan></text>
    <text id="情報システム_部門" data-name="情報システム
部門" transform="translate(522 2761.15)" fill="#00b176" font-size="14" font-family="YuGothicUI-Bold, Yu Gothic UI" font-weight="700"><tspan x="-72.276" y="0">情報システム</tspan><tspan y="0" font-family="Roboto-Bold, Roboto"></tspan><tspan x="-28" y="20">部門</tspan></text>
    <g id="グループ_2551" data-name="グループ 2551" transform="translate(19.817 -135)">
      <text id="サ" transform="translate(557.683 2825)" fill="#8246af" font-size="16" font-family="YuGothicUI-Bold, Yu Gothic UI" font-weight="700"><tspan x="0" y="0">サ</tspan></text>
      <text id="ポ" transform="translate(557.683 2842)" fill="#8246af" font-size="16" font-family="YuGothicUI-Bold, Yu Gothic UI" font-weight="700"><tspan x="0" y="0">ポ</tspan></text>
      <text id="_ー" data-name="ー" transform="translate(557.683 2846) rotate(90)" fill="#8246af" font-size="16" font-family="YuGothicUI-Bold, Yu Gothic UI" font-weight="700"><tspan x="0" y="0">ー</tspan></text>
      <text id="ト" transform="translate(558.683 2872)" fill="#8246af" font-size="16" font-family="YuGothicUI-Bold, Yu Gothic UI" font-weight="700"><tspan x="0" y="0">ト</tspan></text>
    </g>
    <path id="パス_780" data-name="パス 780" d="M79.935,6.182H-1.648l9.87-6.6.556.831L1.648,5.182H79.935Z" transform="translate(540.874 2760.474)" fill="#8246af"/>
    <path id="パス_781" data-name="パス 781" d="M79.935,6.182H-1.648l9.87-6.6.556.831L1.648,5.182H79.935Z" transform="translate(540.874 2645.819)" fill="#8246af"/>
  </g>
</svg>
